G75*
%MOIN*%
%OFA0B0*%
%FSLAX25Y25*%
%IPPOS*%
%LPD*%
%AMOC8*
5,1,8,0,0,1.08239X$1,22.5*
%
%ADD10C,0.08200*%
%ADD11C,0.06000*%
%ADD12C,0.08400*%
%ADD13R,0.02178X0.06312*%
%ADD14R,0.07887X0.08280*%
%ADD15R,0.08280X0.08280*%
%ADD16C,0.03778*%
D10*
X0009333Y0047275D03*
X0009333Y0057275D03*
X0009333Y0077275D03*
X0009333Y0087275D03*
X0009333Y0107275D03*
X0009333Y0117275D03*
X0009333Y0127275D03*
X0009333Y0137275D03*
X0009333Y0147275D03*
X0009333Y0157275D03*
X0009333Y0167275D03*
X0009333Y0177275D03*
X0054333Y0107275D03*
X0054333Y0097275D03*
X0054333Y0087275D03*
X0054333Y0057275D03*
X0054333Y0047275D03*
X0039333Y0057275D03*
X0029333Y0057275D03*
X0111333Y0014275D03*
X0121333Y0014275D03*
X0131333Y0014275D03*
X0141333Y0014275D03*
X0151333Y0014275D03*
X0149333Y0027275D03*
X0139333Y0027275D03*
X0124333Y0027275D03*
X0124333Y0037275D03*
X0124333Y0047275D03*
X0139333Y0047275D03*
X0149333Y0047275D03*
X0149333Y0062275D03*
X0139333Y0062275D03*
X0149333Y0077275D03*
X0149333Y0087275D03*
X0134333Y0097275D03*
X0124333Y0097275D03*
X0124333Y0117275D03*
X0124333Y0127275D03*
X0149333Y0127275D03*
X0149333Y0117275D03*
X0149333Y0107275D03*
X0149333Y0137275D03*
X0149333Y0147275D03*
X0149333Y0157275D03*
X0149333Y0167275D03*
X0149333Y0177275D03*
X0119333Y0192275D03*
X0109333Y0192275D03*
X0079333Y0192275D03*
X0069333Y0192275D03*
D11*
X0066733Y0177275D02*
X0071933Y0177275D01*
X0071933Y0167275D02*
X0066733Y0167275D01*
X0066733Y0157275D02*
X0071933Y0157275D01*
X0071933Y0147275D02*
X0066733Y0147275D01*
X0066733Y0137275D02*
X0071933Y0137275D01*
X0071933Y0127275D02*
X0066733Y0127275D01*
X0066733Y0117275D02*
X0071933Y0117275D01*
X0071933Y0107275D02*
X0066733Y0107275D01*
X0066733Y0097275D02*
X0071933Y0097275D01*
X0071933Y0087275D02*
X0066733Y0087275D01*
X0066733Y0077275D02*
X0071933Y0077275D01*
X0071933Y0067275D02*
X0066733Y0067275D01*
X0066733Y0057275D02*
X0071933Y0057275D01*
X0071933Y0047275D02*
X0066733Y0047275D01*
X0106733Y0047275D02*
X0111933Y0047275D01*
X0111933Y0057275D02*
X0106733Y0057275D01*
X0106733Y0067275D02*
X0111933Y0067275D01*
X0111933Y0077275D02*
X0106733Y0077275D01*
X0106733Y0087275D02*
X0111933Y0087275D01*
X0111933Y0097275D02*
X0106733Y0097275D01*
X0106733Y0107275D02*
X0111933Y0107275D01*
X0111933Y0117275D02*
X0106733Y0117275D01*
X0106733Y0127275D02*
X0111933Y0127275D01*
X0111933Y0137275D02*
X0106733Y0137275D01*
X0106733Y0147275D02*
X0111933Y0147275D01*
X0111933Y0157275D02*
X0106733Y0157275D01*
X0106733Y0167275D02*
X0111933Y0167275D01*
X0111933Y0177275D02*
X0106733Y0177275D01*
D12*
X0049333Y0192275D03*
X0029333Y0192275D03*
X0024333Y0077275D03*
X0044333Y0077275D03*
D13*
X0079215Y0022709D03*
X0081774Y0022709D03*
X0084333Y0022709D03*
X0086892Y0022709D03*
X0089451Y0022709D03*
D14*
X0100081Y0012275D03*
X0068585Y0012275D03*
D15*
X0079333Y0012275D03*
X0089333Y0012275D03*
D16*
X0089333Y0117275D03*
M02*
