G75*
%MOIN*%
%OFA0B0*%
%FSLAX25Y25*%
%IPPOS*%
%LPD*%
%AMOC8*
5,1,8,0,0,1.08239X$1,22.5*
%
%ADD10C,0.00600*%
%ADD11C,0.00800*%
%ADD12C,0.00100*%
%ADD13C,0.01000*%
%ADD14C,0.02400*%
D10*
X0003633Y0007075D02*
X0003633Y0013475D01*
X0006478Y0013475D01*
X0005767Y0010631D02*
X0003633Y0010631D01*
X0003633Y0007075D02*
X0006478Y0007075D01*
X0008967Y0007075D02*
X0008967Y0013475D01*
X0011811Y0013475D01*
X0014068Y0012053D02*
X0014068Y0008498D01*
X0014070Y0008424D01*
X0014076Y0008349D01*
X0014086Y0008276D01*
X0014099Y0008202D01*
X0014116Y0008130D01*
X0014138Y0008059D01*
X0014162Y0007988D01*
X0014191Y0007920D01*
X0014223Y0007852D01*
X0014259Y0007787D01*
X0014297Y0007724D01*
X0014340Y0007662D01*
X0014385Y0007603D01*
X0014433Y0007546D01*
X0014484Y0007492D01*
X0014538Y0007441D01*
X0014595Y0007393D01*
X0014654Y0007348D01*
X0014716Y0007305D01*
X0014779Y0007267D01*
X0014844Y0007231D01*
X0014912Y0007199D01*
X0014980Y0007170D01*
X0015051Y0007146D01*
X0015122Y0007124D01*
X0015194Y0007107D01*
X0015268Y0007094D01*
X0015341Y0007084D01*
X0015416Y0007078D01*
X0015490Y0007076D01*
X0015490Y0007075D02*
X0016912Y0007075D01*
X0021851Y0009742D02*
X0021915Y0009702D01*
X0021976Y0009659D01*
X0022035Y0009613D01*
X0022092Y0009564D01*
X0022146Y0009512D01*
X0022197Y0009458D01*
X0022245Y0009400D01*
X0022291Y0009341D01*
X0022333Y0009279D01*
X0022372Y0009214D01*
X0022407Y0009148D01*
X0022439Y0009081D01*
X0022468Y0009011D01*
X0022493Y0008941D01*
X0022514Y0008869D01*
X0022531Y0008796D01*
X0022545Y0008722D01*
X0022554Y0008648D01*
X0022560Y0008573D01*
X0022562Y0008498D01*
X0022560Y0008424D01*
X0022554Y0008349D01*
X0022544Y0008276D01*
X0022531Y0008202D01*
X0022514Y0008130D01*
X0022492Y0008059D01*
X0022468Y0007988D01*
X0022439Y0007920D01*
X0022407Y0007852D01*
X0022371Y0007787D01*
X0022333Y0007724D01*
X0022290Y0007662D01*
X0022245Y0007603D01*
X0022197Y0007546D01*
X0022146Y0007492D01*
X0022092Y0007441D01*
X0022035Y0007393D01*
X0021976Y0007348D01*
X0021914Y0007305D01*
X0021851Y0007267D01*
X0021786Y0007231D01*
X0021718Y0007199D01*
X0021650Y0007170D01*
X0021579Y0007146D01*
X0021508Y0007124D01*
X0021436Y0007107D01*
X0021362Y0007094D01*
X0021289Y0007084D01*
X0021214Y0007078D01*
X0021140Y0007076D01*
X0021851Y0009742D02*
X0019896Y0010809D01*
X0020607Y0013476D02*
X0020708Y0013474D01*
X0020809Y0013468D01*
X0020909Y0013459D01*
X0021009Y0013445D01*
X0021109Y0013428D01*
X0021208Y0013408D01*
X0021305Y0013383D01*
X0021402Y0013355D01*
X0021498Y0013323D01*
X0021593Y0013287D01*
X0021686Y0013248D01*
X0021777Y0013206D01*
X0021867Y0013160D01*
X0021955Y0013110D01*
X0022041Y0013058D01*
X0022125Y0013002D01*
X0022207Y0012943D01*
X0019896Y0010809D02*
X0019832Y0010849D01*
X0019771Y0010892D01*
X0019712Y0010938D01*
X0019655Y0010987D01*
X0019601Y0011039D01*
X0019550Y0011093D01*
X0019502Y0011151D01*
X0019456Y0011210D01*
X0019414Y0011272D01*
X0019375Y0011337D01*
X0019340Y0011403D01*
X0019308Y0011470D01*
X0019279Y0011540D01*
X0019254Y0011610D01*
X0019233Y0011682D01*
X0019216Y0011755D01*
X0019202Y0011829D01*
X0019193Y0011903D01*
X0019187Y0011978D01*
X0019185Y0012053D01*
X0019187Y0012127D01*
X0019193Y0012202D01*
X0019203Y0012275D01*
X0019216Y0012349D01*
X0019233Y0012421D01*
X0019255Y0012492D01*
X0019279Y0012563D01*
X0019308Y0012631D01*
X0019340Y0012699D01*
X0019376Y0012764D01*
X0019414Y0012827D01*
X0019457Y0012889D01*
X0019502Y0012948D01*
X0019550Y0013005D01*
X0019601Y0013059D01*
X0019656Y0013110D01*
X0019712Y0013158D01*
X0019771Y0013203D01*
X0019833Y0013246D01*
X0019896Y0013284D01*
X0019961Y0013320D01*
X0020029Y0013352D01*
X0020097Y0013381D01*
X0020168Y0013405D01*
X0020239Y0013427D01*
X0020311Y0013444D01*
X0020385Y0013457D01*
X0020458Y0013467D01*
X0020533Y0013473D01*
X0020607Y0013475D01*
X0019007Y0007965D02*
X0019084Y0007890D01*
X0019164Y0007817D01*
X0019247Y0007748D01*
X0019332Y0007681D01*
X0019419Y0007618D01*
X0019508Y0007558D01*
X0019600Y0007501D01*
X0019693Y0007447D01*
X0019789Y0007397D01*
X0019886Y0007350D01*
X0019985Y0007307D01*
X0020085Y0007267D01*
X0020186Y0007231D01*
X0020289Y0007199D01*
X0020393Y0007170D01*
X0020498Y0007145D01*
X0020604Y0007124D01*
X0020710Y0007107D01*
X0020817Y0007093D01*
X0020925Y0007084D01*
X0021032Y0007078D01*
X0021140Y0007076D01*
X0015490Y0013475D02*
X0015416Y0013473D01*
X0015341Y0013467D01*
X0015268Y0013457D01*
X0015194Y0013444D01*
X0015122Y0013427D01*
X0015051Y0013405D01*
X0014980Y0013381D01*
X0014912Y0013352D01*
X0014844Y0013320D01*
X0014779Y0013284D01*
X0014716Y0013246D01*
X0014654Y0013203D01*
X0014595Y0013158D01*
X0014538Y0013110D01*
X0014484Y0013059D01*
X0014433Y0013004D01*
X0014385Y0012948D01*
X0014340Y0012889D01*
X0014297Y0012827D01*
X0014259Y0012764D01*
X0014223Y0012699D01*
X0014191Y0012631D01*
X0014162Y0012563D01*
X0014138Y0012492D01*
X0014116Y0012421D01*
X0014099Y0012349D01*
X0014086Y0012275D01*
X0014076Y0012202D01*
X0014070Y0012127D01*
X0014068Y0012053D01*
X0015490Y0013475D02*
X0016912Y0013475D01*
X0016877Y0017575D02*
X0016877Y0020775D01*
X0016878Y0020775D02*
X0016876Y0020839D01*
X0016870Y0020904D01*
X0016861Y0020967D01*
X0016847Y0021030D01*
X0016830Y0021092D01*
X0016809Y0021153D01*
X0016784Y0021213D01*
X0016756Y0021271D01*
X0016724Y0021327D01*
X0016689Y0021381D01*
X0016651Y0021433D01*
X0016610Y0021483D01*
X0016565Y0021529D01*
X0016519Y0021574D01*
X0016469Y0021615D01*
X0016417Y0021653D01*
X0016363Y0021688D01*
X0016307Y0021720D01*
X0016249Y0021748D01*
X0016189Y0021773D01*
X0016128Y0021794D01*
X0016066Y0021811D01*
X0016003Y0021825D01*
X0015940Y0021834D01*
X0015875Y0021840D01*
X0015811Y0021842D01*
X0014033Y0021842D01*
X0014033Y0023975D02*
X0014033Y0017575D01*
X0011339Y0018998D02*
X0011339Y0020420D01*
X0011338Y0020420D02*
X0011336Y0020494D01*
X0011330Y0020569D01*
X0011320Y0020642D01*
X0011307Y0020716D01*
X0011290Y0020788D01*
X0011268Y0020859D01*
X0011244Y0020930D01*
X0011215Y0020998D01*
X0011183Y0021066D01*
X0011147Y0021131D01*
X0011109Y0021194D01*
X0011066Y0021256D01*
X0011021Y0021315D01*
X0010973Y0021372D01*
X0010922Y0021426D01*
X0010868Y0021477D01*
X0010811Y0021525D01*
X0010752Y0021570D01*
X0010690Y0021613D01*
X0010627Y0021651D01*
X0010562Y0021687D01*
X0010494Y0021719D01*
X0010426Y0021748D01*
X0010355Y0021772D01*
X0010284Y0021794D01*
X0010212Y0021811D01*
X0010138Y0021824D01*
X0010065Y0021834D01*
X0009990Y0021840D01*
X0009916Y0021842D01*
X0009842Y0021840D01*
X0009767Y0021834D01*
X0009694Y0021824D01*
X0009620Y0021811D01*
X0009548Y0021794D01*
X0009477Y0021772D01*
X0009406Y0021748D01*
X0009338Y0021719D01*
X0009270Y0021687D01*
X0009205Y0021651D01*
X0009142Y0021613D01*
X0009080Y0021570D01*
X0009021Y0021525D01*
X0008964Y0021477D01*
X0008910Y0021426D01*
X0008859Y0021372D01*
X0008811Y0021315D01*
X0008766Y0021256D01*
X0008723Y0021194D01*
X0008685Y0021131D01*
X0008649Y0021066D01*
X0008617Y0020998D01*
X0008588Y0020930D01*
X0008564Y0020859D01*
X0008542Y0020788D01*
X0008525Y0020716D01*
X0008512Y0020642D01*
X0008502Y0020569D01*
X0008496Y0020494D01*
X0008494Y0020420D01*
X0008494Y0018998D01*
X0008496Y0018924D01*
X0008502Y0018849D01*
X0008512Y0018776D01*
X0008525Y0018702D01*
X0008542Y0018630D01*
X0008564Y0018559D01*
X0008588Y0018488D01*
X0008617Y0018420D01*
X0008649Y0018352D01*
X0008685Y0018287D01*
X0008723Y0018224D01*
X0008766Y0018162D01*
X0008811Y0018103D01*
X0008859Y0018046D01*
X0008910Y0017992D01*
X0008964Y0017941D01*
X0009021Y0017893D01*
X0009080Y0017848D01*
X0009142Y0017805D01*
X0009205Y0017767D01*
X0009270Y0017731D01*
X0009338Y0017699D01*
X0009406Y0017670D01*
X0009477Y0017646D01*
X0009548Y0017624D01*
X0009620Y0017607D01*
X0009694Y0017594D01*
X0009767Y0017584D01*
X0009842Y0017578D01*
X0009916Y0017576D01*
X0009990Y0017578D01*
X0010065Y0017584D01*
X0010138Y0017594D01*
X0010212Y0017607D01*
X0010284Y0017624D01*
X0010355Y0017646D01*
X0010426Y0017670D01*
X0010494Y0017699D01*
X0010562Y0017731D01*
X0010627Y0017767D01*
X0010690Y0017805D01*
X0010752Y0017848D01*
X0010811Y0017893D01*
X0010868Y0017941D01*
X0010922Y0017992D01*
X0010973Y0018046D01*
X0011021Y0018103D01*
X0011066Y0018162D01*
X0011109Y0018224D01*
X0011147Y0018287D01*
X0011183Y0018352D01*
X0011215Y0018420D01*
X0011244Y0018488D01*
X0011268Y0018559D01*
X0011290Y0018630D01*
X0011307Y0018702D01*
X0011320Y0018776D01*
X0011330Y0018849D01*
X0011336Y0018924D01*
X0011338Y0018998D01*
X0005767Y0018998D02*
X0005767Y0023975D01*
X0005766Y0018998D02*
X0005764Y0018924D01*
X0005758Y0018849D01*
X0005748Y0018776D01*
X0005735Y0018702D01*
X0005718Y0018630D01*
X0005696Y0018559D01*
X0005672Y0018488D01*
X0005643Y0018420D01*
X0005611Y0018352D01*
X0005575Y0018287D01*
X0005537Y0018224D01*
X0005494Y0018162D01*
X0005449Y0018103D01*
X0005401Y0018046D01*
X0005350Y0017992D01*
X0005296Y0017941D01*
X0005239Y0017893D01*
X0005180Y0017848D01*
X0005118Y0017805D01*
X0005055Y0017767D01*
X0004990Y0017731D01*
X0004922Y0017699D01*
X0004854Y0017670D01*
X0004783Y0017646D01*
X0004712Y0017624D01*
X0004640Y0017607D01*
X0004566Y0017594D01*
X0004493Y0017584D01*
X0004418Y0017578D01*
X0004344Y0017576D01*
X0004344Y0017575D02*
X0003633Y0017575D01*
X0008967Y0010631D02*
X0011100Y0010631D01*
X0011811Y0007075D02*
X0008967Y0007075D01*
X0019777Y0017575D02*
X0019777Y0021842D01*
X0021554Y0021842D01*
X0021618Y0021840D01*
X0021683Y0021834D01*
X0021746Y0021825D01*
X0021809Y0021811D01*
X0021871Y0021794D01*
X0021932Y0021773D01*
X0021992Y0021748D01*
X0022050Y0021720D01*
X0022106Y0021688D01*
X0022160Y0021653D01*
X0022212Y0021615D01*
X0022262Y0021574D01*
X0022308Y0021529D01*
X0022353Y0021483D01*
X0022394Y0021433D01*
X0022432Y0021381D01*
X0022467Y0021327D01*
X0022499Y0021271D01*
X0022527Y0021213D01*
X0022552Y0021153D01*
X0022573Y0021092D01*
X0022590Y0021030D01*
X0022604Y0020967D01*
X0022613Y0020904D01*
X0022619Y0020839D01*
X0022621Y0020775D01*
X0022621Y0017575D01*
X0028857Y0018998D02*
X0028857Y0022553D01*
X0028859Y0022627D01*
X0028865Y0022702D01*
X0028875Y0022775D01*
X0028888Y0022849D01*
X0028905Y0022921D01*
X0028927Y0022992D01*
X0028951Y0023063D01*
X0028980Y0023131D01*
X0029012Y0023199D01*
X0029048Y0023264D01*
X0029086Y0023327D01*
X0029129Y0023389D01*
X0029174Y0023448D01*
X0029222Y0023504D01*
X0029273Y0023559D01*
X0029327Y0023610D01*
X0029384Y0023658D01*
X0029443Y0023703D01*
X0029505Y0023746D01*
X0029568Y0023784D01*
X0029633Y0023820D01*
X0029701Y0023852D01*
X0029769Y0023881D01*
X0029840Y0023905D01*
X0029911Y0023927D01*
X0029983Y0023944D01*
X0030057Y0023957D01*
X0030130Y0023967D01*
X0030205Y0023973D01*
X0030279Y0023975D01*
X0032413Y0023975D01*
X0032413Y0021131D02*
X0032413Y0017575D01*
X0030279Y0017575D01*
X0030279Y0017576D02*
X0030205Y0017578D01*
X0030130Y0017584D01*
X0030057Y0017594D01*
X0029983Y0017607D01*
X0029911Y0017624D01*
X0029840Y0017646D01*
X0029769Y0017670D01*
X0029701Y0017699D01*
X0029633Y0017731D01*
X0029568Y0017767D01*
X0029505Y0017805D01*
X0029443Y0017848D01*
X0029384Y0017893D01*
X0029327Y0017941D01*
X0029273Y0017992D01*
X0029222Y0018046D01*
X0029174Y0018103D01*
X0029129Y0018162D01*
X0029086Y0018224D01*
X0029048Y0018287D01*
X0029012Y0018352D01*
X0028980Y0018420D01*
X0028951Y0018488D01*
X0028927Y0018559D01*
X0028905Y0018630D01*
X0028888Y0018702D01*
X0028875Y0018776D01*
X0028865Y0018849D01*
X0028859Y0018924D01*
X0028857Y0018998D01*
X0031346Y0021131D02*
X0032413Y0021131D01*
X0035148Y0021842D02*
X0035148Y0017575D01*
X0037862Y0017575D02*
X0037862Y0021842D01*
X0039995Y0021842D01*
X0039995Y0021131D01*
X0041931Y0020420D02*
X0041931Y0018998D01*
X0041933Y0018924D01*
X0041939Y0018849D01*
X0041949Y0018776D01*
X0041962Y0018702D01*
X0041979Y0018630D01*
X0042001Y0018559D01*
X0042025Y0018488D01*
X0042054Y0018420D01*
X0042086Y0018352D01*
X0042122Y0018287D01*
X0042160Y0018224D01*
X0042203Y0018162D01*
X0042248Y0018103D01*
X0042296Y0018046D01*
X0042347Y0017992D01*
X0042401Y0017941D01*
X0042458Y0017893D01*
X0042517Y0017848D01*
X0042579Y0017805D01*
X0042642Y0017767D01*
X0042707Y0017731D01*
X0042775Y0017699D01*
X0042843Y0017670D01*
X0042914Y0017646D01*
X0042985Y0017624D01*
X0043057Y0017607D01*
X0043131Y0017594D01*
X0043204Y0017584D01*
X0043279Y0017578D01*
X0043353Y0017576D01*
X0043427Y0017578D01*
X0043502Y0017584D01*
X0043575Y0017594D01*
X0043649Y0017607D01*
X0043721Y0017624D01*
X0043792Y0017646D01*
X0043863Y0017670D01*
X0043931Y0017699D01*
X0043999Y0017731D01*
X0044064Y0017767D01*
X0044127Y0017805D01*
X0044189Y0017848D01*
X0044248Y0017893D01*
X0044305Y0017941D01*
X0044359Y0017992D01*
X0044410Y0018046D01*
X0044458Y0018103D01*
X0044503Y0018162D01*
X0044546Y0018224D01*
X0044584Y0018287D01*
X0044620Y0018352D01*
X0044652Y0018420D01*
X0044681Y0018488D01*
X0044705Y0018559D01*
X0044727Y0018630D01*
X0044744Y0018702D01*
X0044757Y0018776D01*
X0044767Y0018849D01*
X0044773Y0018924D01*
X0044775Y0018998D01*
X0044776Y0018998D02*
X0044776Y0020420D01*
X0044775Y0020420D02*
X0044773Y0020494D01*
X0044767Y0020569D01*
X0044757Y0020642D01*
X0044744Y0020716D01*
X0044727Y0020788D01*
X0044705Y0020859D01*
X0044681Y0020930D01*
X0044652Y0020998D01*
X0044620Y0021066D01*
X0044584Y0021131D01*
X0044546Y0021194D01*
X0044503Y0021256D01*
X0044458Y0021315D01*
X0044410Y0021372D01*
X0044359Y0021426D01*
X0044305Y0021477D01*
X0044248Y0021525D01*
X0044189Y0021570D01*
X0044127Y0021613D01*
X0044064Y0021651D01*
X0043999Y0021687D01*
X0043931Y0021719D01*
X0043863Y0021748D01*
X0043792Y0021772D01*
X0043721Y0021794D01*
X0043649Y0021811D01*
X0043575Y0021824D01*
X0043502Y0021834D01*
X0043427Y0021840D01*
X0043353Y0021842D01*
X0043279Y0021840D01*
X0043204Y0021834D01*
X0043131Y0021824D01*
X0043057Y0021811D01*
X0042985Y0021794D01*
X0042914Y0021772D01*
X0042843Y0021748D01*
X0042775Y0021719D01*
X0042707Y0021687D01*
X0042642Y0021651D01*
X0042579Y0021613D01*
X0042517Y0021570D01*
X0042458Y0021525D01*
X0042401Y0021477D01*
X0042347Y0021426D01*
X0042296Y0021372D01*
X0042248Y0021315D01*
X0042203Y0021256D01*
X0042160Y0021194D01*
X0042122Y0021131D01*
X0042086Y0021066D01*
X0042054Y0020998D01*
X0042025Y0020930D01*
X0042001Y0020859D01*
X0041979Y0020788D01*
X0041962Y0020716D01*
X0041949Y0020642D01*
X0041939Y0020569D01*
X0041933Y0020494D01*
X0041931Y0020420D01*
X0046754Y0021842D02*
X0048887Y0021842D01*
X0050651Y0021842D02*
X0052785Y0021842D01*
X0051362Y0023975D02*
X0051362Y0018642D01*
X0051364Y0018578D01*
X0051370Y0018513D01*
X0051379Y0018450D01*
X0051393Y0018387D01*
X0051410Y0018325D01*
X0051431Y0018264D01*
X0051456Y0018204D01*
X0051484Y0018146D01*
X0051516Y0018090D01*
X0051551Y0018036D01*
X0051589Y0017984D01*
X0051630Y0017934D01*
X0051675Y0017888D01*
X0051721Y0017843D01*
X0051771Y0017802D01*
X0051823Y0017764D01*
X0051877Y0017729D01*
X0051933Y0017697D01*
X0051991Y0017669D01*
X0052051Y0017644D01*
X0052112Y0017623D01*
X0052174Y0017606D01*
X0052237Y0017592D01*
X0052300Y0017583D01*
X0052365Y0017577D01*
X0052429Y0017575D01*
X0052785Y0017575D01*
X0055060Y0018998D02*
X0055060Y0020420D01*
X0055062Y0020494D01*
X0055068Y0020569D01*
X0055078Y0020642D01*
X0055091Y0020716D01*
X0055108Y0020788D01*
X0055130Y0020859D01*
X0055154Y0020930D01*
X0055183Y0020998D01*
X0055215Y0021066D01*
X0055251Y0021131D01*
X0055289Y0021194D01*
X0055332Y0021256D01*
X0055377Y0021315D01*
X0055425Y0021372D01*
X0055476Y0021426D01*
X0055530Y0021477D01*
X0055587Y0021525D01*
X0055646Y0021570D01*
X0055708Y0021613D01*
X0055771Y0021651D01*
X0055836Y0021687D01*
X0055904Y0021719D01*
X0055972Y0021748D01*
X0056043Y0021772D01*
X0056114Y0021794D01*
X0056186Y0021811D01*
X0056260Y0021824D01*
X0056333Y0021834D01*
X0056408Y0021840D01*
X0056482Y0021842D01*
X0056556Y0021840D01*
X0056631Y0021834D01*
X0056704Y0021824D01*
X0056778Y0021811D01*
X0056850Y0021794D01*
X0056921Y0021772D01*
X0056992Y0021748D01*
X0057060Y0021719D01*
X0057128Y0021687D01*
X0057193Y0021651D01*
X0057256Y0021613D01*
X0057318Y0021570D01*
X0057377Y0021525D01*
X0057434Y0021477D01*
X0057488Y0021426D01*
X0057539Y0021372D01*
X0057587Y0021315D01*
X0057632Y0021256D01*
X0057675Y0021194D01*
X0057713Y0021131D01*
X0057749Y0021066D01*
X0057781Y0020998D01*
X0057810Y0020930D01*
X0057834Y0020859D01*
X0057856Y0020788D01*
X0057873Y0020716D01*
X0057886Y0020642D01*
X0057896Y0020569D01*
X0057902Y0020494D01*
X0057904Y0020420D01*
X0057904Y0018998D01*
X0057902Y0018924D01*
X0057896Y0018849D01*
X0057886Y0018776D01*
X0057873Y0018702D01*
X0057856Y0018630D01*
X0057834Y0018559D01*
X0057810Y0018488D01*
X0057781Y0018420D01*
X0057749Y0018352D01*
X0057713Y0018287D01*
X0057675Y0018224D01*
X0057632Y0018162D01*
X0057587Y0018103D01*
X0057539Y0018046D01*
X0057488Y0017992D01*
X0057434Y0017941D01*
X0057377Y0017893D01*
X0057318Y0017848D01*
X0057256Y0017805D01*
X0057193Y0017767D01*
X0057128Y0017731D01*
X0057060Y0017699D01*
X0056992Y0017670D01*
X0056921Y0017646D01*
X0056850Y0017624D01*
X0056778Y0017607D01*
X0056704Y0017594D01*
X0056631Y0017584D01*
X0056556Y0017578D01*
X0056482Y0017576D01*
X0056408Y0017578D01*
X0056333Y0017584D01*
X0056260Y0017594D01*
X0056186Y0017607D01*
X0056114Y0017624D01*
X0056043Y0017646D01*
X0055972Y0017670D01*
X0055904Y0017699D01*
X0055836Y0017731D01*
X0055771Y0017767D01*
X0055708Y0017805D01*
X0055646Y0017848D01*
X0055587Y0017893D01*
X0055530Y0017941D01*
X0055476Y0017992D01*
X0055425Y0018046D01*
X0055377Y0018103D01*
X0055332Y0018162D01*
X0055289Y0018224D01*
X0055251Y0018287D01*
X0055215Y0018352D01*
X0055183Y0018420D01*
X0055154Y0018488D01*
X0055130Y0018559D01*
X0055108Y0018630D01*
X0055091Y0018702D01*
X0055078Y0018776D01*
X0055068Y0018849D01*
X0055062Y0018924D01*
X0055060Y0018998D01*
X0048887Y0017575D02*
X0048532Y0017575D01*
X0048468Y0017577D01*
X0048403Y0017583D01*
X0048340Y0017592D01*
X0048277Y0017606D01*
X0048215Y0017623D01*
X0048154Y0017644D01*
X0048094Y0017669D01*
X0048036Y0017697D01*
X0047980Y0017729D01*
X0047926Y0017764D01*
X0047874Y0017802D01*
X0047824Y0017843D01*
X0047778Y0017888D01*
X0047733Y0017934D01*
X0047692Y0017984D01*
X0047654Y0018036D01*
X0047619Y0018090D01*
X0047587Y0018146D01*
X0047559Y0018204D01*
X0047534Y0018264D01*
X0047513Y0018325D01*
X0047496Y0018387D01*
X0047482Y0018450D01*
X0047473Y0018513D01*
X0047467Y0018578D01*
X0047465Y0018642D01*
X0047465Y0023975D01*
X0051760Y0013475D02*
X0051760Y0007075D01*
X0053537Y0007075D02*
X0049982Y0007075D01*
X0049982Y0012053D02*
X0051760Y0013475D01*
X0062153Y0010275D02*
X0062151Y0010134D01*
X0062145Y0009994D01*
X0062136Y0009853D01*
X0062123Y0009713D01*
X0062106Y0009573D01*
X0062086Y0009434D01*
X0062061Y0009296D01*
X0062033Y0009158D01*
X0062002Y0009021D01*
X0061966Y0008884D01*
X0061927Y0008749D01*
X0061885Y0008615D01*
X0061839Y0008482D01*
X0061789Y0008350D01*
X0061736Y0008220D01*
X0061680Y0008091D01*
X0061620Y0007964D01*
X0061595Y0007898D01*
X0061567Y0007833D01*
X0061535Y0007769D01*
X0061500Y0007708D01*
X0061461Y0007648D01*
X0061420Y0007590D01*
X0061375Y0007535D01*
X0061327Y0007483D01*
X0061277Y0007433D01*
X0061224Y0007385D01*
X0061168Y0007341D01*
X0061111Y0007300D01*
X0061051Y0007262D01*
X0060989Y0007227D01*
X0060925Y0007196D01*
X0060860Y0007168D01*
X0060793Y0007143D01*
X0060726Y0007123D01*
X0060657Y0007106D01*
X0060587Y0007092D01*
X0060517Y0007083D01*
X0060446Y0007077D01*
X0060375Y0007075D01*
X0060304Y0007077D01*
X0060233Y0007083D01*
X0060163Y0007092D01*
X0060093Y0007106D01*
X0060024Y0007123D01*
X0059957Y0007143D01*
X0059890Y0007168D01*
X0059825Y0007196D01*
X0059761Y0007227D01*
X0059699Y0007262D01*
X0059639Y0007300D01*
X0059581Y0007341D01*
X0059526Y0007385D01*
X0059473Y0007433D01*
X0059423Y0007483D01*
X0059375Y0007535D01*
X0059330Y0007590D01*
X0059289Y0007648D01*
X0059250Y0007708D01*
X0059215Y0007769D01*
X0059183Y0007833D01*
X0059155Y0007898D01*
X0059130Y0007964D01*
X0058953Y0008498D02*
X0061798Y0012053D01*
X0061620Y0012587D02*
X0061595Y0012653D01*
X0061567Y0012718D01*
X0061535Y0012782D01*
X0061500Y0012843D01*
X0061461Y0012903D01*
X0061420Y0012961D01*
X0061375Y0013016D01*
X0061327Y0013068D01*
X0061277Y0013118D01*
X0061224Y0013166D01*
X0061169Y0013210D01*
X0061111Y0013251D01*
X0061051Y0013289D01*
X0060989Y0013324D01*
X0060925Y0013355D01*
X0060860Y0013383D01*
X0060793Y0013408D01*
X0060726Y0013428D01*
X0060657Y0013445D01*
X0060587Y0013459D01*
X0060517Y0013468D01*
X0060446Y0013474D01*
X0060375Y0013476D01*
X0060304Y0013474D01*
X0060233Y0013468D01*
X0060163Y0013459D01*
X0060093Y0013445D01*
X0060024Y0013428D01*
X0059957Y0013408D01*
X0059890Y0013383D01*
X0059825Y0013355D01*
X0059761Y0013324D01*
X0059699Y0013289D01*
X0059639Y0013251D01*
X0059581Y0013210D01*
X0059526Y0013166D01*
X0059473Y0013118D01*
X0059423Y0013068D01*
X0059375Y0013016D01*
X0059330Y0012961D01*
X0059289Y0012903D01*
X0059250Y0012843D01*
X0059215Y0012782D01*
X0059183Y0012718D01*
X0059155Y0012653D01*
X0059130Y0012587D01*
X0061620Y0012586D02*
X0061680Y0012459D01*
X0061736Y0012330D01*
X0061789Y0012200D01*
X0061839Y0012068D01*
X0061885Y0011935D01*
X0061927Y0011801D01*
X0061966Y0011666D01*
X0062002Y0011529D01*
X0062033Y0011392D01*
X0062061Y0011254D01*
X0062086Y0011116D01*
X0062106Y0010977D01*
X0062123Y0010837D01*
X0062136Y0010697D01*
X0062145Y0010556D01*
X0062151Y0010416D01*
X0062153Y0010275D01*
X0058598Y0010275D02*
X0058600Y0010416D01*
X0058606Y0010556D01*
X0058615Y0010697D01*
X0058628Y0010837D01*
X0058645Y0010977D01*
X0058665Y0011116D01*
X0058690Y0011254D01*
X0058718Y0011392D01*
X0058749Y0011529D01*
X0058785Y0011666D01*
X0058824Y0011801D01*
X0058866Y0011935D01*
X0058912Y0012068D01*
X0058962Y0012200D01*
X0059015Y0012330D01*
X0059071Y0012459D01*
X0059131Y0012586D01*
X0058598Y0010275D02*
X0058600Y0010134D01*
X0058606Y0009994D01*
X0058615Y0009853D01*
X0058628Y0009713D01*
X0058645Y0009573D01*
X0058665Y0009434D01*
X0058690Y0009296D01*
X0058718Y0009158D01*
X0058749Y0009021D01*
X0058785Y0008884D01*
X0058824Y0008749D01*
X0058866Y0008615D01*
X0058912Y0008482D01*
X0058962Y0008350D01*
X0059015Y0008220D01*
X0059071Y0008091D01*
X0059131Y0007964D01*
X0056245Y0007431D02*
X0056245Y0007075D01*
X0055890Y0007075D01*
X0055890Y0007431D01*
X0056245Y0007431D01*
X0042323Y0007075D02*
X0040546Y0007075D01*
X0042323Y0007075D02*
X0042406Y0007077D01*
X0042489Y0007083D01*
X0042572Y0007093D01*
X0042655Y0007106D01*
X0042736Y0007124D01*
X0042817Y0007145D01*
X0042896Y0007170D01*
X0042974Y0007199D01*
X0043051Y0007231D01*
X0043126Y0007267D01*
X0043200Y0007306D01*
X0043271Y0007349D01*
X0043341Y0007395D01*
X0043408Y0007445D01*
X0043473Y0007497D01*
X0043535Y0007552D01*
X0043595Y0007611D01*
X0043652Y0007672D01*
X0043706Y0007735D01*
X0043757Y0007801D01*
X0043804Y0007870D01*
X0043849Y0007940D01*
X0043890Y0008013D01*
X0043927Y0008087D01*
X0043962Y0008163D01*
X0043992Y0008241D01*
X0044019Y0008319D01*
X0044042Y0008400D01*
X0044062Y0008481D01*
X0044077Y0008563D01*
X0044089Y0008645D01*
X0044097Y0008728D01*
X0044101Y0008811D01*
X0044101Y0008895D01*
X0044097Y0008978D01*
X0044089Y0009061D01*
X0044077Y0009143D01*
X0044062Y0009225D01*
X0044042Y0009306D01*
X0044019Y0009387D01*
X0043992Y0009465D01*
X0043962Y0009543D01*
X0043927Y0009619D01*
X0043890Y0009693D01*
X0043849Y0009766D01*
X0043804Y0009836D01*
X0043757Y0009905D01*
X0043706Y0009971D01*
X0043652Y0010034D01*
X0043595Y0010095D01*
X0043535Y0010154D01*
X0043473Y0010209D01*
X0043408Y0010261D01*
X0043341Y0010311D01*
X0043271Y0010357D01*
X0043200Y0010400D01*
X0043126Y0010439D01*
X0043051Y0010475D01*
X0042974Y0010507D01*
X0042896Y0010536D01*
X0042817Y0010561D01*
X0042736Y0010582D01*
X0042655Y0010600D01*
X0042572Y0010613D01*
X0042489Y0010623D01*
X0042406Y0010629D01*
X0042323Y0010631D01*
X0042679Y0010631D02*
X0041257Y0010631D01*
X0042679Y0010631D02*
X0042753Y0010633D01*
X0042828Y0010639D01*
X0042901Y0010649D01*
X0042975Y0010662D01*
X0043047Y0010679D01*
X0043118Y0010701D01*
X0043189Y0010725D01*
X0043257Y0010754D01*
X0043325Y0010786D01*
X0043390Y0010822D01*
X0043453Y0010860D01*
X0043515Y0010903D01*
X0043574Y0010948D01*
X0043631Y0010996D01*
X0043685Y0011047D01*
X0043736Y0011101D01*
X0043784Y0011158D01*
X0043829Y0011217D01*
X0043872Y0011279D01*
X0043910Y0011342D01*
X0043946Y0011407D01*
X0043978Y0011475D01*
X0044007Y0011543D01*
X0044031Y0011614D01*
X0044053Y0011685D01*
X0044070Y0011757D01*
X0044083Y0011831D01*
X0044093Y0011904D01*
X0044099Y0011979D01*
X0044101Y0012053D01*
X0044099Y0012127D01*
X0044093Y0012202D01*
X0044083Y0012275D01*
X0044070Y0012349D01*
X0044053Y0012421D01*
X0044031Y0012492D01*
X0044007Y0012563D01*
X0043978Y0012631D01*
X0043946Y0012699D01*
X0043910Y0012764D01*
X0043872Y0012827D01*
X0043829Y0012889D01*
X0043784Y0012948D01*
X0043736Y0013005D01*
X0043685Y0013059D01*
X0043631Y0013110D01*
X0043574Y0013158D01*
X0043515Y0013203D01*
X0043453Y0013246D01*
X0043390Y0013284D01*
X0043325Y0013320D01*
X0043257Y0013352D01*
X0043189Y0013381D01*
X0043118Y0013405D01*
X0043047Y0013427D01*
X0042975Y0013444D01*
X0042901Y0013457D01*
X0042828Y0013467D01*
X0042753Y0013473D01*
X0042679Y0013475D01*
X0040546Y0013475D01*
X0036525Y0013475D02*
X0034392Y0013475D01*
X0036525Y0013475D02*
X0036599Y0013473D01*
X0036674Y0013467D01*
X0036747Y0013457D01*
X0036821Y0013444D01*
X0036893Y0013427D01*
X0036964Y0013405D01*
X0037035Y0013381D01*
X0037103Y0013352D01*
X0037171Y0013320D01*
X0037236Y0013284D01*
X0037299Y0013246D01*
X0037361Y0013203D01*
X0037420Y0013158D01*
X0037477Y0013110D01*
X0037531Y0013059D01*
X0037582Y0013005D01*
X0037630Y0012948D01*
X0037675Y0012889D01*
X0037718Y0012827D01*
X0037756Y0012764D01*
X0037792Y0012699D01*
X0037824Y0012631D01*
X0037853Y0012563D01*
X0037877Y0012492D01*
X0037899Y0012421D01*
X0037916Y0012349D01*
X0037929Y0012275D01*
X0037939Y0012202D01*
X0037945Y0012127D01*
X0037947Y0012053D01*
X0037945Y0011979D01*
X0037939Y0011904D01*
X0037929Y0011831D01*
X0037916Y0011757D01*
X0037899Y0011685D01*
X0037877Y0011614D01*
X0037853Y0011543D01*
X0037824Y0011475D01*
X0037792Y0011407D01*
X0037756Y0011342D01*
X0037718Y0011279D01*
X0037675Y0011217D01*
X0037630Y0011158D01*
X0037582Y0011101D01*
X0037531Y0011047D01*
X0037477Y0010996D01*
X0037420Y0010948D01*
X0037361Y0010903D01*
X0037299Y0010860D01*
X0037236Y0010822D01*
X0037171Y0010786D01*
X0037103Y0010754D01*
X0037035Y0010725D01*
X0036964Y0010701D01*
X0036893Y0010679D01*
X0036821Y0010662D01*
X0036747Y0010649D01*
X0036674Y0010639D01*
X0036599Y0010633D01*
X0036525Y0010631D01*
X0035103Y0010631D01*
X0036169Y0010631D02*
X0036252Y0010629D01*
X0036335Y0010623D01*
X0036418Y0010613D01*
X0036501Y0010600D01*
X0036582Y0010582D01*
X0036663Y0010561D01*
X0036742Y0010536D01*
X0036820Y0010507D01*
X0036897Y0010475D01*
X0036972Y0010439D01*
X0037046Y0010400D01*
X0037117Y0010357D01*
X0037187Y0010311D01*
X0037254Y0010261D01*
X0037319Y0010209D01*
X0037381Y0010154D01*
X0037441Y0010095D01*
X0037498Y0010034D01*
X0037552Y0009971D01*
X0037603Y0009905D01*
X0037650Y0009836D01*
X0037695Y0009766D01*
X0037736Y0009693D01*
X0037773Y0009619D01*
X0037808Y0009543D01*
X0037838Y0009465D01*
X0037865Y0009387D01*
X0037888Y0009306D01*
X0037908Y0009225D01*
X0037923Y0009143D01*
X0037935Y0009061D01*
X0037943Y0008978D01*
X0037947Y0008895D01*
X0037947Y0008811D01*
X0037943Y0008728D01*
X0037935Y0008645D01*
X0037923Y0008563D01*
X0037908Y0008481D01*
X0037888Y0008400D01*
X0037865Y0008319D01*
X0037838Y0008241D01*
X0037808Y0008163D01*
X0037773Y0008087D01*
X0037736Y0008013D01*
X0037695Y0007940D01*
X0037650Y0007870D01*
X0037603Y0007801D01*
X0037552Y0007735D01*
X0037498Y0007672D01*
X0037441Y0007611D01*
X0037381Y0007552D01*
X0037319Y0007497D01*
X0037254Y0007445D01*
X0037187Y0007395D01*
X0037117Y0007349D01*
X0037046Y0007306D01*
X0036972Y0007267D01*
X0036897Y0007231D01*
X0036820Y0007199D01*
X0036742Y0007170D01*
X0036663Y0007145D01*
X0036582Y0007124D01*
X0036501Y0007106D01*
X0036418Y0007093D01*
X0036335Y0007083D01*
X0036252Y0007077D01*
X0036169Y0007075D01*
X0034392Y0007075D01*
X0031793Y0008498D02*
X0028238Y0008498D01*
X0029660Y0013475D01*
X0030727Y0009920D02*
X0030727Y0007075D01*
X0034970Y0023620D02*
X0035326Y0023620D01*
X0035326Y0023975D01*
X0034970Y0023975D01*
X0034970Y0023620D01*
X0072833Y0042275D02*
X0105833Y0042275D01*
X0105833Y0182275D01*
X0093333Y0182275D01*
X0093331Y0182149D01*
X0093325Y0182024D01*
X0093315Y0181899D01*
X0093301Y0181774D01*
X0093284Y0181649D01*
X0093262Y0181525D01*
X0093237Y0181402D01*
X0093207Y0181280D01*
X0093174Y0181159D01*
X0093137Y0181039D01*
X0093097Y0180920D01*
X0093052Y0180803D01*
X0093004Y0180686D01*
X0092952Y0180572D01*
X0092897Y0180459D01*
X0092838Y0180348D01*
X0092776Y0180239D01*
X0092710Y0180132D01*
X0092641Y0180027D01*
X0092569Y0179924D01*
X0092494Y0179823D01*
X0092415Y0179725D01*
X0092333Y0179630D01*
X0092249Y0179537D01*
X0092161Y0179447D01*
X0092071Y0179359D01*
X0091978Y0179275D01*
X0091883Y0179193D01*
X0091785Y0179114D01*
X0091684Y0179039D01*
X0091581Y0178967D01*
X0091476Y0178898D01*
X0091369Y0178832D01*
X0091260Y0178770D01*
X0091149Y0178711D01*
X0091036Y0178656D01*
X0090922Y0178604D01*
X0090805Y0178556D01*
X0090688Y0178511D01*
X0090569Y0178471D01*
X0090449Y0178434D01*
X0090328Y0178401D01*
X0090206Y0178371D01*
X0090083Y0178346D01*
X0089959Y0178324D01*
X0089834Y0178307D01*
X0089709Y0178293D01*
X0089584Y0178283D01*
X0089459Y0178277D01*
X0089333Y0178275D01*
X0089207Y0178277D01*
X0089082Y0178283D01*
X0088957Y0178293D01*
X0088832Y0178307D01*
X0088707Y0178324D01*
X0088583Y0178346D01*
X0088460Y0178371D01*
X0088338Y0178401D01*
X0088217Y0178434D01*
X0088097Y0178471D01*
X0087978Y0178511D01*
X0087861Y0178556D01*
X0087744Y0178604D01*
X0087630Y0178656D01*
X0087517Y0178711D01*
X0087406Y0178770D01*
X0087297Y0178832D01*
X0087190Y0178898D01*
X0087085Y0178967D01*
X0086982Y0179039D01*
X0086881Y0179114D01*
X0086783Y0179193D01*
X0086688Y0179275D01*
X0086595Y0179359D01*
X0086505Y0179447D01*
X0086417Y0179537D01*
X0086333Y0179630D01*
X0086251Y0179725D01*
X0086172Y0179823D01*
X0086097Y0179924D01*
X0086025Y0180027D01*
X0085956Y0180132D01*
X0085890Y0180239D01*
X0085828Y0180348D01*
X0085769Y0180459D01*
X0085714Y0180572D01*
X0085662Y0180686D01*
X0085614Y0180803D01*
X0085569Y0180920D01*
X0085529Y0181039D01*
X0085492Y0181159D01*
X0085459Y0181280D01*
X0085429Y0181402D01*
X0085404Y0181525D01*
X0085382Y0181649D01*
X0085365Y0181774D01*
X0085351Y0181899D01*
X0085341Y0182024D01*
X0085335Y0182149D01*
X0085333Y0182275D01*
X0072833Y0182275D01*
X0072833Y0042275D01*
X0031540Y0104575D02*
X0029762Y0104575D01*
X0029762Y0110975D01*
X0031540Y0110975D01*
X0031540Y0110976D02*
X0031622Y0110974D01*
X0031704Y0110968D01*
X0031786Y0110959D01*
X0031867Y0110946D01*
X0031947Y0110929D01*
X0032027Y0110908D01*
X0032105Y0110884D01*
X0032182Y0110856D01*
X0032258Y0110825D01*
X0032333Y0110790D01*
X0032405Y0110751D01*
X0032476Y0110710D01*
X0032545Y0110665D01*
X0032611Y0110617D01*
X0032676Y0110566D01*
X0032738Y0110512D01*
X0032797Y0110455D01*
X0032854Y0110396D01*
X0032908Y0110334D01*
X0032959Y0110269D01*
X0033007Y0110203D01*
X0033052Y0110134D01*
X0033093Y0110063D01*
X0033132Y0109991D01*
X0033167Y0109916D01*
X0033198Y0109840D01*
X0033226Y0109763D01*
X0033250Y0109685D01*
X0033271Y0109605D01*
X0033288Y0109525D01*
X0033301Y0109444D01*
X0033310Y0109362D01*
X0033316Y0109280D01*
X0033318Y0109198D01*
X0033317Y0109198D02*
X0033317Y0106353D01*
X0033318Y0106353D02*
X0033316Y0106271D01*
X0033310Y0106189D01*
X0033301Y0106107D01*
X0033288Y0106026D01*
X0033271Y0105946D01*
X0033250Y0105866D01*
X0033226Y0105788D01*
X0033198Y0105711D01*
X0033167Y0105635D01*
X0033132Y0105560D01*
X0033093Y0105488D01*
X0033052Y0105417D01*
X0033007Y0105348D01*
X0032959Y0105282D01*
X0032908Y0105217D01*
X0032854Y0105155D01*
X0032797Y0105096D01*
X0032738Y0105039D01*
X0032676Y0104985D01*
X0032611Y0104934D01*
X0032545Y0104886D01*
X0032476Y0104841D01*
X0032405Y0104800D01*
X0032333Y0104761D01*
X0032258Y0104726D01*
X0032182Y0104695D01*
X0032105Y0104667D01*
X0032027Y0104643D01*
X0031947Y0104622D01*
X0031867Y0104605D01*
X0031786Y0104592D01*
X0031704Y0104583D01*
X0031622Y0104577D01*
X0031540Y0104575D01*
X0026753Y0104575D02*
X0026753Y0110975D01*
X0023198Y0110975D02*
X0026753Y0104575D01*
X0023198Y0104575D02*
X0023198Y0110975D01*
X0020189Y0110975D02*
X0018056Y0110975D01*
X0017982Y0110973D01*
X0017907Y0110967D01*
X0017834Y0110957D01*
X0017760Y0110944D01*
X0017688Y0110927D01*
X0017617Y0110905D01*
X0017546Y0110881D01*
X0017478Y0110852D01*
X0017410Y0110820D01*
X0017345Y0110784D01*
X0017282Y0110746D01*
X0017220Y0110703D01*
X0017161Y0110658D01*
X0017104Y0110610D01*
X0017050Y0110559D01*
X0016999Y0110504D01*
X0016951Y0110448D01*
X0016906Y0110389D01*
X0016863Y0110327D01*
X0016825Y0110264D01*
X0016789Y0110199D01*
X0016757Y0110131D01*
X0016728Y0110063D01*
X0016704Y0109992D01*
X0016682Y0109921D01*
X0016665Y0109849D01*
X0016652Y0109775D01*
X0016642Y0109702D01*
X0016636Y0109627D01*
X0016634Y0109553D01*
X0016633Y0109553D02*
X0016633Y0105998D01*
X0016634Y0105998D02*
X0016636Y0105924D01*
X0016642Y0105849D01*
X0016652Y0105776D01*
X0016665Y0105702D01*
X0016682Y0105630D01*
X0016704Y0105559D01*
X0016728Y0105488D01*
X0016757Y0105420D01*
X0016789Y0105352D01*
X0016825Y0105287D01*
X0016863Y0105224D01*
X0016906Y0105162D01*
X0016951Y0105103D01*
X0016999Y0105046D01*
X0017050Y0104992D01*
X0017104Y0104941D01*
X0017161Y0104893D01*
X0017220Y0104848D01*
X0017282Y0104805D01*
X0017345Y0104767D01*
X0017410Y0104731D01*
X0017478Y0104699D01*
X0017546Y0104670D01*
X0017617Y0104646D01*
X0017688Y0104624D01*
X0017760Y0104607D01*
X0017834Y0104594D01*
X0017907Y0104584D01*
X0017982Y0104578D01*
X0018056Y0104576D01*
X0018056Y0104575D02*
X0020189Y0104575D01*
X0020189Y0108131D01*
X0019122Y0108131D01*
X0018411Y0114575D02*
X0016633Y0114575D01*
X0018411Y0114575D02*
X0018494Y0114577D01*
X0018577Y0114583D01*
X0018660Y0114593D01*
X0018743Y0114606D01*
X0018824Y0114624D01*
X0018905Y0114645D01*
X0018984Y0114670D01*
X0019062Y0114699D01*
X0019139Y0114731D01*
X0019214Y0114767D01*
X0019288Y0114806D01*
X0019359Y0114849D01*
X0019429Y0114895D01*
X0019496Y0114945D01*
X0019561Y0114997D01*
X0019623Y0115052D01*
X0019683Y0115111D01*
X0019740Y0115172D01*
X0019794Y0115235D01*
X0019845Y0115301D01*
X0019892Y0115370D01*
X0019937Y0115440D01*
X0019978Y0115513D01*
X0020015Y0115587D01*
X0020050Y0115663D01*
X0020080Y0115741D01*
X0020107Y0115819D01*
X0020130Y0115900D01*
X0020150Y0115981D01*
X0020165Y0116063D01*
X0020177Y0116145D01*
X0020185Y0116228D01*
X0020189Y0116311D01*
X0020189Y0116395D01*
X0020185Y0116478D01*
X0020177Y0116561D01*
X0020165Y0116643D01*
X0020150Y0116725D01*
X0020130Y0116806D01*
X0020107Y0116887D01*
X0020080Y0116965D01*
X0020050Y0117043D01*
X0020015Y0117119D01*
X0019978Y0117193D01*
X0019937Y0117266D01*
X0019892Y0117336D01*
X0019845Y0117405D01*
X0019794Y0117471D01*
X0019740Y0117534D01*
X0019683Y0117595D01*
X0019623Y0117654D01*
X0019561Y0117709D01*
X0019496Y0117761D01*
X0019429Y0117811D01*
X0019359Y0117857D01*
X0019288Y0117900D01*
X0019214Y0117939D01*
X0019139Y0117975D01*
X0019062Y0118007D01*
X0018984Y0118036D01*
X0018905Y0118061D01*
X0018824Y0118082D01*
X0018743Y0118100D01*
X0018660Y0118113D01*
X0018577Y0118123D01*
X0018494Y0118129D01*
X0018411Y0118131D01*
X0018767Y0118131D02*
X0017344Y0118131D01*
X0018767Y0118131D02*
X0018841Y0118133D01*
X0018916Y0118139D01*
X0018989Y0118149D01*
X0019063Y0118162D01*
X0019135Y0118179D01*
X0019206Y0118201D01*
X0019277Y0118225D01*
X0019345Y0118254D01*
X0019413Y0118286D01*
X0019478Y0118322D01*
X0019541Y0118360D01*
X0019603Y0118403D01*
X0019662Y0118448D01*
X0019719Y0118496D01*
X0019773Y0118547D01*
X0019824Y0118601D01*
X0019872Y0118658D01*
X0019917Y0118717D01*
X0019960Y0118779D01*
X0019998Y0118842D01*
X0020034Y0118907D01*
X0020066Y0118975D01*
X0020095Y0119043D01*
X0020119Y0119114D01*
X0020141Y0119185D01*
X0020158Y0119257D01*
X0020171Y0119331D01*
X0020181Y0119404D01*
X0020187Y0119479D01*
X0020189Y0119553D01*
X0020187Y0119627D01*
X0020181Y0119702D01*
X0020171Y0119775D01*
X0020158Y0119849D01*
X0020141Y0119921D01*
X0020119Y0119992D01*
X0020095Y0120063D01*
X0020066Y0120131D01*
X0020034Y0120199D01*
X0019998Y0120264D01*
X0019960Y0120327D01*
X0019917Y0120389D01*
X0019872Y0120448D01*
X0019824Y0120505D01*
X0019773Y0120559D01*
X0019719Y0120610D01*
X0019662Y0120658D01*
X0019603Y0120703D01*
X0019541Y0120746D01*
X0019478Y0120784D01*
X0019413Y0120820D01*
X0019345Y0120852D01*
X0019277Y0120881D01*
X0019206Y0120905D01*
X0019135Y0120927D01*
X0019063Y0120944D01*
X0018989Y0120957D01*
X0018916Y0120967D01*
X0018841Y0120973D01*
X0018767Y0120975D01*
X0016633Y0120975D01*
X0016633Y0124575D02*
X0018767Y0130975D01*
X0020900Y0124575D01*
X0020367Y0126175D02*
X0017167Y0126175D01*
X0022432Y0120975D02*
X0024565Y0114575D01*
X0026698Y0120975D01*
X0025632Y0124575D02*
X0025632Y0127420D01*
X0026698Y0125998D02*
X0023143Y0125998D01*
X0024565Y0130975D01*
X0024988Y0134575D02*
X0024988Y0137420D01*
X0026055Y0135998D02*
X0022499Y0135998D01*
X0023921Y0140975D01*
X0024277Y0144575D02*
X0022499Y0144575D01*
X0024277Y0144575D02*
X0024360Y0144577D01*
X0024443Y0144583D01*
X0024526Y0144593D01*
X0024609Y0144606D01*
X0024690Y0144624D01*
X0024771Y0144645D01*
X0024850Y0144670D01*
X0024928Y0144699D01*
X0025005Y0144731D01*
X0025080Y0144767D01*
X0025154Y0144806D01*
X0025225Y0144849D01*
X0025295Y0144895D01*
X0025362Y0144945D01*
X0025427Y0144997D01*
X0025489Y0145052D01*
X0025549Y0145111D01*
X0025606Y0145172D01*
X0025660Y0145235D01*
X0025711Y0145301D01*
X0025758Y0145370D01*
X0025803Y0145440D01*
X0025844Y0145513D01*
X0025881Y0145587D01*
X0025916Y0145663D01*
X0025946Y0145741D01*
X0025973Y0145819D01*
X0025996Y0145900D01*
X0026016Y0145981D01*
X0026031Y0146063D01*
X0026043Y0146145D01*
X0026051Y0146228D01*
X0026055Y0146311D01*
X0026055Y0146395D01*
X0026051Y0146478D01*
X0026043Y0146561D01*
X0026031Y0146643D01*
X0026016Y0146725D01*
X0025996Y0146806D01*
X0025973Y0146887D01*
X0025946Y0146965D01*
X0025916Y0147043D01*
X0025881Y0147119D01*
X0025844Y0147193D01*
X0025803Y0147266D01*
X0025758Y0147336D01*
X0025711Y0147405D01*
X0025660Y0147471D01*
X0025606Y0147534D01*
X0025549Y0147595D01*
X0025489Y0147654D01*
X0025427Y0147709D01*
X0025362Y0147761D01*
X0025295Y0147811D01*
X0025225Y0147857D01*
X0025154Y0147900D01*
X0025080Y0147939D01*
X0025005Y0147975D01*
X0024928Y0148007D01*
X0024850Y0148036D01*
X0024771Y0148061D01*
X0024690Y0148082D01*
X0024609Y0148100D01*
X0024526Y0148113D01*
X0024443Y0148123D01*
X0024360Y0148129D01*
X0024277Y0148131D01*
X0024632Y0148131D02*
X0023210Y0148131D01*
X0024632Y0148131D02*
X0024706Y0148133D01*
X0024781Y0148139D01*
X0024854Y0148149D01*
X0024928Y0148162D01*
X0025000Y0148179D01*
X0025071Y0148201D01*
X0025142Y0148225D01*
X0025210Y0148254D01*
X0025278Y0148286D01*
X0025343Y0148322D01*
X0025406Y0148360D01*
X0025468Y0148403D01*
X0025527Y0148448D01*
X0025584Y0148496D01*
X0025638Y0148547D01*
X0025689Y0148601D01*
X0025737Y0148658D01*
X0025782Y0148717D01*
X0025825Y0148779D01*
X0025863Y0148842D01*
X0025899Y0148907D01*
X0025931Y0148975D01*
X0025960Y0149043D01*
X0025984Y0149114D01*
X0026006Y0149185D01*
X0026023Y0149257D01*
X0026036Y0149331D01*
X0026046Y0149404D01*
X0026052Y0149479D01*
X0026054Y0149553D01*
X0026052Y0149627D01*
X0026046Y0149702D01*
X0026036Y0149775D01*
X0026023Y0149849D01*
X0026006Y0149921D01*
X0025984Y0149992D01*
X0025960Y0150063D01*
X0025931Y0150131D01*
X0025899Y0150199D01*
X0025863Y0150264D01*
X0025825Y0150327D01*
X0025782Y0150389D01*
X0025737Y0150448D01*
X0025689Y0150505D01*
X0025638Y0150559D01*
X0025584Y0150610D01*
X0025527Y0150658D01*
X0025468Y0150703D01*
X0025406Y0150746D01*
X0025343Y0150784D01*
X0025278Y0150820D01*
X0025210Y0150852D01*
X0025142Y0150881D01*
X0025071Y0150905D01*
X0025000Y0150927D01*
X0024928Y0150944D01*
X0024854Y0150957D01*
X0024781Y0150967D01*
X0024706Y0150973D01*
X0024632Y0150975D01*
X0022499Y0150975D01*
X0022499Y0154575D02*
X0026055Y0154575D01*
X0022499Y0154575D02*
X0025521Y0158131D01*
X0024455Y0160976D02*
X0024366Y0160974D01*
X0024277Y0160968D01*
X0024188Y0160959D01*
X0024100Y0160945D01*
X0024013Y0160928D01*
X0023926Y0160907D01*
X0023840Y0160882D01*
X0023756Y0160854D01*
X0023673Y0160821D01*
X0023591Y0160786D01*
X0023511Y0160746D01*
X0023433Y0160704D01*
X0023356Y0160658D01*
X0023282Y0160609D01*
X0023210Y0160556D01*
X0023140Y0160501D01*
X0023073Y0160442D01*
X0023008Y0160381D01*
X0022946Y0160317D01*
X0022887Y0160250D01*
X0022831Y0160181D01*
X0022778Y0160109D01*
X0022728Y0160035D01*
X0022681Y0159959D01*
X0022638Y0159882D01*
X0022598Y0159802D01*
X0022561Y0159721D01*
X0022528Y0159638D01*
X0022499Y0159553D01*
X0025522Y0158130D02*
X0025579Y0158188D01*
X0025635Y0158249D01*
X0025687Y0158312D01*
X0025736Y0158377D01*
X0025782Y0158445D01*
X0025824Y0158515D01*
X0025864Y0158587D01*
X0025899Y0158660D01*
X0025932Y0158736D01*
X0025960Y0158812D01*
X0025985Y0158890D01*
X0026006Y0158969D01*
X0026024Y0159049D01*
X0026037Y0159130D01*
X0026047Y0159211D01*
X0026053Y0159293D01*
X0026055Y0159375D01*
X0026053Y0159454D01*
X0026047Y0159532D01*
X0026038Y0159610D01*
X0026024Y0159687D01*
X0026007Y0159764D01*
X0025986Y0159839D01*
X0025961Y0159914D01*
X0025933Y0159987D01*
X0025901Y0160059D01*
X0025866Y0160129D01*
X0025827Y0160198D01*
X0025785Y0160264D01*
X0025740Y0160328D01*
X0025692Y0160390D01*
X0025641Y0160449D01*
X0025586Y0160506D01*
X0025529Y0160561D01*
X0025470Y0160612D01*
X0025408Y0160660D01*
X0025344Y0160705D01*
X0025278Y0160747D01*
X0025209Y0160786D01*
X0025139Y0160821D01*
X0025067Y0160853D01*
X0024994Y0160881D01*
X0024919Y0160906D01*
X0024844Y0160927D01*
X0024767Y0160944D01*
X0024690Y0160958D01*
X0024612Y0160967D01*
X0024534Y0160973D01*
X0024455Y0160975D01*
X0024921Y0164575D02*
X0024921Y0170975D01*
X0023143Y0169553D01*
X0020367Y0166175D02*
X0017167Y0166175D01*
X0016633Y0164575D02*
X0018767Y0170975D01*
X0020900Y0164575D01*
X0023143Y0164575D02*
X0026698Y0164575D01*
X0020900Y0174575D02*
X0018767Y0180975D01*
X0016633Y0174575D01*
X0017167Y0176175D02*
X0020367Y0176175D01*
X0026165Y0175464D02*
X0026225Y0175591D01*
X0026281Y0175720D01*
X0026334Y0175850D01*
X0026384Y0175982D01*
X0026430Y0176115D01*
X0026472Y0176249D01*
X0026511Y0176384D01*
X0026547Y0176521D01*
X0026578Y0176658D01*
X0026606Y0176796D01*
X0026631Y0176934D01*
X0026651Y0177073D01*
X0026668Y0177213D01*
X0026681Y0177353D01*
X0026690Y0177494D01*
X0026696Y0177634D01*
X0026698Y0177775D01*
X0023143Y0177775D02*
X0023145Y0177916D01*
X0023151Y0178056D01*
X0023160Y0178197D01*
X0023173Y0178337D01*
X0023190Y0178477D01*
X0023210Y0178616D01*
X0023235Y0178754D01*
X0023263Y0178892D01*
X0023294Y0179029D01*
X0023330Y0179166D01*
X0023369Y0179301D01*
X0023411Y0179435D01*
X0023457Y0179568D01*
X0023507Y0179700D01*
X0023560Y0179830D01*
X0023616Y0179959D01*
X0023676Y0180086D01*
X0024921Y0180976D02*
X0024992Y0180974D01*
X0025063Y0180968D01*
X0025133Y0180959D01*
X0025203Y0180945D01*
X0025272Y0180928D01*
X0025339Y0180908D01*
X0025406Y0180883D01*
X0025471Y0180855D01*
X0025535Y0180824D01*
X0025597Y0180789D01*
X0025657Y0180751D01*
X0025715Y0180710D01*
X0025770Y0180666D01*
X0025823Y0180618D01*
X0025873Y0180568D01*
X0025921Y0180516D01*
X0025966Y0180461D01*
X0026007Y0180403D01*
X0026046Y0180343D01*
X0026081Y0180282D01*
X0026113Y0180218D01*
X0026141Y0180153D01*
X0026166Y0180087D01*
X0026343Y0179553D02*
X0023498Y0175998D01*
X0024921Y0174575D02*
X0024992Y0174577D01*
X0025063Y0174583D01*
X0025133Y0174592D01*
X0025203Y0174606D01*
X0025272Y0174623D01*
X0025339Y0174643D01*
X0025406Y0174668D01*
X0025471Y0174696D01*
X0025535Y0174727D01*
X0025597Y0174762D01*
X0025657Y0174800D01*
X0025714Y0174841D01*
X0025770Y0174885D01*
X0025823Y0174933D01*
X0025873Y0174983D01*
X0025921Y0175035D01*
X0025966Y0175090D01*
X0026007Y0175148D01*
X0026046Y0175208D01*
X0026081Y0175269D01*
X0026113Y0175333D01*
X0026141Y0175398D01*
X0026166Y0175464D01*
X0024921Y0174575D02*
X0024850Y0174577D01*
X0024779Y0174583D01*
X0024709Y0174592D01*
X0024639Y0174606D01*
X0024570Y0174623D01*
X0024503Y0174643D01*
X0024436Y0174668D01*
X0024371Y0174696D01*
X0024307Y0174727D01*
X0024245Y0174762D01*
X0024185Y0174800D01*
X0024127Y0174841D01*
X0024072Y0174885D01*
X0024019Y0174933D01*
X0023969Y0174983D01*
X0023921Y0175035D01*
X0023876Y0175090D01*
X0023835Y0175148D01*
X0023796Y0175208D01*
X0023761Y0175269D01*
X0023729Y0175333D01*
X0023701Y0175398D01*
X0023676Y0175464D01*
X0026698Y0177775D02*
X0026696Y0177916D01*
X0026690Y0178056D01*
X0026681Y0178197D01*
X0026668Y0178337D01*
X0026651Y0178477D01*
X0026631Y0178616D01*
X0026606Y0178754D01*
X0026578Y0178892D01*
X0026547Y0179029D01*
X0026511Y0179166D01*
X0026472Y0179301D01*
X0026430Y0179435D01*
X0026384Y0179568D01*
X0026334Y0179700D01*
X0026281Y0179830D01*
X0026225Y0179959D01*
X0026165Y0180086D01*
X0024921Y0180976D02*
X0024850Y0180974D01*
X0024779Y0180968D01*
X0024709Y0180959D01*
X0024639Y0180945D01*
X0024570Y0180928D01*
X0024503Y0180908D01*
X0024436Y0180883D01*
X0024371Y0180855D01*
X0024307Y0180824D01*
X0024245Y0180789D01*
X0024185Y0180751D01*
X0024127Y0180710D01*
X0024072Y0180666D01*
X0024019Y0180618D01*
X0023969Y0180568D01*
X0023921Y0180516D01*
X0023876Y0180461D01*
X0023835Y0180403D01*
X0023796Y0180343D01*
X0023761Y0180282D01*
X0023729Y0180218D01*
X0023701Y0180153D01*
X0023676Y0180087D01*
X0023143Y0177775D02*
X0023145Y0177634D01*
X0023151Y0177494D01*
X0023160Y0177353D01*
X0023173Y0177213D01*
X0023190Y0177073D01*
X0023210Y0176934D01*
X0023235Y0176796D01*
X0023263Y0176658D01*
X0023294Y0176521D01*
X0023330Y0176384D01*
X0023369Y0176249D01*
X0023411Y0176115D01*
X0023457Y0175982D01*
X0023507Y0175850D01*
X0023560Y0175720D01*
X0023616Y0175591D01*
X0023676Y0175464D01*
X0018411Y0160975D02*
X0016633Y0160975D01*
X0016633Y0154575D01*
X0018411Y0154575D01*
X0018494Y0154577D01*
X0018577Y0154583D01*
X0018660Y0154593D01*
X0018743Y0154606D01*
X0018824Y0154624D01*
X0018905Y0154645D01*
X0018984Y0154670D01*
X0019062Y0154699D01*
X0019139Y0154731D01*
X0019214Y0154767D01*
X0019288Y0154806D01*
X0019359Y0154849D01*
X0019429Y0154895D01*
X0019496Y0154945D01*
X0019561Y0154997D01*
X0019623Y0155052D01*
X0019683Y0155111D01*
X0019740Y0155172D01*
X0019794Y0155235D01*
X0019845Y0155301D01*
X0019892Y0155370D01*
X0019937Y0155440D01*
X0019978Y0155513D01*
X0020015Y0155587D01*
X0020050Y0155663D01*
X0020080Y0155741D01*
X0020107Y0155819D01*
X0020130Y0155900D01*
X0020150Y0155981D01*
X0020165Y0156063D01*
X0020177Y0156145D01*
X0020185Y0156228D01*
X0020189Y0156311D01*
X0020189Y0156395D01*
X0020185Y0156478D01*
X0020177Y0156561D01*
X0020165Y0156643D01*
X0020150Y0156725D01*
X0020130Y0156806D01*
X0020107Y0156887D01*
X0020080Y0156965D01*
X0020050Y0157043D01*
X0020015Y0157119D01*
X0019978Y0157193D01*
X0019937Y0157266D01*
X0019892Y0157336D01*
X0019845Y0157405D01*
X0019794Y0157471D01*
X0019740Y0157534D01*
X0019683Y0157595D01*
X0019623Y0157654D01*
X0019561Y0157709D01*
X0019496Y0157761D01*
X0019429Y0157811D01*
X0019359Y0157857D01*
X0019288Y0157900D01*
X0019214Y0157939D01*
X0019139Y0157975D01*
X0019062Y0158007D01*
X0018984Y0158036D01*
X0018905Y0158061D01*
X0018824Y0158082D01*
X0018743Y0158100D01*
X0018660Y0158113D01*
X0018577Y0158123D01*
X0018494Y0158129D01*
X0018411Y0158131D01*
X0016633Y0158131D01*
X0018411Y0158131D02*
X0018485Y0158133D01*
X0018560Y0158139D01*
X0018633Y0158149D01*
X0018707Y0158162D01*
X0018779Y0158179D01*
X0018850Y0158201D01*
X0018921Y0158225D01*
X0018989Y0158254D01*
X0019057Y0158286D01*
X0019122Y0158322D01*
X0019185Y0158360D01*
X0019247Y0158403D01*
X0019306Y0158448D01*
X0019363Y0158496D01*
X0019417Y0158547D01*
X0019468Y0158601D01*
X0019516Y0158658D01*
X0019561Y0158717D01*
X0019604Y0158779D01*
X0019642Y0158842D01*
X0019678Y0158907D01*
X0019710Y0158975D01*
X0019739Y0159043D01*
X0019763Y0159114D01*
X0019785Y0159185D01*
X0019802Y0159257D01*
X0019815Y0159331D01*
X0019825Y0159404D01*
X0019831Y0159479D01*
X0019833Y0159553D01*
X0019831Y0159627D01*
X0019825Y0159702D01*
X0019815Y0159775D01*
X0019802Y0159849D01*
X0019785Y0159921D01*
X0019763Y0159992D01*
X0019739Y0160063D01*
X0019710Y0160131D01*
X0019678Y0160199D01*
X0019642Y0160264D01*
X0019604Y0160327D01*
X0019561Y0160389D01*
X0019516Y0160448D01*
X0019468Y0160505D01*
X0019417Y0160559D01*
X0019363Y0160610D01*
X0019306Y0160658D01*
X0019247Y0160703D01*
X0019185Y0160746D01*
X0019122Y0160784D01*
X0019057Y0160820D01*
X0018989Y0160852D01*
X0018921Y0160881D01*
X0018850Y0160905D01*
X0018779Y0160927D01*
X0018707Y0160944D01*
X0018633Y0160957D01*
X0018560Y0160967D01*
X0018485Y0160973D01*
X0018411Y0160975D01*
X0018411Y0150975D02*
X0016633Y0150975D01*
X0016633Y0144575D01*
X0018411Y0144575D01*
X0018494Y0144577D01*
X0018577Y0144583D01*
X0018660Y0144593D01*
X0018743Y0144606D01*
X0018824Y0144624D01*
X0018905Y0144645D01*
X0018984Y0144670D01*
X0019062Y0144699D01*
X0019139Y0144731D01*
X0019214Y0144767D01*
X0019288Y0144806D01*
X0019359Y0144849D01*
X0019429Y0144895D01*
X0019496Y0144945D01*
X0019561Y0144997D01*
X0019623Y0145052D01*
X0019683Y0145111D01*
X0019740Y0145172D01*
X0019794Y0145235D01*
X0019845Y0145301D01*
X0019892Y0145370D01*
X0019937Y0145440D01*
X0019978Y0145513D01*
X0020015Y0145587D01*
X0020050Y0145663D01*
X0020080Y0145741D01*
X0020107Y0145819D01*
X0020130Y0145900D01*
X0020150Y0145981D01*
X0020165Y0146063D01*
X0020177Y0146145D01*
X0020185Y0146228D01*
X0020189Y0146311D01*
X0020189Y0146395D01*
X0020185Y0146478D01*
X0020177Y0146561D01*
X0020165Y0146643D01*
X0020150Y0146725D01*
X0020130Y0146806D01*
X0020107Y0146887D01*
X0020080Y0146965D01*
X0020050Y0147043D01*
X0020015Y0147119D01*
X0019978Y0147193D01*
X0019937Y0147266D01*
X0019892Y0147336D01*
X0019845Y0147405D01*
X0019794Y0147471D01*
X0019740Y0147534D01*
X0019683Y0147595D01*
X0019623Y0147654D01*
X0019561Y0147709D01*
X0019496Y0147761D01*
X0019429Y0147811D01*
X0019359Y0147857D01*
X0019288Y0147900D01*
X0019214Y0147939D01*
X0019139Y0147975D01*
X0019062Y0148007D01*
X0018984Y0148036D01*
X0018905Y0148061D01*
X0018824Y0148082D01*
X0018743Y0148100D01*
X0018660Y0148113D01*
X0018577Y0148123D01*
X0018494Y0148129D01*
X0018411Y0148131D01*
X0016633Y0148131D01*
X0018411Y0148131D02*
X0018485Y0148133D01*
X0018560Y0148139D01*
X0018633Y0148149D01*
X0018707Y0148162D01*
X0018779Y0148179D01*
X0018850Y0148201D01*
X0018921Y0148225D01*
X0018989Y0148254D01*
X0019057Y0148286D01*
X0019122Y0148322D01*
X0019185Y0148360D01*
X0019247Y0148403D01*
X0019306Y0148448D01*
X0019363Y0148496D01*
X0019417Y0148547D01*
X0019468Y0148601D01*
X0019516Y0148658D01*
X0019561Y0148717D01*
X0019604Y0148779D01*
X0019642Y0148842D01*
X0019678Y0148907D01*
X0019710Y0148975D01*
X0019739Y0149043D01*
X0019763Y0149114D01*
X0019785Y0149185D01*
X0019802Y0149257D01*
X0019815Y0149331D01*
X0019825Y0149404D01*
X0019831Y0149479D01*
X0019833Y0149553D01*
X0019831Y0149627D01*
X0019825Y0149702D01*
X0019815Y0149775D01*
X0019802Y0149849D01*
X0019785Y0149921D01*
X0019763Y0149992D01*
X0019739Y0150063D01*
X0019710Y0150131D01*
X0019678Y0150199D01*
X0019642Y0150264D01*
X0019604Y0150327D01*
X0019561Y0150389D01*
X0019516Y0150448D01*
X0019468Y0150505D01*
X0019417Y0150559D01*
X0019363Y0150610D01*
X0019306Y0150658D01*
X0019247Y0150703D01*
X0019185Y0150746D01*
X0019122Y0150784D01*
X0019057Y0150820D01*
X0018989Y0150852D01*
X0018921Y0150881D01*
X0018850Y0150905D01*
X0018779Y0150927D01*
X0018707Y0150944D01*
X0018633Y0150957D01*
X0018560Y0150967D01*
X0018485Y0150973D01*
X0018411Y0150975D01*
X0018411Y0140975D02*
X0016633Y0140975D01*
X0016633Y0134575D01*
X0018411Y0134575D01*
X0018494Y0134577D01*
X0018577Y0134583D01*
X0018660Y0134593D01*
X0018743Y0134606D01*
X0018824Y0134624D01*
X0018905Y0134645D01*
X0018984Y0134670D01*
X0019062Y0134699D01*
X0019139Y0134731D01*
X0019214Y0134767D01*
X0019288Y0134806D01*
X0019359Y0134849D01*
X0019429Y0134895D01*
X0019496Y0134945D01*
X0019561Y0134997D01*
X0019623Y0135052D01*
X0019683Y0135111D01*
X0019740Y0135172D01*
X0019794Y0135235D01*
X0019845Y0135301D01*
X0019892Y0135370D01*
X0019937Y0135440D01*
X0019978Y0135513D01*
X0020015Y0135587D01*
X0020050Y0135663D01*
X0020080Y0135741D01*
X0020107Y0135819D01*
X0020130Y0135900D01*
X0020150Y0135981D01*
X0020165Y0136063D01*
X0020177Y0136145D01*
X0020185Y0136228D01*
X0020189Y0136311D01*
X0020189Y0136395D01*
X0020185Y0136478D01*
X0020177Y0136561D01*
X0020165Y0136643D01*
X0020150Y0136725D01*
X0020130Y0136806D01*
X0020107Y0136887D01*
X0020080Y0136965D01*
X0020050Y0137043D01*
X0020015Y0137119D01*
X0019978Y0137193D01*
X0019937Y0137266D01*
X0019892Y0137336D01*
X0019845Y0137405D01*
X0019794Y0137471D01*
X0019740Y0137534D01*
X0019683Y0137595D01*
X0019623Y0137654D01*
X0019561Y0137709D01*
X0019496Y0137761D01*
X0019429Y0137811D01*
X0019359Y0137857D01*
X0019288Y0137900D01*
X0019214Y0137939D01*
X0019139Y0137975D01*
X0019062Y0138007D01*
X0018984Y0138036D01*
X0018905Y0138061D01*
X0018824Y0138082D01*
X0018743Y0138100D01*
X0018660Y0138113D01*
X0018577Y0138123D01*
X0018494Y0138129D01*
X0018411Y0138131D01*
X0016633Y0138131D01*
X0018411Y0138131D02*
X0018485Y0138133D01*
X0018560Y0138139D01*
X0018633Y0138149D01*
X0018707Y0138162D01*
X0018779Y0138179D01*
X0018850Y0138201D01*
X0018921Y0138225D01*
X0018989Y0138254D01*
X0019057Y0138286D01*
X0019122Y0138322D01*
X0019185Y0138360D01*
X0019247Y0138403D01*
X0019306Y0138448D01*
X0019363Y0138496D01*
X0019417Y0138547D01*
X0019468Y0138601D01*
X0019516Y0138658D01*
X0019561Y0138717D01*
X0019604Y0138779D01*
X0019642Y0138842D01*
X0019678Y0138907D01*
X0019710Y0138975D01*
X0019739Y0139043D01*
X0019763Y0139114D01*
X0019785Y0139185D01*
X0019802Y0139257D01*
X0019815Y0139331D01*
X0019825Y0139404D01*
X0019831Y0139479D01*
X0019833Y0139553D01*
X0019831Y0139627D01*
X0019825Y0139702D01*
X0019815Y0139775D01*
X0019802Y0139849D01*
X0019785Y0139921D01*
X0019763Y0139992D01*
X0019739Y0140063D01*
X0019710Y0140131D01*
X0019678Y0140199D01*
X0019642Y0140264D01*
X0019604Y0140327D01*
X0019561Y0140389D01*
X0019516Y0140448D01*
X0019468Y0140505D01*
X0019417Y0140559D01*
X0019363Y0140610D01*
X0019306Y0140658D01*
X0019247Y0140703D01*
X0019185Y0140746D01*
X0019122Y0140784D01*
X0019057Y0140820D01*
X0018989Y0140852D01*
X0018921Y0140881D01*
X0018850Y0140905D01*
X0018779Y0140927D01*
X0018707Y0140944D01*
X0018633Y0140957D01*
X0018560Y0140967D01*
X0018485Y0140973D01*
X0018411Y0140975D01*
X0126633Y0154575D02*
X0126633Y0160975D01*
X0128411Y0160975D01*
X0128485Y0160973D01*
X0128560Y0160967D01*
X0128633Y0160957D01*
X0128707Y0160944D01*
X0128779Y0160927D01*
X0128850Y0160905D01*
X0128921Y0160881D01*
X0128989Y0160852D01*
X0129057Y0160820D01*
X0129122Y0160784D01*
X0129185Y0160746D01*
X0129247Y0160703D01*
X0129306Y0160658D01*
X0129363Y0160610D01*
X0129417Y0160559D01*
X0129468Y0160505D01*
X0129516Y0160448D01*
X0129561Y0160389D01*
X0129604Y0160327D01*
X0129642Y0160264D01*
X0129678Y0160199D01*
X0129710Y0160131D01*
X0129739Y0160063D01*
X0129763Y0159992D01*
X0129785Y0159921D01*
X0129802Y0159849D01*
X0129815Y0159775D01*
X0129825Y0159702D01*
X0129831Y0159627D01*
X0129833Y0159553D01*
X0129831Y0159479D01*
X0129825Y0159404D01*
X0129815Y0159331D01*
X0129802Y0159257D01*
X0129785Y0159185D01*
X0129763Y0159114D01*
X0129739Y0159043D01*
X0129710Y0158975D01*
X0129678Y0158907D01*
X0129642Y0158842D01*
X0129604Y0158779D01*
X0129561Y0158717D01*
X0129516Y0158658D01*
X0129468Y0158601D01*
X0129417Y0158547D01*
X0129363Y0158496D01*
X0129306Y0158448D01*
X0129247Y0158403D01*
X0129185Y0158360D01*
X0129122Y0158322D01*
X0129057Y0158286D01*
X0128989Y0158254D01*
X0128921Y0158225D01*
X0128850Y0158201D01*
X0128779Y0158179D01*
X0128707Y0158162D01*
X0128633Y0158149D01*
X0128560Y0158139D01*
X0128485Y0158133D01*
X0128411Y0158131D01*
X0126633Y0158131D01*
X0128411Y0158131D02*
X0128494Y0158129D01*
X0128577Y0158123D01*
X0128660Y0158113D01*
X0128743Y0158100D01*
X0128824Y0158082D01*
X0128905Y0158061D01*
X0128984Y0158036D01*
X0129062Y0158007D01*
X0129139Y0157975D01*
X0129214Y0157939D01*
X0129288Y0157900D01*
X0129359Y0157857D01*
X0129429Y0157811D01*
X0129496Y0157761D01*
X0129561Y0157709D01*
X0129623Y0157654D01*
X0129683Y0157595D01*
X0129740Y0157534D01*
X0129794Y0157471D01*
X0129845Y0157405D01*
X0129892Y0157336D01*
X0129937Y0157266D01*
X0129978Y0157193D01*
X0130015Y0157119D01*
X0130050Y0157043D01*
X0130080Y0156965D01*
X0130107Y0156887D01*
X0130130Y0156806D01*
X0130150Y0156725D01*
X0130165Y0156643D01*
X0130177Y0156561D01*
X0130185Y0156478D01*
X0130189Y0156395D01*
X0130189Y0156311D01*
X0130185Y0156228D01*
X0130177Y0156145D01*
X0130165Y0156063D01*
X0130150Y0155981D01*
X0130130Y0155900D01*
X0130107Y0155819D01*
X0130080Y0155741D01*
X0130050Y0155663D01*
X0130015Y0155587D01*
X0129978Y0155513D01*
X0129937Y0155440D01*
X0129892Y0155370D01*
X0129845Y0155301D01*
X0129794Y0155235D01*
X0129740Y0155172D01*
X0129683Y0155111D01*
X0129623Y0155052D01*
X0129561Y0154997D01*
X0129496Y0154945D01*
X0129429Y0154895D01*
X0129359Y0154849D01*
X0129288Y0154806D01*
X0129214Y0154767D01*
X0129139Y0154731D01*
X0129062Y0154699D01*
X0128984Y0154670D01*
X0128905Y0154645D01*
X0128824Y0154624D01*
X0128743Y0154606D01*
X0128660Y0154593D01*
X0128577Y0154583D01*
X0128494Y0154577D01*
X0128411Y0154575D01*
X0126633Y0154575D01*
X0131633Y0150975D02*
X0133411Y0150975D01*
X0133485Y0150973D01*
X0133560Y0150967D01*
X0133633Y0150957D01*
X0133707Y0150944D01*
X0133779Y0150927D01*
X0133850Y0150905D01*
X0133921Y0150881D01*
X0133989Y0150852D01*
X0134057Y0150820D01*
X0134122Y0150784D01*
X0134185Y0150746D01*
X0134247Y0150703D01*
X0134306Y0150658D01*
X0134363Y0150610D01*
X0134417Y0150559D01*
X0134468Y0150505D01*
X0134516Y0150448D01*
X0134561Y0150389D01*
X0134604Y0150327D01*
X0134642Y0150264D01*
X0134678Y0150199D01*
X0134710Y0150131D01*
X0134739Y0150063D01*
X0134763Y0149992D01*
X0134785Y0149921D01*
X0134802Y0149849D01*
X0134815Y0149775D01*
X0134825Y0149702D01*
X0134831Y0149627D01*
X0134833Y0149553D01*
X0134831Y0149479D01*
X0134825Y0149404D01*
X0134815Y0149331D01*
X0134802Y0149257D01*
X0134785Y0149185D01*
X0134763Y0149114D01*
X0134739Y0149043D01*
X0134710Y0148975D01*
X0134678Y0148907D01*
X0134642Y0148842D01*
X0134604Y0148779D01*
X0134561Y0148717D01*
X0134516Y0148658D01*
X0134468Y0148601D01*
X0134417Y0148547D01*
X0134363Y0148496D01*
X0134306Y0148448D01*
X0134247Y0148403D01*
X0134185Y0148360D01*
X0134122Y0148322D01*
X0134057Y0148286D01*
X0133989Y0148254D01*
X0133921Y0148225D01*
X0133850Y0148201D01*
X0133779Y0148179D01*
X0133707Y0148162D01*
X0133633Y0148149D01*
X0133560Y0148139D01*
X0133485Y0148133D01*
X0133411Y0148131D01*
X0131633Y0148131D01*
X0131633Y0150975D02*
X0131633Y0144575D01*
X0133411Y0144575D01*
X0133494Y0144577D01*
X0133577Y0144583D01*
X0133660Y0144593D01*
X0133743Y0144606D01*
X0133824Y0144624D01*
X0133905Y0144645D01*
X0133984Y0144670D01*
X0134062Y0144699D01*
X0134139Y0144731D01*
X0134214Y0144767D01*
X0134288Y0144806D01*
X0134359Y0144849D01*
X0134429Y0144895D01*
X0134496Y0144945D01*
X0134561Y0144997D01*
X0134623Y0145052D01*
X0134683Y0145111D01*
X0134740Y0145172D01*
X0134794Y0145235D01*
X0134845Y0145301D01*
X0134892Y0145370D01*
X0134937Y0145440D01*
X0134978Y0145513D01*
X0135015Y0145587D01*
X0135050Y0145663D01*
X0135080Y0145741D01*
X0135107Y0145819D01*
X0135130Y0145900D01*
X0135150Y0145981D01*
X0135165Y0146063D01*
X0135177Y0146145D01*
X0135185Y0146228D01*
X0135189Y0146311D01*
X0135189Y0146395D01*
X0135185Y0146478D01*
X0135177Y0146561D01*
X0135165Y0146643D01*
X0135150Y0146725D01*
X0135130Y0146806D01*
X0135107Y0146887D01*
X0135080Y0146965D01*
X0135050Y0147043D01*
X0135015Y0147119D01*
X0134978Y0147193D01*
X0134937Y0147266D01*
X0134892Y0147336D01*
X0134845Y0147405D01*
X0134794Y0147471D01*
X0134740Y0147534D01*
X0134683Y0147595D01*
X0134623Y0147654D01*
X0134561Y0147709D01*
X0134496Y0147761D01*
X0134429Y0147811D01*
X0134359Y0147857D01*
X0134288Y0147900D01*
X0134214Y0147939D01*
X0134139Y0147975D01*
X0134062Y0148007D01*
X0133984Y0148036D01*
X0133905Y0148061D01*
X0133824Y0148082D01*
X0133743Y0148100D01*
X0133660Y0148113D01*
X0133577Y0148123D01*
X0133494Y0148129D01*
X0133411Y0148131D01*
X0137499Y0148842D02*
X0137499Y0149198D01*
X0137499Y0148842D02*
X0137501Y0148768D01*
X0137507Y0148693D01*
X0137517Y0148620D01*
X0137530Y0148546D01*
X0137547Y0148474D01*
X0137569Y0148403D01*
X0137593Y0148332D01*
X0137622Y0148264D01*
X0137654Y0148196D01*
X0137690Y0148131D01*
X0137728Y0148068D01*
X0137771Y0148006D01*
X0137816Y0147947D01*
X0137864Y0147890D01*
X0137915Y0147836D01*
X0137969Y0147785D01*
X0138026Y0147737D01*
X0138085Y0147692D01*
X0138147Y0147649D01*
X0138210Y0147611D01*
X0138275Y0147575D01*
X0138343Y0147543D01*
X0138411Y0147514D01*
X0138482Y0147490D01*
X0138553Y0147468D01*
X0138625Y0147451D01*
X0138699Y0147438D01*
X0138772Y0147428D01*
X0138847Y0147422D01*
X0138921Y0147420D01*
X0141055Y0147420D01*
X0141055Y0149198D01*
X0141053Y0149281D01*
X0141047Y0149364D01*
X0141037Y0149447D01*
X0141024Y0149530D01*
X0141006Y0149611D01*
X0140985Y0149692D01*
X0140960Y0149771D01*
X0140931Y0149849D01*
X0140899Y0149926D01*
X0140863Y0150001D01*
X0140824Y0150075D01*
X0140781Y0150146D01*
X0140735Y0150216D01*
X0140685Y0150283D01*
X0140633Y0150348D01*
X0140578Y0150410D01*
X0140519Y0150470D01*
X0140458Y0150527D01*
X0140395Y0150581D01*
X0140329Y0150632D01*
X0140260Y0150679D01*
X0140190Y0150724D01*
X0140117Y0150765D01*
X0140043Y0150802D01*
X0139967Y0150837D01*
X0139889Y0150867D01*
X0139811Y0150894D01*
X0139730Y0150917D01*
X0139649Y0150937D01*
X0139567Y0150952D01*
X0139485Y0150964D01*
X0139402Y0150972D01*
X0139319Y0150976D01*
X0139235Y0150976D01*
X0139152Y0150972D01*
X0139069Y0150964D01*
X0138987Y0150952D01*
X0138905Y0150937D01*
X0138824Y0150917D01*
X0138743Y0150894D01*
X0138665Y0150867D01*
X0138587Y0150837D01*
X0138511Y0150802D01*
X0138437Y0150765D01*
X0138364Y0150724D01*
X0138294Y0150679D01*
X0138225Y0150632D01*
X0138159Y0150581D01*
X0138096Y0150527D01*
X0138035Y0150470D01*
X0137976Y0150410D01*
X0137921Y0150348D01*
X0137869Y0150283D01*
X0137819Y0150216D01*
X0137773Y0150146D01*
X0137730Y0150075D01*
X0137691Y0150001D01*
X0137655Y0149926D01*
X0137623Y0149849D01*
X0137594Y0149771D01*
X0137569Y0149692D01*
X0137548Y0149611D01*
X0137530Y0149530D01*
X0137517Y0149447D01*
X0137507Y0149364D01*
X0137501Y0149281D01*
X0137499Y0149198D01*
X0141054Y0147420D02*
X0141052Y0147316D01*
X0141046Y0147212D01*
X0141037Y0147109D01*
X0141024Y0147006D01*
X0141007Y0146903D01*
X0140986Y0146802D01*
X0140962Y0146701D01*
X0140933Y0146601D01*
X0140902Y0146502D01*
X0140866Y0146404D01*
X0140827Y0146308D01*
X0140785Y0146213D01*
X0140739Y0146120D01*
X0140690Y0146028D01*
X0140638Y0145938D01*
X0140582Y0145851D01*
X0140523Y0145765D01*
X0140461Y0145682D01*
X0140396Y0145601D01*
X0140328Y0145522D01*
X0140257Y0145446D01*
X0140184Y0145373D01*
X0140108Y0145302D01*
X0140029Y0145234D01*
X0139948Y0145169D01*
X0139865Y0145107D01*
X0139779Y0145048D01*
X0139692Y0144992D01*
X0139602Y0144940D01*
X0139510Y0144891D01*
X0139417Y0144845D01*
X0139322Y0144803D01*
X0139226Y0144764D01*
X0139128Y0144728D01*
X0139029Y0144697D01*
X0138929Y0144668D01*
X0138828Y0144644D01*
X0138727Y0144623D01*
X0138624Y0144606D01*
X0138521Y0144593D01*
X0138418Y0144584D01*
X0138314Y0144578D01*
X0138210Y0144576D01*
X0133411Y0140975D02*
X0131633Y0140975D01*
X0131633Y0134575D01*
X0133411Y0134575D01*
X0133494Y0134577D01*
X0133577Y0134583D01*
X0133660Y0134593D01*
X0133743Y0134606D01*
X0133824Y0134624D01*
X0133905Y0134645D01*
X0133984Y0134670D01*
X0134062Y0134699D01*
X0134139Y0134731D01*
X0134214Y0134767D01*
X0134288Y0134806D01*
X0134359Y0134849D01*
X0134429Y0134895D01*
X0134496Y0134945D01*
X0134561Y0134997D01*
X0134623Y0135052D01*
X0134683Y0135111D01*
X0134740Y0135172D01*
X0134794Y0135235D01*
X0134845Y0135301D01*
X0134892Y0135370D01*
X0134937Y0135440D01*
X0134978Y0135513D01*
X0135015Y0135587D01*
X0135050Y0135663D01*
X0135080Y0135741D01*
X0135107Y0135819D01*
X0135130Y0135900D01*
X0135150Y0135981D01*
X0135165Y0136063D01*
X0135177Y0136145D01*
X0135185Y0136228D01*
X0135189Y0136311D01*
X0135189Y0136395D01*
X0135185Y0136478D01*
X0135177Y0136561D01*
X0135165Y0136643D01*
X0135150Y0136725D01*
X0135130Y0136806D01*
X0135107Y0136887D01*
X0135080Y0136965D01*
X0135050Y0137043D01*
X0135015Y0137119D01*
X0134978Y0137193D01*
X0134937Y0137266D01*
X0134892Y0137336D01*
X0134845Y0137405D01*
X0134794Y0137471D01*
X0134740Y0137534D01*
X0134683Y0137595D01*
X0134623Y0137654D01*
X0134561Y0137709D01*
X0134496Y0137761D01*
X0134429Y0137811D01*
X0134359Y0137857D01*
X0134288Y0137900D01*
X0134214Y0137939D01*
X0134139Y0137975D01*
X0134062Y0138007D01*
X0133984Y0138036D01*
X0133905Y0138061D01*
X0133824Y0138082D01*
X0133743Y0138100D01*
X0133660Y0138113D01*
X0133577Y0138123D01*
X0133494Y0138129D01*
X0133411Y0138131D01*
X0131633Y0138131D01*
X0133411Y0138131D02*
X0133485Y0138133D01*
X0133560Y0138139D01*
X0133633Y0138149D01*
X0133707Y0138162D01*
X0133779Y0138179D01*
X0133850Y0138201D01*
X0133921Y0138225D01*
X0133989Y0138254D01*
X0134057Y0138286D01*
X0134122Y0138322D01*
X0134185Y0138360D01*
X0134247Y0138403D01*
X0134306Y0138448D01*
X0134363Y0138496D01*
X0134417Y0138547D01*
X0134468Y0138601D01*
X0134516Y0138658D01*
X0134561Y0138717D01*
X0134604Y0138779D01*
X0134642Y0138842D01*
X0134678Y0138907D01*
X0134710Y0138975D01*
X0134739Y0139043D01*
X0134763Y0139114D01*
X0134785Y0139185D01*
X0134802Y0139257D01*
X0134815Y0139331D01*
X0134825Y0139404D01*
X0134831Y0139479D01*
X0134833Y0139553D01*
X0134831Y0139627D01*
X0134825Y0139702D01*
X0134815Y0139775D01*
X0134802Y0139849D01*
X0134785Y0139921D01*
X0134763Y0139992D01*
X0134739Y0140063D01*
X0134710Y0140131D01*
X0134678Y0140199D01*
X0134642Y0140264D01*
X0134604Y0140327D01*
X0134561Y0140389D01*
X0134516Y0140448D01*
X0134468Y0140505D01*
X0134417Y0140559D01*
X0134363Y0140610D01*
X0134306Y0140658D01*
X0134247Y0140703D01*
X0134185Y0140746D01*
X0134122Y0140784D01*
X0134057Y0140820D01*
X0133989Y0140852D01*
X0133921Y0140881D01*
X0133850Y0140905D01*
X0133779Y0140927D01*
X0133707Y0140944D01*
X0133633Y0140957D01*
X0133560Y0140967D01*
X0133485Y0140973D01*
X0133411Y0140975D01*
X0137855Y0139553D02*
X0137857Y0139479D01*
X0137863Y0139404D01*
X0137873Y0139331D01*
X0137886Y0139257D01*
X0137903Y0139185D01*
X0137925Y0139114D01*
X0137949Y0139043D01*
X0137978Y0138975D01*
X0138010Y0138907D01*
X0138046Y0138842D01*
X0138084Y0138779D01*
X0138127Y0138717D01*
X0138172Y0138658D01*
X0138220Y0138601D01*
X0138271Y0138547D01*
X0138325Y0138496D01*
X0138382Y0138448D01*
X0138441Y0138403D01*
X0138503Y0138360D01*
X0138566Y0138322D01*
X0138631Y0138286D01*
X0138699Y0138254D01*
X0138767Y0138225D01*
X0138838Y0138201D01*
X0138909Y0138179D01*
X0138981Y0138162D01*
X0139055Y0138149D01*
X0139128Y0138139D01*
X0139203Y0138133D01*
X0139277Y0138131D01*
X0139351Y0138133D01*
X0139426Y0138139D01*
X0139499Y0138149D01*
X0139573Y0138162D01*
X0139645Y0138179D01*
X0139716Y0138201D01*
X0139787Y0138225D01*
X0139855Y0138254D01*
X0139923Y0138286D01*
X0139988Y0138322D01*
X0140051Y0138360D01*
X0140113Y0138403D01*
X0140172Y0138448D01*
X0140229Y0138496D01*
X0140283Y0138547D01*
X0140334Y0138601D01*
X0140382Y0138658D01*
X0140427Y0138717D01*
X0140470Y0138779D01*
X0140508Y0138842D01*
X0140544Y0138907D01*
X0140576Y0138975D01*
X0140605Y0139043D01*
X0140629Y0139114D01*
X0140651Y0139185D01*
X0140668Y0139257D01*
X0140681Y0139331D01*
X0140691Y0139404D01*
X0140697Y0139479D01*
X0140699Y0139553D01*
X0140697Y0139627D01*
X0140691Y0139702D01*
X0140681Y0139775D01*
X0140668Y0139849D01*
X0140651Y0139921D01*
X0140629Y0139992D01*
X0140605Y0140063D01*
X0140576Y0140131D01*
X0140544Y0140199D01*
X0140508Y0140264D01*
X0140470Y0140327D01*
X0140427Y0140389D01*
X0140382Y0140448D01*
X0140334Y0140505D01*
X0140283Y0140559D01*
X0140229Y0140610D01*
X0140172Y0140658D01*
X0140113Y0140703D01*
X0140051Y0140746D01*
X0139988Y0140784D01*
X0139923Y0140820D01*
X0139855Y0140852D01*
X0139787Y0140881D01*
X0139716Y0140905D01*
X0139645Y0140927D01*
X0139573Y0140944D01*
X0139499Y0140957D01*
X0139426Y0140967D01*
X0139351Y0140973D01*
X0139277Y0140975D01*
X0139203Y0140973D01*
X0139128Y0140967D01*
X0139055Y0140957D01*
X0138981Y0140944D01*
X0138909Y0140927D01*
X0138838Y0140905D01*
X0138767Y0140881D01*
X0138699Y0140852D01*
X0138631Y0140820D01*
X0138566Y0140784D01*
X0138503Y0140746D01*
X0138441Y0140703D01*
X0138382Y0140658D01*
X0138325Y0140610D01*
X0138271Y0140559D01*
X0138220Y0140505D01*
X0138172Y0140448D01*
X0138127Y0140389D01*
X0138084Y0140327D01*
X0138046Y0140264D01*
X0138010Y0140199D01*
X0137978Y0140131D01*
X0137949Y0140063D01*
X0137925Y0139992D01*
X0137903Y0139921D01*
X0137886Y0139849D01*
X0137873Y0139775D01*
X0137863Y0139702D01*
X0137857Y0139627D01*
X0137855Y0139553D01*
X0137499Y0136353D02*
X0137501Y0136270D01*
X0137507Y0136187D01*
X0137517Y0136104D01*
X0137530Y0136021D01*
X0137548Y0135940D01*
X0137569Y0135859D01*
X0137594Y0135780D01*
X0137623Y0135702D01*
X0137655Y0135625D01*
X0137691Y0135550D01*
X0137730Y0135476D01*
X0137773Y0135405D01*
X0137819Y0135335D01*
X0137869Y0135268D01*
X0137921Y0135203D01*
X0137976Y0135141D01*
X0138035Y0135081D01*
X0138096Y0135024D01*
X0138159Y0134970D01*
X0138225Y0134919D01*
X0138294Y0134872D01*
X0138364Y0134827D01*
X0138437Y0134786D01*
X0138511Y0134749D01*
X0138587Y0134714D01*
X0138665Y0134684D01*
X0138743Y0134657D01*
X0138824Y0134634D01*
X0138905Y0134614D01*
X0138987Y0134599D01*
X0139069Y0134587D01*
X0139152Y0134579D01*
X0139235Y0134575D01*
X0139319Y0134575D01*
X0139402Y0134579D01*
X0139485Y0134587D01*
X0139567Y0134599D01*
X0139649Y0134614D01*
X0139730Y0134634D01*
X0139811Y0134657D01*
X0139889Y0134684D01*
X0139967Y0134714D01*
X0140043Y0134749D01*
X0140117Y0134786D01*
X0140190Y0134827D01*
X0140260Y0134872D01*
X0140329Y0134919D01*
X0140395Y0134970D01*
X0140458Y0135024D01*
X0140519Y0135081D01*
X0140578Y0135141D01*
X0140633Y0135203D01*
X0140685Y0135268D01*
X0140735Y0135335D01*
X0140781Y0135405D01*
X0140824Y0135476D01*
X0140863Y0135550D01*
X0140899Y0135625D01*
X0140931Y0135702D01*
X0140960Y0135780D01*
X0140985Y0135859D01*
X0141006Y0135940D01*
X0141024Y0136021D01*
X0141037Y0136104D01*
X0141047Y0136187D01*
X0141053Y0136270D01*
X0141055Y0136353D01*
X0141053Y0136436D01*
X0141047Y0136519D01*
X0141037Y0136602D01*
X0141024Y0136685D01*
X0141006Y0136766D01*
X0140985Y0136847D01*
X0140960Y0136926D01*
X0140931Y0137004D01*
X0140899Y0137081D01*
X0140863Y0137156D01*
X0140824Y0137230D01*
X0140781Y0137301D01*
X0140735Y0137371D01*
X0140685Y0137438D01*
X0140633Y0137503D01*
X0140578Y0137565D01*
X0140519Y0137625D01*
X0140458Y0137682D01*
X0140395Y0137736D01*
X0140329Y0137787D01*
X0140260Y0137834D01*
X0140190Y0137879D01*
X0140117Y0137920D01*
X0140043Y0137957D01*
X0139967Y0137992D01*
X0139889Y0138022D01*
X0139811Y0138049D01*
X0139730Y0138072D01*
X0139649Y0138092D01*
X0139567Y0138107D01*
X0139485Y0138119D01*
X0139402Y0138127D01*
X0139319Y0138131D01*
X0139235Y0138131D01*
X0139152Y0138127D01*
X0139069Y0138119D01*
X0138987Y0138107D01*
X0138905Y0138092D01*
X0138824Y0138072D01*
X0138743Y0138049D01*
X0138665Y0138022D01*
X0138587Y0137992D01*
X0138511Y0137957D01*
X0138437Y0137920D01*
X0138364Y0137879D01*
X0138294Y0137834D01*
X0138225Y0137787D01*
X0138159Y0137736D01*
X0138096Y0137682D01*
X0138035Y0137625D01*
X0137976Y0137565D01*
X0137921Y0137503D01*
X0137869Y0137438D01*
X0137819Y0137371D01*
X0137773Y0137301D01*
X0137730Y0137230D01*
X0137691Y0137156D01*
X0137655Y0137081D01*
X0137623Y0137004D01*
X0137594Y0136926D01*
X0137569Y0136847D01*
X0137548Y0136766D01*
X0137530Y0136685D01*
X0137517Y0136602D01*
X0137507Y0136519D01*
X0137501Y0136436D01*
X0137499Y0136353D01*
X0137499Y0130975D02*
X0141055Y0130975D01*
X0139277Y0124575D01*
X0139251Y0120975D02*
X0139251Y0114575D01*
X0135695Y0120975D01*
X0135695Y0114575D01*
X0133056Y0114575D02*
X0131633Y0114575D01*
X0132344Y0114575D02*
X0132344Y0120975D01*
X0131633Y0120975D02*
X0133056Y0120975D01*
X0133411Y0124575D02*
X0131633Y0124575D01*
X0131633Y0130975D01*
X0133411Y0130975D01*
X0133485Y0130973D01*
X0133560Y0130967D01*
X0133633Y0130957D01*
X0133707Y0130944D01*
X0133779Y0130927D01*
X0133850Y0130905D01*
X0133921Y0130881D01*
X0133989Y0130852D01*
X0134057Y0130820D01*
X0134122Y0130784D01*
X0134185Y0130746D01*
X0134247Y0130703D01*
X0134306Y0130658D01*
X0134363Y0130610D01*
X0134417Y0130559D01*
X0134468Y0130505D01*
X0134516Y0130448D01*
X0134561Y0130389D01*
X0134604Y0130327D01*
X0134642Y0130264D01*
X0134678Y0130199D01*
X0134710Y0130131D01*
X0134739Y0130063D01*
X0134763Y0129992D01*
X0134785Y0129921D01*
X0134802Y0129849D01*
X0134815Y0129775D01*
X0134825Y0129702D01*
X0134831Y0129627D01*
X0134833Y0129553D01*
X0134831Y0129479D01*
X0134825Y0129404D01*
X0134815Y0129331D01*
X0134802Y0129257D01*
X0134785Y0129185D01*
X0134763Y0129114D01*
X0134739Y0129043D01*
X0134710Y0128975D01*
X0134678Y0128907D01*
X0134642Y0128842D01*
X0134604Y0128779D01*
X0134561Y0128717D01*
X0134516Y0128658D01*
X0134468Y0128601D01*
X0134417Y0128547D01*
X0134363Y0128496D01*
X0134306Y0128448D01*
X0134247Y0128403D01*
X0134185Y0128360D01*
X0134122Y0128322D01*
X0134057Y0128286D01*
X0133989Y0128254D01*
X0133921Y0128225D01*
X0133850Y0128201D01*
X0133779Y0128179D01*
X0133707Y0128162D01*
X0133633Y0128149D01*
X0133560Y0128139D01*
X0133485Y0128133D01*
X0133411Y0128131D01*
X0131633Y0128131D01*
X0133411Y0128131D02*
X0133494Y0128129D01*
X0133577Y0128123D01*
X0133660Y0128113D01*
X0133743Y0128100D01*
X0133824Y0128082D01*
X0133905Y0128061D01*
X0133984Y0128036D01*
X0134062Y0128007D01*
X0134139Y0127975D01*
X0134214Y0127939D01*
X0134288Y0127900D01*
X0134359Y0127857D01*
X0134429Y0127811D01*
X0134496Y0127761D01*
X0134561Y0127709D01*
X0134623Y0127654D01*
X0134683Y0127595D01*
X0134740Y0127534D01*
X0134794Y0127471D01*
X0134845Y0127405D01*
X0134892Y0127336D01*
X0134937Y0127266D01*
X0134978Y0127193D01*
X0135015Y0127119D01*
X0135050Y0127043D01*
X0135080Y0126965D01*
X0135107Y0126887D01*
X0135130Y0126806D01*
X0135150Y0126725D01*
X0135165Y0126643D01*
X0135177Y0126561D01*
X0135185Y0126478D01*
X0135189Y0126395D01*
X0135189Y0126311D01*
X0135185Y0126228D01*
X0135177Y0126145D01*
X0135165Y0126063D01*
X0135150Y0125981D01*
X0135130Y0125900D01*
X0135107Y0125819D01*
X0135080Y0125741D01*
X0135050Y0125663D01*
X0135015Y0125587D01*
X0134978Y0125513D01*
X0134937Y0125440D01*
X0134892Y0125370D01*
X0134845Y0125301D01*
X0134794Y0125235D01*
X0134740Y0125172D01*
X0134683Y0125111D01*
X0134623Y0125052D01*
X0134561Y0124997D01*
X0134496Y0124945D01*
X0134429Y0124895D01*
X0134359Y0124849D01*
X0134288Y0124806D01*
X0134214Y0124767D01*
X0134139Y0124731D01*
X0134062Y0124699D01*
X0133984Y0124670D01*
X0133905Y0124645D01*
X0133824Y0124624D01*
X0133743Y0124606D01*
X0133660Y0124593D01*
X0133577Y0124583D01*
X0133494Y0124577D01*
X0133411Y0124575D01*
X0137499Y0130264D02*
X0137499Y0130975D01*
X0136753Y0110975D02*
X0136753Y0104575D01*
X0133198Y0110975D01*
X0133198Y0104575D01*
X0130189Y0104575D02*
X0128056Y0104575D01*
X0128056Y0104576D02*
X0127982Y0104578D01*
X0127907Y0104584D01*
X0127834Y0104594D01*
X0127760Y0104607D01*
X0127688Y0104624D01*
X0127617Y0104646D01*
X0127546Y0104670D01*
X0127478Y0104699D01*
X0127410Y0104731D01*
X0127345Y0104767D01*
X0127282Y0104805D01*
X0127220Y0104848D01*
X0127161Y0104893D01*
X0127104Y0104941D01*
X0127050Y0104992D01*
X0126999Y0105046D01*
X0126951Y0105103D01*
X0126906Y0105162D01*
X0126863Y0105224D01*
X0126825Y0105287D01*
X0126789Y0105352D01*
X0126757Y0105420D01*
X0126728Y0105488D01*
X0126704Y0105559D01*
X0126682Y0105630D01*
X0126665Y0105702D01*
X0126652Y0105776D01*
X0126642Y0105849D01*
X0126636Y0105924D01*
X0126634Y0105998D01*
X0126633Y0105998D02*
X0126633Y0109553D01*
X0126634Y0109553D02*
X0126636Y0109627D01*
X0126642Y0109702D01*
X0126652Y0109775D01*
X0126665Y0109849D01*
X0126682Y0109921D01*
X0126704Y0109992D01*
X0126728Y0110063D01*
X0126757Y0110131D01*
X0126789Y0110199D01*
X0126825Y0110264D01*
X0126863Y0110327D01*
X0126906Y0110389D01*
X0126951Y0110448D01*
X0126999Y0110504D01*
X0127050Y0110559D01*
X0127104Y0110610D01*
X0127161Y0110658D01*
X0127220Y0110703D01*
X0127282Y0110746D01*
X0127345Y0110784D01*
X0127410Y0110820D01*
X0127478Y0110852D01*
X0127546Y0110881D01*
X0127617Y0110905D01*
X0127688Y0110927D01*
X0127760Y0110944D01*
X0127834Y0110957D01*
X0127907Y0110967D01*
X0127982Y0110973D01*
X0128056Y0110975D01*
X0130189Y0110975D01*
X0130189Y0108131D02*
X0129122Y0108131D01*
X0130189Y0108131D02*
X0130189Y0104575D01*
X0139762Y0104575D02*
X0141540Y0104575D01*
X0141622Y0104577D01*
X0141704Y0104583D01*
X0141786Y0104592D01*
X0141867Y0104605D01*
X0141947Y0104622D01*
X0142027Y0104643D01*
X0142105Y0104667D01*
X0142182Y0104695D01*
X0142258Y0104726D01*
X0142333Y0104761D01*
X0142405Y0104800D01*
X0142476Y0104841D01*
X0142545Y0104886D01*
X0142611Y0104934D01*
X0142676Y0104985D01*
X0142738Y0105039D01*
X0142797Y0105096D01*
X0142854Y0105155D01*
X0142908Y0105217D01*
X0142959Y0105282D01*
X0143007Y0105348D01*
X0143052Y0105417D01*
X0143093Y0105488D01*
X0143132Y0105560D01*
X0143167Y0105635D01*
X0143198Y0105711D01*
X0143226Y0105788D01*
X0143250Y0105866D01*
X0143271Y0105946D01*
X0143288Y0106026D01*
X0143301Y0106107D01*
X0143310Y0106189D01*
X0143316Y0106271D01*
X0143318Y0106353D01*
X0143317Y0106353D02*
X0143317Y0109198D01*
X0143318Y0109198D02*
X0143316Y0109280D01*
X0143310Y0109362D01*
X0143301Y0109444D01*
X0143288Y0109525D01*
X0143271Y0109605D01*
X0143250Y0109685D01*
X0143226Y0109763D01*
X0143198Y0109840D01*
X0143167Y0109916D01*
X0143132Y0109991D01*
X0143093Y0110063D01*
X0143052Y0110134D01*
X0143007Y0110203D01*
X0142959Y0110269D01*
X0142908Y0110334D01*
X0142854Y0110396D01*
X0142797Y0110455D01*
X0142738Y0110512D01*
X0142676Y0110566D01*
X0142611Y0110617D01*
X0142545Y0110665D01*
X0142476Y0110710D01*
X0142405Y0110751D01*
X0142333Y0110790D01*
X0142258Y0110825D01*
X0142182Y0110856D01*
X0142105Y0110884D01*
X0142027Y0110908D01*
X0141947Y0110929D01*
X0141867Y0110946D01*
X0141786Y0110959D01*
X0141704Y0110968D01*
X0141622Y0110974D01*
X0141540Y0110976D01*
X0141540Y0110975D02*
X0139762Y0110975D01*
X0139762Y0104575D01*
X0140431Y0154575D02*
X0138653Y0154575D01*
X0140431Y0154575D02*
X0140514Y0154577D01*
X0140597Y0154583D01*
X0140680Y0154593D01*
X0140763Y0154606D01*
X0140844Y0154624D01*
X0140925Y0154645D01*
X0141004Y0154670D01*
X0141082Y0154699D01*
X0141159Y0154731D01*
X0141234Y0154767D01*
X0141308Y0154806D01*
X0141379Y0154849D01*
X0141449Y0154895D01*
X0141516Y0154945D01*
X0141581Y0154997D01*
X0141643Y0155052D01*
X0141703Y0155111D01*
X0141760Y0155172D01*
X0141814Y0155235D01*
X0141865Y0155301D01*
X0141912Y0155370D01*
X0141957Y0155440D01*
X0141998Y0155513D01*
X0142035Y0155587D01*
X0142070Y0155663D01*
X0142100Y0155741D01*
X0142127Y0155819D01*
X0142150Y0155900D01*
X0142170Y0155981D01*
X0142185Y0156063D01*
X0142197Y0156145D01*
X0142205Y0156228D01*
X0142209Y0156311D01*
X0142209Y0156395D01*
X0142205Y0156478D01*
X0142197Y0156561D01*
X0142185Y0156643D01*
X0142170Y0156725D01*
X0142150Y0156806D01*
X0142127Y0156887D01*
X0142100Y0156965D01*
X0142070Y0157043D01*
X0142035Y0157119D01*
X0141998Y0157193D01*
X0141957Y0157266D01*
X0141912Y0157336D01*
X0141865Y0157405D01*
X0141814Y0157471D01*
X0141760Y0157534D01*
X0141703Y0157595D01*
X0141643Y0157654D01*
X0141581Y0157709D01*
X0141516Y0157761D01*
X0141449Y0157811D01*
X0141379Y0157857D01*
X0141308Y0157900D01*
X0141234Y0157939D01*
X0141159Y0157975D01*
X0141082Y0158007D01*
X0141004Y0158036D01*
X0140925Y0158061D01*
X0140844Y0158082D01*
X0140763Y0158100D01*
X0140680Y0158113D01*
X0140597Y0158123D01*
X0140514Y0158129D01*
X0140431Y0158131D01*
X0140787Y0158131D02*
X0139364Y0158131D01*
X0140787Y0158131D02*
X0140861Y0158133D01*
X0140936Y0158139D01*
X0141009Y0158149D01*
X0141083Y0158162D01*
X0141155Y0158179D01*
X0141226Y0158201D01*
X0141297Y0158225D01*
X0141365Y0158254D01*
X0141433Y0158286D01*
X0141498Y0158322D01*
X0141561Y0158360D01*
X0141623Y0158403D01*
X0141682Y0158448D01*
X0141739Y0158496D01*
X0141793Y0158547D01*
X0141844Y0158601D01*
X0141892Y0158658D01*
X0141937Y0158717D01*
X0141980Y0158779D01*
X0142018Y0158842D01*
X0142054Y0158907D01*
X0142086Y0158975D01*
X0142115Y0159043D01*
X0142139Y0159114D01*
X0142161Y0159185D01*
X0142178Y0159257D01*
X0142191Y0159331D01*
X0142201Y0159404D01*
X0142207Y0159479D01*
X0142209Y0159553D01*
X0142207Y0159627D01*
X0142201Y0159702D01*
X0142191Y0159775D01*
X0142178Y0159849D01*
X0142161Y0159921D01*
X0142139Y0159992D01*
X0142115Y0160063D01*
X0142086Y0160131D01*
X0142054Y0160199D01*
X0142018Y0160264D01*
X0141980Y0160327D01*
X0141937Y0160389D01*
X0141892Y0160448D01*
X0141844Y0160505D01*
X0141793Y0160559D01*
X0141739Y0160610D01*
X0141682Y0160658D01*
X0141623Y0160703D01*
X0141561Y0160746D01*
X0141498Y0160784D01*
X0141433Y0160820D01*
X0141365Y0160852D01*
X0141297Y0160881D01*
X0141226Y0160905D01*
X0141155Y0160927D01*
X0141083Y0160944D01*
X0141009Y0160957D01*
X0140936Y0160967D01*
X0140861Y0160973D01*
X0140787Y0160975D01*
X0138653Y0160975D01*
X0141142Y0164575D02*
X0141142Y0167420D01*
X0142209Y0165998D02*
X0138653Y0165998D01*
X0140075Y0170975D01*
X0140787Y0174575D02*
X0138653Y0174575D01*
X0140787Y0174576D02*
X0140861Y0174578D01*
X0140936Y0174584D01*
X0141009Y0174594D01*
X0141083Y0174607D01*
X0141155Y0174624D01*
X0141226Y0174646D01*
X0141297Y0174670D01*
X0141365Y0174699D01*
X0141433Y0174731D01*
X0141498Y0174767D01*
X0141561Y0174805D01*
X0141623Y0174848D01*
X0141682Y0174893D01*
X0141739Y0174941D01*
X0141793Y0174992D01*
X0141844Y0175046D01*
X0141892Y0175103D01*
X0141937Y0175162D01*
X0141980Y0175224D01*
X0142018Y0175287D01*
X0142054Y0175352D01*
X0142086Y0175420D01*
X0142115Y0175488D01*
X0142139Y0175559D01*
X0142161Y0175630D01*
X0142178Y0175702D01*
X0142191Y0175776D01*
X0142201Y0175849D01*
X0142207Y0175924D01*
X0142209Y0175998D01*
X0142209Y0176709D01*
X0142207Y0176783D01*
X0142201Y0176858D01*
X0142191Y0176931D01*
X0142178Y0177005D01*
X0142161Y0177077D01*
X0142139Y0177148D01*
X0142115Y0177219D01*
X0142086Y0177287D01*
X0142054Y0177355D01*
X0142018Y0177420D01*
X0141980Y0177483D01*
X0141937Y0177545D01*
X0141892Y0177604D01*
X0141844Y0177661D01*
X0141793Y0177715D01*
X0141739Y0177766D01*
X0141682Y0177814D01*
X0141623Y0177859D01*
X0141561Y0177902D01*
X0141498Y0177940D01*
X0141433Y0177976D01*
X0141365Y0178008D01*
X0141297Y0178037D01*
X0141226Y0178061D01*
X0141155Y0178083D01*
X0141083Y0178100D01*
X0141009Y0178113D01*
X0140936Y0178123D01*
X0140861Y0178129D01*
X0140787Y0178131D01*
X0138653Y0178131D01*
X0138653Y0180975D01*
X0142209Y0180975D01*
X0136055Y0174575D02*
X0132499Y0174575D01*
X0134277Y0174575D02*
X0134277Y0180975D01*
X0132499Y0179553D01*
X0128411Y0178131D02*
X0128485Y0178133D01*
X0128560Y0178139D01*
X0128633Y0178149D01*
X0128707Y0178162D01*
X0128779Y0178179D01*
X0128850Y0178201D01*
X0128921Y0178225D01*
X0128989Y0178254D01*
X0129057Y0178286D01*
X0129122Y0178322D01*
X0129185Y0178360D01*
X0129247Y0178403D01*
X0129306Y0178448D01*
X0129363Y0178496D01*
X0129417Y0178547D01*
X0129468Y0178601D01*
X0129516Y0178658D01*
X0129561Y0178717D01*
X0129604Y0178779D01*
X0129642Y0178842D01*
X0129678Y0178907D01*
X0129710Y0178975D01*
X0129739Y0179043D01*
X0129763Y0179114D01*
X0129785Y0179185D01*
X0129802Y0179257D01*
X0129815Y0179331D01*
X0129825Y0179404D01*
X0129831Y0179479D01*
X0129833Y0179553D01*
X0129831Y0179627D01*
X0129825Y0179702D01*
X0129815Y0179775D01*
X0129802Y0179849D01*
X0129785Y0179921D01*
X0129763Y0179992D01*
X0129739Y0180063D01*
X0129710Y0180131D01*
X0129678Y0180199D01*
X0129642Y0180264D01*
X0129604Y0180327D01*
X0129561Y0180389D01*
X0129516Y0180448D01*
X0129468Y0180505D01*
X0129417Y0180559D01*
X0129363Y0180610D01*
X0129306Y0180658D01*
X0129247Y0180703D01*
X0129185Y0180746D01*
X0129122Y0180784D01*
X0129057Y0180820D01*
X0128989Y0180852D01*
X0128921Y0180881D01*
X0128850Y0180905D01*
X0128779Y0180927D01*
X0128707Y0180944D01*
X0128633Y0180957D01*
X0128560Y0180967D01*
X0128485Y0180973D01*
X0128411Y0180975D01*
X0126633Y0180975D01*
X0126633Y0174575D01*
X0128411Y0174575D01*
X0128494Y0174577D01*
X0128577Y0174583D01*
X0128660Y0174593D01*
X0128743Y0174606D01*
X0128824Y0174624D01*
X0128905Y0174645D01*
X0128984Y0174670D01*
X0129062Y0174699D01*
X0129139Y0174731D01*
X0129214Y0174767D01*
X0129288Y0174806D01*
X0129359Y0174849D01*
X0129429Y0174895D01*
X0129496Y0174945D01*
X0129561Y0174997D01*
X0129623Y0175052D01*
X0129683Y0175111D01*
X0129740Y0175172D01*
X0129794Y0175235D01*
X0129845Y0175301D01*
X0129892Y0175370D01*
X0129937Y0175440D01*
X0129978Y0175513D01*
X0130015Y0175587D01*
X0130050Y0175663D01*
X0130080Y0175741D01*
X0130107Y0175819D01*
X0130130Y0175900D01*
X0130150Y0175981D01*
X0130165Y0176063D01*
X0130177Y0176145D01*
X0130185Y0176228D01*
X0130189Y0176311D01*
X0130189Y0176395D01*
X0130185Y0176478D01*
X0130177Y0176561D01*
X0130165Y0176643D01*
X0130150Y0176725D01*
X0130130Y0176806D01*
X0130107Y0176887D01*
X0130080Y0176965D01*
X0130050Y0177043D01*
X0130015Y0177119D01*
X0129978Y0177193D01*
X0129937Y0177266D01*
X0129892Y0177336D01*
X0129845Y0177405D01*
X0129794Y0177471D01*
X0129740Y0177534D01*
X0129683Y0177595D01*
X0129623Y0177654D01*
X0129561Y0177709D01*
X0129496Y0177761D01*
X0129429Y0177811D01*
X0129359Y0177857D01*
X0129288Y0177900D01*
X0129214Y0177939D01*
X0129139Y0177975D01*
X0129062Y0178007D01*
X0128984Y0178036D01*
X0128905Y0178061D01*
X0128824Y0178082D01*
X0128743Y0178100D01*
X0128660Y0178113D01*
X0128577Y0178123D01*
X0128494Y0178129D01*
X0128411Y0178131D01*
X0126633Y0178131D01*
X0126633Y0170975D02*
X0128411Y0170975D01*
X0128485Y0170973D01*
X0128560Y0170967D01*
X0128633Y0170957D01*
X0128707Y0170944D01*
X0128779Y0170927D01*
X0128850Y0170905D01*
X0128921Y0170881D01*
X0128989Y0170852D01*
X0129057Y0170820D01*
X0129122Y0170784D01*
X0129185Y0170746D01*
X0129247Y0170703D01*
X0129306Y0170658D01*
X0129363Y0170610D01*
X0129417Y0170559D01*
X0129468Y0170505D01*
X0129516Y0170448D01*
X0129561Y0170389D01*
X0129604Y0170327D01*
X0129642Y0170264D01*
X0129678Y0170199D01*
X0129710Y0170131D01*
X0129739Y0170063D01*
X0129763Y0169992D01*
X0129785Y0169921D01*
X0129802Y0169849D01*
X0129815Y0169775D01*
X0129825Y0169702D01*
X0129831Y0169627D01*
X0129833Y0169553D01*
X0129831Y0169479D01*
X0129825Y0169404D01*
X0129815Y0169331D01*
X0129802Y0169257D01*
X0129785Y0169185D01*
X0129763Y0169114D01*
X0129739Y0169043D01*
X0129710Y0168975D01*
X0129678Y0168907D01*
X0129642Y0168842D01*
X0129604Y0168779D01*
X0129561Y0168717D01*
X0129516Y0168658D01*
X0129468Y0168601D01*
X0129417Y0168547D01*
X0129363Y0168496D01*
X0129306Y0168448D01*
X0129247Y0168403D01*
X0129185Y0168360D01*
X0129122Y0168322D01*
X0129057Y0168286D01*
X0128989Y0168254D01*
X0128921Y0168225D01*
X0128850Y0168201D01*
X0128779Y0168179D01*
X0128707Y0168162D01*
X0128633Y0168149D01*
X0128560Y0168139D01*
X0128485Y0168133D01*
X0128411Y0168131D01*
X0126633Y0168131D01*
X0128411Y0168131D02*
X0128494Y0168129D01*
X0128577Y0168123D01*
X0128660Y0168113D01*
X0128743Y0168100D01*
X0128824Y0168082D01*
X0128905Y0168061D01*
X0128984Y0168036D01*
X0129062Y0168007D01*
X0129139Y0167975D01*
X0129214Y0167939D01*
X0129288Y0167900D01*
X0129359Y0167857D01*
X0129429Y0167811D01*
X0129496Y0167761D01*
X0129561Y0167709D01*
X0129623Y0167654D01*
X0129683Y0167595D01*
X0129740Y0167534D01*
X0129794Y0167471D01*
X0129845Y0167405D01*
X0129892Y0167336D01*
X0129937Y0167266D01*
X0129978Y0167193D01*
X0130015Y0167119D01*
X0130050Y0167043D01*
X0130080Y0166965D01*
X0130107Y0166887D01*
X0130130Y0166806D01*
X0130150Y0166725D01*
X0130165Y0166643D01*
X0130177Y0166561D01*
X0130185Y0166478D01*
X0130189Y0166395D01*
X0130189Y0166311D01*
X0130185Y0166228D01*
X0130177Y0166145D01*
X0130165Y0166063D01*
X0130150Y0165981D01*
X0130130Y0165900D01*
X0130107Y0165819D01*
X0130080Y0165741D01*
X0130050Y0165663D01*
X0130015Y0165587D01*
X0129978Y0165513D01*
X0129937Y0165440D01*
X0129892Y0165370D01*
X0129845Y0165301D01*
X0129794Y0165235D01*
X0129740Y0165172D01*
X0129683Y0165111D01*
X0129623Y0165052D01*
X0129561Y0164997D01*
X0129496Y0164945D01*
X0129429Y0164895D01*
X0129359Y0164849D01*
X0129288Y0164806D01*
X0129214Y0164767D01*
X0129139Y0164731D01*
X0129062Y0164699D01*
X0128984Y0164670D01*
X0128905Y0164645D01*
X0128824Y0164624D01*
X0128743Y0164606D01*
X0128660Y0164593D01*
X0128577Y0164583D01*
X0128494Y0164577D01*
X0128411Y0164575D01*
X0126633Y0164575D01*
X0126633Y0170975D01*
X0132499Y0169553D02*
X0134277Y0170975D01*
X0134277Y0164575D01*
X0132499Y0164575D02*
X0136055Y0164575D01*
X0134277Y0160975D02*
X0134277Y0154575D01*
X0132499Y0154575D02*
X0136055Y0154575D01*
X0132499Y0159553D02*
X0134277Y0160975D01*
D11*
X0144333Y0159775D02*
X0144333Y0154775D01*
X0146833Y0152275D01*
X0144333Y0149775D01*
X0144333Y0144775D01*
X0146833Y0142275D01*
X0144333Y0139775D01*
X0144333Y0134775D01*
X0146833Y0132275D01*
X0144333Y0129775D01*
X0144333Y0124775D01*
X0146833Y0122275D01*
X0144333Y0119775D01*
X0144333Y0114775D01*
X0146833Y0112275D01*
X0144333Y0109775D01*
X0144333Y0104775D01*
X0146833Y0102275D01*
X0151833Y0102275D01*
X0154333Y0104775D01*
X0154333Y0109775D01*
X0151833Y0112275D01*
X0154333Y0114775D01*
X0154333Y0119775D01*
X0151833Y0122275D01*
X0154333Y0124775D01*
X0154333Y0129775D01*
X0151833Y0132275D01*
X0154333Y0134775D01*
X0154333Y0139775D01*
X0151833Y0142275D01*
X0154333Y0144775D01*
X0154333Y0149775D01*
X0151833Y0152275D01*
X0154333Y0154775D01*
X0154333Y0159775D01*
X0151833Y0162275D01*
X0154333Y0164775D01*
X0154333Y0169775D01*
X0151833Y0172275D01*
X0154333Y0174775D01*
X0154333Y0179775D01*
X0151833Y0182275D01*
X0146833Y0182275D01*
X0144333Y0179775D01*
X0144333Y0174775D01*
X0146833Y0172275D01*
X0144333Y0169775D01*
X0144333Y0164775D01*
X0146833Y0162275D01*
X0144333Y0159775D01*
X0126833Y0132275D02*
X0121833Y0132275D01*
X0119333Y0129775D01*
X0119333Y0124775D01*
X0121833Y0122275D01*
X0119333Y0119775D01*
X0119333Y0114775D01*
X0121833Y0112275D01*
X0126833Y0112275D01*
X0129333Y0114775D01*
X0129333Y0119775D01*
X0126833Y0122275D01*
X0129333Y0124775D01*
X0129333Y0129775D01*
X0126833Y0132275D01*
X0126833Y0102275D02*
X0121833Y0102275D01*
X0119333Y0099775D01*
X0119333Y0094775D01*
X0121833Y0092275D01*
X0126833Y0092275D01*
X0129333Y0094775D01*
X0131833Y0092275D01*
X0136833Y0092275D01*
X0139333Y0094775D01*
X0139333Y0099775D01*
X0136833Y0102275D01*
X0131833Y0102275D01*
X0129333Y0099775D01*
X0126833Y0102275D01*
X0144333Y0089775D02*
X0144333Y0084775D01*
X0146833Y0082275D01*
X0144333Y0079775D01*
X0144333Y0074775D01*
X0146833Y0072275D01*
X0151833Y0072275D01*
X0154333Y0074775D01*
X0154333Y0079775D01*
X0151833Y0082275D01*
X0154333Y0084775D01*
X0154333Y0089775D01*
X0151833Y0092275D01*
X0146833Y0092275D01*
X0144333Y0089775D01*
X0141833Y0052275D02*
X0136833Y0052275D01*
X0134333Y0049775D01*
X0134333Y0044775D01*
X0136833Y0042275D01*
X0141833Y0042275D01*
X0144333Y0044775D01*
X0146833Y0042275D01*
X0151833Y0042275D01*
X0154333Y0044775D01*
X0154333Y0049775D01*
X0151833Y0052275D01*
X0146833Y0052275D01*
X0144333Y0049775D01*
X0141833Y0052275D01*
X0129333Y0049775D02*
X0129333Y0044775D01*
X0126833Y0042275D01*
X0129333Y0039775D01*
X0129333Y0034775D01*
X0126833Y0032275D01*
X0129333Y0029775D01*
X0129333Y0024775D01*
X0126833Y0022275D01*
X0121833Y0022275D01*
X0119333Y0024775D01*
X0119333Y0029775D01*
X0121833Y0032275D01*
X0119333Y0034775D01*
X0119333Y0039775D01*
X0121833Y0042275D01*
X0119333Y0044775D01*
X0119333Y0049775D01*
X0121833Y0052275D01*
X0126833Y0052275D01*
X0129333Y0049775D01*
X0136833Y0032275D02*
X0141833Y0032275D01*
X0144333Y0029775D01*
X0146833Y0032275D01*
X0151833Y0032275D01*
X0154333Y0029775D01*
X0154333Y0024775D01*
X0151833Y0022275D01*
X0146833Y0022275D01*
X0144333Y0024775D01*
X0141833Y0022275D01*
X0136833Y0022275D01*
X0134333Y0024775D01*
X0134333Y0029775D01*
X0136833Y0032275D01*
X0138833Y0019275D02*
X0136333Y0016775D01*
X0133833Y0019275D01*
X0128833Y0019275D01*
X0126333Y0016775D01*
X0123833Y0019275D01*
X0118833Y0019275D01*
X0116333Y0016775D01*
X0113833Y0019275D01*
X0108833Y0019275D01*
X0106333Y0016775D01*
X0106333Y0011775D01*
X0108833Y0009275D01*
X0113833Y0009275D01*
X0116333Y0011775D01*
X0118833Y0009275D01*
X0123833Y0009275D01*
X0126333Y0011775D01*
X0128833Y0009275D01*
X0133833Y0009275D01*
X0136333Y0011775D01*
X0138833Y0009275D01*
X0143833Y0009275D01*
X0146333Y0011775D01*
X0148833Y0009275D01*
X0153833Y0009275D01*
X0156333Y0011775D01*
X0156333Y0016775D01*
X0153833Y0019275D01*
X0148833Y0019275D01*
X0146333Y0016775D01*
X0143833Y0019275D01*
X0138833Y0019275D01*
X0097719Y0017197D02*
X0097719Y0023496D01*
X0092995Y0023496D01*
X0092995Y0017984D01*
X0075672Y0017984D01*
X0075672Y0023496D01*
X0070948Y0023496D01*
X0070948Y0017197D01*
X0070948Y0006567D02*
X0097719Y0006567D01*
X0059333Y0044775D02*
X0059333Y0049775D01*
X0056833Y0052275D01*
X0059333Y0054775D01*
X0059333Y0059775D01*
X0056833Y0062275D01*
X0051833Y0062275D01*
X0049333Y0059775D01*
X0049333Y0054775D01*
X0051833Y0052275D01*
X0049333Y0049775D01*
X0049333Y0044775D01*
X0051833Y0042275D01*
X0056833Y0042275D01*
X0059333Y0044775D01*
X0056833Y0082275D02*
X0051833Y0082275D01*
X0049333Y0084775D01*
X0049333Y0089775D01*
X0051833Y0092275D01*
X0049333Y0094775D01*
X0049333Y0099775D01*
X0051833Y0102275D01*
X0049333Y0104775D01*
X0049333Y0109775D01*
X0051833Y0112275D01*
X0056833Y0112275D01*
X0059333Y0109775D01*
X0059333Y0104775D01*
X0056833Y0102275D01*
X0059333Y0099775D01*
X0059333Y0094775D01*
X0056833Y0092275D01*
X0059333Y0089775D01*
X0059333Y0084775D01*
X0056833Y0082275D01*
X0014333Y0079775D02*
X0014333Y0074775D01*
X0011833Y0072275D01*
X0006833Y0072275D01*
X0004333Y0074775D01*
X0004333Y0079775D01*
X0006833Y0082275D01*
X0004333Y0084775D01*
X0004333Y0089775D01*
X0006833Y0092275D01*
X0011833Y0092275D01*
X0014333Y0089775D01*
X0014333Y0084775D01*
X0011833Y0082275D01*
X0014333Y0079775D01*
X0011833Y0062275D02*
X0006833Y0062275D01*
X0004333Y0059775D01*
X0004333Y0054775D01*
X0006833Y0052275D01*
X0004333Y0049775D01*
X0004333Y0044775D01*
X0006833Y0042275D01*
X0011833Y0042275D01*
X0014333Y0044775D01*
X0014333Y0049775D01*
X0011833Y0052275D01*
X0014333Y0054775D01*
X0014333Y0059775D01*
X0011833Y0062275D01*
X0011833Y0102275D02*
X0006833Y0102275D01*
X0004333Y0104775D01*
X0004333Y0109775D01*
X0006833Y0112275D01*
X0004333Y0114775D01*
X0004333Y0119775D01*
X0006833Y0122275D01*
X0004333Y0124775D01*
X0004333Y0129775D01*
X0006833Y0132275D01*
X0004333Y0134775D01*
X0004333Y0139775D01*
X0006833Y0142275D01*
X0004333Y0144775D01*
X0004333Y0149775D01*
X0006833Y0152275D01*
X0004333Y0154775D01*
X0004333Y0159775D01*
X0006833Y0162275D01*
X0004333Y0164775D01*
X0004333Y0169775D01*
X0006833Y0172275D01*
X0004333Y0174775D01*
X0004333Y0179775D01*
X0006833Y0182275D01*
X0011833Y0182275D01*
X0014333Y0179775D01*
X0014333Y0174775D01*
X0011833Y0172275D01*
X0014333Y0169775D01*
X0014333Y0164775D01*
X0011833Y0162275D01*
X0014333Y0159775D01*
X0014333Y0154775D01*
X0011833Y0152275D01*
X0014333Y0149775D01*
X0014333Y0144775D01*
X0011833Y0142275D01*
X0014333Y0139775D01*
X0014333Y0134775D01*
X0011833Y0132275D01*
X0014333Y0129775D01*
X0014333Y0124775D01*
X0011833Y0122275D01*
X0014333Y0119775D01*
X0014333Y0114775D01*
X0011833Y0112275D01*
X0014333Y0109775D01*
X0014333Y0104775D01*
X0011833Y0102275D01*
X0066833Y0187275D02*
X0071833Y0187275D01*
X0074333Y0189775D01*
X0076833Y0187275D01*
X0081833Y0187275D01*
X0084333Y0189775D01*
X0084333Y0194775D01*
X0081833Y0197275D01*
X0076833Y0197275D01*
X0074333Y0194775D01*
X0071833Y0197275D01*
X0066833Y0197275D01*
X0064333Y0194775D01*
X0064333Y0189775D01*
X0066833Y0187275D01*
X0076333Y0174275D02*
X0076335Y0174416D01*
X0076341Y0174557D01*
X0076351Y0174697D01*
X0076365Y0174837D01*
X0076383Y0174977D01*
X0076404Y0175116D01*
X0076430Y0175255D01*
X0076459Y0175393D01*
X0076493Y0175529D01*
X0076530Y0175665D01*
X0076571Y0175800D01*
X0076616Y0175934D01*
X0076665Y0176066D01*
X0076717Y0176197D01*
X0076773Y0176326D01*
X0076833Y0176453D01*
X0076896Y0176579D01*
X0076962Y0176703D01*
X0077033Y0176826D01*
X0077106Y0176946D01*
X0077183Y0177064D01*
X0077263Y0177180D01*
X0077347Y0177293D01*
X0077433Y0177404D01*
X0077523Y0177513D01*
X0077616Y0177619D01*
X0077711Y0177722D01*
X0077810Y0177823D01*
X0077911Y0177921D01*
X0078015Y0178016D01*
X0078122Y0178108D01*
X0078231Y0178197D01*
X0078343Y0178282D01*
X0078457Y0178365D01*
X0078573Y0178445D01*
X0078692Y0178521D01*
X0078813Y0178593D01*
X0078935Y0178663D01*
X0079060Y0178728D01*
X0079186Y0178791D01*
X0079314Y0178849D01*
X0079444Y0178904D01*
X0079575Y0178956D01*
X0079708Y0179003D01*
X0079842Y0179047D01*
X0079977Y0179088D01*
X0080113Y0179124D01*
X0080250Y0179156D01*
X0080388Y0179185D01*
X0080526Y0179210D01*
X0080666Y0179230D01*
X0080806Y0179247D01*
X0080946Y0179260D01*
X0081087Y0179269D01*
X0081227Y0179274D01*
X0081368Y0179275D01*
X0081509Y0179272D01*
X0081650Y0179265D01*
X0081790Y0179254D01*
X0081930Y0179239D01*
X0082070Y0179220D01*
X0082209Y0179198D01*
X0082347Y0179171D01*
X0082485Y0179141D01*
X0082621Y0179106D01*
X0082757Y0179068D01*
X0082891Y0179026D01*
X0083025Y0178980D01*
X0083157Y0178931D01*
X0083287Y0178877D01*
X0083416Y0178820D01*
X0083543Y0178760D01*
X0083669Y0178696D01*
X0083792Y0178628D01*
X0083914Y0178557D01*
X0084034Y0178483D01*
X0084151Y0178405D01*
X0084266Y0178324D01*
X0084379Y0178240D01*
X0084490Y0178153D01*
X0084598Y0178062D01*
X0084703Y0177969D01*
X0084806Y0177872D01*
X0084906Y0177773D01*
X0085003Y0177671D01*
X0085097Y0177566D01*
X0085188Y0177459D01*
X0085276Y0177349D01*
X0085361Y0177237D01*
X0085443Y0177122D01*
X0085522Y0177005D01*
X0085597Y0176886D01*
X0085669Y0176765D01*
X0085737Y0176642D01*
X0085802Y0176517D01*
X0085864Y0176390D01*
X0085921Y0176261D01*
X0085976Y0176131D01*
X0086026Y0176000D01*
X0086073Y0175867D01*
X0086116Y0175733D01*
X0086155Y0175597D01*
X0086190Y0175461D01*
X0086222Y0175324D01*
X0086249Y0175186D01*
X0086273Y0175047D01*
X0086293Y0174907D01*
X0086309Y0174767D01*
X0086321Y0174627D01*
X0086329Y0174486D01*
X0086333Y0174345D01*
X0086333Y0174205D01*
X0086329Y0174064D01*
X0086321Y0173923D01*
X0086309Y0173783D01*
X0086293Y0173643D01*
X0086273Y0173503D01*
X0086249Y0173364D01*
X0086222Y0173226D01*
X0086190Y0173089D01*
X0086155Y0172953D01*
X0086116Y0172817D01*
X0086073Y0172683D01*
X0086026Y0172550D01*
X0085976Y0172419D01*
X0085921Y0172289D01*
X0085864Y0172160D01*
X0085802Y0172033D01*
X0085737Y0171908D01*
X0085669Y0171785D01*
X0085597Y0171664D01*
X0085522Y0171545D01*
X0085443Y0171428D01*
X0085361Y0171313D01*
X0085276Y0171201D01*
X0085188Y0171091D01*
X0085097Y0170984D01*
X0085003Y0170879D01*
X0084906Y0170777D01*
X0084806Y0170678D01*
X0084703Y0170581D01*
X0084598Y0170488D01*
X0084490Y0170397D01*
X0084379Y0170310D01*
X0084266Y0170226D01*
X0084151Y0170145D01*
X0084034Y0170067D01*
X0083914Y0169993D01*
X0083792Y0169922D01*
X0083669Y0169854D01*
X0083543Y0169790D01*
X0083416Y0169730D01*
X0083287Y0169673D01*
X0083157Y0169619D01*
X0083025Y0169570D01*
X0082891Y0169524D01*
X0082757Y0169482D01*
X0082621Y0169444D01*
X0082485Y0169409D01*
X0082347Y0169379D01*
X0082209Y0169352D01*
X0082070Y0169330D01*
X0081930Y0169311D01*
X0081790Y0169296D01*
X0081650Y0169285D01*
X0081509Y0169278D01*
X0081368Y0169275D01*
X0081227Y0169276D01*
X0081087Y0169281D01*
X0080946Y0169290D01*
X0080806Y0169303D01*
X0080666Y0169320D01*
X0080526Y0169340D01*
X0080388Y0169365D01*
X0080250Y0169394D01*
X0080113Y0169426D01*
X0079977Y0169462D01*
X0079842Y0169503D01*
X0079708Y0169547D01*
X0079575Y0169594D01*
X0079444Y0169646D01*
X0079314Y0169701D01*
X0079186Y0169759D01*
X0079060Y0169822D01*
X0078935Y0169887D01*
X0078813Y0169957D01*
X0078692Y0170029D01*
X0078573Y0170105D01*
X0078457Y0170185D01*
X0078343Y0170268D01*
X0078231Y0170353D01*
X0078122Y0170442D01*
X0078015Y0170534D01*
X0077911Y0170629D01*
X0077810Y0170727D01*
X0077711Y0170828D01*
X0077616Y0170931D01*
X0077523Y0171037D01*
X0077433Y0171146D01*
X0077347Y0171257D01*
X0077263Y0171370D01*
X0077183Y0171486D01*
X0077106Y0171604D01*
X0077033Y0171724D01*
X0076962Y0171847D01*
X0076896Y0171971D01*
X0076833Y0172097D01*
X0076773Y0172224D01*
X0076717Y0172353D01*
X0076665Y0172484D01*
X0076616Y0172616D01*
X0076571Y0172750D01*
X0076530Y0172885D01*
X0076493Y0173021D01*
X0076459Y0173157D01*
X0076430Y0173295D01*
X0076404Y0173434D01*
X0076383Y0173573D01*
X0076365Y0173713D01*
X0076351Y0173853D01*
X0076341Y0173993D01*
X0076335Y0174134D01*
X0076333Y0174275D01*
X0104333Y0189775D02*
X0106833Y0187275D01*
X0111833Y0187275D01*
X0114333Y0189775D01*
X0116833Y0187275D01*
X0121833Y0187275D01*
X0124333Y0189775D01*
X0124333Y0194775D01*
X0121833Y0197275D01*
X0116833Y0197275D01*
X0114333Y0194775D01*
X0111833Y0197275D01*
X0106833Y0197275D01*
X0104333Y0194775D01*
X0104333Y0189775D01*
D12*
X0137022Y0058040D02*
X0137803Y0058486D01*
X0137896Y0058329D01*
X0137993Y0058175D01*
X0138094Y0058023D01*
X0138199Y0057874D01*
X0138307Y0057727D01*
X0138418Y0057582D01*
X0138533Y0057441D01*
X0138652Y0057302D01*
X0138774Y0057167D01*
X0138899Y0057034D01*
X0139027Y0056904D01*
X0139158Y0056778D01*
X0139292Y0056654D01*
X0139429Y0056534D01*
X0139569Y0056417D01*
X0139712Y0056304D01*
X0139858Y0056194D01*
X0140006Y0056088D01*
X0140157Y0055985D01*
X0140310Y0055886D01*
X0140465Y0055791D01*
X0140623Y0055700D01*
X0140783Y0055612D01*
X0140945Y0055528D01*
X0141108Y0055448D01*
X0141274Y0055372D01*
X0141442Y0055301D01*
X0141611Y0055233D01*
X0141782Y0055169D01*
X0141954Y0055110D01*
X0142128Y0055054D01*
X0142303Y0055003D01*
X0142479Y0054956D01*
X0142656Y0054914D01*
X0142835Y0054875D01*
X0143014Y0054841D01*
X0143194Y0054811D01*
X0143374Y0054786D01*
X0143555Y0054765D01*
X0143737Y0054749D01*
X0143919Y0054736D01*
X0144101Y0054729D01*
X0144283Y0054725D01*
X0144284Y0053826D01*
X0144283Y0053825D01*
X0144079Y0053829D01*
X0143875Y0053837D01*
X0143671Y0053851D01*
X0143467Y0053869D01*
X0143264Y0053893D01*
X0143062Y0053921D01*
X0142860Y0053954D01*
X0142660Y0053992D01*
X0142460Y0054035D01*
X0142261Y0054083D01*
X0142064Y0054135D01*
X0141868Y0054193D01*
X0141673Y0054255D01*
X0141480Y0054321D01*
X0141288Y0054393D01*
X0141099Y0054469D01*
X0140911Y0054549D01*
X0140725Y0054634D01*
X0140541Y0054724D01*
X0140360Y0054817D01*
X0140181Y0054916D01*
X0140004Y0055018D01*
X0139830Y0055125D01*
X0139658Y0055236D01*
X0139489Y0055351D01*
X0139323Y0055470D01*
X0139160Y0055593D01*
X0139000Y0055720D01*
X0138843Y0055851D01*
X0138689Y0055986D01*
X0138539Y0056124D01*
X0138392Y0056266D01*
X0138248Y0056411D01*
X0138108Y0056560D01*
X0137972Y0056712D01*
X0137839Y0056868D01*
X0137711Y0057026D01*
X0137586Y0057188D01*
X0137465Y0057353D01*
X0137348Y0057520D01*
X0137235Y0057691D01*
X0137126Y0057864D01*
X0137021Y0058039D01*
X0137103Y0058086D01*
X0137206Y0057912D01*
X0137314Y0057741D01*
X0137426Y0057573D01*
X0137541Y0057407D01*
X0137661Y0057244D01*
X0137785Y0057085D01*
X0137912Y0056928D01*
X0138043Y0056774D01*
X0138178Y0056624D01*
X0138316Y0056476D01*
X0138458Y0056333D01*
X0138604Y0056192D01*
X0138752Y0056056D01*
X0138904Y0055923D01*
X0139060Y0055793D01*
X0139218Y0055668D01*
X0139379Y0055546D01*
X0139543Y0055428D01*
X0139710Y0055314D01*
X0139880Y0055205D01*
X0140052Y0055099D01*
X0140227Y0054998D01*
X0140404Y0054900D01*
X0140583Y0054808D01*
X0140765Y0054719D01*
X0140949Y0054635D01*
X0141134Y0054555D01*
X0141322Y0054480D01*
X0141511Y0054410D01*
X0141702Y0054344D01*
X0141895Y0054283D01*
X0142089Y0054226D01*
X0142284Y0054174D01*
X0142480Y0054127D01*
X0142678Y0054085D01*
X0142876Y0054047D01*
X0143076Y0054014D01*
X0143276Y0053986D01*
X0143477Y0053963D01*
X0143678Y0053945D01*
X0143879Y0053931D01*
X0144081Y0053923D01*
X0144283Y0053919D01*
X0144283Y0054013D01*
X0144084Y0054017D01*
X0143884Y0054025D01*
X0143685Y0054038D01*
X0143486Y0054057D01*
X0143287Y0054079D01*
X0143090Y0054107D01*
X0142892Y0054140D01*
X0142696Y0054177D01*
X0142501Y0054219D01*
X0142307Y0054265D01*
X0142114Y0054317D01*
X0141922Y0054373D01*
X0141732Y0054433D01*
X0141543Y0054498D01*
X0141356Y0054568D01*
X0141170Y0054642D01*
X0140987Y0054721D01*
X0140805Y0054804D01*
X0140625Y0054892D01*
X0140448Y0054983D01*
X0140273Y0055079D01*
X0140100Y0055180D01*
X0139930Y0055284D01*
X0139762Y0055393D01*
X0139597Y0055505D01*
X0139435Y0055621D01*
X0139276Y0055742D01*
X0139119Y0055866D01*
X0138966Y0055994D01*
X0138815Y0056125D01*
X0138668Y0056261D01*
X0138525Y0056399D01*
X0138384Y0056541D01*
X0138247Y0056687D01*
X0138114Y0056836D01*
X0137984Y0056988D01*
X0137858Y0057143D01*
X0137736Y0057301D01*
X0137618Y0057462D01*
X0137504Y0057625D01*
X0137393Y0057792D01*
X0137287Y0057961D01*
X0137185Y0058132D01*
X0137266Y0058179D01*
X0137367Y0058009D01*
X0137472Y0057842D01*
X0137582Y0057678D01*
X0137695Y0057516D01*
X0137812Y0057357D01*
X0137932Y0057201D01*
X0138057Y0057047D01*
X0138185Y0056897D01*
X0138317Y0056750D01*
X0138452Y0056606D01*
X0138591Y0056466D01*
X0138733Y0056329D01*
X0138878Y0056195D01*
X0139027Y0056065D01*
X0139179Y0055939D01*
X0139333Y0055816D01*
X0139491Y0055697D01*
X0139651Y0055582D01*
X0139814Y0055471D01*
X0139980Y0055364D01*
X0140148Y0055260D01*
X0140319Y0055161D01*
X0140492Y0055066D01*
X0140668Y0054976D01*
X0140845Y0054889D01*
X0141025Y0054807D01*
X0141206Y0054729D01*
X0141389Y0054656D01*
X0141574Y0054587D01*
X0141761Y0054523D01*
X0141949Y0054463D01*
X0142139Y0054407D01*
X0142329Y0054357D01*
X0142521Y0054310D01*
X0142714Y0054269D01*
X0142908Y0054232D01*
X0143103Y0054200D01*
X0143299Y0054173D01*
X0143495Y0054150D01*
X0143692Y0054132D01*
X0143889Y0054119D01*
X0144086Y0054111D01*
X0144283Y0054107D01*
X0144283Y0054201D01*
X0144088Y0054205D01*
X0143893Y0054213D01*
X0143698Y0054226D01*
X0143504Y0054244D01*
X0143310Y0054266D01*
X0143117Y0054293D01*
X0142924Y0054325D01*
X0142733Y0054361D01*
X0142542Y0054402D01*
X0142352Y0054448D01*
X0142164Y0054498D01*
X0141976Y0054553D01*
X0141790Y0054612D01*
X0141606Y0054675D01*
X0141423Y0054744D01*
X0141242Y0054816D01*
X0141063Y0054893D01*
X0140885Y0054974D01*
X0140710Y0055060D01*
X0140536Y0055149D01*
X0140365Y0055243D01*
X0140197Y0055341D01*
X0140030Y0055443D01*
X0139866Y0055549D01*
X0139705Y0055659D01*
X0139547Y0055773D01*
X0139391Y0055890D01*
X0139238Y0056012D01*
X0139088Y0056137D01*
X0138941Y0056265D01*
X0138798Y0056397D01*
X0138657Y0056533D01*
X0138520Y0056672D01*
X0138386Y0056814D01*
X0138256Y0056959D01*
X0138129Y0057107D01*
X0138006Y0057259D01*
X0137887Y0057413D01*
X0137771Y0057570D01*
X0137660Y0057730D01*
X0137552Y0057893D01*
X0137448Y0058058D01*
X0137348Y0058226D01*
X0137429Y0058272D01*
X0137528Y0058107D01*
X0137631Y0057943D01*
X0137738Y0057783D01*
X0137848Y0057625D01*
X0137962Y0057469D01*
X0138080Y0057317D01*
X0138202Y0057167D01*
X0138327Y0057021D01*
X0138456Y0056877D01*
X0138588Y0056737D01*
X0138723Y0056599D01*
X0138862Y0056465D01*
X0139004Y0056335D01*
X0139149Y0056208D01*
X0139297Y0056084D01*
X0139448Y0055965D01*
X0139602Y0055848D01*
X0139759Y0055736D01*
X0139918Y0055627D01*
X0140080Y0055523D01*
X0140245Y0055422D01*
X0140411Y0055325D01*
X0140581Y0055232D01*
X0140752Y0055144D01*
X0140925Y0055059D01*
X0141101Y0054979D01*
X0141278Y0054903D01*
X0141457Y0054831D01*
X0141638Y0054764D01*
X0141820Y0054701D01*
X0142004Y0054643D01*
X0142189Y0054589D01*
X0142375Y0054539D01*
X0142563Y0054494D01*
X0142751Y0054453D01*
X0142940Y0054417D01*
X0143131Y0054386D01*
X0143322Y0054359D01*
X0143513Y0054337D01*
X0143705Y0054320D01*
X0143898Y0054307D01*
X0144090Y0054299D01*
X0144283Y0054295D01*
X0144283Y0054389D01*
X0144093Y0054393D01*
X0143902Y0054401D01*
X0143712Y0054413D01*
X0143522Y0054431D01*
X0143333Y0054453D01*
X0143145Y0054479D01*
X0142957Y0054510D01*
X0142769Y0054546D01*
X0142583Y0054586D01*
X0142398Y0054630D01*
X0142214Y0054679D01*
X0142031Y0054733D01*
X0141849Y0054790D01*
X0141669Y0054853D01*
X0141491Y0054919D01*
X0141314Y0054990D01*
X0141139Y0055065D01*
X0140965Y0055144D01*
X0140794Y0055228D01*
X0140625Y0055315D01*
X0140458Y0055407D01*
X0140293Y0055503D01*
X0140130Y0055602D01*
X0139970Y0055706D01*
X0139813Y0055813D01*
X0139658Y0055924D01*
X0139506Y0056039D01*
X0139357Y0056157D01*
X0139211Y0056279D01*
X0139067Y0056405D01*
X0138927Y0056534D01*
X0138790Y0056666D01*
X0138656Y0056802D01*
X0138525Y0056940D01*
X0138398Y0057082D01*
X0138274Y0057227D01*
X0138154Y0057375D01*
X0138038Y0057526D01*
X0137925Y0057679D01*
X0137816Y0057835D01*
X0137710Y0057994D01*
X0137609Y0058155D01*
X0137511Y0058319D01*
X0137593Y0058366D01*
X0137689Y0058204D01*
X0137789Y0058045D01*
X0137893Y0057888D01*
X0138001Y0057733D01*
X0138113Y0057582D01*
X0138228Y0057433D01*
X0138347Y0057287D01*
X0138469Y0057144D01*
X0138595Y0057004D01*
X0138724Y0056867D01*
X0138856Y0056733D01*
X0138992Y0056602D01*
X0139130Y0056475D01*
X0139272Y0056351D01*
X0139416Y0056230D01*
X0139564Y0056113D01*
X0139714Y0056000D01*
X0139867Y0055890D01*
X0140023Y0055784D01*
X0140181Y0055682D01*
X0140341Y0055583D01*
X0140504Y0055489D01*
X0140669Y0055398D01*
X0140836Y0055312D01*
X0141005Y0055229D01*
X0141176Y0055151D01*
X0141349Y0055077D01*
X0141524Y0055007D01*
X0141701Y0054941D01*
X0141879Y0054880D01*
X0142058Y0054823D01*
X0142239Y0054770D01*
X0142421Y0054721D01*
X0142604Y0054677D01*
X0142788Y0054638D01*
X0142973Y0054603D01*
X0143158Y0054572D01*
X0143345Y0054546D01*
X0143532Y0054524D01*
X0143719Y0054507D01*
X0143907Y0054495D01*
X0144095Y0054487D01*
X0144283Y0054483D01*
X0144283Y0054577D01*
X0144097Y0054581D01*
X0143912Y0054589D01*
X0143726Y0054601D01*
X0143541Y0054618D01*
X0143356Y0054639D01*
X0143172Y0054665D01*
X0142989Y0054695D01*
X0142806Y0054730D01*
X0142624Y0054769D01*
X0142443Y0054813D01*
X0142264Y0054860D01*
X0142085Y0054913D01*
X0141908Y0054969D01*
X0141732Y0055030D01*
X0141558Y0055095D01*
X0141385Y0055164D01*
X0141214Y0055237D01*
X0141045Y0055314D01*
X0140878Y0055396D01*
X0140713Y0055481D01*
X0140550Y0055571D01*
X0140389Y0055664D01*
X0140231Y0055761D01*
X0140075Y0055862D01*
X0139921Y0055967D01*
X0139770Y0056075D01*
X0139621Y0056187D01*
X0139476Y0056303D01*
X0139333Y0056422D01*
X0139193Y0056544D01*
X0139056Y0056670D01*
X0138922Y0056799D01*
X0138792Y0056932D01*
X0138664Y0057067D01*
X0138540Y0057205D01*
X0138419Y0057347D01*
X0138302Y0057491D01*
X0138188Y0057638D01*
X0138078Y0057788D01*
X0137971Y0057940D01*
X0137869Y0058095D01*
X0137770Y0058253D01*
X0137674Y0058412D01*
X0137756Y0058459D01*
X0137850Y0058301D01*
X0137948Y0058146D01*
X0138049Y0057993D01*
X0138155Y0057842D01*
X0138264Y0057694D01*
X0138376Y0057549D01*
X0138492Y0057407D01*
X0138611Y0057267D01*
X0138734Y0057130D01*
X0138860Y0056997D01*
X0138989Y0056866D01*
X0139121Y0056738D01*
X0139256Y0056614D01*
X0139394Y0056493D01*
X0139535Y0056376D01*
X0139679Y0056262D01*
X0139826Y0056151D01*
X0139975Y0056044D01*
X0140127Y0055940D01*
X0140281Y0055841D01*
X0140437Y0055745D01*
X0140596Y0055653D01*
X0140757Y0055564D01*
X0140920Y0055480D01*
X0141085Y0055399D01*
X0141252Y0055323D01*
X0141421Y0055251D01*
X0141592Y0055182D01*
X0141764Y0055118D01*
X0141937Y0055058D01*
X0142112Y0055002D01*
X0142289Y0054951D01*
X0142466Y0054904D01*
X0142645Y0054861D01*
X0142824Y0054822D01*
X0143005Y0054788D01*
X0143186Y0054758D01*
X0143368Y0054733D01*
X0143550Y0054711D01*
X0143733Y0054695D01*
X0143916Y0054682D01*
X0144100Y0054675D01*
X0144283Y0054671D01*
X0144284Y0070724D02*
X0144284Y0069824D01*
X0144284Y0069825D02*
X0144101Y0069821D01*
X0143918Y0069814D01*
X0143735Y0069801D01*
X0143552Y0069784D01*
X0143370Y0069763D01*
X0143189Y0069738D01*
X0143008Y0069708D01*
X0142828Y0069673D01*
X0142649Y0069635D01*
X0142471Y0069592D01*
X0142294Y0069544D01*
X0142119Y0069493D01*
X0141944Y0069437D01*
X0141771Y0069377D01*
X0141600Y0069312D01*
X0141430Y0069244D01*
X0141261Y0069172D01*
X0141095Y0069095D01*
X0140931Y0069014D01*
X0140768Y0068930D01*
X0140608Y0068841D01*
X0140449Y0068749D01*
X0140293Y0068653D01*
X0140140Y0068553D01*
X0139989Y0068449D01*
X0139840Y0068342D01*
X0139694Y0068231D01*
X0139551Y0068117D01*
X0139411Y0067999D01*
X0139274Y0067878D01*
X0139139Y0067754D01*
X0139008Y0067626D01*
X0138879Y0067495D01*
X0138754Y0067361D01*
X0138633Y0067225D01*
X0138514Y0067085D01*
X0138399Y0066942D01*
X0138288Y0066797D01*
X0138180Y0066649D01*
X0138076Y0066498D01*
X0137975Y0066345D01*
X0137878Y0066190D01*
X0137785Y0066032D01*
X0137696Y0065872D01*
X0136902Y0066295D01*
X0137002Y0066475D01*
X0137106Y0066652D01*
X0137214Y0066826D01*
X0137327Y0066998D01*
X0137444Y0067166D01*
X0137565Y0067332D01*
X0137689Y0067495D01*
X0137818Y0067655D01*
X0137951Y0067812D01*
X0138087Y0067965D01*
X0138227Y0068115D01*
X0138371Y0068262D01*
X0138518Y0068405D01*
X0138669Y0068545D01*
X0138823Y0068680D01*
X0138980Y0068812D01*
X0139140Y0068940D01*
X0139304Y0069065D01*
X0139470Y0069185D01*
X0139640Y0069301D01*
X0139812Y0069413D01*
X0139986Y0069521D01*
X0140164Y0069624D01*
X0140343Y0069723D01*
X0140526Y0069818D01*
X0140710Y0069908D01*
X0140896Y0069994D01*
X0141085Y0070075D01*
X0141275Y0070152D01*
X0141468Y0070224D01*
X0141662Y0070291D01*
X0141857Y0070354D01*
X0142054Y0070412D01*
X0142252Y0070465D01*
X0142452Y0070513D01*
X0142653Y0070556D01*
X0142854Y0070594D01*
X0143057Y0070628D01*
X0143260Y0070656D01*
X0143464Y0070680D01*
X0143669Y0070699D01*
X0143873Y0070712D01*
X0144078Y0070721D01*
X0144284Y0070725D01*
X0144284Y0070631D01*
X0144081Y0070627D01*
X0143878Y0070619D01*
X0143675Y0070605D01*
X0143473Y0070587D01*
X0143272Y0070563D01*
X0143071Y0070535D01*
X0142870Y0070502D01*
X0142671Y0070464D01*
X0142473Y0070421D01*
X0142275Y0070373D01*
X0142079Y0070321D01*
X0141884Y0070264D01*
X0141691Y0070202D01*
X0141499Y0070135D01*
X0141309Y0070064D01*
X0141121Y0069989D01*
X0140935Y0069908D01*
X0140750Y0069823D01*
X0140568Y0069734D01*
X0140388Y0069640D01*
X0140210Y0069542D01*
X0140035Y0069440D01*
X0139862Y0069334D01*
X0139692Y0069223D01*
X0139524Y0069108D01*
X0139360Y0068989D01*
X0139198Y0068866D01*
X0139040Y0068740D01*
X0138884Y0068609D01*
X0138732Y0068475D01*
X0138583Y0068337D01*
X0138437Y0068196D01*
X0138295Y0068051D01*
X0138157Y0067902D01*
X0138022Y0067751D01*
X0137891Y0067596D01*
X0137764Y0067438D01*
X0137640Y0067276D01*
X0137521Y0067112D01*
X0137405Y0066945D01*
X0137294Y0066776D01*
X0137186Y0066603D01*
X0137083Y0066428D01*
X0136985Y0066251D01*
X0137068Y0066207D01*
X0137165Y0066382D01*
X0137267Y0066555D01*
X0137373Y0066725D01*
X0137483Y0066893D01*
X0137597Y0067058D01*
X0137716Y0067220D01*
X0137838Y0067380D01*
X0137964Y0067536D01*
X0138093Y0067689D01*
X0138227Y0067839D01*
X0138363Y0067986D01*
X0138504Y0068129D01*
X0138648Y0068269D01*
X0138795Y0068405D01*
X0138946Y0068538D01*
X0139099Y0068667D01*
X0139256Y0068792D01*
X0139416Y0068914D01*
X0139579Y0069031D01*
X0139744Y0069145D01*
X0139912Y0069254D01*
X0140083Y0069360D01*
X0140256Y0069461D01*
X0140432Y0069558D01*
X0140610Y0069650D01*
X0140790Y0069738D01*
X0140973Y0069822D01*
X0141157Y0069902D01*
X0141343Y0069977D01*
X0141531Y0070047D01*
X0141721Y0070113D01*
X0141912Y0070174D01*
X0142104Y0070230D01*
X0142298Y0070282D01*
X0142493Y0070329D01*
X0142689Y0070372D01*
X0142887Y0070409D01*
X0143085Y0070442D01*
X0143283Y0070470D01*
X0143483Y0070493D01*
X0143682Y0070511D01*
X0143883Y0070525D01*
X0144083Y0070533D01*
X0144284Y0070537D01*
X0144284Y0070443D01*
X0144085Y0070439D01*
X0143887Y0070431D01*
X0143689Y0070418D01*
X0143492Y0070399D01*
X0143295Y0070377D01*
X0143098Y0070349D01*
X0142903Y0070317D01*
X0142708Y0070279D01*
X0142514Y0070238D01*
X0142321Y0070191D01*
X0142129Y0070140D01*
X0141939Y0070084D01*
X0141750Y0070024D01*
X0141563Y0069959D01*
X0141377Y0069889D01*
X0141193Y0069815D01*
X0141011Y0069736D01*
X0140831Y0069653D01*
X0140652Y0069566D01*
X0140476Y0069475D01*
X0140303Y0069379D01*
X0140131Y0069279D01*
X0139963Y0069175D01*
X0139796Y0069067D01*
X0139633Y0068954D01*
X0139472Y0068838D01*
X0139314Y0068718D01*
X0139159Y0068594D01*
X0139007Y0068467D01*
X0138858Y0068336D01*
X0138713Y0068201D01*
X0138570Y0068063D01*
X0138432Y0067921D01*
X0138296Y0067776D01*
X0138164Y0067628D01*
X0138036Y0067476D01*
X0137912Y0067322D01*
X0137791Y0067165D01*
X0137674Y0067004D01*
X0137561Y0066841D01*
X0137453Y0066675D01*
X0137348Y0066507D01*
X0137247Y0066336D01*
X0137151Y0066163D01*
X0137233Y0066118D01*
X0137329Y0066290D01*
X0137428Y0066459D01*
X0137532Y0066625D01*
X0137640Y0066789D01*
X0137751Y0066950D01*
X0137867Y0067109D01*
X0137986Y0067264D01*
X0138109Y0067417D01*
X0138236Y0067566D01*
X0138366Y0067713D01*
X0138500Y0067856D01*
X0138637Y0067996D01*
X0138778Y0068133D01*
X0138921Y0068266D01*
X0139068Y0068396D01*
X0139219Y0068522D01*
X0139372Y0068644D01*
X0139528Y0068763D01*
X0139687Y0068878D01*
X0139849Y0068988D01*
X0140013Y0069095D01*
X0140180Y0069198D01*
X0140349Y0069297D01*
X0140521Y0069392D01*
X0140695Y0069482D01*
X0140871Y0069569D01*
X0141049Y0069650D01*
X0141229Y0069728D01*
X0141411Y0069801D01*
X0141594Y0069870D01*
X0141780Y0069934D01*
X0141966Y0069994D01*
X0142154Y0070049D01*
X0142344Y0070100D01*
X0142534Y0070146D01*
X0142726Y0070187D01*
X0142919Y0070224D01*
X0143112Y0070256D01*
X0143306Y0070283D01*
X0143501Y0070306D01*
X0143696Y0070324D01*
X0143892Y0070337D01*
X0144088Y0070345D01*
X0144284Y0070349D01*
X0144284Y0070255D01*
X0144090Y0070251D01*
X0143896Y0070243D01*
X0143703Y0070230D01*
X0143510Y0070212D01*
X0143318Y0070190D01*
X0143126Y0070163D01*
X0142935Y0070131D01*
X0142744Y0070095D01*
X0142555Y0070054D01*
X0142367Y0070009D01*
X0142180Y0069959D01*
X0141994Y0069904D01*
X0141809Y0069845D01*
X0141626Y0069782D01*
X0141445Y0069714D01*
X0141265Y0069641D01*
X0141087Y0069565D01*
X0140911Y0069484D01*
X0140737Y0069398D01*
X0140565Y0069309D01*
X0140395Y0069215D01*
X0140228Y0069118D01*
X0140063Y0069016D01*
X0139901Y0068910D01*
X0139741Y0068801D01*
X0139584Y0068687D01*
X0139430Y0068570D01*
X0139278Y0068449D01*
X0139130Y0068325D01*
X0138985Y0068197D01*
X0138842Y0068065D01*
X0138703Y0067930D01*
X0138568Y0067792D01*
X0138436Y0067650D01*
X0138307Y0067505D01*
X0138182Y0067357D01*
X0138060Y0067206D01*
X0137942Y0067053D01*
X0137828Y0066896D01*
X0137718Y0066737D01*
X0137612Y0066575D01*
X0137509Y0066410D01*
X0137411Y0066243D01*
X0137316Y0066074D01*
X0137399Y0066030D01*
X0137493Y0066197D01*
X0137590Y0066362D01*
X0137691Y0066525D01*
X0137796Y0066685D01*
X0137905Y0066842D01*
X0138018Y0066997D01*
X0138134Y0067149D01*
X0138254Y0067298D01*
X0138378Y0067444D01*
X0138505Y0067587D01*
X0138636Y0067727D01*
X0138770Y0067863D01*
X0138907Y0067997D01*
X0139048Y0068127D01*
X0139191Y0068254D01*
X0139338Y0068377D01*
X0139488Y0068496D01*
X0139640Y0068612D01*
X0139795Y0068724D01*
X0139953Y0068832D01*
X0140114Y0068937D01*
X0140277Y0069037D01*
X0140442Y0069134D01*
X0140609Y0069226D01*
X0140779Y0069314D01*
X0140951Y0069399D01*
X0141125Y0069479D01*
X0141301Y0069554D01*
X0141479Y0069626D01*
X0141658Y0069693D01*
X0141839Y0069756D01*
X0142021Y0069814D01*
X0142205Y0069868D01*
X0142390Y0069918D01*
X0142576Y0069962D01*
X0142763Y0070003D01*
X0142951Y0070039D01*
X0143140Y0070070D01*
X0143329Y0070097D01*
X0143519Y0070119D01*
X0143710Y0070136D01*
X0143901Y0070149D01*
X0144092Y0070157D01*
X0144284Y0070161D01*
X0144284Y0070067D01*
X0144095Y0070063D01*
X0143906Y0070055D01*
X0143717Y0070043D01*
X0143529Y0070025D01*
X0143341Y0070003D01*
X0143154Y0069977D01*
X0142967Y0069946D01*
X0142781Y0069911D01*
X0142596Y0069871D01*
X0142412Y0069826D01*
X0142230Y0069777D01*
X0142048Y0069724D01*
X0141868Y0069667D01*
X0141690Y0069605D01*
X0141512Y0069538D01*
X0141337Y0069468D01*
X0141163Y0069393D01*
X0140991Y0069314D01*
X0140822Y0069230D01*
X0140654Y0069143D01*
X0140488Y0069052D01*
X0140325Y0068956D01*
X0140164Y0068857D01*
X0140005Y0068754D01*
X0139849Y0068647D01*
X0139696Y0068536D01*
X0139545Y0068422D01*
X0139398Y0068304D01*
X0139253Y0068182D01*
X0139111Y0068057D01*
X0138972Y0067929D01*
X0138837Y0067797D01*
X0138704Y0067662D01*
X0138575Y0067524D01*
X0138449Y0067382D01*
X0138327Y0067238D01*
X0138208Y0067091D01*
X0138093Y0066941D01*
X0137982Y0066788D01*
X0137874Y0066632D01*
X0137770Y0066474D01*
X0137670Y0066314D01*
X0137574Y0066151D01*
X0137482Y0065986D01*
X0137565Y0065941D01*
X0137656Y0066105D01*
X0137751Y0066266D01*
X0137850Y0066424D01*
X0137952Y0066580D01*
X0138059Y0066734D01*
X0138169Y0066885D01*
X0138283Y0067033D01*
X0138400Y0067179D01*
X0138521Y0067321D01*
X0138645Y0067461D01*
X0138772Y0067597D01*
X0138903Y0067731D01*
X0139037Y0067861D01*
X0139174Y0067988D01*
X0139314Y0068111D01*
X0139457Y0068231D01*
X0139603Y0068348D01*
X0139752Y0068461D01*
X0139904Y0068570D01*
X0140058Y0068676D01*
X0140214Y0068778D01*
X0140373Y0068876D01*
X0140535Y0068970D01*
X0140698Y0069060D01*
X0140864Y0069147D01*
X0141032Y0069229D01*
X0141201Y0069307D01*
X0141373Y0069381D01*
X0141546Y0069450D01*
X0141721Y0069516D01*
X0141898Y0069577D01*
X0142076Y0069634D01*
X0142255Y0069687D01*
X0142435Y0069735D01*
X0142617Y0069779D01*
X0142800Y0069819D01*
X0142983Y0069854D01*
X0143167Y0069884D01*
X0143352Y0069910D01*
X0143538Y0069932D01*
X0143724Y0069949D01*
X0143910Y0069961D01*
X0144097Y0069969D01*
X0144284Y0069973D01*
X0144284Y0069879D01*
X0144099Y0069875D01*
X0143915Y0069867D01*
X0143731Y0069855D01*
X0143547Y0069838D01*
X0143364Y0069817D01*
X0143181Y0069791D01*
X0142999Y0069761D01*
X0142818Y0069726D01*
X0142638Y0069687D01*
X0142458Y0069644D01*
X0142280Y0069596D01*
X0142103Y0069544D01*
X0141927Y0069488D01*
X0141753Y0069428D01*
X0141580Y0069363D01*
X0141409Y0069294D01*
X0141240Y0069221D01*
X0141072Y0069144D01*
X0140906Y0069063D01*
X0140743Y0068977D01*
X0140581Y0068888D01*
X0140422Y0068795D01*
X0140265Y0068698D01*
X0140110Y0068598D01*
X0139958Y0068493D01*
X0139808Y0068385D01*
X0139661Y0068274D01*
X0139517Y0068159D01*
X0139376Y0068040D01*
X0139237Y0067918D01*
X0139102Y0067793D01*
X0138970Y0067664D01*
X0138840Y0067532D01*
X0138714Y0067398D01*
X0138592Y0067260D01*
X0138473Y0067119D01*
X0138357Y0066975D01*
X0138244Y0066829D01*
X0138136Y0066680D01*
X0138031Y0066528D01*
X0137929Y0066374D01*
X0137832Y0066217D01*
X0137738Y0066058D01*
X0137648Y0065897D01*
X0150792Y0067723D02*
X0150100Y0067146D01*
X0150101Y0067147D02*
X0149982Y0067284D01*
X0149861Y0067418D01*
X0149736Y0067549D01*
X0149608Y0067677D01*
X0149477Y0067801D01*
X0149343Y0067923D01*
X0149206Y0068042D01*
X0149067Y0068157D01*
X0148924Y0068268D01*
X0148779Y0068377D01*
X0148632Y0068482D01*
X0148482Y0068583D01*
X0148330Y0068680D01*
X0148175Y0068774D01*
X0148018Y0068865D01*
X0147859Y0068951D01*
X0147698Y0069034D01*
X0147535Y0069112D01*
X0147370Y0069187D01*
X0147204Y0069258D01*
X0147036Y0069325D01*
X0146866Y0069387D01*
X0146695Y0069446D01*
X0146522Y0069501D01*
X0146349Y0069551D01*
X0146174Y0069597D01*
X0145998Y0069639D01*
X0145821Y0069677D01*
X0145643Y0069710D01*
X0145464Y0069740D01*
X0145285Y0069765D01*
X0145105Y0069785D01*
X0144925Y0069802D01*
X0144745Y0069814D01*
X0144564Y0069821D01*
X0144383Y0069825D01*
X0144382Y0070724D01*
X0144383Y0070725D01*
X0144586Y0070721D01*
X0144788Y0070713D01*
X0144991Y0070699D01*
X0145193Y0070681D01*
X0145394Y0070658D01*
X0145595Y0070630D01*
X0145795Y0070597D01*
X0145995Y0070560D01*
X0146193Y0070518D01*
X0146391Y0070471D01*
X0146587Y0070419D01*
X0146781Y0070362D01*
X0146975Y0070301D01*
X0147167Y0070236D01*
X0147357Y0070165D01*
X0147546Y0070090D01*
X0147732Y0070011D01*
X0147917Y0069927D01*
X0148100Y0069839D01*
X0148280Y0069746D01*
X0148458Y0069650D01*
X0148634Y0069548D01*
X0148807Y0069443D01*
X0148978Y0069334D01*
X0149146Y0069220D01*
X0149312Y0069103D01*
X0149474Y0068981D01*
X0149634Y0068856D01*
X0149790Y0068727D01*
X0149943Y0068594D01*
X0150093Y0068457D01*
X0150240Y0068317D01*
X0150383Y0068174D01*
X0150523Y0068027D01*
X0150660Y0067877D01*
X0150792Y0067723D01*
X0150720Y0067663D01*
X0150589Y0067815D01*
X0150454Y0067963D01*
X0150316Y0068108D01*
X0150174Y0068250D01*
X0150029Y0068389D01*
X0149881Y0068524D01*
X0149729Y0068655D01*
X0149574Y0068783D01*
X0149417Y0068907D01*
X0149256Y0069027D01*
X0149093Y0069143D01*
X0148926Y0069255D01*
X0148758Y0069363D01*
X0148586Y0069468D01*
X0148412Y0069568D01*
X0148236Y0069663D01*
X0148058Y0069755D01*
X0147877Y0069842D01*
X0147694Y0069925D01*
X0147510Y0070004D01*
X0147324Y0070078D01*
X0147135Y0070147D01*
X0146946Y0070212D01*
X0146754Y0070272D01*
X0146562Y0070328D01*
X0146368Y0070379D01*
X0146173Y0070426D01*
X0145977Y0070468D01*
X0145780Y0070505D01*
X0145582Y0070537D01*
X0145383Y0070565D01*
X0145184Y0070588D01*
X0144984Y0070606D01*
X0144784Y0070619D01*
X0144583Y0070627D01*
X0144383Y0070631D01*
X0144383Y0070537D01*
X0144581Y0070533D01*
X0144779Y0070525D01*
X0144977Y0070512D01*
X0145175Y0070494D01*
X0145372Y0070471D01*
X0145568Y0070444D01*
X0145764Y0070412D01*
X0145958Y0070376D01*
X0146152Y0070334D01*
X0146345Y0070288D01*
X0146537Y0070238D01*
X0146727Y0070182D01*
X0146916Y0070123D01*
X0147104Y0070058D01*
X0147290Y0069990D01*
X0147474Y0069917D01*
X0147657Y0069839D01*
X0147837Y0069757D01*
X0148016Y0069671D01*
X0148192Y0069580D01*
X0148366Y0069486D01*
X0148538Y0069387D01*
X0148708Y0069284D01*
X0148875Y0069177D01*
X0149039Y0069066D01*
X0149200Y0068951D01*
X0149359Y0068832D01*
X0149515Y0068710D01*
X0149668Y0068584D01*
X0149818Y0068454D01*
X0149965Y0068320D01*
X0150108Y0068183D01*
X0150248Y0068043D01*
X0150385Y0067900D01*
X0150518Y0067753D01*
X0150648Y0067603D01*
X0150576Y0067543D01*
X0150447Y0067691D01*
X0150316Y0067836D01*
X0150181Y0067978D01*
X0150042Y0068116D01*
X0149900Y0068252D01*
X0149755Y0068384D01*
X0149607Y0068512D01*
X0149456Y0068637D01*
X0149302Y0068758D01*
X0149145Y0068875D01*
X0148985Y0068989D01*
X0148823Y0069098D01*
X0148658Y0069204D01*
X0148490Y0069306D01*
X0148320Y0069404D01*
X0148148Y0069497D01*
X0147974Y0069587D01*
X0147797Y0069672D01*
X0147619Y0069753D01*
X0147439Y0069830D01*
X0147256Y0069902D01*
X0147073Y0069970D01*
X0146887Y0070033D01*
X0146700Y0070092D01*
X0146512Y0070147D01*
X0146323Y0070197D01*
X0146132Y0070242D01*
X0145940Y0070283D01*
X0145748Y0070320D01*
X0145554Y0070351D01*
X0145360Y0070378D01*
X0145165Y0070400D01*
X0144970Y0070418D01*
X0144775Y0070431D01*
X0144579Y0070439D01*
X0144383Y0070443D01*
X0144383Y0070349D01*
X0144577Y0070345D01*
X0144770Y0070337D01*
X0144963Y0070324D01*
X0145156Y0070307D01*
X0145349Y0070285D01*
X0145541Y0070258D01*
X0145732Y0070227D01*
X0145922Y0070191D01*
X0146112Y0070151D01*
X0146300Y0070106D01*
X0146487Y0070056D01*
X0146673Y0070002D01*
X0146858Y0069944D01*
X0147041Y0069881D01*
X0147223Y0069814D01*
X0147403Y0069743D01*
X0147581Y0069667D01*
X0147758Y0069587D01*
X0147932Y0069503D01*
X0148104Y0069414D01*
X0148274Y0069322D01*
X0148442Y0069225D01*
X0148608Y0069124D01*
X0148771Y0069020D01*
X0148931Y0068912D01*
X0149089Y0068799D01*
X0149244Y0068683D01*
X0149397Y0068564D01*
X0149546Y0068440D01*
X0149693Y0068314D01*
X0149836Y0068183D01*
X0149976Y0068050D01*
X0150113Y0067913D01*
X0150246Y0067772D01*
X0150377Y0067629D01*
X0150503Y0067482D01*
X0150431Y0067422D01*
X0150306Y0067567D01*
X0150177Y0067709D01*
X0150045Y0067847D01*
X0149910Y0067983D01*
X0149771Y0068115D01*
X0149630Y0068244D01*
X0149485Y0068369D01*
X0149338Y0068491D01*
X0149187Y0068609D01*
X0149034Y0068724D01*
X0148878Y0068834D01*
X0148719Y0068942D01*
X0148558Y0069045D01*
X0148394Y0069144D01*
X0148228Y0069240D01*
X0148060Y0069331D01*
X0147890Y0069418D01*
X0147718Y0069502D01*
X0147543Y0069581D01*
X0147367Y0069656D01*
X0147189Y0069726D01*
X0147010Y0069793D01*
X0146829Y0069855D01*
X0146646Y0069912D01*
X0146462Y0069966D01*
X0146277Y0070015D01*
X0146091Y0070059D01*
X0145904Y0070099D01*
X0145716Y0070134D01*
X0145527Y0070165D01*
X0145337Y0070192D01*
X0145147Y0070213D01*
X0144957Y0070231D01*
X0144766Y0070243D01*
X0144574Y0070251D01*
X0144383Y0070255D01*
X0144383Y0070161D01*
X0144572Y0070157D01*
X0144761Y0070149D01*
X0144950Y0070137D01*
X0145138Y0070120D01*
X0145326Y0070098D01*
X0145513Y0070072D01*
X0145700Y0070042D01*
X0145886Y0070007D01*
X0146071Y0069967D01*
X0146255Y0069923D01*
X0146437Y0069875D01*
X0146619Y0069822D01*
X0146799Y0069765D01*
X0146978Y0069704D01*
X0147156Y0069638D01*
X0147332Y0069569D01*
X0147506Y0069495D01*
X0147678Y0069417D01*
X0147848Y0069334D01*
X0148016Y0069248D01*
X0148182Y0069158D01*
X0148346Y0069063D01*
X0148508Y0068965D01*
X0148667Y0068863D01*
X0148824Y0068757D01*
X0148978Y0068648D01*
X0149130Y0068534D01*
X0149278Y0068418D01*
X0149424Y0068297D01*
X0149567Y0068174D01*
X0149707Y0068046D01*
X0149844Y0067916D01*
X0149978Y0067782D01*
X0150108Y0067645D01*
X0150235Y0067505D01*
X0150359Y0067362D01*
X0150287Y0067302D01*
X0150164Y0067443D01*
X0150039Y0067581D01*
X0149910Y0067717D01*
X0149778Y0067849D01*
X0149643Y0067978D01*
X0149504Y0068103D01*
X0149363Y0068226D01*
X0149219Y0068345D01*
X0149072Y0068460D01*
X0148923Y0068572D01*
X0148770Y0068680D01*
X0148615Y0068785D01*
X0148458Y0068885D01*
X0148298Y0068982D01*
X0148137Y0069076D01*
X0147972Y0069165D01*
X0147806Y0069250D01*
X0147638Y0069331D01*
X0147468Y0069409D01*
X0147296Y0069482D01*
X0147122Y0069551D01*
X0146947Y0069615D01*
X0146770Y0069676D01*
X0146592Y0069732D01*
X0146413Y0069784D01*
X0146232Y0069832D01*
X0146050Y0069875D01*
X0145868Y0069914D01*
X0145684Y0069949D01*
X0145500Y0069979D01*
X0145315Y0070005D01*
X0145129Y0070026D01*
X0144943Y0070043D01*
X0144756Y0070055D01*
X0144570Y0070063D01*
X0144383Y0070067D01*
X0144383Y0069973D01*
X0144567Y0069969D01*
X0144752Y0069962D01*
X0144936Y0069949D01*
X0145120Y0069933D01*
X0145303Y0069912D01*
X0145486Y0069886D01*
X0145668Y0069856D01*
X0145849Y0069822D01*
X0146030Y0069784D01*
X0146209Y0069741D01*
X0146388Y0069694D01*
X0146565Y0069642D01*
X0146741Y0069587D01*
X0146916Y0069527D01*
X0147089Y0069463D01*
X0147260Y0069395D01*
X0147430Y0069323D01*
X0147598Y0069246D01*
X0147764Y0069166D01*
X0147928Y0069082D01*
X0148091Y0068994D01*
X0148251Y0068902D01*
X0148408Y0068806D01*
X0148564Y0068706D01*
X0148717Y0068603D01*
X0148867Y0068496D01*
X0149015Y0068386D01*
X0149160Y0068272D01*
X0149302Y0068154D01*
X0149442Y0068033D01*
X0149578Y0067909D01*
X0149712Y0067782D01*
X0149842Y0067651D01*
X0149970Y0067518D01*
X0150094Y0067381D01*
X0150214Y0067242D01*
X0150142Y0067181D01*
X0150023Y0067319D01*
X0149900Y0067454D01*
X0149775Y0067586D01*
X0149646Y0067715D01*
X0149514Y0067841D01*
X0149379Y0067963D01*
X0149241Y0068083D01*
X0149101Y0068199D01*
X0148957Y0068311D01*
X0148811Y0068420D01*
X0148663Y0068526D01*
X0148512Y0068628D01*
X0148358Y0068726D01*
X0148203Y0068821D01*
X0148045Y0068912D01*
X0147884Y0068999D01*
X0147722Y0069082D01*
X0147558Y0069161D01*
X0147392Y0069236D01*
X0147224Y0069308D01*
X0147055Y0069375D01*
X0146884Y0069438D01*
X0146712Y0069497D01*
X0146538Y0069552D01*
X0146363Y0069603D01*
X0146187Y0069650D01*
X0146009Y0069692D01*
X0145831Y0069730D01*
X0145652Y0069764D01*
X0145472Y0069793D01*
X0145292Y0069818D01*
X0145111Y0069839D01*
X0144929Y0069856D01*
X0144747Y0069868D01*
X0144565Y0069875D01*
X0144383Y0069879D01*
X0144382Y0053826D02*
X0144382Y0054726D01*
X0144383Y0054725D02*
X0144567Y0054729D01*
X0144752Y0054737D01*
X0144936Y0054749D01*
X0145119Y0054766D01*
X0145303Y0054788D01*
X0145485Y0054813D01*
X0145667Y0054844D01*
X0145848Y0054879D01*
X0146029Y0054918D01*
X0146208Y0054962D01*
X0146386Y0055010D01*
X0146563Y0055062D01*
X0146739Y0055119D01*
X0146913Y0055179D01*
X0147085Y0055245D01*
X0147256Y0055314D01*
X0147426Y0055387D01*
X0147593Y0055465D01*
X0147758Y0055547D01*
X0147922Y0055632D01*
X0148083Y0055722D01*
X0148242Y0055816D01*
X0148399Y0055913D01*
X0148553Y0056014D01*
X0148705Y0056119D01*
X0148854Y0056228D01*
X0149000Y0056340D01*
X0149144Y0056456D01*
X0149284Y0056575D01*
X0149422Y0056698D01*
X0149557Y0056824D01*
X0149689Y0056953D01*
X0149817Y0057086D01*
X0149942Y0057221D01*
X0150064Y0057360D01*
X0150751Y0056779D01*
X0150615Y0056623D01*
X0150474Y0056471D01*
X0150330Y0056322D01*
X0150183Y0056177D01*
X0150032Y0056036D01*
X0149878Y0055899D01*
X0149720Y0055765D01*
X0149559Y0055635D01*
X0149395Y0055509D01*
X0149228Y0055387D01*
X0149058Y0055269D01*
X0148885Y0055156D01*
X0148709Y0055047D01*
X0148531Y0054942D01*
X0148350Y0054841D01*
X0148167Y0054745D01*
X0147982Y0054653D01*
X0147794Y0054566D01*
X0147604Y0054484D01*
X0147413Y0054406D01*
X0147219Y0054333D01*
X0147024Y0054265D01*
X0146827Y0054201D01*
X0146629Y0054143D01*
X0146429Y0054089D01*
X0146228Y0054040D01*
X0146026Y0053996D01*
X0145823Y0053957D01*
X0145619Y0053923D01*
X0145414Y0053894D01*
X0145209Y0053870D01*
X0145003Y0053852D01*
X0144796Y0053838D01*
X0144590Y0053829D01*
X0144383Y0053825D01*
X0144383Y0053919D01*
X0144587Y0053923D01*
X0144792Y0053932D01*
X0144996Y0053945D01*
X0145199Y0053964D01*
X0145402Y0053988D01*
X0145605Y0054016D01*
X0145807Y0054050D01*
X0146007Y0054088D01*
X0146207Y0054132D01*
X0146406Y0054180D01*
X0146603Y0054233D01*
X0146800Y0054291D01*
X0146994Y0054354D01*
X0147187Y0054422D01*
X0147379Y0054494D01*
X0147568Y0054571D01*
X0147756Y0054652D01*
X0147941Y0054738D01*
X0148124Y0054829D01*
X0148306Y0054924D01*
X0148484Y0055023D01*
X0148660Y0055127D01*
X0148834Y0055235D01*
X0149005Y0055347D01*
X0149173Y0055464D01*
X0149338Y0055584D01*
X0149501Y0055709D01*
X0149660Y0055837D01*
X0149816Y0055969D01*
X0149968Y0056105D01*
X0150118Y0056245D01*
X0150263Y0056388D01*
X0150406Y0056535D01*
X0150544Y0056686D01*
X0150679Y0056839D01*
X0150608Y0056900D01*
X0150474Y0056748D01*
X0150337Y0056599D01*
X0150196Y0056454D01*
X0150052Y0056313D01*
X0149905Y0056174D01*
X0149754Y0056040D01*
X0149600Y0055909D01*
X0149442Y0055782D01*
X0149282Y0055659D01*
X0149118Y0055540D01*
X0148952Y0055425D01*
X0148783Y0055314D01*
X0148612Y0055207D01*
X0148437Y0055105D01*
X0148261Y0055006D01*
X0148082Y0054912D01*
X0147900Y0054823D01*
X0147717Y0054738D01*
X0147532Y0054657D01*
X0147344Y0054581D01*
X0147155Y0054510D01*
X0146964Y0054443D01*
X0146772Y0054381D01*
X0146578Y0054324D01*
X0146383Y0054271D01*
X0146186Y0054224D01*
X0145989Y0054181D01*
X0145790Y0054143D01*
X0145591Y0054109D01*
X0145391Y0054081D01*
X0145190Y0054058D01*
X0144989Y0054039D01*
X0144787Y0054025D01*
X0144585Y0054017D01*
X0144383Y0054013D01*
X0144383Y0054107D01*
X0144583Y0054111D01*
X0144782Y0054119D01*
X0144982Y0054133D01*
X0145181Y0054151D01*
X0145379Y0054174D01*
X0145577Y0054202D01*
X0145774Y0054235D01*
X0145970Y0054273D01*
X0146166Y0054315D01*
X0146360Y0054362D01*
X0146553Y0054414D01*
X0146744Y0054471D01*
X0146935Y0054532D01*
X0147123Y0054598D01*
X0147310Y0054669D01*
X0147495Y0054744D01*
X0147679Y0054824D01*
X0147860Y0054908D01*
X0148039Y0054996D01*
X0148216Y0055089D01*
X0148391Y0055186D01*
X0148563Y0055288D01*
X0148732Y0055393D01*
X0148900Y0055503D01*
X0149064Y0055617D01*
X0149225Y0055734D01*
X0149384Y0055856D01*
X0149539Y0055981D01*
X0149692Y0056111D01*
X0149841Y0056244D01*
X0149987Y0056380D01*
X0150129Y0056520D01*
X0150268Y0056664D01*
X0150404Y0056811D01*
X0150536Y0056961D01*
X0150464Y0057021D01*
X0150334Y0056873D01*
X0150200Y0056728D01*
X0150062Y0056586D01*
X0149921Y0056448D01*
X0149777Y0056313D01*
X0149630Y0056181D01*
X0149479Y0056054D01*
X0149325Y0055930D01*
X0149169Y0055809D01*
X0149009Y0055693D01*
X0148847Y0055581D01*
X0148682Y0055472D01*
X0148514Y0055368D01*
X0148344Y0055268D01*
X0148171Y0055172D01*
X0147996Y0055080D01*
X0147819Y0054992D01*
X0147640Y0054909D01*
X0147459Y0054831D01*
X0147276Y0054756D01*
X0147091Y0054687D01*
X0146905Y0054622D01*
X0146717Y0054561D01*
X0146527Y0054505D01*
X0146337Y0054454D01*
X0146145Y0054407D01*
X0145952Y0054365D01*
X0145758Y0054328D01*
X0145563Y0054295D01*
X0145367Y0054268D01*
X0145171Y0054245D01*
X0144975Y0054227D01*
X0144778Y0054213D01*
X0144580Y0054205D01*
X0144383Y0054201D01*
X0144383Y0054295D01*
X0144578Y0054299D01*
X0144773Y0054307D01*
X0144968Y0054320D01*
X0145162Y0054338D01*
X0145356Y0054361D01*
X0145549Y0054388D01*
X0145742Y0054420D01*
X0145933Y0054457D01*
X0146124Y0054499D01*
X0146314Y0054545D01*
X0146502Y0054595D01*
X0146689Y0054651D01*
X0146875Y0054711D01*
X0147059Y0054775D01*
X0147242Y0054844D01*
X0147423Y0054917D01*
X0147602Y0054995D01*
X0147779Y0055077D01*
X0147954Y0055164D01*
X0148126Y0055254D01*
X0148297Y0055349D01*
X0148465Y0055448D01*
X0148631Y0055551D01*
X0148794Y0055658D01*
X0148955Y0055769D01*
X0149112Y0055884D01*
X0149267Y0056003D01*
X0149419Y0056126D01*
X0149568Y0056252D01*
X0149714Y0056382D01*
X0149856Y0056515D01*
X0149995Y0056652D01*
X0150131Y0056792D01*
X0150263Y0056936D01*
X0150392Y0057082D01*
X0150320Y0057143D01*
X0150193Y0056998D01*
X0150062Y0056856D01*
X0149928Y0056718D01*
X0149791Y0056583D01*
X0149650Y0056451D01*
X0149506Y0056323D01*
X0149359Y0056198D01*
X0149209Y0056077D01*
X0149056Y0055960D01*
X0148900Y0055846D01*
X0148741Y0055736D01*
X0148580Y0055630D01*
X0148416Y0055529D01*
X0148250Y0055431D01*
X0148082Y0055337D01*
X0147911Y0055247D01*
X0147738Y0055162D01*
X0147563Y0055081D01*
X0147386Y0055004D01*
X0147208Y0054932D01*
X0147027Y0054863D01*
X0146845Y0054800D01*
X0146662Y0054741D01*
X0146477Y0054686D01*
X0146291Y0054636D01*
X0146103Y0054590D01*
X0145915Y0054549D01*
X0145725Y0054513D01*
X0145535Y0054481D01*
X0145344Y0054454D01*
X0145153Y0054432D01*
X0144961Y0054414D01*
X0144768Y0054401D01*
X0144576Y0054393D01*
X0144383Y0054389D01*
X0144383Y0054483D01*
X0144573Y0054487D01*
X0144764Y0054495D01*
X0144954Y0054508D01*
X0145143Y0054525D01*
X0145333Y0054547D01*
X0145521Y0054574D01*
X0145709Y0054605D01*
X0145896Y0054641D01*
X0146082Y0054682D01*
X0146267Y0054727D01*
X0146451Y0054776D01*
X0146634Y0054831D01*
X0146815Y0054889D01*
X0146995Y0054952D01*
X0147173Y0055019D01*
X0147350Y0055091D01*
X0147525Y0055167D01*
X0147697Y0055247D01*
X0147868Y0055331D01*
X0148037Y0055420D01*
X0148203Y0055512D01*
X0148368Y0055609D01*
X0148529Y0055709D01*
X0148689Y0055814D01*
X0148845Y0055922D01*
X0148999Y0056035D01*
X0149150Y0056151D01*
X0149299Y0056270D01*
X0149444Y0056393D01*
X0149586Y0056520D01*
X0149725Y0056650D01*
X0149861Y0056784D01*
X0149994Y0056920D01*
X0150123Y0057060D01*
X0150249Y0057204D01*
X0150177Y0057264D01*
X0150053Y0057123D01*
X0149925Y0056985D01*
X0149794Y0056850D01*
X0149660Y0056718D01*
X0149523Y0056589D01*
X0149382Y0056464D01*
X0149238Y0056342D01*
X0149092Y0056224D01*
X0148943Y0056110D01*
X0148791Y0055999D01*
X0148636Y0055892D01*
X0148479Y0055789D01*
X0148319Y0055689D01*
X0148157Y0055594D01*
X0147992Y0055502D01*
X0147826Y0055415D01*
X0147657Y0055332D01*
X0147486Y0055252D01*
X0147314Y0055177D01*
X0147139Y0055107D01*
X0146963Y0055040D01*
X0146786Y0054978D01*
X0146606Y0054920D01*
X0146426Y0054867D01*
X0146244Y0054818D01*
X0146062Y0054774D01*
X0145878Y0054734D01*
X0145693Y0054698D01*
X0145507Y0054667D01*
X0145321Y0054641D01*
X0145134Y0054619D01*
X0144947Y0054602D01*
X0144759Y0054589D01*
X0144571Y0054581D01*
X0144383Y0054577D01*
X0144383Y0054671D01*
X0144569Y0054675D01*
X0144754Y0054683D01*
X0144940Y0054695D01*
X0145125Y0054712D01*
X0145309Y0054734D01*
X0145493Y0054760D01*
X0145677Y0054791D01*
X0145859Y0054826D01*
X0146041Y0054865D01*
X0146221Y0054909D01*
X0146401Y0054958D01*
X0146579Y0055010D01*
X0146756Y0055067D01*
X0146931Y0055129D01*
X0147105Y0055194D01*
X0147277Y0055264D01*
X0147448Y0055338D01*
X0147616Y0055416D01*
X0147783Y0055499D01*
X0147947Y0055585D01*
X0148110Y0055675D01*
X0148270Y0055770D01*
X0148428Y0055868D01*
X0148583Y0055970D01*
X0148736Y0056075D01*
X0148886Y0056185D01*
X0149034Y0056298D01*
X0149178Y0056415D01*
X0149320Y0056535D01*
X0149459Y0056658D01*
X0149595Y0056785D01*
X0149727Y0056915D01*
X0149856Y0057049D01*
X0149983Y0057185D01*
X0150105Y0057325D01*
X0041645Y0061510D02*
X0040864Y0061064D01*
X0040771Y0061221D01*
X0040674Y0061375D01*
X0040573Y0061527D01*
X0040468Y0061676D01*
X0040360Y0061823D01*
X0040249Y0061968D01*
X0040134Y0062109D01*
X0040015Y0062248D01*
X0039893Y0062383D01*
X0039768Y0062516D01*
X0039640Y0062646D01*
X0039509Y0062772D01*
X0039375Y0062896D01*
X0039238Y0063016D01*
X0039098Y0063133D01*
X0038955Y0063246D01*
X0038809Y0063356D01*
X0038661Y0063462D01*
X0038510Y0063565D01*
X0038357Y0063664D01*
X0038202Y0063759D01*
X0038044Y0063850D01*
X0037884Y0063938D01*
X0037722Y0064022D01*
X0037559Y0064102D01*
X0037393Y0064178D01*
X0037225Y0064249D01*
X0037056Y0064317D01*
X0036885Y0064381D01*
X0036713Y0064440D01*
X0036539Y0064496D01*
X0036364Y0064547D01*
X0036188Y0064594D01*
X0036011Y0064636D01*
X0035832Y0064675D01*
X0035653Y0064709D01*
X0035473Y0064739D01*
X0035293Y0064764D01*
X0035112Y0064785D01*
X0034930Y0064801D01*
X0034748Y0064814D01*
X0034566Y0064821D01*
X0034384Y0064825D01*
X0034383Y0065724D01*
X0034384Y0065725D01*
X0034588Y0065721D01*
X0034792Y0065713D01*
X0034996Y0065699D01*
X0035200Y0065681D01*
X0035403Y0065657D01*
X0035605Y0065629D01*
X0035807Y0065596D01*
X0036007Y0065558D01*
X0036207Y0065515D01*
X0036406Y0065467D01*
X0036603Y0065415D01*
X0036799Y0065357D01*
X0036994Y0065295D01*
X0037187Y0065229D01*
X0037379Y0065157D01*
X0037568Y0065081D01*
X0037756Y0065001D01*
X0037942Y0064916D01*
X0038126Y0064826D01*
X0038307Y0064733D01*
X0038486Y0064634D01*
X0038663Y0064532D01*
X0038837Y0064425D01*
X0039009Y0064314D01*
X0039178Y0064199D01*
X0039344Y0064080D01*
X0039507Y0063957D01*
X0039667Y0063830D01*
X0039824Y0063699D01*
X0039978Y0063564D01*
X0040128Y0063426D01*
X0040275Y0063284D01*
X0040419Y0063139D01*
X0040559Y0062990D01*
X0040695Y0062838D01*
X0040828Y0062682D01*
X0040956Y0062524D01*
X0041081Y0062362D01*
X0041202Y0062197D01*
X0041319Y0062030D01*
X0041432Y0061859D01*
X0041541Y0061686D01*
X0041646Y0061511D01*
X0041564Y0061464D01*
X0041461Y0061638D01*
X0041353Y0061809D01*
X0041241Y0061977D01*
X0041126Y0062143D01*
X0041006Y0062306D01*
X0040882Y0062465D01*
X0040755Y0062622D01*
X0040624Y0062776D01*
X0040489Y0062926D01*
X0040351Y0063074D01*
X0040209Y0063217D01*
X0040063Y0063358D01*
X0039915Y0063494D01*
X0039763Y0063627D01*
X0039607Y0063757D01*
X0039449Y0063882D01*
X0039288Y0064004D01*
X0039124Y0064122D01*
X0038957Y0064236D01*
X0038787Y0064345D01*
X0038615Y0064451D01*
X0038440Y0064552D01*
X0038263Y0064650D01*
X0038084Y0064742D01*
X0037902Y0064831D01*
X0037718Y0064915D01*
X0037533Y0064995D01*
X0037345Y0065070D01*
X0037156Y0065140D01*
X0036965Y0065206D01*
X0036772Y0065267D01*
X0036578Y0065324D01*
X0036383Y0065376D01*
X0036187Y0065423D01*
X0035989Y0065465D01*
X0035791Y0065503D01*
X0035591Y0065536D01*
X0035391Y0065564D01*
X0035190Y0065587D01*
X0034989Y0065605D01*
X0034788Y0065619D01*
X0034586Y0065627D01*
X0034384Y0065631D01*
X0034384Y0065537D01*
X0034583Y0065533D01*
X0034783Y0065525D01*
X0034982Y0065512D01*
X0035181Y0065493D01*
X0035380Y0065471D01*
X0035577Y0065443D01*
X0035775Y0065410D01*
X0035971Y0065373D01*
X0036166Y0065331D01*
X0036360Y0065285D01*
X0036553Y0065233D01*
X0036745Y0065177D01*
X0036935Y0065117D01*
X0037124Y0065052D01*
X0037311Y0064982D01*
X0037497Y0064908D01*
X0037680Y0064829D01*
X0037862Y0064746D01*
X0038042Y0064658D01*
X0038219Y0064567D01*
X0038394Y0064471D01*
X0038567Y0064370D01*
X0038737Y0064266D01*
X0038905Y0064157D01*
X0039070Y0064045D01*
X0039232Y0063929D01*
X0039391Y0063808D01*
X0039548Y0063684D01*
X0039701Y0063556D01*
X0039852Y0063425D01*
X0039999Y0063289D01*
X0040142Y0063151D01*
X0040283Y0063009D01*
X0040420Y0062863D01*
X0040553Y0062714D01*
X0040683Y0062562D01*
X0040809Y0062407D01*
X0040931Y0062249D01*
X0041049Y0062088D01*
X0041163Y0061925D01*
X0041274Y0061758D01*
X0041380Y0061589D01*
X0041482Y0061418D01*
X0041401Y0061371D01*
X0041300Y0061541D01*
X0041195Y0061708D01*
X0041085Y0061872D01*
X0040972Y0062034D01*
X0040855Y0062193D01*
X0040735Y0062349D01*
X0040610Y0062503D01*
X0040482Y0062653D01*
X0040350Y0062800D01*
X0040215Y0062944D01*
X0040076Y0063084D01*
X0039934Y0063221D01*
X0039789Y0063355D01*
X0039640Y0063485D01*
X0039488Y0063611D01*
X0039334Y0063734D01*
X0039176Y0063853D01*
X0039016Y0063968D01*
X0038853Y0064079D01*
X0038687Y0064186D01*
X0038519Y0064290D01*
X0038348Y0064389D01*
X0038175Y0064484D01*
X0037999Y0064574D01*
X0037822Y0064661D01*
X0037642Y0064743D01*
X0037461Y0064821D01*
X0037278Y0064894D01*
X0037093Y0064963D01*
X0036906Y0065027D01*
X0036718Y0065087D01*
X0036528Y0065143D01*
X0036338Y0065193D01*
X0036146Y0065240D01*
X0035953Y0065281D01*
X0035759Y0065318D01*
X0035564Y0065350D01*
X0035368Y0065377D01*
X0035172Y0065400D01*
X0034975Y0065418D01*
X0034778Y0065431D01*
X0034581Y0065439D01*
X0034384Y0065443D01*
X0034384Y0065349D01*
X0034579Y0065345D01*
X0034774Y0065337D01*
X0034969Y0065324D01*
X0035163Y0065306D01*
X0035357Y0065284D01*
X0035550Y0065257D01*
X0035743Y0065225D01*
X0035934Y0065189D01*
X0036125Y0065148D01*
X0036315Y0065102D01*
X0036503Y0065052D01*
X0036691Y0064997D01*
X0036877Y0064938D01*
X0037061Y0064875D01*
X0037244Y0064806D01*
X0037425Y0064734D01*
X0037604Y0064657D01*
X0037782Y0064576D01*
X0037957Y0064490D01*
X0038131Y0064401D01*
X0038302Y0064307D01*
X0038470Y0064209D01*
X0038637Y0064107D01*
X0038801Y0064001D01*
X0038962Y0063891D01*
X0039120Y0063777D01*
X0039276Y0063660D01*
X0039429Y0063538D01*
X0039579Y0063413D01*
X0039726Y0063285D01*
X0039869Y0063153D01*
X0040010Y0063017D01*
X0040147Y0062878D01*
X0040281Y0062736D01*
X0040411Y0062591D01*
X0040538Y0062443D01*
X0040661Y0062291D01*
X0040780Y0062137D01*
X0040896Y0061980D01*
X0041007Y0061820D01*
X0041115Y0061657D01*
X0041219Y0061492D01*
X0041319Y0061324D01*
X0041238Y0061278D01*
X0041139Y0061443D01*
X0041036Y0061607D01*
X0040929Y0061767D01*
X0040819Y0061925D01*
X0040705Y0062081D01*
X0040587Y0062233D01*
X0040465Y0062383D01*
X0040340Y0062529D01*
X0040211Y0062673D01*
X0040079Y0062813D01*
X0039944Y0062951D01*
X0039805Y0063085D01*
X0039663Y0063215D01*
X0039518Y0063342D01*
X0039370Y0063466D01*
X0039219Y0063585D01*
X0039065Y0063702D01*
X0038908Y0063814D01*
X0038749Y0063923D01*
X0038587Y0064027D01*
X0038422Y0064128D01*
X0038256Y0064225D01*
X0038086Y0064318D01*
X0037915Y0064406D01*
X0037742Y0064491D01*
X0037566Y0064571D01*
X0037389Y0064647D01*
X0037210Y0064719D01*
X0037029Y0064786D01*
X0036847Y0064849D01*
X0036663Y0064907D01*
X0036478Y0064961D01*
X0036292Y0065011D01*
X0036104Y0065056D01*
X0035916Y0065097D01*
X0035727Y0065133D01*
X0035536Y0065164D01*
X0035345Y0065191D01*
X0035154Y0065213D01*
X0034962Y0065230D01*
X0034769Y0065243D01*
X0034577Y0065251D01*
X0034384Y0065255D01*
X0034384Y0065161D01*
X0034574Y0065157D01*
X0034765Y0065149D01*
X0034955Y0065137D01*
X0035145Y0065119D01*
X0035334Y0065097D01*
X0035522Y0065071D01*
X0035710Y0065040D01*
X0035898Y0065004D01*
X0036084Y0064964D01*
X0036269Y0064920D01*
X0036453Y0064871D01*
X0036636Y0064817D01*
X0036818Y0064760D01*
X0036998Y0064697D01*
X0037176Y0064631D01*
X0037353Y0064560D01*
X0037528Y0064485D01*
X0037702Y0064406D01*
X0037873Y0064322D01*
X0038042Y0064235D01*
X0038209Y0064143D01*
X0038374Y0064047D01*
X0038537Y0063948D01*
X0038697Y0063844D01*
X0038854Y0063737D01*
X0039009Y0063626D01*
X0039161Y0063511D01*
X0039310Y0063393D01*
X0039456Y0063271D01*
X0039600Y0063145D01*
X0039740Y0063016D01*
X0039877Y0062884D01*
X0040011Y0062748D01*
X0040142Y0062610D01*
X0040269Y0062468D01*
X0040393Y0062323D01*
X0040513Y0062175D01*
X0040629Y0062024D01*
X0040742Y0061871D01*
X0040851Y0061715D01*
X0040957Y0061556D01*
X0041058Y0061395D01*
X0041156Y0061231D01*
X0041074Y0061184D01*
X0040978Y0061346D01*
X0040878Y0061505D01*
X0040774Y0061662D01*
X0040666Y0061817D01*
X0040554Y0061968D01*
X0040439Y0062117D01*
X0040320Y0062263D01*
X0040198Y0062406D01*
X0040072Y0062546D01*
X0039943Y0062683D01*
X0039811Y0062817D01*
X0039675Y0062948D01*
X0039537Y0063075D01*
X0039395Y0063199D01*
X0039251Y0063320D01*
X0039103Y0063437D01*
X0038953Y0063550D01*
X0038800Y0063660D01*
X0038644Y0063766D01*
X0038486Y0063868D01*
X0038326Y0063967D01*
X0038163Y0064061D01*
X0037998Y0064152D01*
X0037831Y0064238D01*
X0037662Y0064321D01*
X0037491Y0064399D01*
X0037318Y0064473D01*
X0037143Y0064543D01*
X0036966Y0064609D01*
X0036788Y0064670D01*
X0036609Y0064727D01*
X0036428Y0064780D01*
X0036246Y0064829D01*
X0036063Y0064873D01*
X0035879Y0064912D01*
X0035694Y0064947D01*
X0035509Y0064978D01*
X0035322Y0065004D01*
X0035135Y0065026D01*
X0034948Y0065043D01*
X0034760Y0065055D01*
X0034572Y0065063D01*
X0034384Y0065067D01*
X0034384Y0064973D01*
X0034570Y0064969D01*
X0034755Y0064961D01*
X0034941Y0064949D01*
X0035126Y0064932D01*
X0035311Y0064911D01*
X0035495Y0064885D01*
X0035678Y0064855D01*
X0035861Y0064820D01*
X0036043Y0064781D01*
X0036224Y0064737D01*
X0036403Y0064690D01*
X0036582Y0064637D01*
X0036759Y0064581D01*
X0036935Y0064520D01*
X0037109Y0064455D01*
X0037282Y0064386D01*
X0037453Y0064313D01*
X0037622Y0064236D01*
X0037789Y0064154D01*
X0037954Y0064069D01*
X0038117Y0063979D01*
X0038278Y0063886D01*
X0038436Y0063789D01*
X0038592Y0063688D01*
X0038746Y0063583D01*
X0038897Y0063475D01*
X0039046Y0063363D01*
X0039191Y0063247D01*
X0039334Y0063128D01*
X0039474Y0063006D01*
X0039611Y0062880D01*
X0039745Y0062751D01*
X0039875Y0062618D01*
X0040003Y0062483D01*
X0040127Y0062345D01*
X0040248Y0062203D01*
X0040365Y0062059D01*
X0040479Y0061912D01*
X0040589Y0061762D01*
X0040696Y0061610D01*
X0040798Y0061455D01*
X0040897Y0061297D01*
X0040993Y0061138D01*
X0040911Y0061091D01*
X0040817Y0061249D01*
X0040719Y0061404D01*
X0040618Y0061557D01*
X0040512Y0061708D01*
X0040403Y0061856D01*
X0040291Y0062001D01*
X0040175Y0062143D01*
X0040056Y0062283D01*
X0039933Y0062420D01*
X0039807Y0062553D01*
X0039678Y0062684D01*
X0039546Y0062812D01*
X0039411Y0062936D01*
X0039273Y0063057D01*
X0039132Y0063174D01*
X0038988Y0063288D01*
X0038841Y0063399D01*
X0038692Y0063506D01*
X0038540Y0063610D01*
X0038386Y0063709D01*
X0038230Y0063805D01*
X0038071Y0063897D01*
X0037910Y0063986D01*
X0037747Y0064070D01*
X0037582Y0064151D01*
X0037415Y0064227D01*
X0037246Y0064299D01*
X0037075Y0064368D01*
X0036903Y0064432D01*
X0036730Y0064492D01*
X0036555Y0064548D01*
X0036378Y0064599D01*
X0036201Y0064646D01*
X0036022Y0064689D01*
X0035843Y0064728D01*
X0035662Y0064762D01*
X0035481Y0064792D01*
X0035299Y0064817D01*
X0035117Y0064839D01*
X0034934Y0064855D01*
X0034751Y0064868D01*
X0034567Y0064875D01*
X0034384Y0064879D01*
X0034383Y0048826D02*
X0034383Y0049726D01*
X0034383Y0049725D02*
X0034566Y0049729D01*
X0034749Y0049736D01*
X0034932Y0049749D01*
X0035115Y0049766D01*
X0035297Y0049787D01*
X0035478Y0049812D01*
X0035659Y0049842D01*
X0035839Y0049877D01*
X0036018Y0049915D01*
X0036196Y0049958D01*
X0036373Y0050006D01*
X0036548Y0050057D01*
X0036723Y0050113D01*
X0036896Y0050173D01*
X0037067Y0050238D01*
X0037237Y0050306D01*
X0037406Y0050378D01*
X0037572Y0050455D01*
X0037736Y0050536D01*
X0037899Y0050620D01*
X0038059Y0050709D01*
X0038218Y0050801D01*
X0038374Y0050897D01*
X0038527Y0050997D01*
X0038678Y0051101D01*
X0038827Y0051208D01*
X0038973Y0051319D01*
X0039116Y0051433D01*
X0039256Y0051551D01*
X0039393Y0051672D01*
X0039528Y0051796D01*
X0039659Y0051924D01*
X0039788Y0052055D01*
X0039913Y0052189D01*
X0040034Y0052325D01*
X0040153Y0052465D01*
X0040268Y0052608D01*
X0040379Y0052753D01*
X0040487Y0052901D01*
X0040591Y0053052D01*
X0040692Y0053205D01*
X0040789Y0053360D01*
X0040882Y0053518D01*
X0040971Y0053678D01*
X0041765Y0053255D01*
X0041665Y0053075D01*
X0041561Y0052898D01*
X0041453Y0052724D01*
X0041340Y0052552D01*
X0041223Y0052384D01*
X0041102Y0052218D01*
X0040978Y0052055D01*
X0040849Y0051895D01*
X0040716Y0051738D01*
X0040580Y0051585D01*
X0040440Y0051435D01*
X0040296Y0051288D01*
X0040149Y0051145D01*
X0039998Y0051005D01*
X0039844Y0050870D01*
X0039687Y0050738D01*
X0039527Y0050610D01*
X0039363Y0050485D01*
X0039197Y0050365D01*
X0039027Y0050249D01*
X0038855Y0050137D01*
X0038681Y0050029D01*
X0038503Y0049926D01*
X0038324Y0049827D01*
X0038141Y0049732D01*
X0037957Y0049642D01*
X0037771Y0049556D01*
X0037582Y0049475D01*
X0037392Y0049398D01*
X0037199Y0049326D01*
X0037005Y0049259D01*
X0036810Y0049196D01*
X0036613Y0049138D01*
X0036415Y0049085D01*
X0036215Y0049037D01*
X0036014Y0048994D01*
X0035813Y0048956D01*
X0035610Y0048922D01*
X0035407Y0048894D01*
X0035203Y0048870D01*
X0034998Y0048851D01*
X0034794Y0048838D01*
X0034589Y0048829D01*
X0034383Y0048825D01*
X0034383Y0048919D01*
X0034586Y0048923D01*
X0034789Y0048931D01*
X0034992Y0048945D01*
X0035194Y0048963D01*
X0035395Y0048987D01*
X0035596Y0049015D01*
X0035797Y0049048D01*
X0035996Y0049086D01*
X0036194Y0049129D01*
X0036392Y0049177D01*
X0036588Y0049229D01*
X0036783Y0049286D01*
X0036976Y0049348D01*
X0037168Y0049415D01*
X0037358Y0049486D01*
X0037546Y0049561D01*
X0037732Y0049642D01*
X0037917Y0049727D01*
X0038099Y0049816D01*
X0038279Y0049910D01*
X0038457Y0050008D01*
X0038632Y0050110D01*
X0038805Y0050216D01*
X0038975Y0050327D01*
X0039143Y0050442D01*
X0039307Y0050561D01*
X0039469Y0050684D01*
X0039627Y0050810D01*
X0039783Y0050941D01*
X0039935Y0051075D01*
X0040084Y0051213D01*
X0040230Y0051354D01*
X0040372Y0051499D01*
X0040510Y0051648D01*
X0040645Y0051799D01*
X0040776Y0051954D01*
X0040903Y0052112D01*
X0041027Y0052274D01*
X0041146Y0052438D01*
X0041262Y0052605D01*
X0041373Y0052774D01*
X0041481Y0052947D01*
X0041584Y0053122D01*
X0041682Y0053299D01*
X0041599Y0053343D01*
X0041502Y0053168D01*
X0041400Y0052995D01*
X0041294Y0052825D01*
X0041184Y0052657D01*
X0041070Y0052492D01*
X0040951Y0052330D01*
X0040829Y0052170D01*
X0040703Y0052014D01*
X0040574Y0051861D01*
X0040440Y0051711D01*
X0040304Y0051564D01*
X0040163Y0051421D01*
X0040019Y0051281D01*
X0039872Y0051145D01*
X0039721Y0051012D01*
X0039568Y0050883D01*
X0039411Y0050758D01*
X0039251Y0050636D01*
X0039088Y0050519D01*
X0038923Y0050405D01*
X0038755Y0050296D01*
X0038584Y0050190D01*
X0038411Y0050089D01*
X0038235Y0049992D01*
X0038057Y0049900D01*
X0037877Y0049812D01*
X0037694Y0049728D01*
X0037510Y0049648D01*
X0037324Y0049573D01*
X0037136Y0049503D01*
X0036946Y0049437D01*
X0036755Y0049376D01*
X0036563Y0049320D01*
X0036369Y0049268D01*
X0036174Y0049221D01*
X0035978Y0049178D01*
X0035780Y0049141D01*
X0035582Y0049108D01*
X0035384Y0049080D01*
X0035184Y0049057D01*
X0034985Y0049039D01*
X0034784Y0049025D01*
X0034584Y0049017D01*
X0034383Y0049013D01*
X0034383Y0049107D01*
X0034582Y0049111D01*
X0034780Y0049119D01*
X0034978Y0049132D01*
X0035175Y0049151D01*
X0035372Y0049173D01*
X0035569Y0049201D01*
X0035764Y0049233D01*
X0035959Y0049271D01*
X0036153Y0049312D01*
X0036346Y0049359D01*
X0036538Y0049410D01*
X0036728Y0049466D01*
X0036917Y0049526D01*
X0037104Y0049591D01*
X0037290Y0049661D01*
X0037474Y0049735D01*
X0037656Y0049814D01*
X0037836Y0049897D01*
X0038015Y0049984D01*
X0038191Y0050075D01*
X0038364Y0050171D01*
X0038536Y0050271D01*
X0038704Y0050375D01*
X0038871Y0050483D01*
X0039034Y0050596D01*
X0039195Y0050712D01*
X0039353Y0050832D01*
X0039508Y0050956D01*
X0039660Y0051083D01*
X0039809Y0051214D01*
X0039954Y0051349D01*
X0040097Y0051487D01*
X0040235Y0051629D01*
X0040371Y0051774D01*
X0040503Y0051922D01*
X0040631Y0052074D01*
X0040755Y0052228D01*
X0040876Y0052385D01*
X0040993Y0052546D01*
X0041106Y0052709D01*
X0041214Y0052875D01*
X0041319Y0053043D01*
X0041420Y0053214D01*
X0041516Y0053387D01*
X0041434Y0053432D01*
X0041338Y0053260D01*
X0041239Y0053091D01*
X0041135Y0052925D01*
X0041027Y0052761D01*
X0040916Y0052600D01*
X0040800Y0052441D01*
X0040681Y0052286D01*
X0040558Y0052133D01*
X0040431Y0051984D01*
X0040301Y0051837D01*
X0040167Y0051694D01*
X0040030Y0051554D01*
X0039889Y0051417D01*
X0039746Y0051284D01*
X0039599Y0051154D01*
X0039448Y0051028D01*
X0039295Y0050906D01*
X0039139Y0050787D01*
X0038980Y0050672D01*
X0038818Y0050562D01*
X0038654Y0050455D01*
X0038487Y0050352D01*
X0038318Y0050253D01*
X0038146Y0050158D01*
X0037972Y0050068D01*
X0037796Y0049981D01*
X0037618Y0049900D01*
X0037438Y0049822D01*
X0037256Y0049749D01*
X0037073Y0049680D01*
X0036887Y0049616D01*
X0036701Y0049556D01*
X0036513Y0049501D01*
X0036323Y0049450D01*
X0036133Y0049404D01*
X0035941Y0049363D01*
X0035748Y0049326D01*
X0035555Y0049294D01*
X0035361Y0049267D01*
X0035166Y0049244D01*
X0034971Y0049226D01*
X0034775Y0049213D01*
X0034579Y0049205D01*
X0034383Y0049201D01*
X0034383Y0049295D01*
X0034577Y0049299D01*
X0034771Y0049307D01*
X0034964Y0049320D01*
X0035157Y0049338D01*
X0035349Y0049360D01*
X0035541Y0049387D01*
X0035732Y0049419D01*
X0035923Y0049455D01*
X0036112Y0049496D01*
X0036300Y0049541D01*
X0036487Y0049591D01*
X0036673Y0049646D01*
X0036858Y0049705D01*
X0037041Y0049768D01*
X0037222Y0049836D01*
X0037402Y0049909D01*
X0037580Y0049985D01*
X0037756Y0050066D01*
X0037930Y0050152D01*
X0038102Y0050241D01*
X0038272Y0050335D01*
X0038439Y0050432D01*
X0038604Y0050534D01*
X0038766Y0050640D01*
X0038926Y0050749D01*
X0039083Y0050863D01*
X0039237Y0050980D01*
X0039389Y0051101D01*
X0039537Y0051225D01*
X0039682Y0051353D01*
X0039825Y0051485D01*
X0039964Y0051620D01*
X0040099Y0051758D01*
X0040231Y0051900D01*
X0040360Y0052045D01*
X0040485Y0052193D01*
X0040607Y0052344D01*
X0040725Y0052497D01*
X0040839Y0052654D01*
X0040949Y0052813D01*
X0041055Y0052975D01*
X0041158Y0053140D01*
X0041256Y0053307D01*
X0041351Y0053476D01*
X0041268Y0053520D01*
X0041174Y0053353D01*
X0041077Y0053188D01*
X0040976Y0053025D01*
X0040871Y0052865D01*
X0040762Y0052708D01*
X0040649Y0052553D01*
X0040533Y0052401D01*
X0040413Y0052252D01*
X0040289Y0052106D01*
X0040162Y0051963D01*
X0040031Y0051823D01*
X0039897Y0051687D01*
X0039760Y0051553D01*
X0039619Y0051423D01*
X0039476Y0051296D01*
X0039329Y0051173D01*
X0039179Y0051054D01*
X0039027Y0050938D01*
X0038872Y0050826D01*
X0038714Y0050718D01*
X0038553Y0050613D01*
X0038390Y0050513D01*
X0038225Y0050416D01*
X0038058Y0050324D01*
X0037888Y0050236D01*
X0037716Y0050151D01*
X0037542Y0050071D01*
X0037366Y0049996D01*
X0037188Y0049924D01*
X0037009Y0049857D01*
X0036828Y0049794D01*
X0036646Y0049736D01*
X0036462Y0049682D01*
X0036277Y0049632D01*
X0036091Y0049588D01*
X0035904Y0049547D01*
X0035716Y0049511D01*
X0035527Y0049480D01*
X0035338Y0049453D01*
X0035148Y0049431D01*
X0034957Y0049414D01*
X0034766Y0049401D01*
X0034575Y0049393D01*
X0034383Y0049389D01*
X0034383Y0049483D01*
X0034572Y0049487D01*
X0034761Y0049495D01*
X0034950Y0049507D01*
X0035138Y0049525D01*
X0035326Y0049547D01*
X0035513Y0049573D01*
X0035700Y0049604D01*
X0035886Y0049639D01*
X0036071Y0049679D01*
X0036255Y0049724D01*
X0036437Y0049773D01*
X0036619Y0049826D01*
X0036799Y0049883D01*
X0036977Y0049945D01*
X0037155Y0050012D01*
X0037330Y0050082D01*
X0037504Y0050157D01*
X0037676Y0050236D01*
X0037845Y0050320D01*
X0038013Y0050407D01*
X0038179Y0050498D01*
X0038342Y0050594D01*
X0038503Y0050693D01*
X0038662Y0050796D01*
X0038818Y0050903D01*
X0038971Y0051014D01*
X0039122Y0051128D01*
X0039269Y0051246D01*
X0039414Y0051368D01*
X0039556Y0051493D01*
X0039695Y0051621D01*
X0039830Y0051753D01*
X0039963Y0051888D01*
X0040092Y0052026D01*
X0040218Y0052168D01*
X0040340Y0052312D01*
X0040459Y0052459D01*
X0040574Y0052609D01*
X0040685Y0052762D01*
X0040793Y0052918D01*
X0040897Y0053076D01*
X0040997Y0053236D01*
X0041093Y0053399D01*
X0041185Y0053564D01*
X0041102Y0053609D01*
X0041011Y0053445D01*
X0040916Y0053284D01*
X0040817Y0053126D01*
X0040715Y0052970D01*
X0040608Y0052816D01*
X0040498Y0052665D01*
X0040384Y0052517D01*
X0040267Y0052371D01*
X0040146Y0052229D01*
X0040022Y0052089D01*
X0039895Y0051953D01*
X0039764Y0051819D01*
X0039630Y0051689D01*
X0039493Y0051562D01*
X0039353Y0051439D01*
X0039210Y0051319D01*
X0039064Y0051202D01*
X0038915Y0051089D01*
X0038763Y0050980D01*
X0038609Y0050874D01*
X0038453Y0050772D01*
X0038294Y0050674D01*
X0038132Y0050580D01*
X0037969Y0050490D01*
X0037803Y0050403D01*
X0037635Y0050321D01*
X0037466Y0050243D01*
X0037294Y0050169D01*
X0037121Y0050100D01*
X0036946Y0050034D01*
X0036769Y0049973D01*
X0036591Y0049916D01*
X0036412Y0049863D01*
X0036232Y0049815D01*
X0036050Y0049771D01*
X0035867Y0049731D01*
X0035684Y0049696D01*
X0035500Y0049666D01*
X0035315Y0049640D01*
X0035129Y0049618D01*
X0034943Y0049601D01*
X0034757Y0049589D01*
X0034570Y0049581D01*
X0034383Y0049577D01*
X0034383Y0049671D01*
X0034568Y0049675D01*
X0034752Y0049683D01*
X0034936Y0049695D01*
X0035120Y0049712D01*
X0035303Y0049733D01*
X0035486Y0049759D01*
X0035668Y0049789D01*
X0035849Y0049824D01*
X0036029Y0049863D01*
X0036209Y0049906D01*
X0036387Y0049954D01*
X0036564Y0050006D01*
X0036740Y0050062D01*
X0036914Y0050122D01*
X0037087Y0050187D01*
X0037258Y0050256D01*
X0037427Y0050329D01*
X0037595Y0050406D01*
X0037761Y0050487D01*
X0037924Y0050573D01*
X0038086Y0050662D01*
X0038245Y0050755D01*
X0038402Y0050852D01*
X0038557Y0050952D01*
X0038709Y0051057D01*
X0038859Y0051165D01*
X0039006Y0051276D01*
X0039150Y0051391D01*
X0039291Y0051510D01*
X0039430Y0051632D01*
X0039565Y0051757D01*
X0039697Y0051886D01*
X0039827Y0052018D01*
X0039953Y0052152D01*
X0040075Y0052290D01*
X0040194Y0052431D01*
X0040310Y0052575D01*
X0040423Y0052721D01*
X0040531Y0052870D01*
X0040636Y0053022D01*
X0040738Y0053176D01*
X0040835Y0053333D01*
X0040929Y0053492D01*
X0041019Y0053653D01*
X0027874Y0051827D02*
X0028566Y0052404D01*
X0028565Y0052403D02*
X0028684Y0052266D01*
X0028805Y0052132D01*
X0028930Y0052001D01*
X0029058Y0051873D01*
X0029189Y0051749D01*
X0029323Y0051627D01*
X0029460Y0051508D01*
X0029599Y0051393D01*
X0029742Y0051282D01*
X0029887Y0051173D01*
X0030034Y0051068D01*
X0030184Y0050967D01*
X0030336Y0050870D01*
X0030491Y0050776D01*
X0030648Y0050685D01*
X0030807Y0050599D01*
X0030968Y0050516D01*
X0031131Y0050438D01*
X0031296Y0050363D01*
X0031462Y0050292D01*
X0031630Y0050225D01*
X0031800Y0050163D01*
X0031971Y0050104D01*
X0032144Y0050049D01*
X0032317Y0049999D01*
X0032492Y0049953D01*
X0032668Y0049911D01*
X0032845Y0049873D01*
X0033023Y0049840D01*
X0033202Y0049810D01*
X0033381Y0049785D01*
X0033561Y0049765D01*
X0033741Y0049748D01*
X0033921Y0049736D01*
X0034102Y0049729D01*
X0034283Y0049725D01*
X0034284Y0048826D01*
X0034283Y0048825D01*
X0034080Y0048829D01*
X0033878Y0048837D01*
X0033675Y0048851D01*
X0033473Y0048869D01*
X0033272Y0048892D01*
X0033071Y0048920D01*
X0032871Y0048953D01*
X0032671Y0048990D01*
X0032473Y0049032D01*
X0032275Y0049079D01*
X0032079Y0049131D01*
X0031885Y0049188D01*
X0031691Y0049249D01*
X0031499Y0049314D01*
X0031309Y0049385D01*
X0031120Y0049460D01*
X0030934Y0049539D01*
X0030749Y0049623D01*
X0030566Y0049711D01*
X0030386Y0049804D01*
X0030208Y0049900D01*
X0030032Y0050002D01*
X0029859Y0050107D01*
X0029688Y0050216D01*
X0029520Y0050330D01*
X0029354Y0050447D01*
X0029192Y0050569D01*
X0029032Y0050694D01*
X0028876Y0050823D01*
X0028723Y0050956D01*
X0028573Y0051093D01*
X0028426Y0051233D01*
X0028283Y0051376D01*
X0028143Y0051523D01*
X0028006Y0051673D01*
X0027874Y0051827D01*
X0027946Y0051887D01*
X0028077Y0051735D01*
X0028212Y0051587D01*
X0028350Y0051442D01*
X0028492Y0051300D01*
X0028637Y0051161D01*
X0028785Y0051026D01*
X0028937Y0050895D01*
X0029092Y0050767D01*
X0029249Y0050643D01*
X0029410Y0050523D01*
X0029573Y0050407D01*
X0029740Y0050295D01*
X0029908Y0050187D01*
X0030080Y0050082D01*
X0030254Y0049982D01*
X0030430Y0049887D01*
X0030608Y0049795D01*
X0030789Y0049708D01*
X0030972Y0049625D01*
X0031156Y0049546D01*
X0031342Y0049472D01*
X0031531Y0049403D01*
X0031720Y0049338D01*
X0031912Y0049278D01*
X0032104Y0049222D01*
X0032298Y0049171D01*
X0032493Y0049124D01*
X0032689Y0049082D01*
X0032886Y0049045D01*
X0033084Y0049013D01*
X0033283Y0048985D01*
X0033482Y0048962D01*
X0033682Y0048944D01*
X0033882Y0048931D01*
X0034083Y0048923D01*
X0034283Y0048919D01*
X0034283Y0049013D01*
X0034085Y0049017D01*
X0033887Y0049025D01*
X0033689Y0049038D01*
X0033491Y0049056D01*
X0033294Y0049079D01*
X0033098Y0049106D01*
X0032902Y0049138D01*
X0032708Y0049174D01*
X0032514Y0049216D01*
X0032321Y0049262D01*
X0032129Y0049312D01*
X0031939Y0049368D01*
X0031750Y0049427D01*
X0031562Y0049492D01*
X0031376Y0049560D01*
X0031192Y0049633D01*
X0031009Y0049711D01*
X0030829Y0049793D01*
X0030650Y0049879D01*
X0030474Y0049970D01*
X0030300Y0050064D01*
X0030128Y0050163D01*
X0029958Y0050266D01*
X0029791Y0050373D01*
X0029627Y0050484D01*
X0029466Y0050599D01*
X0029307Y0050718D01*
X0029151Y0050840D01*
X0028998Y0050966D01*
X0028848Y0051096D01*
X0028701Y0051230D01*
X0028558Y0051367D01*
X0028418Y0051507D01*
X0028281Y0051650D01*
X0028148Y0051797D01*
X0028018Y0051947D01*
X0028090Y0052007D01*
X0028219Y0051859D01*
X0028350Y0051714D01*
X0028485Y0051572D01*
X0028624Y0051434D01*
X0028766Y0051298D01*
X0028911Y0051166D01*
X0029059Y0051038D01*
X0029210Y0050913D01*
X0029364Y0050792D01*
X0029521Y0050675D01*
X0029681Y0050561D01*
X0029843Y0050452D01*
X0030008Y0050346D01*
X0030176Y0050244D01*
X0030346Y0050146D01*
X0030518Y0050053D01*
X0030692Y0049963D01*
X0030869Y0049878D01*
X0031047Y0049797D01*
X0031227Y0049720D01*
X0031410Y0049648D01*
X0031593Y0049580D01*
X0031779Y0049517D01*
X0031966Y0049458D01*
X0032154Y0049403D01*
X0032343Y0049353D01*
X0032534Y0049308D01*
X0032726Y0049267D01*
X0032918Y0049230D01*
X0033112Y0049199D01*
X0033306Y0049172D01*
X0033501Y0049150D01*
X0033696Y0049132D01*
X0033891Y0049119D01*
X0034087Y0049111D01*
X0034283Y0049107D01*
X0034283Y0049201D01*
X0034089Y0049205D01*
X0033896Y0049213D01*
X0033703Y0049226D01*
X0033510Y0049243D01*
X0033317Y0049265D01*
X0033125Y0049292D01*
X0032934Y0049323D01*
X0032744Y0049359D01*
X0032554Y0049399D01*
X0032366Y0049444D01*
X0032179Y0049494D01*
X0031993Y0049548D01*
X0031808Y0049606D01*
X0031625Y0049669D01*
X0031443Y0049736D01*
X0031263Y0049807D01*
X0031085Y0049883D01*
X0030908Y0049963D01*
X0030734Y0050047D01*
X0030562Y0050136D01*
X0030392Y0050228D01*
X0030224Y0050325D01*
X0030058Y0050426D01*
X0029895Y0050530D01*
X0029735Y0050638D01*
X0029577Y0050751D01*
X0029422Y0050867D01*
X0029269Y0050986D01*
X0029120Y0051110D01*
X0028973Y0051236D01*
X0028830Y0051367D01*
X0028690Y0051500D01*
X0028553Y0051637D01*
X0028420Y0051778D01*
X0028289Y0051921D01*
X0028163Y0052068D01*
X0028235Y0052128D01*
X0028360Y0051983D01*
X0028489Y0051841D01*
X0028621Y0051703D01*
X0028756Y0051567D01*
X0028895Y0051435D01*
X0029036Y0051306D01*
X0029181Y0051181D01*
X0029328Y0051059D01*
X0029479Y0050941D01*
X0029632Y0050826D01*
X0029788Y0050716D01*
X0029947Y0050608D01*
X0030108Y0050505D01*
X0030272Y0050406D01*
X0030438Y0050310D01*
X0030606Y0050219D01*
X0030776Y0050132D01*
X0030948Y0050048D01*
X0031123Y0049969D01*
X0031299Y0049894D01*
X0031477Y0049824D01*
X0031656Y0049757D01*
X0031837Y0049695D01*
X0032020Y0049638D01*
X0032204Y0049584D01*
X0032389Y0049535D01*
X0032575Y0049491D01*
X0032762Y0049451D01*
X0032950Y0049416D01*
X0033139Y0049385D01*
X0033329Y0049358D01*
X0033519Y0049337D01*
X0033709Y0049319D01*
X0033900Y0049307D01*
X0034092Y0049299D01*
X0034283Y0049295D01*
X0034283Y0049389D01*
X0034094Y0049393D01*
X0033905Y0049401D01*
X0033716Y0049413D01*
X0033528Y0049430D01*
X0033340Y0049452D01*
X0033153Y0049478D01*
X0032966Y0049508D01*
X0032780Y0049543D01*
X0032595Y0049583D01*
X0032411Y0049627D01*
X0032229Y0049675D01*
X0032047Y0049728D01*
X0031867Y0049785D01*
X0031688Y0049846D01*
X0031510Y0049912D01*
X0031334Y0049981D01*
X0031160Y0050055D01*
X0030988Y0050133D01*
X0030818Y0050216D01*
X0030650Y0050302D01*
X0030484Y0050392D01*
X0030320Y0050487D01*
X0030158Y0050585D01*
X0029999Y0050687D01*
X0029842Y0050793D01*
X0029688Y0050902D01*
X0029536Y0051016D01*
X0029388Y0051132D01*
X0029242Y0051253D01*
X0029099Y0051376D01*
X0028959Y0051504D01*
X0028822Y0051634D01*
X0028688Y0051768D01*
X0028558Y0051905D01*
X0028431Y0052045D01*
X0028307Y0052188D01*
X0028379Y0052248D01*
X0028502Y0052107D01*
X0028627Y0051969D01*
X0028756Y0051833D01*
X0028888Y0051701D01*
X0029023Y0051572D01*
X0029162Y0051447D01*
X0029303Y0051324D01*
X0029447Y0051205D01*
X0029594Y0051090D01*
X0029743Y0050978D01*
X0029896Y0050870D01*
X0030051Y0050765D01*
X0030208Y0050665D01*
X0030368Y0050568D01*
X0030529Y0050474D01*
X0030694Y0050385D01*
X0030860Y0050300D01*
X0031028Y0050219D01*
X0031198Y0050141D01*
X0031370Y0050068D01*
X0031544Y0049999D01*
X0031719Y0049935D01*
X0031896Y0049874D01*
X0032074Y0049818D01*
X0032253Y0049766D01*
X0032434Y0049718D01*
X0032616Y0049675D01*
X0032798Y0049636D01*
X0032982Y0049601D01*
X0033166Y0049571D01*
X0033351Y0049545D01*
X0033537Y0049524D01*
X0033723Y0049507D01*
X0033910Y0049495D01*
X0034096Y0049487D01*
X0034283Y0049483D01*
X0034283Y0049577D01*
X0034099Y0049581D01*
X0033914Y0049588D01*
X0033730Y0049601D01*
X0033546Y0049617D01*
X0033363Y0049638D01*
X0033180Y0049664D01*
X0032998Y0049694D01*
X0032817Y0049728D01*
X0032636Y0049766D01*
X0032457Y0049809D01*
X0032278Y0049856D01*
X0032101Y0049908D01*
X0031925Y0049963D01*
X0031750Y0050023D01*
X0031577Y0050087D01*
X0031406Y0050155D01*
X0031236Y0050227D01*
X0031068Y0050304D01*
X0030902Y0050384D01*
X0030738Y0050468D01*
X0030575Y0050556D01*
X0030415Y0050648D01*
X0030258Y0050744D01*
X0030102Y0050844D01*
X0029949Y0050947D01*
X0029799Y0051054D01*
X0029651Y0051164D01*
X0029506Y0051278D01*
X0029364Y0051396D01*
X0029224Y0051517D01*
X0029088Y0051641D01*
X0028954Y0051768D01*
X0028824Y0051899D01*
X0028696Y0052032D01*
X0028572Y0052169D01*
X0028452Y0052308D01*
X0028524Y0052369D01*
X0028643Y0052231D01*
X0028766Y0052096D01*
X0028891Y0051964D01*
X0029020Y0051835D01*
X0029152Y0051709D01*
X0029287Y0051587D01*
X0029425Y0051467D01*
X0029565Y0051351D01*
X0029709Y0051239D01*
X0029855Y0051130D01*
X0030003Y0051024D01*
X0030154Y0050922D01*
X0030308Y0050824D01*
X0030463Y0050729D01*
X0030621Y0050638D01*
X0030782Y0050551D01*
X0030944Y0050468D01*
X0031108Y0050389D01*
X0031274Y0050314D01*
X0031442Y0050242D01*
X0031611Y0050175D01*
X0031782Y0050112D01*
X0031954Y0050053D01*
X0032128Y0049998D01*
X0032303Y0049947D01*
X0032479Y0049900D01*
X0032657Y0049858D01*
X0032835Y0049820D01*
X0033014Y0049786D01*
X0033194Y0049757D01*
X0033374Y0049732D01*
X0033555Y0049711D01*
X0033737Y0049694D01*
X0033919Y0049682D01*
X0034101Y0049675D01*
X0034283Y0049671D01*
X0034284Y0065724D02*
X0034284Y0064824D01*
X0034283Y0064825D02*
X0034099Y0064821D01*
X0033914Y0064813D01*
X0033730Y0064801D01*
X0033547Y0064784D01*
X0033363Y0064762D01*
X0033181Y0064737D01*
X0032999Y0064706D01*
X0032818Y0064671D01*
X0032637Y0064632D01*
X0032458Y0064588D01*
X0032280Y0064540D01*
X0032103Y0064488D01*
X0031927Y0064431D01*
X0031753Y0064371D01*
X0031581Y0064305D01*
X0031410Y0064236D01*
X0031240Y0064163D01*
X0031073Y0064085D01*
X0030908Y0064003D01*
X0030744Y0063918D01*
X0030583Y0063828D01*
X0030424Y0063734D01*
X0030267Y0063637D01*
X0030113Y0063536D01*
X0029961Y0063431D01*
X0029812Y0063322D01*
X0029666Y0063210D01*
X0029522Y0063094D01*
X0029382Y0062975D01*
X0029244Y0062852D01*
X0029109Y0062726D01*
X0028977Y0062597D01*
X0028849Y0062464D01*
X0028724Y0062329D01*
X0028602Y0062190D01*
X0027915Y0062771D01*
X0028051Y0062927D01*
X0028192Y0063079D01*
X0028336Y0063228D01*
X0028483Y0063373D01*
X0028634Y0063514D01*
X0028788Y0063651D01*
X0028946Y0063785D01*
X0029107Y0063915D01*
X0029271Y0064041D01*
X0029438Y0064163D01*
X0029608Y0064281D01*
X0029781Y0064394D01*
X0029957Y0064503D01*
X0030135Y0064608D01*
X0030316Y0064709D01*
X0030499Y0064805D01*
X0030684Y0064897D01*
X0030872Y0064984D01*
X0031062Y0065066D01*
X0031253Y0065144D01*
X0031447Y0065217D01*
X0031642Y0065285D01*
X0031839Y0065349D01*
X0032037Y0065407D01*
X0032237Y0065461D01*
X0032438Y0065510D01*
X0032640Y0065554D01*
X0032843Y0065593D01*
X0033047Y0065627D01*
X0033252Y0065656D01*
X0033457Y0065680D01*
X0033663Y0065698D01*
X0033870Y0065712D01*
X0034076Y0065721D01*
X0034283Y0065725D01*
X0034283Y0065631D01*
X0034079Y0065627D01*
X0033874Y0065618D01*
X0033670Y0065605D01*
X0033467Y0065586D01*
X0033264Y0065562D01*
X0033061Y0065534D01*
X0032859Y0065500D01*
X0032659Y0065462D01*
X0032459Y0065418D01*
X0032260Y0065370D01*
X0032063Y0065317D01*
X0031866Y0065259D01*
X0031672Y0065196D01*
X0031479Y0065128D01*
X0031287Y0065056D01*
X0031098Y0064979D01*
X0030910Y0064898D01*
X0030725Y0064812D01*
X0030542Y0064721D01*
X0030360Y0064626D01*
X0030182Y0064527D01*
X0030006Y0064423D01*
X0029832Y0064315D01*
X0029661Y0064203D01*
X0029493Y0064086D01*
X0029328Y0063966D01*
X0029165Y0063841D01*
X0029006Y0063713D01*
X0028850Y0063581D01*
X0028698Y0063445D01*
X0028548Y0063305D01*
X0028403Y0063162D01*
X0028260Y0063015D01*
X0028122Y0062864D01*
X0027987Y0062711D01*
X0028058Y0062650D01*
X0028192Y0062802D01*
X0028329Y0062951D01*
X0028470Y0063096D01*
X0028614Y0063237D01*
X0028761Y0063376D01*
X0028912Y0063510D01*
X0029066Y0063641D01*
X0029224Y0063768D01*
X0029384Y0063891D01*
X0029548Y0064010D01*
X0029714Y0064125D01*
X0029883Y0064236D01*
X0030054Y0064343D01*
X0030229Y0064445D01*
X0030405Y0064544D01*
X0030584Y0064638D01*
X0030766Y0064727D01*
X0030949Y0064812D01*
X0031134Y0064893D01*
X0031322Y0064969D01*
X0031511Y0065040D01*
X0031702Y0065107D01*
X0031894Y0065169D01*
X0032088Y0065226D01*
X0032283Y0065279D01*
X0032480Y0065326D01*
X0032677Y0065369D01*
X0032876Y0065407D01*
X0033075Y0065441D01*
X0033275Y0065469D01*
X0033476Y0065492D01*
X0033677Y0065511D01*
X0033879Y0065525D01*
X0034081Y0065533D01*
X0034283Y0065537D01*
X0034283Y0065443D01*
X0034083Y0065439D01*
X0033884Y0065431D01*
X0033684Y0065417D01*
X0033485Y0065399D01*
X0033287Y0065376D01*
X0033089Y0065348D01*
X0032892Y0065315D01*
X0032696Y0065277D01*
X0032500Y0065235D01*
X0032306Y0065188D01*
X0032113Y0065136D01*
X0031922Y0065079D01*
X0031731Y0065018D01*
X0031543Y0064952D01*
X0031356Y0064881D01*
X0031171Y0064806D01*
X0030987Y0064726D01*
X0030806Y0064642D01*
X0030627Y0064554D01*
X0030450Y0064461D01*
X0030275Y0064364D01*
X0030103Y0064262D01*
X0029934Y0064157D01*
X0029766Y0064047D01*
X0029602Y0063933D01*
X0029441Y0063816D01*
X0029282Y0063694D01*
X0029127Y0063569D01*
X0028974Y0063439D01*
X0028825Y0063306D01*
X0028679Y0063170D01*
X0028537Y0063030D01*
X0028398Y0062886D01*
X0028262Y0062739D01*
X0028130Y0062589D01*
X0028202Y0062529D01*
X0028332Y0062677D01*
X0028466Y0062822D01*
X0028604Y0062964D01*
X0028745Y0063102D01*
X0028889Y0063237D01*
X0029036Y0063369D01*
X0029187Y0063496D01*
X0029341Y0063620D01*
X0029497Y0063741D01*
X0029657Y0063857D01*
X0029819Y0063969D01*
X0029984Y0064078D01*
X0030152Y0064182D01*
X0030322Y0064282D01*
X0030495Y0064378D01*
X0030670Y0064470D01*
X0030847Y0064558D01*
X0031026Y0064641D01*
X0031207Y0064719D01*
X0031390Y0064794D01*
X0031575Y0064863D01*
X0031761Y0064928D01*
X0031949Y0064989D01*
X0032139Y0065045D01*
X0032329Y0065096D01*
X0032521Y0065143D01*
X0032714Y0065185D01*
X0032908Y0065222D01*
X0033103Y0065255D01*
X0033299Y0065282D01*
X0033495Y0065305D01*
X0033691Y0065323D01*
X0033888Y0065337D01*
X0034086Y0065345D01*
X0034283Y0065349D01*
X0034283Y0065255D01*
X0034088Y0065251D01*
X0033893Y0065243D01*
X0033698Y0065230D01*
X0033504Y0065212D01*
X0033310Y0065189D01*
X0033117Y0065162D01*
X0032924Y0065130D01*
X0032733Y0065093D01*
X0032542Y0065051D01*
X0032352Y0065005D01*
X0032164Y0064955D01*
X0031977Y0064899D01*
X0031791Y0064839D01*
X0031607Y0064775D01*
X0031424Y0064706D01*
X0031243Y0064633D01*
X0031064Y0064555D01*
X0030887Y0064473D01*
X0030712Y0064386D01*
X0030540Y0064296D01*
X0030369Y0064201D01*
X0030201Y0064102D01*
X0030035Y0063999D01*
X0029872Y0063892D01*
X0029711Y0063781D01*
X0029554Y0063666D01*
X0029399Y0063547D01*
X0029247Y0063424D01*
X0029098Y0063298D01*
X0028952Y0063168D01*
X0028810Y0063035D01*
X0028671Y0062898D01*
X0028535Y0062758D01*
X0028403Y0062614D01*
X0028274Y0062468D01*
X0028346Y0062407D01*
X0028473Y0062552D01*
X0028604Y0062694D01*
X0028738Y0062832D01*
X0028875Y0062967D01*
X0029016Y0063099D01*
X0029160Y0063227D01*
X0029307Y0063352D01*
X0029457Y0063473D01*
X0029610Y0063590D01*
X0029766Y0063704D01*
X0029925Y0063814D01*
X0030086Y0063920D01*
X0030250Y0064021D01*
X0030416Y0064119D01*
X0030584Y0064213D01*
X0030755Y0064303D01*
X0030928Y0064388D01*
X0031103Y0064469D01*
X0031280Y0064546D01*
X0031458Y0064618D01*
X0031639Y0064687D01*
X0031821Y0064750D01*
X0032004Y0064809D01*
X0032189Y0064864D01*
X0032375Y0064914D01*
X0032563Y0064960D01*
X0032751Y0065001D01*
X0032941Y0065037D01*
X0033131Y0065069D01*
X0033322Y0065096D01*
X0033513Y0065118D01*
X0033705Y0065136D01*
X0033898Y0065149D01*
X0034090Y0065157D01*
X0034283Y0065161D01*
X0034283Y0065067D01*
X0034093Y0065063D01*
X0033902Y0065055D01*
X0033712Y0065042D01*
X0033523Y0065025D01*
X0033333Y0065003D01*
X0033145Y0064976D01*
X0032957Y0064945D01*
X0032770Y0064909D01*
X0032584Y0064868D01*
X0032399Y0064823D01*
X0032215Y0064774D01*
X0032032Y0064719D01*
X0031851Y0064661D01*
X0031671Y0064598D01*
X0031493Y0064531D01*
X0031316Y0064459D01*
X0031141Y0064383D01*
X0030969Y0064303D01*
X0030798Y0064219D01*
X0030629Y0064130D01*
X0030463Y0064038D01*
X0030298Y0063941D01*
X0030137Y0063841D01*
X0029977Y0063736D01*
X0029821Y0063628D01*
X0029667Y0063515D01*
X0029516Y0063399D01*
X0029367Y0063280D01*
X0029222Y0063157D01*
X0029080Y0063030D01*
X0028941Y0062900D01*
X0028805Y0062766D01*
X0028672Y0062630D01*
X0028543Y0062490D01*
X0028417Y0062346D01*
X0028489Y0062286D01*
X0028613Y0062427D01*
X0028741Y0062565D01*
X0028872Y0062700D01*
X0029006Y0062832D01*
X0029143Y0062961D01*
X0029284Y0063086D01*
X0029428Y0063208D01*
X0029574Y0063326D01*
X0029723Y0063440D01*
X0029875Y0063551D01*
X0030030Y0063658D01*
X0030187Y0063761D01*
X0030347Y0063861D01*
X0030509Y0063956D01*
X0030674Y0064048D01*
X0030840Y0064135D01*
X0031009Y0064218D01*
X0031180Y0064298D01*
X0031352Y0064373D01*
X0031527Y0064443D01*
X0031703Y0064510D01*
X0031880Y0064572D01*
X0032060Y0064630D01*
X0032240Y0064683D01*
X0032422Y0064732D01*
X0032604Y0064776D01*
X0032788Y0064816D01*
X0032973Y0064852D01*
X0033159Y0064883D01*
X0033345Y0064909D01*
X0033532Y0064931D01*
X0033719Y0064948D01*
X0033907Y0064961D01*
X0034095Y0064969D01*
X0034283Y0064973D01*
X0034283Y0064879D01*
X0034097Y0064875D01*
X0033912Y0064867D01*
X0033726Y0064855D01*
X0033541Y0064838D01*
X0033357Y0064816D01*
X0033173Y0064790D01*
X0032989Y0064759D01*
X0032807Y0064724D01*
X0032625Y0064685D01*
X0032445Y0064641D01*
X0032265Y0064592D01*
X0032087Y0064540D01*
X0031910Y0064483D01*
X0031735Y0064421D01*
X0031561Y0064356D01*
X0031389Y0064286D01*
X0031218Y0064212D01*
X0031050Y0064134D01*
X0030883Y0064051D01*
X0030719Y0063965D01*
X0030556Y0063875D01*
X0030396Y0063780D01*
X0030238Y0063682D01*
X0030083Y0063580D01*
X0029930Y0063475D01*
X0029780Y0063365D01*
X0029632Y0063252D01*
X0029488Y0063135D01*
X0029346Y0063015D01*
X0029207Y0062892D01*
X0029071Y0062765D01*
X0028939Y0062635D01*
X0028810Y0062501D01*
X0028683Y0062365D01*
X0028561Y0062225D01*
D13*
X0028133Y0062375D02*
X0028133Y0060575D01*
X0028133Y0054175D02*
X0028133Y0052175D01*
X0150533Y0057175D02*
X0150533Y0058975D01*
X0150533Y0065375D02*
X0150533Y0067375D01*
D14*
X0029333Y0192275D02*
X0029336Y0192520D01*
X0029345Y0192766D01*
X0029360Y0193011D01*
X0029381Y0193255D01*
X0029408Y0193499D01*
X0029441Y0193742D01*
X0029480Y0193985D01*
X0029525Y0194226D01*
X0029576Y0194466D01*
X0029633Y0194705D01*
X0029695Y0194942D01*
X0029764Y0195178D01*
X0029838Y0195412D01*
X0029918Y0195644D01*
X0030003Y0195874D01*
X0030094Y0196102D01*
X0030191Y0196327D01*
X0030293Y0196551D01*
X0030401Y0196771D01*
X0030514Y0196989D01*
X0030632Y0197204D01*
X0030756Y0197416D01*
X0030884Y0197625D01*
X0031018Y0197831D01*
X0031157Y0198033D01*
X0031301Y0198232D01*
X0031450Y0198427D01*
X0031603Y0198619D01*
X0031761Y0198807D01*
X0031923Y0198991D01*
X0032091Y0199170D01*
X0032262Y0199346D01*
X0032438Y0199517D01*
X0032617Y0199685D01*
X0032801Y0199847D01*
X0032989Y0200005D01*
X0033181Y0200158D01*
X0033376Y0200307D01*
X0033575Y0200451D01*
X0033777Y0200590D01*
X0033983Y0200724D01*
X0034192Y0200852D01*
X0034404Y0200976D01*
X0034619Y0201094D01*
X0034837Y0201207D01*
X0035057Y0201315D01*
X0035281Y0201417D01*
X0035506Y0201514D01*
X0035734Y0201605D01*
X0035964Y0201690D01*
X0036196Y0201770D01*
X0036430Y0201844D01*
X0036666Y0201913D01*
X0036903Y0201975D01*
X0037142Y0202032D01*
X0037382Y0202083D01*
X0037623Y0202128D01*
X0037866Y0202167D01*
X0038109Y0202200D01*
X0038353Y0202227D01*
X0038597Y0202248D01*
X0038842Y0202263D01*
X0039088Y0202272D01*
X0039333Y0202275D01*
X0039578Y0202272D01*
X0039824Y0202263D01*
X0040069Y0202248D01*
X0040313Y0202227D01*
X0040557Y0202200D01*
X0040800Y0202167D01*
X0041043Y0202128D01*
X0041284Y0202083D01*
X0041524Y0202032D01*
X0041763Y0201975D01*
X0042000Y0201913D01*
X0042236Y0201844D01*
X0042470Y0201770D01*
X0042702Y0201690D01*
X0042932Y0201605D01*
X0043160Y0201514D01*
X0043385Y0201417D01*
X0043609Y0201315D01*
X0043829Y0201207D01*
X0044047Y0201094D01*
X0044262Y0200976D01*
X0044474Y0200852D01*
X0044683Y0200724D01*
X0044889Y0200590D01*
X0045091Y0200451D01*
X0045290Y0200307D01*
X0045485Y0200158D01*
X0045677Y0200005D01*
X0045865Y0199847D01*
X0046049Y0199685D01*
X0046228Y0199517D01*
X0046404Y0199346D01*
X0046575Y0199170D01*
X0046743Y0198991D01*
X0046905Y0198807D01*
X0047063Y0198619D01*
X0047216Y0198427D01*
X0047365Y0198232D01*
X0047509Y0198033D01*
X0047648Y0197831D01*
X0047782Y0197625D01*
X0047910Y0197416D01*
X0048034Y0197204D01*
X0048152Y0196989D01*
X0048265Y0196771D01*
X0048373Y0196551D01*
X0048475Y0196327D01*
X0048572Y0196102D01*
X0048663Y0195874D01*
X0048748Y0195644D01*
X0048828Y0195412D01*
X0048902Y0195178D01*
X0048971Y0194942D01*
X0049033Y0194705D01*
X0049090Y0194466D01*
X0049141Y0194226D01*
X0049186Y0193985D01*
X0049225Y0193742D01*
X0049258Y0193499D01*
X0049285Y0193255D01*
X0049306Y0193011D01*
X0049321Y0192766D01*
X0049330Y0192520D01*
X0049333Y0192275D01*
X0049330Y0192030D01*
X0049321Y0191784D01*
X0049306Y0191539D01*
X0049285Y0191295D01*
X0049258Y0191051D01*
X0049225Y0190808D01*
X0049186Y0190565D01*
X0049141Y0190324D01*
X0049090Y0190084D01*
X0049033Y0189845D01*
X0048971Y0189608D01*
X0048902Y0189372D01*
X0048828Y0189138D01*
X0048748Y0188906D01*
X0048663Y0188676D01*
X0048572Y0188448D01*
X0048475Y0188223D01*
X0048373Y0187999D01*
X0048265Y0187779D01*
X0048152Y0187561D01*
X0048034Y0187346D01*
X0047910Y0187134D01*
X0047782Y0186925D01*
X0047648Y0186719D01*
X0047509Y0186517D01*
X0047365Y0186318D01*
X0047216Y0186123D01*
X0047063Y0185931D01*
X0046905Y0185743D01*
X0046743Y0185559D01*
X0046575Y0185380D01*
X0046404Y0185204D01*
X0046228Y0185033D01*
X0046049Y0184865D01*
X0045865Y0184703D01*
X0045677Y0184545D01*
X0045485Y0184392D01*
X0045290Y0184243D01*
X0045091Y0184099D01*
X0044889Y0183960D01*
X0044683Y0183826D01*
X0044474Y0183698D01*
X0044262Y0183574D01*
X0044047Y0183456D01*
X0043829Y0183343D01*
X0043609Y0183235D01*
X0043385Y0183133D01*
X0043160Y0183036D01*
X0042932Y0182945D01*
X0042702Y0182860D01*
X0042470Y0182780D01*
X0042236Y0182706D01*
X0042000Y0182637D01*
X0041763Y0182575D01*
X0041524Y0182518D01*
X0041284Y0182467D01*
X0041043Y0182422D01*
X0040800Y0182383D01*
X0040557Y0182350D01*
X0040313Y0182323D01*
X0040069Y0182302D01*
X0039824Y0182287D01*
X0039578Y0182278D01*
X0039333Y0182275D01*
X0039088Y0182278D01*
X0038842Y0182287D01*
X0038597Y0182302D01*
X0038353Y0182323D01*
X0038109Y0182350D01*
X0037866Y0182383D01*
X0037623Y0182422D01*
X0037382Y0182467D01*
X0037142Y0182518D01*
X0036903Y0182575D01*
X0036666Y0182637D01*
X0036430Y0182706D01*
X0036196Y0182780D01*
X0035964Y0182860D01*
X0035734Y0182945D01*
X0035506Y0183036D01*
X0035281Y0183133D01*
X0035057Y0183235D01*
X0034837Y0183343D01*
X0034619Y0183456D01*
X0034404Y0183574D01*
X0034192Y0183698D01*
X0033983Y0183826D01*
X0033777Y0183960D01*
X0033575Y0184099D01*
X0033376Y0184243D01*
X0033181Y0184392D01*
X0032989Y0184545D01*
X0032801Y0184703D01*
X0032617Y0184865D01*
X0032438Y0185033D01*
X0032262Y0185204D01*
X0032091Y0185380D01*
X0031923Y0185559D01*
X0031761Y0185743D01*
X0031603Y0185931D01*
X0031450Y0186123D01*
X0031301Y0186318D01*
X0031157Y0186517D01*
X0031018Y0186719D01*
X0030884Y0186925D01*
X0030756Y0187134D01*
X0030632Y0187346D01*
X0030514Y0187561D01*
X0030401Y0187779D01*
X0030293Y0187999D01*
X0030191Y0188223D01*
X0030094Y0188448D01*
X0030003Y0188676D01*
X0029918Y0188906D01*
X0029838Y0189138D01*
X0029764Y0189372D01*
X0029695Y0189608D01*
X0029633Y0189845D01*
X0029576Y0190084D01*
X0029525Y0190324D01*
X0029480Y0190565D01*
X0029441Y0190808D01*
X0029408Y0191051D01*
X0029381Y0191295D01*
X0029360Y0191539D01*
X0029345Y0191784D01*
X0029336Y0192030D01*
X0029333Y0192275D01*
X0024333Y0077275D02*
X0024336Y0077520D01*
X0024345Y0077766D01*
X0024360Y0078011D01*
X0024381Y0078255D01*
X0024408Y0078499D01*
X0024441Y0078742D01*
X0024480Y0078985D01*
X0024525Y0079226D01*
X0024576Y0079466D01*
X0024633Y0079705D01*
X0024695Y0079942D01*
X0024764Y0080178D01*
X0024838Y0080412D01*
X0024918Y0080644D01*
X0025003Y0080874D01*
X0025094Y0081102D01*
X0025191Y0081327D01*
X0025293Y0081551D01*
X0025401Y0081771D01*
X0025514Y0081989D01*
X0025632Y0082204D01*
X0025756Y0082416D01*
X0025884Y0082625D01*
X0026018Y0082831D01*
X0026157Y0083033D01*
X0026301Y0083232D01*
X0026450Y0083427D01*
X0026603Y0083619D01*
X0026761Y0083807D01*
X0026923Y0083991D01*
X0027091Y0084170D01*
X0027262Y0084346D01*
X0027438Y0084517D01*
X0027617Y0084685D01*
X0027801Y0084847D01*
X0027989Y0085005D01*
X0028181Y0085158D01*
X0028376Y0085307D01*
X0028575Y0085451D01*
X0028777Y0085590D01*
X0028983Y0085724D01*
X0029192Y0085852D01*
X0029404Y0085976D01*
X0029619Y0086094D01*
X0029837Y0086207D01*
X0030057Y0086315D01*
X0030281Y0086417D01*
X0030506Y0086514D01*
X0030734Y0086605D01*
X0030964Y0086690D01*
X0031196Y0086770D01*
X0031430Y0086844D01*
X0031666Y0086913D01*
X0031903Y0086975D01*
X0032142Y0087032D01*
X0032382Y0087083D01*
X0032623Y0087128D01*
X0032866Y0087167D01*
X0033109Y0087200D01*
X0033353Y0087227D01*
X0033597Y0087248D01*
X0033842Y0087263D01*
X0034088Y0087272D01*
X0034333Y0087275D01*
X0034578Y0087272D01*
X0034824Y0087263D01*
X0035069Y0087248D01*
X0035313Y0087227D01*
X0035557Y0087200D01*
X0035800Y0087167D01*
X0036043Y0087128D01*
X0036284Y0087083D01*
X0036524Y0087032D01*
X0036763Y0086975D01*
X0037000Y0086913D01*
X0037236Y0086844D01*
X0037470Y0086770D01*
X0037702Y0086690D01*
X0037932Y0086605D01*
X0038160Y0086514D01*
X0038385Y0086417D01*
X0038609Y0086315D01*
X0038829Y0086207D01*
X0039047Y0086094D01*
X0039262Y0085976D01*
X0039474Y0085852D01*
X0039683Y0085724D01*
X0039889Y0085590D01*
X0040091Y0085451D01*
X0040290Y0085307D01*
X0040485Y0085158D01*
X0040677Y0085005D01*
X0040865Y0084847D01*
X0041049Y0084685D01*
X0041228Y0084517D01*
X0041404Y0084346D01*
X0041575Y0084170D01*
X0041743Y0083991D01*
X0041905Y0083807D01*
X0042063Y0083619D01*
X0042216Y0083427D01*
X0042365Y0083232D01*
X0042509Y0083033D01*
X0042648Y0082831D01*
X0042782Y0082625D01*
X0042910Y0082416D01*
X0043034Y0082204D01*
X0043152Y0081989D01*
X0043265Y0081771D01*
X0043373Y0081551D01*
X0043475Y0081327D01*
X0043572Y0081102D01*
X0043663Y0080874D01*
X0043748Y0080644D01*
X0043828Y0080412D01*
X0043902Y0080178D01*
X0043971Y0079942D01*
X0044033Y0079705D01*
X0044090Y0079466D01*
X0044141Y0079226D01*
X0044186Y0078985D01*
X0044225Y0078742D01*
X0044258Y0078499D01*
X0044285Y0078255D01*
X0044306Y0078011D01*
X0044321Y0077766D01*
X0044330Y0077520D01*
X0044333Y0077275D01*
X0044330Y0077030D01*
X0044321Y0076784D01*
X0044306Y0076539D01*
X0044285Y0076295D01*
X0044258Y0076051D01*
X0044225Y0075808D01*
X0044186Y0075565D01*
X0044141Y0075324D01*
X0044090Y0075084D01*
X0044033Y0074845D01*
X0043971Y0074608D01*
X0043902Y0074372D01*
X0043828Y0074138D01*
X0043748Y0073906D01*
X0043663Y0073676D01*
X0043572Y0073448D01*
X0043475Y0073223D01*
X0043373Y0072999D01*
X0043265Y0072779D01*
X0043152Y0072561D01*
X0043034Y0072346D01*
X0042910Y0072134D01*
X0042782Y0071925D01*
X0042648Y0071719D01*
X0042509Y0071517D01*
X0042365Y0071318D01*
X0042216Y0071123D01*
X0042063Y0070931D01*
X0041905Y0070743D01*
X0041743Y0070559D01*
X0041575Y0070380D01*
X0041404Y0070204D01*
X0041228Y0070033D01*
X0041049Y0069865D01*
X0040865Y0069703D01*
X0040677Y0069545D01*
X0040485Y0069392D01*
X0040290Y0069243D01*
X0040091Y0069099D01*
X0039889Y0068960D01*
X0039683Y0068826D01*
X0039474Y0068698D01*
X0039262Y0068574D01*
X0039047Y0068456D01*
X0038829Y0068343D01*
X0038609Y0068235D01*
X0038385Y0068133D01*
X0038160Y0068036D01*
X0037932Y0067945D01*
X0037702Y0067860D01*
X0037470Y0067780D01*
X0037236Y0067706D01*
X0037000Y0067637D01*
X0036763Y0067575D01*
X0036524Y0067518D01*
X0036284Y0067467D01*
X0036043Y0067422D01*
X0035800Y0067383D01*
X0035557Y0067350D01*
X0035313Y0067323D01*
X0035069Y0067302D01*
X0034824Y0067287D01*
X0034578Y0067278D01*
X0034333Y0067275D01*
X0034088Y0067278D01*
X0033842Y0067287D01*
X0033597Y0067302D01*
X0033353Y0067323D01*
X0033109Y0067350D01*
X0032866Y0067383D01*
X0032623Y0067422D01*
X0032382Y0067467D01*
X0032142Y0067518D01*
X0031903Y0067575D01*
X0031666Y0067637D01*
X0031430Y0067706D01*
X0031196Y0067780D01*
X0030964Y0067860D01*
X0030734Y0067945D01*
X0030506Y0068036D01*
X0030281Y0068133D01*
X0030057Y0068235D01*
X0029837Y0068343D01*
X0029619Y0068456D01*
X0029404Y0068574D01*
X0029192Y0068698D01*
X0028983Y0068826D01*
X0028777Y0068960D01*
X0028575Y0069099D01*
X0028376Y0069243D01*
X0028181Y0069392D01*
X0027989Y0069545D01*
X0027801Y0069703D01*
X0027617Y0069865D01*
X0027438Y0070033D01*
X0027262Y0070204D01*
X0027091Y0070380D01*
X0026923Y0070559D01*
X0026761Y0070743D01*
X0026603Y0070931D01*
X0026450Y0071123D01*
X0026301Y0071318D01*
X0026157Y0071517D01*
X0026018Y0071719D01*
X0025884Y0071925D01*
X0025756Y0072134D01*
X0025632Y0072346D01*
X0025514Y0072561D01*
X0025401Y0072779D01*
X0025293Y0072999D01*
X0025191Y0073223D01*
X0025094Y0073448D01*
X0025003Y0073676D01*
X0024918Y0073906D01*
X0024838Y0074138D01*
X0024764Y0074372D01*
X0024695Y0074608D01*
X0024633Y0074845D01*
X0024576Y0075084D01*
X0024525Y0075324D01*
X0024480Y0075565D01*
X0024441Y0075808D01*
X0024408Y0076051D01*
X0024381Y0076295D01*
X0024360Y0076539D01*
X0024345Y0076784D01*
X0024336Y0077030D01*
X0024333Y0077275D01*
M02*
