G75*
%MOIN*%
%OFA0B0*%
%FSLAX25Y25*%
%IPPOS*%
%LPD*%
%AMOC8*
5,1,8,0,0,1.08239X$1,22.5*
%
%ADD10C,0.00000*%
%ADD11C,0.07400*%
%ADD12C,0.05200*%
%ADD13C,0.07600*%
%ADD14R,0.01378X0.05512*%
%ADD15R,0.07087X0.07480*%
%ADD16R,0.07480X0.07480*%
%ADD17C,0.00600*%
%ADD18C,0.00800*%
%ADD19C,0.02978*%
D10*
X0001333Y0004275D02*
X0001333Y0204236D01*
X0160034Y0204236D01*
X0160034Y0004275D01*
X0001333Y0004275D01*
D11*
X0009333Y0047275D03*
X0009333Y0057275D03*
X0009333Y0077275D03*
X0009333Y0087275D03*
X0009333Y0107275D03*
X0009333Y0117275D03*
X0009333Y0127275D03*
X0009333Y0137275D03*
X0009333Y0147275D03*
X0009333Y0157275D03*
X0009333Y0167275D03*
X0009333Y0177275D03*
X0054333Y0107275D03*
X0054333Y0097275D03*
X0054333Y0087275D03*
X0054333Y0057275D03*
X0054333Y0047275D03*
X0039333Y0057275D03*
X0029333Y0057275D03*
X0111333Y0014275D03*
X0121333Y0014275D03*
X0131333Y0014275D03*
X0141333Y0014275D03*
X0151333Y0014275D03*
X0149333Y0027275D03*
X0139333Y0027275D03*
X0124333Y0027275D03*
X0124333Y0037275D03*
X0124333Y0047275D03*
X0139333Y0047275D03*
X0149333Y0047275D03*
X0149333Y0062275D03*
X0139333Y0062275D03*
X0149333Y0077275D03*
X0149333Y0087275D03*
X0134333Y0097275D03*
X0124333Y0097275D03*
X0124333Y0117275D03*
X0124333Y0127275D03*
X0149333Y0127275D03*
X0149333Y0117275D03*
X0149333Y0107275D03*
X0149333Y0137275D03*
X0149333Y0147275D03*
X0149333Y0157275D03*
X0149333Y0167275D03*
X0149333Y0177275D03*
X0119333Y0192275D03*
X0109333Y0192275D03*
X0079333Y0192275D03*
X0069333Y0192275D03*
D12*
X0066733Y0177275D02*
X0071933Y0177275D01*
X0071933Y0167275D02*
X0066733Y0167275D01*
X0066733Y0157275D02*
X0071933Y0157275D01*
X0071933Y0147275D02*
X0066733Y0147275D01*
X0066733Y0137275D02*
X0071933Y0137275D01*
X0071933Y0127275D02*
X0066733Y0127275D01*
X0066733Y0117275D02*
X0071933Y0117275D01*
X0071933Y0107275D02*
X0066733Y0107275D01*
X0066733Y0097275D02*
X0071933Y0097275D01*
X0071933Y0087275D02*
X0066733Y0087275D01*
X0066733Y0077275D02*
X0071933Y0077275D01*
X0071933Y0067275D02*
X0066733Y0067275D01*
X0066733Y0057275D02*
X0071933Y0057275D01*
X0071933Y0047275D02*
X0066733Y0047275D01*
X0106733Y0047275D02*
X0111933Y0047275D01*
X0111933Y0057275D02*
X0106733Y0057275D01*
X0106733Y0067275D02*
X0111933Y0067275D01*
X0111933Y0077275D02*
X0106733Y0077275D01*
X0106733Y0087275D02*
X0111933Y0087275D01*
X0111933Y0097275D02*
X0106733Y0097275D01*
X0106733Y0107275D02*
X0111933Y0107275D01*
X0111933Y0117275D02*
X0106733Y0117275D01*
X0106733Y0127275D02*
X0111933Y0127275D01*
X0111933Y0137275D02*
X0106733Y0137275D01*
X0106733Y0147275D02*
X0111933Y0147275D01*
X0111933Y0157275D02*
X0106733Y0157275D01*
X0106733Y0167275D02*
X0111933Y0167275D01*
X0111933Y0177275D02*
X0106733Y0177275D01*
D13*
X0049333Y0192275D03*
X0029333Y0192275D03*
X0024333Y0077275D03*
X0044333Y0077275D03*
D14*
X0079215Y0022709D03*
X0081774Y0022709D03*
X0084333Y0022709D03*
X0086892Y0022709D03*
X0089451Y0022709D03*
D15*
X0100081Y0012275D03*
X0068585Y0012275D03*
D16*
X0079333Y0012275D03*
X0089333Y0012275D03*
D17*
X0093973Y0012056D02*
X0099781Y0012056D01*
X0099781Y0011975D02*
X0095238Y0011975D01*
X0095238Y0008575D01*
X0093973Y0008575D01*
X0093973Y0015716D01*
X0095238Y0015716D01*
X0095238Y0012575D01*
X0099781Y0012575D01*
X0099781Y0011975D01*
X0100381Y0011975D02*
X0100381Y0012575D01*
X0104925Y0012575D01*
X0104925Y0016187D01*
X0104836Y0016517D01*
X0104665Y0016814D01*
X0104423Y0017056D01*
X0104126Y0017227D01*
X0103796Y0017316D01*
X0103472Y0017316D01*
X0104132Y0017975D01*
X0108528Y0017975D01*
X0107434Y0016881D01*
X0106733Y0015190D01*
X0106733Y0013360D01*
X0107434Y0011670D01*
X0108728Y0010376D01*
X0110418Y0009675D01*
X0112248Y0009675D01*
X0113939Y0010376D01*
X0115233Y0011670D01*
X0115933Y0013360D01*
X0115933Y0015190D01*
X0115233Y0016881D01*
X0114139Y0017975D01*
X0115795Y0017975D01*
X0117274Y0016496D01*
X0116733Y0015190D01*
X0116733Y0013360D01*
X0117434Y0011670D01*
X0118728Y0010376D01*
X0120418Y0009675D01*
X0122248Y0009675D01*
X0123939Y0010376D01*
X0125233Y0011670D01*
X0125933Y0013360D01*
X0125933Y0015190D01*
X0125233Y0016881D01*
X0123939Y0018175D01*
X0122248Y0018875D01*
X0120418Y0018875D01*
X0119113Y0018335D01*
X0116872Y0020575D01*
X0103055Y0020575D01*
X0102293Y0019814D01*
X0100795Y0018316D01*
X0081632Y0018316D01*
X0080895Y0019053D01*
X0082836Y0019053D01*
X0083054Y0019270D01*
X0083272Y0019053D01*
X0085395Y0019053D01*
X0085613Y0019270D01*
X0085831Y0019053D01*
X0087824Y0019053D01*
X0087964Y0018912D01*
X0088261Y0018741D01*
X0088591Y0018653D01*
X0089407Y0018653D01*
X0089407Y0022664D01*
X0089496Y0022664D01*
X0089496Y0022753D01*
X0091440Y0022753D01*
X0091440Y0025636D01*
X0091352Y0025966D01*
X0091181Y0026263D01*
X0090939Y0026505D01*
X0090642Y0026676D01*
X0090312Y0026764D01*
X0089496Y0026764D01*
X0089496Y0022753D01*
X0089407Y0022753D01*
X0089407Y0026764D01*
X0088591Y0026764D01*
X0088261Y0026676D01*
X0087964Y0026505D01*
X0087824Y0026364D01*
X0085831Y0026364D01*
X0085633Y0026167D01*
X0085633Y0106737D01*
X0094872Y0115975D01*
X0103483Y0115975D01*
X0103766Y0115293D01*
X0104751Y0114308D01*
X0106037Y0113775D01*
X0112630Y0113775D01*
X0113916Y0114308D01*
X0114900Y0115293D01*
X0115433Y0116579D01*
X0115433Y0117972D01*
X0114900Y0119258D01*
X0113916Y0120243D01*
X0112630Y0120775D01*
X0106037Y0120775D01*
X0104751Y0120243D01*
X0103766Y0119258D01*
X0103483Y0118575D01*
X0093795Y0118575D01*
X0093033Y0117814D01*
X0091722Y0116503D01*
X0091722Y0118265D01*
X0090323Y0119664D01*
X0088344Y0119664D01*
X0086944Y0118265D01*
X0086944Y0116725D01*
X0080474Y0110255D01*
X0080474Y0026167D01*
X0080277Y0026364D01*
X0078153Y0026364D01*
X0077626Y0025837D01*
X0077626Y0019580D01*
X0077915Y0019291D01*
X0077915Y0018355D01*
X0079355Y0016916D01*
X0075220Y0016916D01*
X0074693Y0016388D01*
X0074693Y0008575D01*
X0073429Y0008575D01*
X0073429Y0011975D01*
X0068885Y0011975D01*
X0068885Y0012575D01*
X0073429Y0012575D01*
X0073429Y0016187D01*
X0073340Y0016517D01*
X0073169Y0016814D01*
X0072927Y0017056D01*
X0072630Y0017227D01*
X0072300Y0017316D01*
X0068885Y0017316D01*
X0068885Y0012576D01*
X0068285Y0012576D01*
X0068285Y0017316D01*
X0064871Y0017316D01*
X0064540Y0017227D01*
X0064244Y0017056D01*
X0064002Y0016814D01*
X0063831Y0016517D01*
X0063742Y0016187D01*
X0063742Y0012575D01*
X0068285Y0012575D01*
X0068285Y0011975D01*
X0063742Y0011975D01*
X0063742Y0008575D01*
X0005633Y0008575D01*
X0005633Y0043904D01*
X0006076Y0043462D01*
X0006713Y0042999D01*
X0007414Y0042642D01*
X0008162Y0042399D01*
X0008940Y0042275D01*
X0009033Y0042275D01*
X0009033Y0046975D01*
X0009633Y0046975D01*
X0009633Y0042275D01*
X0009727Y0042275D01*
X0010504Y0042399D01*
X0011253Y0042642D01*
X0011954Y0042999D01*
X0012591Y0043462D01*
X0013147Y0044018D01*
X0013610Y0044655D01*
X0013967Y0045356D01*
X0014210Y0046105D01*
X0014333Y0046882D01*
X0014333Y0046975D01*
X0009633Y0046975D01*
X0009633Y0047575D01*
X0014333Y0047575D01*
X0014333Y0047669D01*
X0014210Y0048446D01*
X0013967Y0049195D01*
X0013610Y0049896D01*
X0013147Y0050533D01*
X0012591Y0051089D01*
X0011954Y0051552D01*
X0011253Y0051909D01*
X0010504Y0052152D01*
X0009727Y0052275D01*
X0009633Y0052275D01*
X0009633Y0047576D01*
X0009033Y0047576D01*
X0009033Y0052275D01*
X0008940Y0052275D01*
X0008162Y0052152D01*
X0007414Y0051909D01*
X0006713Y0051552D01*
X0006076Y0051089D01*
X0005633Y0050647D01*
X0005633Y0054470D01*
X0006728Y0053376D01*
X0008418Y0052675D01*
X0010248Y0052675D01*
X0011939Y0053376D01*
X0013233Y0054670D01*
X0013933Y0056360D01*
X0013933Y0058190D01*
X0013233Y0059881D01*
X0011939Y0061175D01*
X0010248Y0061875D01*
X0008418Y0061875D01*
X0006728Y0061175D01*
X0005633Y0060081D01*
X0005633Y0074470D01*
X0006728Y0073376D01*
X0008418Y0072675D01*
X0010248Y0072675D01*
X0011939Y0073376D01*
X0013233Y0074670D01*
X0013933Y0076360D01*
X0013933Y0078190D01*
X0013233Y0079881D01*
X0011939Y0081175D01*
X0010248Y0081875D01*
X0008418Y0081875D01*
X0006728Y0081175D01*
X0005633Y0080081D01*
X0005633Y0083904D01*
X0006076Y0083462D01*
X0006713Y0082999D01*
X0007414Y0082642D01*
X0008162Y0082399D01*
X0008940Y0082275D01*
X0009033Y0082275D01*
X0009033Y0086975D01*
X0009633Y0086975D01*
X0009633Y0082275D01*
X0009727Y0082275D01*
X0010504Y0082399D01*
X0011253Y0082642D01*
X0011954Y0082999D01*
X0012591Y0083462D01*
X0013147Y0084018D01*
X0013610Y0084655D01*
X0013967Y0085356D01*
X0014210Y0086105D01*
X0014333Y0086882D01*
X0014333Y0086975D01*
X0009633Y0086975D01*
X0009633Y0087575D01*
X0014333Y0087575D01*
X0014333Y0087669D01*
X0014210Y0088446D01*
X0013967Y0089195D01*
X0013610Y0089896D01*
X0013147Y0090533D01*
X0012591Y0091089D01*
X0011954Y0091552D01*
X0011253Y0091909D01*
X0010504Y0092152D01*
X0009727Y0092275D01*
X0009633Y0092275D01*
X0009633Y0087576D01*
X0009033Y0087576D01*
X0009033Y0092275D01*
X0008940Y0092275D01*
X0008162Y0092152D01*
X0007414Y0091909D01*
X0006713Y0091552D01*
X0006076Y0091089D01*
X0005633Y0090647D01*
X0005633Y0103904D01*
X0006076Y0103462D01*
X0006713Y0102999D01*
X0007414Y0102642D01*
X0008162Y0102399D01*
X0008940Y0102275D01*
X0009033Y0102275D01*
X0009033Y0106975D01*
X0009633Y0106975D01*
X0009633Y0102275D01*
X0009727Y0102275D01*
X0010504Y0102399D01*
X0011253Y0102642D01*
X0011954Y0102999D01*
X0012591Y0103462D01*
X0013147Y0104018D01*
X0013610Y0104655D01*
X0013967Y0105356D01*
X0014210Y0106105D01*
X0014333Y0106882D01*
X0014333Y0106975D01*
X0009633Y0106975D01*
X0009633Y0107575D01*
X0014333Y0107575D01*
X0014333Y0107669D01*
X0014210Y0108446D01*
X0013967Y0109195D01*
X0013610Y0109896D01*
X0013147Y0110533D01*
X0012591Y0111089D01*
X0011954Y0111552D01*
X0011253Y0111909D01*
X0010504Y0112152D01*
X0009727Y0112275D01*
X0009633Y0112275D01*
X0009633Y0107576D01*
X0009033Y0107576D01*
X0009033Y0112275D01*
X0008940Y0112275D01*
X0008162Y0112152D01*
X0007414Y0111909D01*
X0006713Y0111552D01*
X0006076Y0111089D01*
X0005633Y0110647D01*
X0005633Y0114470D01*
X0006728Y0113376D01*
X0008418Y0112675D01*
X0010248Y0112675D01*
X0011554Y0113216D01*
X0023033Y0101737D01*
X0023033Y0086737D01*
X0023795Y0085975D01*
X0050274Y0059496D01*
X0049733Y0058190D01*
X0049733Y0056360D01*
X0050434Y0054670D01*
X0051728Y0053376D01*
X0053418Y0052675D01*
X0055248Y0052675D01*
X0056939Y0053376D01*
X0058233Y0054670D01*
X0058933Y0056360D01*
X0058933Y0058190D01*
X0058233Y0059881D01*
X0056939Y0061175D01*
X0055248Y0061875D01*
X0053418Y0061875D01*
X0052113Y0061335D01*
X0025633Y0087814D01*
X0025633Y0102814D01*
X0013392Y0115055D01*
X0013933Y0116360D01*
X0013933Y0118190D01*
X0013233Y0119881D01*
X0011939Y0121175D01*
X0010248Y0121875D01*
X0008418Y0121875D01*
X0006728Y0121175D01*
X0005633Y0120081D01*
X0005633Y0124470D01*
X0006728Y0123376D01*
X0008418Y0122675D01*
X0010248Y0122675D01*
X0011939Y0123376D01*
X0013233Y0124670D01*
X0013933Y0126360D01*
X0013933Y0128190D01*
X0013233Y0129881D01*
X0011939Y0131175D01*
X0010248Y0131875D01*
X0008418Y0131875D01*
X0006728Y0131175D01*
X0005633Y0130081D01*
X0005633Y0134470D01*
X0006728Y0133376D01*
X0008418Y0132675D01*
X0010248Y0132675D01*
X0011939Y0133376D01*
X0013233Y0134670D01*
X0013933Y0136360D01*
X0013933Y0138190D01*
X0013233Y0139881D01*
X0011939Y0141175D01*
X0010248Y0141875D01*
X0008418Y0141875D01*
X0006728Y0141175D01*
X0005633Y0140081D01*
X0005633Y0144470D01*
X0006728Y0143376D01*
X0008418Y0142675D01*
X0010248Y0142675D01*
X0011939Y0143376D01*
X0013233Y0144670D01*
X0013933Y0146360D01*
X0013933Y0148190D01*
X0013233Y0149881D01*
X0011939Y0151175D01*
X0010248Y0151875D01*
X0008418Y0151875D01*
X0006728Y0151175D01*
X0005633Y0150081D01*
X0005633Y0154470D01*
X0006728Y0153376D01*
X0008418Y0152675D01*
X0010248Y0152675D01*
X0011939Y0153376D01*
X0013233Y0154670D01*
X0013933Y0156360D01*
X0013933Y0158190D01*
X0013233Y0159881D01*
X0011939Y0161175D01*
X0010248Y0161875D01*
X0008418Y0161875D01*
X0006728Y0161175D01*
X0005633Y0160081D01*
X0005633Y0164470D01*
X0006728Y0163376D01*
X0008418Y0162675D01*
X0010248Y0162675D01*
X0011939Y0163376D01*
X0013233Y0164670D01*
X0013933Y0166360D01*
X0013933Y0168190D01*
X0013233Y0169881D01*
X0011939Y0171175D01*
X0010248Y0171875D01*
X0008418Y0171875D01*
X0006728Y0171175D01*
X0005633Y0170081D01*
X0005633Y0174470D01*
X0006728Y0173376D01*
X0008418Y0172675D01*
X0010248Y0172675D01*
X0011939Y0173376D01*
X0013233Y0174670D01*
X0013933Y0176360D01*
X0013933Y0178190D01*
X0013233Y0179881D01*
X0011939Y0181175D01*
X0010248Y0181875D01*
X0008418Y0181875D01*
X0006728Y0181175D01*
X0005633Y0180081D01*
X0005633Y0199936D01*
X0155734Y0199936D01*
X0155734Y0015671D01*
X0155233Y0016881D01*
X0153939Y0018175D01*
X0152248Y0018875D01*
X0150418Y0018875D01*
X0148728Y0018175D01*
X0147434Y0016881D01*
X0146733Y0015190D01*
X0146733Y0013360D01*
X0147434Y0011670D01*
X0148728Y0010376D01*
X0150418Y0009675D01*
X0152248Y0009675D01*
X0153939Y0010376D01*
X0155233Y0011670D01*
X0155734Y0012880D01*
X0155734Y0008575D01*
X0104925Y0008575D01*
X0104925Y0011975D01*
X0100381Y0011975D01*
X0100381Y0012056D02*
X0107274Y0012056D01*
X0107026Y0012655D02*
X0104925Y0012655D01*
X0104925Y0013253D02*
X0106778Y0013253D01*
X0106733Y0013852D02*
X0104925Y0013852D01*
X0104925Y0014450D02*
X0106733Y0014450D01*
X0106733Y0015049D02*
X0104925Y0015049D01*
X0104925Y0015647D02*
X0106923Y0015647D01*
X0107170Y0016246D02*
X0104909Y0016246D01*
X0104635Y0016844D02*
X0107418Y0016844D01*
X0107995Y0017443D02*
X0103599Y0017443D01*
X0101717Y0019238D02*
X0091229Y0019238D01*
X0091181Y0019154D02*
X0091352Y0019451D01*
X0091440Y0019781D01*
X0091440Y0022664D01*
X0089496Y0022664D01*
X0089496Y0018653D01*
X0090312Y0018653D01*
X0090642Y0018741D01*
X0090939Y0018912D01*
X0091181Y0019154D01*
X0091440Y0019837D02*
X0102316Y0019837D01*
X0102915Y0020435D02*
X0091440Y0020435D01*
X0091440Y0021034D02*
X0128737Y0021034D01*
X0129335Y0020435D02*
X0117012Y0020435D01*
X0117610Y0019837D02*
X0129934Y0019837D01*
X0130033Y0019737D02*
X0130033Y0018716D01*
X0128728Y0018175D01*
X0127434Y0016881D01*
X0126733Y0015190D01*
X0126733Y0013360D01*
X0127434Y0011670D01*
X0128728Y0010376D01*
X0130418Y0009675D01*
X0132248Y0009675D01*
X0133939Y0010376D01*
X0135233Y0011670D01*
X0135933Y0013360D01*
X0135933Y0015190D01*
X0135233Y0016881D01*
X0133939Y0018175D01*
X0132633Y0018716D01*
X0132633Y0020814D01*
X0128392Y0025055D01*
X0128933Y0026360D01*
X0128933Y0028190D01*
X0128233Y0029881D01*
X0126939Y0031175D01*
X0125248Y0031875D01*
X0123418Y0031875D01*
X0122113Y0031335D01*
X0110633Y0042814D01*
X0110633Y0043775D01*
X0112630Y0043775D01*
X0113916Y0044308D01*
X0114900Y0045293D01*
X0115433Y0046579D01*
X0115433Y0047972D01*
X0114900Y0049258D01*
X0113916Y0050243D01*
X0112630Y0050775D01*
X0106037Y0050775D01*
X0104751Y0050243D01*
X0103766Y0049258D01*
X0103233Y0047972D01*
X0103233Y0046579D01*
X0103766Y0045293D01*
X0104751Y0044308D01*
X0106037Y0043775D01*
X0108033Y0043775D01*
X0108033Y0041737D01*
X0120274Y0029496D01*
X0119733Y0028190D01*
X0119733Y0026360D01*
X0120434Y0024670D01*
X0121728Y0023376D01*
X0123418Y0022675D01*
X0125248Y0022675D01*
X0126554Y0023216D01*
X0130033Y0019737D01*
X0130033Y0019238D02*
X0118209Y0019238D01*
X0118808Y0018640D02*
X0119849Y0018640D01*
X0122817Y0018640D02*
X0129849Y0018640D01*
X0128594Y0018041D02*
X0124073Y0018041D01*
X0124671Y0017443D02*
X0127995Y0017443D01*
X0127418Y0016844D02*
X0125248Y0016844D01*
X0125496Y0016246D02*
X0127170Y0016246D01*
X0126923Y0015647D02*
X0125744Y0015647D01*
X0125933Y0015049D02*
X0126733Y0015049D01*
X0126733Y0014450D02*
X0125933Y0014450D01*
X0125933Y0013852D02*
X0126733Y0013852D01*
X0126778Y0013253D02*
X0125889Y0013253D01*
X0125641Y0012655D02*
X0127026Y0012655D01*
X0127274Y0012056D02*
X0125393Y0012056D01*
X0125021Y0011458D02*
X0127646Y0011458D01*
X0128244Y0010859D02*
X0124422Y0010859D01*
X0123661Y0010261D02*
X0129006Y0010261D01*
X0133661Y0010261D02*
X0138353Y0010261D01*
X0138076Y0010462D02*
X0138713Y0009999D01*
X0139414Y0009642D01*
X0140162Y0009399D01*
X0140940Y0009275D01*
X0141033Y0009275D01*
X0141033Y0013975D01*
X0141633Y0013975D01*
X0141633Y0009275D01*
X0141727Y0009275D01*
X0142504Y0009399D01*
X0143253Y0009642D01*
X0143954Y0009999D01*
X0144591Y0010462D01*
X0145147Y0011018D01*
X0145610Y0011655D01*
X0145967Y0012356D01*
X0146210Y0013105D01*
X0146333Y0013882D01*
X0146333Y0013975D01*
X0141633Y0013975D01*
X0141633Y0014575D01*
X0146333Y0014575D01*
X0146333Y0014669D01*
X0146210Y0015446D01*
X0145967Y0016195D01*
X0145610Y0016896D01*
X0145147Y0017533D01*
X0144591Y0018089D01*
X0143954Y0018552D01*
X0143253Y0018909D01*
X0142504Y0019152D01*
X0141727Y0019275D01*
X0141633Y0019275D01*
X0141633Y0014576D01*
X0141033Y0014576D01*
X0141033Y0019275D01*
X0140940Y0019275D01*
X0140162Y0019152D01*
X0139414Y0018909D01*
X0138713Y0018552D01*
X0138076Y0018089D01*
X0137520Y0017533D01*
X0137057Y0016896D01*
X0136700Y0016195D01*
X0136456Y0015446D01*
X0136333Y0014669D01*
X0136333Y0014575D01*
X0141033Y0014575D01*
X0141033Y0013975D01*
X0136333Y0013975D01*
X0136333Y0013882D01*
X0136456Y0013105D01*
X0136700Y0012356D01*
X0137057Y0011655D01*
X0137520Y0011018D01*
X0138076Y0010462D01*
X0137679Y0010859D02*
X0134422Y0010859D01*
X0135021Y0011458D02*
X0137200Y0011458D01*
X0136852Y0012056D02*
X0135393Y0012056D01*
X0135641Y0012655D02*
X0136603Y0012655D01*
X0136433Y0013253D02*
X0135889Y0013253D01*
X0135933Y0013852D02*
X0136338Y0013852D01*
X0135933Y0014450D02*
X0141033Y0014450D01*
X0141033Y0013852D02*
X0141633Y0013852D01*
X0141633Y0014450D02*
X0146733Y0014450D01*
X0146733Y0013852D02*
X0146329Y0013852D01*
X0146234Y0013253D02*
X0146778Y0013253D01*
X0147026Y0012655D02*
X0146064Y0012655D01*
X0145814Y0012056D02*
X0147274Y0012056D01*
X0147646Y0011458D02*
X0145466Y0011458D01*
X0144988Y0010859D02*
X0148244Y0010859D01*
X0149006Y0010261D02*
X0144314Y0010261D01*
X0143292Y0009662D02*
X0155734Y0009662D01*
X0155734Y0009064D02*
X0104925Y0009064D01*
X0104925Y0009662D02*
X0139374Y0009662D01*
X0141033Y0009662D02*
X0141633Y0009662D01*
X0141633Y0010261D02*
X0141033Y0010261D01*
X0141033Y0010859D02*
X0141633Y0010859D01*
X0141633Y0011458D02*
X0141033Y0011458D01*
X0141033Y0012056D02*
X0141633Y0012056D01*
X0141633Y0012655D02*
X0141033Y0012655D01*
X0141033Y0013253D02*
X0141633Y0013253D01*
X0141633Y0015049D02*
X0141033Y0015049D01*
X0141033Y0015647D02*
X0141633Y0015647D01*
X0141633Y0016246D02*
X0141033Y0016246D01*
X0141033Y0016844D02*
X0141633Y0016844D01*
X0141633Y0017443D02*
X0141033Y0017443D01*
X0141033Y0018041D02*
X0141633Y0018041D01*
X0141633Y0018640D02*
X0141033Y0018640D01*
X0141033Y0019238D02*
X0141633Y0019238D01*
X0141962Y0019238D02*
X0155734Y0019238D01*
X0155734Y0018640D02*
X0152817Y0018640D01*
X0154073Y0018041D02*
X0155734Y0018041D01*
X0155734Y0017443D02*
X0154671Y0017443D01*
X0155248Y0016844D02*
X0155734Y0016844D01*
X0155734Y0016246D02*
X0155496Y0016246D01*
X0155641Y0012655D02*
X0155734Y0012655D01*
X0155734Y0012056D02*
X0155393Y0012056D01*
X0155734Y0011458D02*
X0155021Y0011458D01*
X0154422Y0010859D02*
X0155734Y0010859D01*
X0155734Y0010261D02*
X0153661Y0010261D01*
X0146733Y0015049D02*
X0146273Y0015049D01*
X0146145Y0015647D02*
X0146923Y0015647D01*
X0147170Y0016246D02*
X0145941Y0016246D01*
X0145636Y0016844D02*
X0147418Y0016844D01*
X0147995Y0017443D02*
X0145213Y0017443D01*
X0144639Y0018041D02*
X0148594Y0018041D01*
X0149849Y0018640D02*
X0143781Y0018640D01*
X0140705Y0019238D02*
X0132633Y0019238D01*
X0132633Y0019837D02*
X0155734Y0019837D01*
X0155734Y0020435D02*
X0132633Y0020435D01*
X0132413Y0021034D02*
X0155734Y0021034D01*
X0155734Y0021632D02*
X0131815Y0021632D01*
X0131216Y0022231D02*
X0155734Y0022231D01*
X0155734Y0022829D02*
X0151621Y0022829D01*
X0151954Y0022999D02*
X0152591Y0023462D01*
X0153147Y0024018D01*
X0153610Y0024655D01*
X0153967Y0025356D01*
X0154210Y0026105D01*
X0154333Y0026882D01*
X0154333Y0026975D01*
X0149633Y0026975D01*
X0149633Y0022275D01*
X0149727Y0022275D01*
X0150504Y0022399D01*
X0151253Y0022642D01*
X0151954Y0022999D01*
X0152544Y0023428D02*
X0155734Y0023428D01*
X0155734Y0024026D02*
X0153153Y0024026D01*
X0153588Y0024625D02*
X0155734Y0024625D01*
X0155734Y0025223D02*
X0153899Y0025223D01*
X0154118Y0025822D02*
X0155734Y0025822D01*
X0155734Y0026420D02*
X0154260Y0026420D01*
X0154333Y0027575D02*
X0154333Y0027669D01*
X0154210Y0028446D01*
X0153967Y0029195D01*
X0153610Y0029896D01*
X0153147Y0030533D01*
X0152591Y0031089D01*
X0151954Y0031552D01*
X0151253Y0031909D01*
X0150504Y0032152D01*
X0149727Y0032275D01*
X0149633Y0032275D01*
X0149633Y0027576D01*
X0149033Y0027576D01*
X0149033Y0032275D01*
X0148940Y0032275D01*
X0148162Y0032152D01*
X0147414Y0031909D01*
X0146713Y0031552D01*
X0146076Y0031089D01*
X0145520Y0030533D01*
X0145057Y0029896D01*
X0144700Y0029195D01*
X0144456Y0028446D01*
X0144333Y0027669D01*
X0144333Y0027575D01*
X0149033Y0027575D01*
X0149033Y0026975D01*
X0149633Y0026975D01*
X0149633Y0027575D01*
X0154333Y0027575D01*
X0154333Y0027617D02*
X0155734Y0027617D01*
X0155734Y0027019D02*
X0149633Y0027019D01*
X0149633Y0027617D02*
X0149033Y0027617D01*
X0149033Y0027019D02*
X0143933Y0027019D01*
X0144333Y0026975D02*
X0144333Y0026882D01*
X0144456Y0026105D01*
X0144700Y0025356D01*
X0145057Y0024655D01*
X0145520Y0024018D01*
X0146076Y0023462D01*
X0146713Y0022999D01*
X0147414Y0022642D01*
X0148162Y0022399D01*
X0148940Y0022275D01*
X0149033Y0022275D01*
X0149033Y0026975D01*
X0144333Y0026975D01*
X0144406Y0026420D02*
X0143933Y0026420D01*
X0143933Y0026360D02*
X0143233Y0024670D01*
X0141939Y0023376D01*
X0140248Y0022675D01*
X0138418Y0022675D01*
X0136728Y0023376D01*
X0135434Y0024670D01*
X0134733Y0026360D01*
X0134733Y0028190D01*
X0135434Y0029881D01*
X0136728Y0031175D01*
X0138418Y0031875D01*
X0140248Y0031875D01*
X0141939Y0031175D01*
X0143233Y0029881D01*
X0143933Y0028190D01*
X0143933Y0026360D01*
X0143710Y0025822D02*
X0144548Y0025822D01*
X0144767Y0025223D02*
X0143462Y0025223D01*
X0143188Y0024625D02*
X0145079Y0024625D01*
X0145514Y0024026D02*
X0142590Y0024026D01*
X0141991Y0023428D02*
X0146123Y0023428D01*
X0147046Y0022829D02*
X0140620Y0022829D01*
X0138047Y0022829D02*
X0130618Y0022829D01*
X0130019Y0023428D02*
X0136676Y0023428D01*
X0136077Y0024026D02*
X0129421Y0024026D01*
X0128822Y0024625D02*
X0135479Y0024625D01*
X0135204Y0025223D02*
X0128462Y0025223D01*
X0128710Y0025822D02*
X0134956Y0025822D01*
X0134733Y0026420D02*
X0128933Y0026420D01*
X0128933Y0027019D02*
X0134733Y0027019D01*
X0134733Y0027617D02*
X0128933Y0027617D01*
X0128923Y0028216D02*
X0134744Y0028216D01*
X0134992Y0028814D02*
X0128675Y0028814D01*
X0128427Y0029413D02*
X0135240Y0029413D01*
X0135564Y0030011D02*
X0128103Y0030011D01*
X0127504Y0030610D02*
X0136162Y0030610D01*
X0136808Y0031208D02*
X0126859Y0031208D01*
X0126253Y0032642D02*
X0126954Y0032999D01*
X0127591Y0033462D01*
X0128147Y0034018D01*
X0128610Y0034655D01*
X0128967Y0035356D01*
X0129210Y0036105D01*
X0129333Y0036882D01*
X0129333Y0036975D01*
X0124633Y0036975D01*
X0124633Y0032275D01*
X0124727Y0032275D01*
X0125504Y0032399D01*
X0126253Y0032642D01*
X0125525Y0032406D02*
X0155734Y0032406D01*
X0155734Y0033004D02*
X0126961Y0033004D01*
X0127731Y0033603D02*
X0155734Y0033603D01*
X0155734Y0034201D02*
X0128280Y0034201D01*
X0128683Y0034800D02*
X0155734Y0034800D01*
X0155734Y0035398D02*
X0128981Y0035398D01*
X0129175Y0035997D02*
X0155734Y0035997D01*
X0155734Y0036595D02*
X0129288Y0036595D01*
X0129333Y0037575D02*
X0129333Y0037669D01*
X0129210Y0038446D01*
X0128967Y0039195D01*
X0128610Y0039896D01*
X0128147Y0040533D01*
X0127591Y0041089D01*
X0126954Y0041552D01*
X0126253Y0041909D01*
X0125504Y0042152D01*
X0124727Y0042275D01*
X0124633Y0042275D01*
X0124633Y0037576D01*
X0124033Y0037576D01*
X0124033Y0042275D01*
X0123940Y0042275D01*
X0123162Y0042152D01*
X0122414Y0041909D01*
X0121713Y0041552D01*
X0121076Y0041089D01*
X0120520Y0040533D01*
X0120057Y0039896D01*
X0119700Y0039195D01*
X0119456Y0038446D01*
X0119333Y0037669D01*
X0119333Y0037575D01*
X0124033Y0037575D01*
X0124033Y0036975D01*
X0124633Y0036975D01*
X0124633Y0037575D01*
X0129333Y0037575D01*
X0129314Y0037792D02*
X0155734Y0037792D01*
X0155734Y0037194D02*
X0124633Y0037194D01*
X0124633Y0037792D02*
X0124033Y0037792D01*
X0124033Y0037194D02*
X0116254Y0037194D01*
X0115655Y0037792D02*
X0119353Y0037792D01*
X0119448Y0038391D02*
X0115057Y0038391D01*
X0114458Y0038989D02*
X0119633Y0038989D01*
X0119900Y0039588D02*
X0113860Y0039588D01*
X0113261Y0040186D02*
X0120268Y0040186D01*
X0120771Y0040785D02*
X0112663Y0040785D01*
X0112064Y0041383D02*
X0121481Y0041383D01*
X0122637Y0041982D02*
X0111466Y0041982D01*
X0110867Y0042580D02*
X0147604Y0042580D01*
X0147414Y0042642D02*
X0148162Y0042399D01*
X0148940Y0042275D01*
X0149033Y0042275D01*
X0149033Y0046975D01*
X0149633Y0046975D01*
X0149633Y0042275D01*
X0149727Y0042275D01*
X0150504Y0042399D01*
X0151253Y0042642D01*
X0151954Y0042999D01*
X0152591Y0043462D01*
X0153147Y0044018D01*
X0153610Y0044655D01*
X0153967Y0045356D01*
X0154210Y0046105D01*
X0154333Y0046882D01*
X0154333Y0046975D01*
X0149633Y0046975D01*
X0149633Y0047575D01*
X0154333Y0047575D01*
X0154333Y0047669D01*
X0154210Y0048446D01*
X0153967Y0049195D01*
X0153610Y0049896D01*
X0153147Y0050533D01*
X0152591Y0051089D01*
X0151954Y0051552D01*
X0151253Y0051909D01*
X0150504Y0052152D01*
X0149727Y0052275D01*
X0149633Y0052275D01*
X0149633Y0047576D01*
X0149033Y0047576D01*
X0149033Y0052275D01*
X0148940Y0052275D01*
X0148162Y0052152D01*
X0147414Y0051909D01*
X0146713Y0051552D01*
X0146076Y0051089D01*
X0145520Y0050533D01*
X0145057Y0049896D01*
X0144700Y0049195D01*
X0144456Y0048446D01*
X0144333Y0047669D01*
X0144333Y0047575D01*
X0149033Y0047575D01*
X0149033Y0046975D01*
X0144333Y0046975D01*
X0144333Y0046882D01*
X0144456Y0046105D01*
X0144700Y0045356D01*
X0145057Y0044655D01*
X0145520Y0044018D01*
X0146076Y0043462D01*
X0146713Y0042999D01*
X0147414Y0042642D01*
X0146466Y0043179D02*
X0141463Y0043179D01*
X0141939Y0043376D02*
X0140248Y0042675D01*
X0138418Y0042675D01*
X0136728Y0043376D01*
X0135434Y0044670D01*
X0134733Y0046360D01*
X0134733Y0048190D01*
X0135434Y0049881D01*
X0136728Y0051175D01*
X0138033Y0051716D01*
X0138033Y0057835D01*
X0136728Y0058376D01*
X0135434Y0059670D01*
X0134733Y0061360D01*
X0134733Y0063190D01*
X0135434Y0064881D01*
X0136728Y0066175D01*
X0138033Y0066716D01*
X0138033Y0093904D01*
X0137591Y0093462D01*
X0136954Y0092999D01*
X0136253Y0092642D01*
X0135504Y0092399D01*
X0134727Y0092275D01*
X0134633Y0092275D01*
X0134633Y0096975D01*
X0134033Y0096975D01*
X0134033Y0092275D01*
X0133940Y0092275D01*
X0133162Y0092399D01*
X0132414Y0092642D01*
X0131713Y0092999D01*
X0131076Y0093462D01*
X0130520Y0094018D01*
X0130057Y0094655D01*
X0129700Y0095356D01*
X0129456Y0096105D01*
X0129333Y0096882D01*
X0129333Y0096975D01*
X0134033Y0096975D01*
X0134033Y0097575D01*
X0129333Y0097575D01*
X0129333Y0097669D01*
X0129456Y0098446D01*
X0129700Y0099195D01*
X0130057Y0099896D01*
X0130520Y0100533D01*
X0131076Y0101089D01*
X0131713Y0101552D01*
X0132414Y0101909D01*
X0133162Y0102152D01*
X0133940Y0102275D01*
X0134033Y0102275D01*
X0134033Y0097576D01*
X0134633Y0097576D01*
X0134633Y0102275D01*
X0134727Y0102275D01*
X0135504Y0102152D01*
X0136253Y0101909D01*
X0136954Y0101552D01*
X0137591Y0101089D01*
X0138033Y0100647D01*
X0138033Y0111737D01*
X0126554Y0123216D01*
X0125248Y0122675D01*
X0123418Y0122675D01*
X0121728Y0123376D01*
X0120434Y0124670D01*
X0119733Y0126360D01*
X0119733Y0128190D01*
X0120434Y0129881D01*
X0121728Y0131175D01*
X0123418Y0131875D01*
X0125248Y0131875D01*
X0126939Y0131175D01*
X0128233Y0129881D01*
X0128933Y0128190D01*
X0128933Y0126360D01*
X0128392Y0125055D01*
X0140633Y0112814D01*
X0140633Y0066716D01*
X0141939Y0066175D01*
X0143233Y0064881D01*
X0143933Y0063190D01*
X0143933Y0061360D01*
X0143233Y0059670D01*
X0141939Y0058376D01*
X0140633Y0057835D01*
X0140633Y0051716D01*
X0141939Y0051175D01*
X0143233Y0049881D01*
X0143933Y0048190D01*
X0143933Y0046360D01*
X0143233Y0044670D01*
X0141939Y0043376D01*
X0142340Y0043777D02*
X0145761Y0043777D01*
X0145260Y0044376D02*
X0142939Y0044376D01*
X0143359Y0044974D02*
X0144894Y0044974D01*
X0144629Y0045573D02*
X0143607Y0045573D01*
X0143855Y0046171D02*
X0144446Y0046171D01*
X0144351Y0046770D02*
X0143933Y0046770D01*
X0143933Y0047368D02*
X0149033Y0047368D01*
X0149033Y0046770D02*
X0149633Y0046770D01*
X0149633Y0047368D02*
X0155734Y0047368D01*
X0155734Y0046770D02*
X0154316Y0046770D01*
X0154221Y0046171D02*
X0155734Y0046171D01*
X0155734Y0045573D02*
X0154037Y0045573D01*
X0153772Y0044974D02*
X0155734Y0044974D01*
X0155734Y0044376D02*
X0153407Y0044376D01*
X0152906Y0043777D02*
X0155734Y0043777D01*
X0155734Y0043179D02*
X0152201Y0043179D01*
X0151063Y0042580D02*
X0155734Y0042580D01*
X0155734Y0041982D02*
X0126029Y0041982D01*
X0125248Y0042675D02*
X0126939Y0043376D01*
X0128233Y0044670D01*
X0128933Y0046360D01*
X0128933Y0048190D01*
X0128233Y0049881D01*
X0126939Y0051175D01*
X0125248Y0051875D01*
X0123418Y0051875D01*
X0121728Y0051175D01*
X0120434Y0049881D01*
X0119733Y0048190D01*
X0119733Y0046360D01*
X0120434Y0044670D01*
X0121728Y0043376D01*
X0123418Y0042675D01*
X0125248Y0042675D01*
X0124633Y0041982D02*
X0124033Y0041982D01*
X0124033Y0041383D02*
X0124633Y0041383D01*
X0124633Y0040785D02*
X0124033Y0040785D01*
X0124033Y0040186D02*
X0124633Y0040186D01*
X0124633Y0039588D02*
X0124033Y0039588D01*
X0124033Y0038989D02*
X0124633Y0038989D01*
X0124633Y0038391D02*
X0124033Y0038391D01*
X0124033Y0036975D02*
X0119333Y0036975D01*
X0119333Y0036882D01*
X0119456Y0036105D01*
X0119700Y0035356D01*
X0120057Y0034655D01*
X0120520Y0034018D01*
X0121076Y0033462D01*
X0121713Y0032999D01*
X0122414Y0032642D01*
X0123162Y0032399D01*
X0123940Y0032275D01*
X0124033Y0032275D01*
X0124033Y0036975D01*
X0124033Y0036595D02*
X0124633Y0036595D01*
X0124633Y0035997D02*
X0124033Y0035997D01*
X0124033Y0035398D02*
X0124633Y0035398D01*
X0124633Y0034800D02*
X0124033Y0034800D01*
X0124033Y0034201D02*
X0124633Y0034201D01*
X0124633Y0033603D02*
X0124033Y0033603D01*
X0124033Y0033004D02*
X0124633Y0033004D01*
X0124633Y0032406D02*
X0124033Y0032406D01*
X0123141Y0032406D02*
X0121042Y0032406D01*
X0120443Y0033004D02*
X0121706Y0033004D01*
X0120935Y0033603D02*
X0119845Y0033603D01*
X0120387Y0034201D02*
X0119246Y0034201D01*
X0118648Y0034800D02*
X0119983Y0034800D01*
X0119686Y0035398D02*
X0118049Y0035398D01*
X0117451Y0035997D02*
X0119492Y0035997D01*
X0119379Y0036595D02*
X0116852Y0036595D01*
X0114971Y0034800D02*
X0085633Y0034800D01*
X0085633Y0035398D02*
X0114372Y0035398D01*
X0113774Y0035997D02*
X0085633Y0035997D01*
X0085633Y0036595D02*
X0113175Y0036595D01*
X0112577Y0037194D02*
X0085633Y0037194D01*
X0085633Y0037792D02*
X0111978Y0037792D01*
X0111380Y0038391D02*
X0085633Y0038391D01*
X0085633Y0038989D02*
X0110781Y0038989D01*
X0110183Y0039588D02*
X0085633Y0039588D01*
X0085633Y0040186D02*
X0109584Y0040186D01*
X0108986Y0040785D02*
X0085633Y0040785D01*
X0085633Y0041383D02*
X0108387Y0041383D01*
X0108033Y0041982D02*
X0085633Y0041982D01*
X0085633Y0042580D02*
X0108033Y0042580D01*
X0108033Y0043179D02*
X0085633Y0043179D01*
X0085633Y0043777D02*
X0106033Y0043777D01*
X0104683Y0044376D02*
X0085633Y0044376D01*
X0085633Y0044974D02*
X0104085Y0044974D01*
X0103650Y0045573D02*
X0085633Y0045573D01*
X0085633Y0046171D02*
X0103402Y0046171D01*
X0103233Y0046770D02*
X0085633Y0046770D01*
X0085633Y0047368D02*
X0103233Y0047368D01*
X0103233Y0047967D02*
X0085633Y0047967D01*
X0085633Y0048565D02*
X0103479Y0048565D01*
X0103727Y0049164D02*
X0085633Y0049164D01*
X0085633Y0049762D02*
X0104270Y0049762D01*
X0105036Y0050361D02*
X0085633Y0050361D01*
X0085633Y0050959D02*
X0121512Y0050959D01*
X0120913Y0050361D02*
X0113630Y0050361D01*
X0114396Y0049762D02*
X0120384Y0049762D01*
X0120137Y0049164D02*
X0114940Y0049164D01*
X0115187Y0048565D02*
X0119889Y0048565D01*
X0119733Y0047967D02*
X0115433Y0047967D01*
X0115433Y0047368D02*
X0119733Y0047368D01*
X0119733Y0046770D02*
X0115433Y0046770D01*
X0115264Y0046171D02*
X0119812Y0046171D01*
X0120060Y0045573D02*
X0115016Y0045573D01*
X0114582Y0044974D02*
X0120308Y0044974D01*
X0120728Y0044376D02*
X0113983Y0044376D01*
X0112634Y0043777D02*
X0121326Y0043777D01*
X0122203Y0043179D02*
X0110633Y0043179D01*
X0115569Y0034201D02*
X0085633Y0034201D01*
X0085633Y0033603D02*
X0116168Y0033603D01*
X0116766Y0033004D02*
X0085633Y0033004D01*
X0085633Y0032406D02*
X0117365Y0032406D01*
X0117963Y0031807D02*
X0085633Y0031807D01*
X0085633Y0031208D02*
X0118562Y0031208D01*
X0119160Y0030610D02*
X0085633Y0030610D01*
X0085633Y0030011D02*
X0119759Y0030011D01*
X0120240Y0029413D02*
X0085633Y0029413D01*
X0085633Y0028814D02*
X0119992Y0028814D01*
X0119744Y0028216D02*
X0085633Y0028216D01*
X0085633Y0027617D02*
X0119733Y0027617D01*
X0119733Y0027019D02*
X0085633Y0027019D01*
X0085633Y0026420D02*
X0087880Y0026420D01*
X0089407Y0026420D02*
X0089496Y0026420D01*
X0089496Y0025822D02*
X0089407Y0025822D01*
X0089407Y0025223D02*
X0089496Y0025223D01*
X0089496Y0024625D02*
X0089407Y0024625D01*
X0089407Y0024026D02*
X0089496Y0024026D01*
X0089496Y0023428D02*
X0089407Y0023428D01*
X0089407Y0022829D02*
X0089496Y0022829D01*
X0089496Y0022231D02*
X0089407Y0022231D01*
X0089407Y0021632D02*
X0089496Y0021632D01*
X0089496Y0021034D02*
X0089407Y0021034D01*
X0089407Y0020435D02*
X0089496Y0020435D01*
X0089496Y0019837D02*
X0089407Y0019837D01*
X0089407Y0019238D02*
X0089496Y0019238D01*
X0091440Y0021632D02*
X0128138Y0021632D01*
X0127540Y0022231D02*
X0091440Y0022231D01*
X0091440Y0022829D02*
X0123047Y0022829D01*
X0121676Y0023428D02*
X0091440Y0023428D01*
X0091440Y0024026D02*
X0121077Y0024026D01*
X0120479Y0024625D02*
X0091440Y0024625D01*
X0091440Y0025223D02*
X0120204Y0025223D01*
X0119956Y0025822D02*
X0091390Y0025822D01*
X0091023Y0026420D02*
X0119733Y0026420D01*
X0121640Y0031807D02*
X0123253Y0031807D01*
X0125414Y0031807D02*
X0138253Y0031807D01*
X0140414Y0031807D02*
X0147214Y0031807D01*
X0146240Y0031208D02*
X0141859Y0031208D01*
X0142504Y0030610D02*
X0145597Y0030610D01*
X0145141Y0030011D02*
X0143103Y0030011D01*
X0143427Y0029413D02*
X0144811Y0029413D01*
X0144576Y0028814D02*
X0143675Y0028814D01*
X0143923Y0028216D02*
X0144420Y0028216D01*
X0144333Y0027617D02*
X0143933Y0027617D01*
X0149033Y0028216D02*
X0149633Y0028216D01*
X0149633Y0028814D02*
X0149033Y0028814D01*
X0149033Y0029413D02*
X0149633Y0029413D01*
X0149633Y0030011D02*
X0149033Y0030011D01*
X0149033Y0030610D02*
X0149633Y0030610D01*
X0149633Y0031208D02*
X0149033Y0031208D01*
X0149033Y0031807D02*
X0149633Y0031807D01*
X0151453Y0031807D02*
X0155734Y0031807D01*
X0155734Y0031208D02*
X0152427Y0031208D01*
X0153070Y0030610D02*
X0155734Y0030610D01*
X0155734Y0030011D02*
X0153526Y0030011D01*
X0153856Y0029413D02*
X0155734Y0029413D01*
X0155734Y0028814D02*
X0154091Y0028814D01*
X0154247Y0028216D02*
X0155734Y0028216D01*
X0149633Y0026420D02*
X0149033Y0026420D01*
X0149033Y0025822D02*
X0149633Y0025822D01*
X0149633Y0025223D02*
X0149033Y0025223D01*
X0149033Y0024625D02*
X0149633Y0024625D01*
X0149633Y0024026D02*
X0149033Y0024026D01*
X0149033Y0023428D02*
X0149633Y0023428D01*
X0149633Y0022829D02*
X0149033Y0022829D01*
X0138885Y0018640D02*
X0132817Y0018640D01*
X0134073Y0018041D02*
X0138028Y0018041D01*
X0137454Y0017443D02*
X0134671Y0017443D01*
X0135248Y0016844D02*
X0137031Y0016844D01*
X0136726Y0016246D02*
X0135496Y0016246D01*
X0135744Y0015647D02*
X0136522Y0015647D01*
X0136393Y0015049D02*
X0135933Y0015049D01*
X0126941Y0022829D02*
X0125620Y0022829D01*
X0117170Y0016246D02*
X0115496Y0016246D01*
X0115248Y0016844D02*
X0116926Y0016844D01*
X0116328Y0017443D02*
X0114671Y0017443D01*
X0115744Y0015647D02*
X0116923Y0015647D01*
X0116733Y0015049D02*
X0115933Y0015049D01*
X0115933Y0014450D02*
X0116733Y0014450D01*
X0116733Y0013852D02*
X0115933Y0013852D01*
X0115889Y0013253D02*
X0116778Y0013253D01*
X0117026Y0012655D02*
X0115641Y0012655D01*
X0115393Y0012056D02*
X0117274Y0012056D01*
X0117646Y0011458D02*
X0115021Y0011458D01*
X0114422Y0010859D02*
X0118244Y0010859D01*
X0119006Y0010261D02*
X0113661Y0010261D01*
X0109006Y0010261D02*
X0104925Y0010261D01*
X0104925Y0010859D02*
X0108244Y0010859D01*
X0107646Y0011458D02*
X0104925Y0011458D01*
X0101119Y0018640D02*
X0081308Y0018640D01*
X0078828Y0017443D02*
X0005633Y0017443D01*
X0005633Y0018041D02*
X0078229Y0018041D01*
X0077915Y0018640D02*
X0005633Y0018640D01*
X0005633Y0019238D02*
X0077915Y0019238D01*
X0077626Y0019837D02*
X0005633Y0019837D01*
X0005633Y0020435D02*
X0077626Y0020435D01*
X0077626Y0021034D02*
X0005633Y0021034D01*
X0005633Y0021632D02*
X0077626Y0021632D01*
X0077626Y0022231D02*
X0005633Y0022231D01*
X0005633Y0022829D02*
X0077626Y0022829D01*
X0077626Y0023428D02*
X0005633Y0023428D01*
X0005633Y0024026D02*
X0077626Y0024026D01*
X0077626Y0024625D02*
X0005633Y0024625D01*
X0005633Y0025223D02*
X0077626Y0025223D01*
X0077626Y0025822D02*
X0005633Y0025822D01*
X0005633Y0026420D02*
X0080474Y0026420D01*
X0080474Y0027019D02*
X0005633Y0027019D01*
X0005633Y0027617D02*
X0080474Y0027617D01*
X0080474Y0028216D02*
X0005633Y0028216D01*
X0005633Y0028814D02*
X0080474Y0028814D01*
X0080474Y0029413D02*
X0005633Y0029413D01*
X0005633Y0030011D02*
X0080474Y0030011D01*
X0080474Y0030610D02*
X0005633Y0030610D01*
X0005633Y0031208D02*
X0080474Y0031208D01*
X0080474Y0031807D02*
X0005633Y0031807D01*
X0005633Y0032406D02*
X0080474Y0032406D01*
X0080474Y0033004D02*
X0005633Y0033004D01*
X0005633Y0033603D02*
X0080474Y0033603D01*
X0080474Y0034201D02*
X0005633Y0034201D01*
X0005633Y0034800D02*
X0080474Y0034800D01*
X0080474Y0035398D02*
X0005633Y0035398D01*
X0005633Y0035997D02*
X0080474Y0035997D01*
X0080474Y0036595D02*
X0005633Y0036595D01*
X0005633Y0037194D02*
X0080474Y0037194D01*
X0080474Y0037792D02*
X0005633Y0037792D01*
X0005633Y0038391D02*
X0080474Y0038391D01*
X0080474Y0038989D02*
X0005633Y0038989D01*
X0005633Y0039588D02*
X0080474Y0039588D01*
X0080474Y0040186D02*
X0005633Y0040186D01*
X0005633Y0040785D02*
X0080474Y0040785D01*
X0080474Y0041383D02*
X0005633Y0041383D01*
X0005633Y0041982D02*
X0080474Y0041982D01*
X0080474Y0042580D02*
X0056063Y0042580D01*
X0056253Y0042642D02*
X0056954Y0042999D01*
X0057591Y0043462D01*
X0058147Y0044018D01*
X0058610Y0044655D01*
X0058967Y0045356D01*
X0059210Y0046105D01*
X0059333Y0046882D01*
X0059333Y0046975D01*
X0054633Y0046975D01*
X0054633Y0042275D01*
X0054727Y0042275D01*
X0055504Y0042399D01*
X0056253Y0042642D01*
X0057201Y0043179D02*
X0080474Y0043179D01*
X0080474Y0043777D02*
X0072634Y0043777D01*
X0072630Y0043775D02*
X0073916Y0044308D01*
X0074900Y0045293D01*
X0075433Y0046579D01*
X0075433Y0047972D01*
X0074900Y0049258D01*
X0073916Y0050243D01*
X0072630Y0050775D01*
X0066037Y0050775D01*
X0064751Y0050243D01*
X0063766Y0049258D01*
X0063233Y0047972D01*
X0063233Y0046579D01*
X0063766Y0045293D01*
X0064751Y0044308D01*
X0066037Y0043775D01*
X0072630Y0043775D01*
X0073983Y0044376D02*
X0080474Y0044376D01*
X0080474Y0044974D02*
X0074582Y0044974D01*
X0075016Y0045573D02*
X0080474Y0045573D01*
X0080474Y0046171D02*
X0075264Y0046171D01*
X0075433Y0046770D02*
X0080474Y0046770D01*
X0080474Y0047368D02*
X0075433Y0047368D01*
X0075433Y0047967D02*
X0080474Y0047967D01*
X0080474Y0048565D02*
X0075187Y0048565D01*
X0074940Y0049164D02*
X0080474Y0049164D01*
X0080474Y0049762D02*
X0074396Y0049762D01*
X0073630Y0050361D02*
X0080474Y0050361D01*
X0080474Y0050959D02*
X0057720Y0050959D01*
X0057591Y0051089D02*
X0056954Y0051552D01*
X0056253Y0051909D01*
X0055504Y0052152D01*
X0054727Y0052275D01*
X0054633Y0052275D01*
X0054633Y0047576D01*
X0054033Y0047576D01*
X0054033Y0052275D01*
X0053940Y0052275D01*
X0053162Y0052152D01*
X0052414Y0051909D01*
X0051713Y0051552D01*
X0051076Y0051089D01*
X0050520Y0050533D01*
X0050057Y0049896D01*
X0049700Y0049195D01*
X0049456Y0048446D01*
X0049333Y0047669D01*
X0049333Y0047575D01*
X0054033Y0047575D01*
X0054033Y0046975D01*
X0054633Y0046975D01*
X0054633Y0047575D01*
X0059333Y0047575D01*
X0059333Y0047669D01*
X0059210Y0048446D01*
X0058967Y0049195D01*
X0058610Y0049896D01*
X0058147Y0050533D01*
X0057591Y0051089D01*
X0056942Y0051558D02*
X0080474Y0051558D01*
X0080474Y0052156D02*
X0055479Y0052156D01*
X0055440Y0052755D02*
X0080474Y0052755D01*
X0080474Y0053353D02*
X0056885Y0053353D01*
X0057515Y0053952D02*
X0065611Y0053952D01*
X0066037Y0053775D02*
X0072630Y0053775D01*
X0073916Y0054308D01*
X0074900Y0055293D01*
X0075433Y0056579D01*
X0075433Y0057972D01*
X0074900Y0059258D01*
X0073916Y0060243D01*
X0072630Y0060775D01*
X0066037Y0060775D01*
X0064751Y0060243D01*
X0063766Y0059258D01*
X0063233Y0057972D01*
X0063233Y0056579D01*
X0063766Y0055293D01*
X0064751Y0054308D01*
X0066037Y0053775D01*
X0064509Y0054550D02*
X0058114Y0054550D01*
X0058431Y0055149D02*
X0063910Y0055149D01*
X0063578Y0055747D02*
X0058679Y0055747D01*
X0058927Y0056346D02*
X0063330Y0056346D01*
X0063233Y0056944D02*
X0058933Y0056944D01*
X0058933Y0057543D02*
X0063233Y0057543D01*
X0063304Y0058141D02*
X0058933Y0058141D01*
X0058706Y0058740D02*
X0063552Y0058740D01*
X0063847Y0059339D02*
X0058458Y0059339D01*
X0058177Y0059937D02*
X0064445Y0059937D01*
X0065458Y0060536D02*
X0057579Y0060536D01*
X0056980Y0061134D02*
X0080474Y0061134D01*
X0080474Y0060536D02*
X0073209Y0060536D01*
X0074222Y0059937D02*
X0080474Y0059937D01*
X0080474Y0059339D02*
X0074820Y0059339D01*
X0075115Y0058740D02*
X0080474Y0058740D01*
X0080474Y0058141D02*
X0075363Y0058141D01*
X0075433Y0057543D02*
X0080474Y0057543D01*
X0080474Y0056944D02*
X0075433Y0056944D01*
X0075337Y0056346D02*
X0080474Y0056346D01*
X0080474Y0055747D02*
X0075089Y0055747D01*
X0074757Y0055149D02*
X0080474Y0055149D01*
X0080474Y0054550D02*
X0074158Y0054550D01*
X0073055Y0053952D02*
X0080474Y0053952D01*
X0085633Y0053952D02*
X0105611Y0053952D01*
X0106037Y0053775D02*
X0104751Y0054308D01*
X0103766Y0055293D01*
X0103233Y0056579D01*
X0103233Y0057972D01*
X0103766Y0059258D01*
X0104751Y0060243D01*
X0106037Y0060775D01*
X0112630Y0060775D01*
X0113916Y0060243D01*
X0114900Y0059258D01*
X0115433Y0057972D01*
X0115433Y0056579D01*
X0114900Y0055293D01*
X0113916Y0054308D01*
X0112630Y0053775D01*
X0106037Y0053775D01*
X0104509Y0054550D02*
X0085633Y0054550D01*
X0085633Y0055149D02*
X0103910Y0055149D01*
X0103578Y0055747D02*
X0085633Y0055747D01*
X0085633Y0056346D02*
X0103330Y0056346D01*
X0103233Y0056944D02*
X0085633Y0056944D01*
X0085633Y0057543D02*
X0103233Y0057543D01*
X0103304Y0058141D02*
X0085633Y0058141D01*
X0085633Y0058740D02*
X0103552Y0058740D01*
X0103847Y0059339D02*
X0085633Y0059339D01*
X0085633Y0059937D02*
X0104445Y0059937D01*
X0105458Y0060536D02*
X0085633Y0060536D01*
X0085633Y0061134D02*
X0134827Y0061134D01*
X0134733Y0061733D02*
X0085633Y0061733D01*
X0085633Y0062331D02*
X0134733Y0062331D01*
X0134733Y0062930D02*
X0085633Y0062930D01*
X0085633Y0063528D02*
X0134873Y0063528D01*
X0135121Y0064127D02*
X0113477Y0064127D01*
X0113916Y0064308D02*
X0112630Y0063775D01*
X0106037Y0063775D01*
X0104751Y0064308D01*
X0103766Y0065293D01*
X0103233Y0066579D01*
X0103233Y0067972D01*
X0103766Y0069258D01*
X0104751Y0070243D01*
X0106037Y0070775D01*
X0112630Y0070775D01*
X0113916Y0070243D01*
X0114900Y0069258D01*
X0115433Y0067972D01*
X0115433Y0066579D01*
X0114900Y0065293D01*
X0113916Y0064308D01*
X0114333Y0064725D02*
X0135369Y0064725D01*
X0135876Y0065324D02*
X0114913Y0065324D01*
X0115161Y0065922D02*
X0136475Y0065922D01*
X0137562Y0066521D02*
X0115409Y0066521D01*
X0115433Y0067119D02*
X0138033Y0067119D01*
X0138033Y0067718D02*
X0115433Y0067718D01*
X0115291Y0068316D02*
X0138033Y0068316D01*
X0138033Y0068915D02*
X0115043Y0068915D01*
X0114645Y0069513D02*
X0138033Y0069513D01*
X0138033Y0070112D02*
X0114047Y0070112D01*
X0112787Y0070710D02*
X0138033Y0070710D01*
X0138033Y0071309D02*
X0085633Y0071309D01*
X0085633Y0071907D02*
X0138033Y0071907D01*
X0138033Y0072506D02*
X0085633Y0072506D01*
X0085633Y0073104D02*
X0138033Y0073104D01*
X0138033Y0073703D02*
X0085633Y0073703D01*
X0085633Y0074301D02*
X0104768Y0074301D01*
X0104751Y0074308D02*
X0106037Y0073775D01*
X0112630Y0073775D01*
X0113916Y0074308D01*
X0114900Y0075293D01*
X0115433Y0076579D01*
X0115433Y0077972D01*
X0114900Y0079258D01*
X0113916Y0080243D01*
X0112630Y0080775D01*
X0106037Y0080775D01*
X0104751Y0080243D01*
X0103766Y0079258D01*
X0103233Y0077972D01*
X0103233Y0076579D01*
X0103766Y0075293D01*
X0104751Y0074308D01*
X0104159Y0074900D02*
X0085633Y0074900D01*
X0085633Y0075498D02*
X0103681Y0075498D01*
X0103433Y0076097D02*
X0085633Y0076097D01*
X0085633Y0076695D02*
X0103233Y0076695D01*
X0103233Y0077294D02*
X0085633Y0077294D01*
X0085633Y0077892D02*
X0103233Y0077892D01*
X0103448Y0078491D02*
X0085633Y0078491D01*
X0085633Y0079089D02*
X0103696Y0079089D01*
X0104196Y0079688D02*
X0085633Y0079688D01*
X0085633Y0080286D02*
X0104856Y0080286D01*
X0105596Y0083525D02*
X0106349Y0083375D01*
X0109033Y0083375D01*
X0109033Y0086975D01*
X0109633Y0086975D01*
X0109633Y0083375D01*
X0112317Y0083375D01*
X0113071Y0083525D01*
X0113781Y0083819D01*
X0114419Y0084246D01*
X0114963Y0084789D01*
X0115389Y0085428D01*
X0115683Y0086138D01*
X0115833Y0086891D01*
X0115833Y0086975D01*
X0109633Y0086975D01*
X0109633Y0087575D01*
X0115833Y0087575D01*
X0115833Y0087660D01*
X0115683Y0088413D01*
X0115389Y0089123D01*
X0114963Y0089762D01*
X0114419Y0090305D01*
X0113781Y0090732D01*
X0113071Y0091026D01*
X0112317Y0091175D01*
X0109633Y0091175D01*
X0109633Y0087576D01*
X0109033Y0087576D01*
X0109033Y0091175D01*
X0106349Y0091175D01*
X0105596Y0091026D01*
X0104886Y0090732D01*
X0104247Y0090305D01*
X0103704Y0089762D01*
X0103277Y0089123D01*
X0102983Y0088413D01*
X0102833Y0087660D01*
X0102833Y0087575D01*
X0109033Y0087575D01*
X0109033Y0086975D01*
X0102833Y0086975D01*
X0102833Y0086891D01*
X0102983Y0086138D01*
X0103277Y0085428D01*
X0103704Y0084789D01*
X0104247Y0084246D01*
X0104886Y0083819D01*
X0105596Y0083525D01*
X0104799Y0083877D02*
X0085633Y0083877D01*
X0085633Y0083279D02*
X0138033Y0083279D01*
X0138033Y0083877D02*
X0113868Y0083877D01*
X0114649Y0084476D02*
X0138033Y0084476D01*
X0138033Y0085075D02*
X0115153Y0085075D01*
X0115491Y0085673D02*
X0138033Y0085673D01*
X0138033Y0086272D02*
X0115710Y0086272D01*
X0115829Y0086870D02*
X0138033Y0086870D01*
X0138033Y0087469D02*
X0109633Y0087469D01*
X0109633Y0088067D02*
X0109033Y0088067D01*
X0109033Y0087469D02*
X0085633Y0087469D01*
X0085633Y0088067D02*
X0102914Y0088067D01*
X0103088Y0088666D02*
X0085633Y0088666D01*
X0085633Y0089264D02*
X0103372Y0089264D01*
X0103805Y0089863D02*
X0085633Y0089863D01*
X0085633Y0090461D02*
X0104481Y0090461D01*
X0105767Y0091060D02*
X0085633Y0091060D01*
X0085633Y0091658D02*
X0138033Y0091658D01*
X0138033Y0091060D02*
X0112900Y0091060D01*
X0114185Y0090461D02*
X0138033Y0090461D01*
X0138033Y0089863D02*
X0114862Y0089863D01*
X0115295Y0089264D02*
X0138033Y0089264D01*
X0138033Y0088666D02*
X0115579Y0088666D01*
X0115752Y0088067D02*
X0138033Y0088067D01*
X0140633Y0088067D02*
X0144396Y0088067D01*
X0144456Y0088446D02*
X0144333Y0087669D01*
X0144333Y0087575D01*
X0149033Y0087575D01*
X0149033Y0086975D01*
X0149633Y0086975D01*
X0149633Y0082275D01*
X0149727Y0082275D01*
X0150504Y0082399D01*
X0151253Y0082642D01*
X0151954Y0082999D01*
X0152591Y0083462D01*
X0153147Y0084018D01*
X0153610Y0084655D01*
X0153967Y0085356D01*
X0154210Y0086105D01*
X0154333Y0086882D01*
X0154333Y0086975D01*
X0149633Y0086975D01*
X0149633Y0087575D01*
X0154333Y0087575D01*
X0154333Y0087669D01*
X0154210Y0088446D01*
X0153967Y0089195D01*
X0153610Y0089896D01*
X0153147Y0090533D01*
X0152591Y0091089D01*
X0151954Y0091552D01*
X0151253Y0091909D01*
X0150504Y0092152D01*
X0149727Y0092275D01*
X0149633Y0092275D01*
X0149633Y0087576D01*
X0149033Y0087576D01*
X0149033Y0092275D01*
X0148940Y0092275D01*
X0148162Y0092152D01*
X0147414Y0091909D01*
X0146713Y0091552D01*
X0146076Y0091089D01*
X0145520Y0090533D01*
X0145057Y0089896D01*
X0144700Y0089195D01*
X0144456Y0088446D01*
X0144528Y0088666D02*
X0140633Y0088666D01*
X0140633Y0089264D02*
X0144735Y0089264D01*
X0145040Y0089863D02*
X0140633Y0089863D01*
X0140633Y0090461D02*
X0145467Y0090461D01*
X0146046Y0091060D02*
X0140633Y0091060D01*
X0140633Y0091658D02*
X0146921Y0091658D01*
X0148821Y0092257D02*
X0140633Y0092257D01*
X0140633Y0092855D02*
X0155734Y0092855D01*
X0155734Y0092257D02*
X0149846Y0092257D01*
X0149633Y0092257D02*
X0149033Y0092257D01*
X0149033Y0091658D02*
X0149633Y0091658D01*
X0149633Y0091060D02*
X0149033Y0091060D01*
X0149033Y0090461D02*
X0149633Y0090461D01*
X0149633Y0089863D02*
X0149033Y0089863D01*
X0149033Y0089264D02*
X0149633Y0089264D01*
X0149633Y0088666D02*
X0149033Y0088666D01*
X0149033Y0088067D02*
X0149633Y0088067D01*
X0149633Y0087469D02*
X0155734Y0087469D01*
X0155734Y0088067D02*
X0154270Y0088067D01*
X0154139Y0088666D02*
X0155734Y0088666D01*
X0155734Y0089264D02*
X0153932Y0089264D01*
X0153627Y0089863D02*
X0155734Y0089863D01*
X0155734Y0090461D02*
X0153199Y0090461D01*
X0152620Y0091060D02*
X0155734Y0091060D01*
X0155734Y0091658D02*
X0151745Y0091658D01*
X0155734Y0093454D02*
X0140633Y0093454D01*
X0140633Y0094052D02*
X0155734Y0094052D01*
X0155734Y0094651D02*
X0140633Y0094651D01*
X0140633Y0095249D02*
X0155734Y0095249D01*
X0155734Y0095848D02*
X0140633Y0095848D01*
X0140633Y0096446D02*
X0155734Y0096446D01*
X0155734Y0097045D02*
X0140633Y0097045D01*
X0140633Y0097643D02*
X0155734Y0097643D01*
X0155734Y0098242D02*
X0140633Y0098242D01*
X0140633Y0098840D02*
X0155734Y0098840D01*
X0155734Y0099439D02*
X0140633Y0099439D01*
X0140633Y0100037D02*
X0155734Y0100037D01*
X0155734Y0100636D02*
X0140633Y0100636D01*
X0140633Y0101234D02*
X0155734Y0101234D01*
X0155734Y0101833D02*
X0140633Y0101833D01*
X0140633Y0102431D02*
X0148062Y0102431D01*
X0148162Y0102399D02*
X0148940Y0102275D01*
X0149033Y0102275D01*
X0149033Y0106975D01*
X0149633Y0106975D01*
X0149633Y0102275D01*
X0149727Y0102275D01*
X0150504Y0102399D01*
X0151253Y0102642D01*
X0151954Y0102999D01*
X0152591Y0103462D01*
X0153147Y0104018D01*
X0153610Y0104655D01*
X0153967Y0105356D01*
X0154210Y0106105D01*
X0154333Y0106882D01*
X0154333Y0106975D01*
X0149633Y0106975D01*
X0149633Y0107575D01*
X0154333Y0107575D01*
X0154333Y0107669D01*
X0154210Y0108446D01*
X0153967Y0109195D01*
X0153610Y0109896D01*
X0153147Y0110533D01*
X0152591Y0111089D01*
X0151954Y0111552D01*
X0151253Y0111909D01*
X0150504Y0112152D01*
X0149727Y0112275D01*
X0149633Y0112275D01*
X0149633Y0107576D01*
X0149033Y0107576D01*
X0149033Y0112275D01*
X0148940Y0112275D01*
X0148162Y0112152D01*
X0147414Y0111909D01*
X0146713Y0111552D01*
X0146076Y0111089D01*
X0145520Y0110533D01*
X0145057Y0109896D01*
X0144700Y0109195D01*
X0144456Y0108446D01*
X0144333Y0107669D01*
X0144333Y0107575D01*
X0149033Y0107575D01*
X0149033Y0106975D01*
X0144333Y0106975D01*
X0144333Y0106882D01*
X0144456Y0106105D01*
X0144700Y0105356D01*
X0145057Y0104655D01*
X0145520Y0104018D01*
X0146076Y0103462D01*
X0146713Y0102999D01*
X0147414Y0102642D01*
X0148162Y0102399D01*
X0149033Y0102431D02*
X0149633Y0102431D01*
X0149633Y0103030D02*
X0149033Y0103030D01*
X0149033Y0103628D02*
X0149633Y0103628D01*
X0149633Y0104227D02*
X0149033Y0104227D01*
X0149033Y0104825D02*
X0149633Y0104825D01*
X0149633Y0105424D02*
X0149033Y0105424D01*
X0149033Y0106022D02*
X0149633Y0106022D01*
X0149633Y0106621D02*
X0149033Y0106621D01*
X0149033Y0107219D02*
X0140633Y0107219D01*
X0140633Y0106621D02*
X0144375Y0106621D01*
X0144483Y0106022D02*
X0140633Y0106022D01*
X0140633Y0105424D02*
X0144678Y0105424D01*
X0144970Y0104825D02*
X0140633Y0104825D01*
X0140633Y0104227D02*
X0145368Y0104227D01*
X0145909Y0103628D02*
X0140633Y0103628D01*
X0140633Y0103030D02*
X0146670Y0103030D01*
X0150605Y0102431D02*
X0155734Y0102431D01*
X0155734Y0103030D02*
X0151996Y0103030D01*
X0152757Y0103628D02*
X0155734Y0103628D01*
X0155734Y0104227D02*
X0153299Y0104227D01*
X0153697Y0104825D02*
X0155734Y0104825D01*
X0155734Y0105424D02*
X0153989Y0105424D01*
X0154183Y0106022D02*
X0155734Y0106022D01*
X0155734Y0106621D02*
X0154292Y0106621D01*
X0154310Y0107818D02*
X0155734Y0107818D01*
X0155734Y0108416D02*
X0154215Y0108416D01*
X0154025Y0109015D02*
X0155734Y0109015D01*
X0155734Y0109613D02*
X0153754Y0109613D01*
X0153380Y0110212D02*
X0155734Y0110212D01*
X0155734Y0110810D02*
X0152869Y0110810D01*
X0152151Y0111409D02*
X0155734Y0111409D01*
X0155734Y0112008D02*
X0150950Y0112008D01*
X0150248Y0112675D02*
X0151939Y0113376D01*
X0153233Y0114670D01*
X0153933Y0116360D01*
X0153933Y0118190D01*
X0153233Y0119881D01*
X0151939Y0121175D01*
X0150248Y0121875D01*
X0148418Y0121875D01*
X0146728Y0121175D01*
X0145434Y0119881D01*
X0144733Y0118190D01*
X0144733Y0116360D01*
X0145434Y0114670D01*
X0146728Y0113376D01*
X0148418Y0112675D01*
X0150248Y0112675D01*
X0149633Y0112008D02*
X0149033Y0112008D01*
X0149033Y0111409D02*
X0149633Y0111409D01*
X0149633Y0110810D02*
X0149033Y0110810D01*
X0149033Y0110212D02*
X0149633Y0110212D01*
X0149633Y0109613D02*
X0149033Y0109613D01*
X0149033Y0109015D02*
X0149633Y0109015D01*
X0149633Y0108416D02*
X0149033Y0108416D01*
X0149033Y0107818D02*
X0149633Y0107818D01*
X0149633Y0107219D02*
X0155734Y0107219D01*
X0155734Y0112606D02*
X0140633Y0112606D01*
X0140633Y0112008D02*
X0147717Y0112008D01*
X0147141Y0113205D02*
X0140243Y0113205D01*
X0139644Y0113803D02*
X0146300Y0113803D01*
X0145702Y0114402D02*
X0139046Y0114402D01*
X0138447Y0115000D02*
X0145297Y0115000D01*
X0145049Y0115599D02*
X0137849Y0115599D01*
X0137250Y0116197D02*
X0144801Y0116197D01*
X0144733Y0116796D02*
X0136652Y0116796D01*
X0136053Y0117394D02*
X0144733Y0117394D01*
X0144733Y0117993D02*
X0135455Y0117993D01*
X0134856Y0118591D02*
X0144899Y0118591D01*
X0145147Y0119190D02*
X0134258Y0119190D01*
X0133659Y0119788D02*
X0145395Y0119788D01*
X0145939Y0120387D02*
X0133061Y0120387D01*
X0132462Y0120985D02*
X0146538Y0120985D01*
X0147714Y0121584D02*
X0131864Y0121584D01*
X0131265Y0122182D02*
X0155734Y0122182D01*
X0155734Y0121584D02*
X0150953Y0121584D01*
X0150502Y0122781D02*
X0155734Y0122781D01*
X0155734Y0123379D02*
X0151942Y0123379D01*
X0151939Y0123376D02*
X0153233Y0124670D01*
X0153933Y0126360D01*
X0153933Y0128190D01*
X0153233Y0129881D01*
X0151939Y0131175D01*
X0150248Y0131875D01*
X0148418Y0131875D01*
X0146728Y0131175D01*
X0145434Y0129881D01*
X0144733Y0128190D01*
X0144733Y0126360D01*
X0145434Y0124670D01*
X0146728Y0123376D01*
X0148418Y0122675D01*
X0150248Y0122675D01*
X0151939Y0123376D01*
X0152541Y0123978D02*
X0155734Y0123978D01*
X0155734Y0124576D02*
X0153139Y0124576D01*
X0153442Y0125175D02*
X0155734Y0125175D01*
X0155734Y0125773D02*
X0153690Y0125773D01*
X0153933Y0126372D02*
X0155734Y0126372D01*
X0155734Y0126970D02*
X0153933Y0126970D01*
X0153933Y0127569D02*
X0155734Y0127569D01*
X0155734Y0128167D02*
X0153933Y0128167D01*
X0153695Y0128766D02*
X0155734Y0128766D01*
X0155734Y0129364D02*
X0153447Y0129364D01*
X0153151Y0129963D02*
X0155734Y0129963D01*
X0155734Y0130561D02*
X0152553Y0130561D01*
X0151954Y0131160D02*
X0155734Y0131160D01*
X0155734Y0131758D02*
X0150531Y0131758D01*
X0150248Y0132675D02*
X0151939Y0133376D01*
X0153233Y0134670D01*
X0153933Y0136360D01*
X0153933Y0138190D01*
X0153233Y0139881D01*
X0151939Y0141175D01*
X0150248Y0141875D01*
X0148418Y0141875D01*
X0146728Y0141175D01*
X0145434Y0139881D01*
X0144733Y0138190D01*
X0144733Y0136360D01*
X0145434Y0134670D01*
X0146728Y0133376D01*
X0148418Y0132675D01*
X0150248Y0132675D01*
X0150924Y0132955D02*
X0155734Y0132955D01*
X0155734Y0132357D02*
X0106090Y0132357D01*
X0105492Y0132955D02*
X0147742Y0132955D01*
X0148136Y0131758D02*
X0125531Y0131758D01*
X0126954Y0131160D02*
X0146712Y0131160D01*
X0146114Y0130561D02*
X0127553Y0130561D01*
X0128151Y0129963D02*
X0145515Y0129963D01*
X0145220Y0129364D02*
X0128447Y0129364D01*
X0128695Y0128766D02*
X0144972Y0128766D01*
X0144733Y0128167D02*
X0128933Y0128167D01*
X0128933Y0127569D02*
X0144733Y0127569D01*
X0144733Y0126970D02*
X0128933Y0126970D01*
X0128933Y0126372D02*
X0144733Y0126372D01*
X0144977Y0125773D02*
X0128690Y0125773D01*
X0128442Y0125175D02*
X0145224Y0125175D01*
X0145527Y0124576D02*
X0128871Y0124576D01*
X0129470Y0123978D02*
X0146126Y0123978D01*
X0146724Y0123379D02*
X0130068Y0123379D01*
X0130667Y0122781D02*
X0148164Y0122781D01*
X0152129Y0120985D02*
X0155734Y0120985D01*
X0155734Y0120387D02*
X0152727Y0120387D01*
X0153272Y0119788D02*
X0155734Y0119788D01*
X0155734Y0119190D02*
X0153519Y0119190D01*
X0153767Y0118591D02*
X0155734Y0118591D01*
X0155734Y0117993D02*
X0153933Y0117993D01*
X0153933Y0117394D02*
X0155734Y0117394D01*
X0155734Y0116796D02*
X0153933Y0116796D01*
X0153866Y0116197D02*
X0155734Y0116197D01*
X0155734Y0115599D02*
X0153618Y0115599D01*
X0153370Y0115000D02*
X0155734Y0115000D01*
X0155734Y0114402D02*
X0152965Y0114402D01*
X0152366Y0113803D02*
X0155734Y0113803D01*
X0155734Y0113205D02*
X0151526Y0113205D01*
X0146516Y0111409D02*
X0140633Y0111409D01*
X0140633Y0110810D02*
X0145797Y0110810D01*
X0145286Y0110212D02*
X0140633Y0110212D01*
X0140633Y0109613D02*
X0144913Y0109613D01*
X0144641Y0109015D02*
X0140633Y0109015D01*
X0140633Y0108416D02*
X0144452Y0108416D01*
X0144357Y0107818D02*
X0140633Y0107818D01*
X0138033Y0107818D02*
X0115433Y0107818D01*
X0115433Y0107972D02*
X0114900Y0109258D01*
X0113916Y0110243D01*
X0112630Y0110775D01*
X0106037Y0110775D01*
X0104751Y0110243D01*
X0103766Y0109258D01*
X0103233Y0107972D01*
X0103233Y0106579D01*
X0103766Y0105293D01*
X0104751Y0104308D01*
X0106037Y0103775D01*
X0112630Y0103775D01*
X0113916Y0104308D01*
X0114900Y0105293D01*
X0115433Y0106579D01*
X0115433Y0107972D01*
X0115249Y0108416D02*
X0138033Y0108416D01*
X0138033Y0109015D02*
X0115001Y0109015D01*
X0114545Y0109613D02*
X0138033Y0109613D01*
X0138033Y0110212D02*
X0113947Y0110212D01*
X0115433Y0107219D02*
X0138033Y0107219D01*
X0138033Y0106621D02*
X0115433Y0106621D01*
X0115203Y0106022D02*
X0138033Y0106022D01*
X0138033Y0105424D02*
X0114955Y0105424D01*
X0114433Y0104825D02*
X0138033Y0104825D01*
X0138033Y0104227D02*
X0113719Y0104227D01*
X0112630Y0100775D02*
X0113916Y0100243D01*
X0114900Y0099258D01*
X0115183Y0098575D01*
X0119893Y0098575D01*
X0120434Y0099881D01*
X0121728Y0101175D01*
X0123418Y0101875D01*
X0125248Y0101875D01*
X0126939Y0101175D01*
X0128233Y0099881D01*
X0128933Y0098190D01*
X0128933Y0096360D01*
X0128233Y0094670D01*
X0126939Y0093376D01*
X0125248Y0092675D01*
X0123418Y0092675D01*
X0121728Y0093376D01*
X0120434Y0094670D01*
X0119893Y0095975D01*
X0115183Y0095975D01*
X0114900Y0095293D01*
X0113916Y0094308D01*
X0112630Y0093775D01*
X0106037Y0093775D01*
X0104751Y0094308D01*
X0103766Y0095293D01*
X0103233Y0096579D01*
X0103233Y0097972D01*
X0103766Y0099258D01*
X0104751Y0100243D01*
X0106037Y0100775D01*
X0112630Y0100775D01*
X0112967Y0100636D02*
X0121188Y0100636D01*
X0120590Y0100037D02*
X0114121Y0100037D01*
X0114720Y0099439D02*
X0120250Y0099439D01*
X0120002Y0098840D02*
X0115074Y0098840D01*
X0115130Y0095848D02*
X0119946Y0095848D01*
X0120194Y0095249D02*
X0114857Y0095249D01*
X0114258Y0094651D02*
X0120453Y0094651D01*
X0121051Y0094052D02*
X0113298Y0094052D01*
X0109633Y0091060D02*
X0109033Y0091060D01*
X0109033Y0090461D02*
X0109633Y0090461D01*
X0109633Y0089863D02*
X0109033Y0089863D01*
X0109033Y0089264D02*
X0109633Y0089264D01*
X0109633Y0088666D02*
X0109033Y0088666D01*
X0109033Y0086870D02*
X0109633Y0086870D01*
X0109633Y0086272D02*
X0109033Y0086272D01*
X0109033Y0085673D02*
X0109633Y0085673D01*
X0109633Y0085075D02*
X0109033Y0085075D01*
X0109033Y0084476D02*
X0109633Y0084476D01*
X0109633Y0083877D02*
X0109033Y0083877D01*
X0113810Y0080286D02*
X0138033Y0080286D01*
X0138033Y0079688D02*
X0114471Y0079688D01*
X0114970Y0079089D02*
X0138033Y0079089D01*
X0138033Y0078491D02*
X0115218Y0078491D01*
X0115433Y0077892D02*
X0138033Y0077892D01*
X0138033Y0077294D02*
X0115433Y0077294D01*
X0115433Y0076695D02*
X0138033Y0076695D01*
X0138033Y0076097D02*
X0115233Y0076097D01*
X0114986Y0075498D02*
X0138033Y0075498D01*
X0138033Y0074900D02*
X0114507Y0074900D01*
X0113899Y0074301D02*
X0138033Y0074301D01*
X0140633Y0074301D02*
X0145802Y0074301D01*
X0145434Y0074670D02*
X0146728Y0073376D01*
X0148033Y0072835D01*
X0148033Y0066716D01*
X0146728Y0066175D01*
X0145434Y0064881D01*
X0144733Y0063190D01*
X0144733Y0061360D01*
X0145434Y0059670D01*
X0146728Y0058376D01*
X0148418Y0057675D01*
X0150248Y0057675D01*
X0151939Y0058376D01*
X0153233Y0059670D01*
X0153933Y0061360D01*
X0153933Y0063190D01*
X0153233Y0064881D01*
X0151939Y0066175D01*
X0150633Y0066716D01*
X0150633Y0072835D01*
X0151939Y0073376D01*
X0153233Y0074670D01*
X0153933Y0076360D01*
X0153933Y0078190D01*
X0153233Y0079881D01*
X0151939Y0081175D01*
X0150248Y0081875D01*
X0148418Y0081875D01*
X0146728Y0081175D01*
X0145434Y0079881D01*
X0144733Y0078190D01*
X0144733Y0076360D01*
X0145434Y0074670D01*
X0145338Y0074900D02*
X0140633Y0074900D01*
X0140633Y0075498D02*
X0145090Y0075498D01*
X0144843Y0076097D02*
X0140633Y0076097D01*
X0140633Y0076695D02*
X0144733Y0076695D01*
X0144733Y0077294D02*
X0140633Y0077294D01*
X0140633Y0077892D02*
X0144733Y0077892D01*
X0144858Y0078491D02*
X0140633Y0078491D01*
X0140633Y0079089D02*
X0145106Y0079089D01*
X0145354Y0079688D02*
X0140633Y0079688D01*
X0140633Y0080286D02*
X0145839Y0080286D01*
X0146437Y0080885D02*
X0140633Y0080885D01*
X0140633Y0081483D02*
X0147472Y0081483D01*
X0148162Y0082399D02*
X0147414Y0082642D01*
X0146713Y0082999D01*
X0146076Y0083462D01*
X0145520Y0084018D01*
X0145057Y0084655D01*
X0144700Y0085356D01*
X0144456Y0086105D01*
X0144333Y0086882D01*
X0144333Y0086975D01*
X0149033Y0086975D01*
X0149033Y0082275D01*
X0148940Y0082275D01*
X0148162Y0082399D01*
X0147338Y0082680D02*
X0140633Y0082680D01*
X0140633Y0082082D02*
X0155734Y0082082D01*
X0155734Y0082680D02*
X0151329Y0082680D01*
X0152339Y0083279D02*
X0155734Y0083279D01*
X0155734Y0083877D02*
X0153006Y0083877D01*
X0153480Y0084476D02*
X0155734Y0084476D01*
X0155734Y0085075D02*
X0153823Y0085075D01*
X0154070Y0085673D02*
X0155734Y0085673D01*
X0155734Y0086272D02*
X0154237Y0086272D01*
X0154331Y0086870D02*
X0155734Y0086870D01*
X0155734Y0081483D02*
X0151195Y0081483D01*
X0152229Y0080885D02*
X0155734Y0080885D01*
X0155734Y0080286D02*
X0152828Y0080286D01*
X0153313Y0079688D02*
X0155734Y0079688D01*
X0155734Y0079089D02*
X0153561Y0079089D01*
X0153809Y0078491D02*
X0155734Y0078491D01*
X0155734Y0077892D02*
X0153933Y0077892D01*
X0153933Y0077294D02*
X0155734Y0077294D01*
X0155734Y0076695D02*
X0153933Y0076695D01*
X0153824Y0076097D02*
X0155734Y0076097D01*
X0155734Y0075498D02*
X0153576Y0075498D01*
X0153328Y0074900D02*
X0155734Y0074900D01*
X0155734Y0074301D02*
X0152865Y0074301D01*
X0152266Y0073703D02*
X0155734Y0073703D01*
X0155734Y0073104D02*
X0151284Y0073104D01*
X0150633Y0072506D02*
X0155734Y0072506D01*
X0155734Y0071907D02*
X0150633Y0071907D01*
X0150633Y0071309D02*
X0155734Y0071309D01*
X0155734Y0070710D02*
X0150633Y0070710D01*
X0150633Y0070112D02*
X0155734Y0070112D01*
X0155734Y0069513D02*
X0150633Y0069513D01*
X0150633Y0068915D02*
X0155734Y0068915D01*
X0155734Y0068316D02*
X0150633Y0068316D01*
X0150633Y0067718D02*
X0155734Y0067718D01*
X0155734Y0067119D02*
X0150633Y0067119D01*
X0151105Y0066521D02*
X0155734Y0066521D01*
X0155734Y0065922D02*
X0152192Y0065922D01*
X0152791Y0065324D02*
X0155734Y0065324D01*
X0155734Y0064725D02*
X0153298Y0064725D01*
X0153546Y0064127D02*
X0155734Y0064127D01*
X0155734Y0063528D02*
X0153793Y0063528D01*
X0153933Y0062930D02*
X0155734Y0062930D01*
X0155734Y0062331D02*
X0153933Y0062331D01*
X0153933Y0061733D02*
X0155734Y0061733D01*
X0155734Y0061134D02*
X0153840Y0061134D01*
X0153592Y0060536D02*
X0155734Y0060536D01*
X0155734Y0059937D02*
X0153344Y0059937D01*
X0152902Y0059339D02*
X0155734Y0059339D01*
X0155734Y0058740D02*
X0152303Y0058740D01*
X0151373Y0058141D02*
X0155734Y0058141D01*
X0155734Y0057543D02*
X0140633Y0057543D01*
X0140633Y0056944D02*
X0155734Y0056944D01*
X0155734Y0056346D02*
X0140633Y0056346D01*
X0140633Y0055747D02*
X0155734Y0055747D01*
X0155734Y0055149D02*
X0140633Y0055149D01*
X0140633Y0054550D02*
X0155734Y0054550D01*
X0155734Y0053952D02*
X0140633Y0053952D01*
X0140633Y0053353D02*
X0155734Y0053353D01*
X0155734Y0052755D02*
X0140633Y0052755D01*
X0140633Y0052156D02*
X0148188Y0052156D01*
X0149033Y0052156D02*
X0149633Y0052156D01*
X0149633Y0051558D02*
X0149033Y0051558D01*
X0149033Y0050959D02*
X0149633Y0050959D01*
X0149633Y0050361D02*
X0149033Y0050361D01*
X0149033Y0049762D02*
X0149633Y0049762D01*
X0149633Y0049164D02*
X0149033Y0049164D01*
X0149033Y0048565D02*
X0149633Y0048565D01*
X0149633Y0047967D02*
X0149033Y0047967D01*
X0149033Y0046171D02*
X0149633Y0046171D01*
X0149633Y0045573D02*
X0149033Y0045573D01*
X0149033Y0044974D02*
X0149633Y0044974D01*
X0149633Y0044376D02*
X0149033Y0044376D01*
X0149033Y0043777D02*
X0149633Y0043777D01*
X0149633Y0043179D02*
X0149033Y0043179D01*
X0149033Y0042580D02*
X0149633Y0042580D01*
X0155734Y0041383D02*
X0127186Y0041383D01*
X0127895Y0040785D02*
X0155734Y0040785D01*
X0155734Y0040186D02*
X0128399Y0040186D01*
X0128767Y0039588D02*
X0155734Y0039588D01*
X0155734Y0038989D02*
X0129034Y0038989D01*
X0129219Y0038391D02*
X0155734Y0038391D01*
X0155734Y0047967D02*
X0154286Y0047967D01*
X0154172Y0048565D02*
X0155734Y0048565D01*
X0155734Y0049164D02*
X0153977Y0049164D01*
X0153678Y0049762D02*
X0155734Y0049762D01*
X0155734Y0050361D02*
X0153272Y0050361D01*
X0152720Y0050959D02*
X0155734Y0050959D01*
X0155734Y0051558D02*
X0151942Y0051558D01*
X0150479Y0052156D02*
X0155734Y0052156D01*
X0146725Y0051558D02*
X0141015Y0051558D01*
X0142155Y0050959D02*
X0145946Y0050959D01*
X0145395Y0050361D02*
X0142753Y0050361D01*
X0143282Y0049762D02*
X0144989Y0049762D01*
X0144690Y0049164D02*
X0143530Y0049164D01*
X0143778Y0048565D02*
X0144495Y0048565D01*
X0144381Y0047967D02*
X0143933Y0047967D01*
X0137652Y0051558D02*
X0126015Y0051558D01*
X0127155Y0050959D02*
X0136512Y0050959D01*
X0135913Y0050361D02*
X0127753Y0050361D01*
X0128282Y0049762D02*
X0135384Y0049762D01*
X0135137Y0049164D02*
X0128530Y0049164D01*
X0128778Y0048565D02*
X0134889Y0048565D01*
X0134733Y0047967D02*
X0128933Y0047967D01*
X0128933Y0047368D02*
X0134733Y0047368D01*
X0134733Y0046770D02*
X0128933Y0046770D01*
X0128855Y0046171D02*
X0134812Y0046171D01*
X0135060Y0045573D02*
X0128607Y0045573D01*
X0128359Y0044974D02*
X0135308Y0044974D01*
X0135728Y0044376D02*
X0127939Y0044376D01*
X0127340Y0043777D02*
X0136326Y0043777D01*
X0137203Y0043179D02*
X0126463Y0043179D01*
X0122652Y0051558D02*
X0085633Y0051558D01*
X0085633Y0052156D02*
X0138033Y0052156D01*
X0138033Y0052755D02*
X0085633Y0052755D01*
X0085633Y0053353D02*
X0138033Y0053353D01*
X0138033Y0053952D02*
X0113055Y0053952D01*
X0114158Y0054550D02*
X0138033Y0054550D01*
X0138033Y0055149D02*
X0114757Y0055149D01*
X0115089Y0055747D02*
X0138033Y0055747D01*
X0138033Y0056346D02*
X0115337Y0056346D01*
X0115433Y0056944D02*
X0138033Y0056944D01*
X0138033Y0057543D02*
X0115433Y0057543D01*
X0115363Y0058141D02*
X0137293Y0058141D01*
X0136363Y0058740D02*
X0115115Y0058740D01*
X0114820Y0059339D02*
X0135765Y0059339D01*
X0135323Y0059937D02*
X0114222Y0059937D01*
X0113209Y0060536D02*
X0135075Y0060536D01*
X0141373Y0058141D02*
X0147293Y0058141D01*
X0146363Y0058740D02*
X0142303Y0058740D01*
X0142902Y0059339D02*
X0145765Y0059339D01*
X0145323Y0059937D02*
X0143344Y0059937D01*
X0143592Y0060536D02*
X0145075Y0060536D01*
X0144827Y0061134D02*
X0143840Y0061134D01*
X0143933Y0061733D02*
X0144733Y0061733D01*
X0144733Y0062331D02*
X0143933Y0062331D01*
X0143933Y0062930D02*
X0144733Y0062930D01*
X0144873Y0063528D02*
X0143793Y0063528D01*
X0143546Y0064127D02*
X0145121Y0064127D01*
X0145369Y0064725D02*
X0143298Y0064725D01*
X0142791Y0065324D02*
X0145876Y0065324D01*
X0146475Y0065922D02*
X0142192Y0065922D01*
X0141105Y0066521D02*
X0147562Y0066521D01*
X0148033Y0067119D02*
X0140633Y0067119D01*
X0140633Y0067718D02*
X0148033Y0067718D01*
X0148033Y0068316D02*
X0140633Y0068316D01*
X0140633Y0068915D02*
X0148033Y0068915D01*
X0148033Y0069513D02*
X0140633Y0069513D01*
X0140633Y0070112D02*
X0148033Y0070112D01*
X0148033Y0070710D02*
X0140633Y0070710D01*
X0140633Y0071309D02*
X0148033Y0071309D01*
X0148033Y0071907D02*
X0140633Y0071907D01*
X0140633Y0072506D02*
X0148033Y0072506D01*
X0147383Y0073104D02*
X0140633Y0073104D01*
X0140633Y0073703D02*
X0146401Y0073703D01*
X0149033Y0082680D02*
X0149633Y0082680D01*
X0149633Y0083279D02*
X0149033Y0083279D01*
X0149033Y0083877D02*
X0149633Y0083877D01*
X0149633Y0084476D02*
X0149033Y0084476D01*
X0149033Y0085075D02*
X0149633Y0085075D01*
X0149633Y0085673D02*
X0149033Y0085673D01*
X0149033Y0086272D02*
X0149633Y0086272D01*
X0149633Y0086870D02*
X0149033Y0086870D01*
X0149033Y0087469D02*
X0140633Y0087469D01*
X0140633Y0086870D02*
X0144335Y0086870D01*
X0144430Y0086272D02*
X0140633Y0086272D01*
X0140633Y0085673D02*
X0144597Y0085673D01*
X0144843Y0085075D02*
X0140633Y0085075D01*
X0140633Y0084476D02*
X0145187Y0084476D01*
X0145660Y0083877D02*
X0140633Y0083877D01*
X0140633Y0083279D02*
X0146328Y0083279D01*
X0138033Y0082680D02*
X0085633Y0082680D01*
X0085633Y0082082D02*
X0138033Y0082082D01*
X0138033Y0081483D02*
X0085633Y0081483D01*
X0085633Y0080885D02*
X0138033Y0080885D01*
X0138033Y0092257D02*
X0085633Y0092257D01*
X0085633Y0092855D02*
X0122985Y0092855D01*
X0121650Y0093454D02*
X0085633Y0093454D01*
X0085633Y0094052D02*
X0105369Y0094052D01*
X0104408Y0094651D02*
X0085633Y0094651D01*
X0085633Y0095249D02*
X0103810Y0095249D01*
X0103536Y0095848D02*
X0085633Y0095848D01*
X0085633Y0096446D02*
X0103288Y0096446D01*
X0103233Y0097045D02*
X0085633Y0097045D01*
X0085633Y0097643D02*
X0103233Y0097643D01*
X0103345Y0098242D02*
X0085633Y0098242D01*
X0085633Y0098840D02*
X0103593Y0098840D01*
X0103947Y0099439D02*
X0085633Y0099439D01*
X0085633Y0100037D02*
X0104545Y0100037D01*
X0105700Y0100636D02*
X0085633Y0100636D01*
X0085633Y0101234D02*
X0121870Y0101234D01*
X0123315Y0101833D02*
X0085633Y0101833D01*
X0085633Y0102431D02*
X0138033Y0102431D01*
X0138033Y0101833D02*
X0136402Y0101833D01*
X0137391Y0101234D02*
X0138033Y0101234D01*
X0138033Y0103030D02*
X0085633Y0103030D01*
X0085633Y0103628D02*
X0138033Y0103628D01*
X0134633Y0101833D02*
X0134033Y0101833D01*
X0134033Y0101234D02*
X0134633Y0101234D01*
X0134633Y0100636D02*
X0134033Y0100636D01*
X0134033Y0100037D02*
X0134633Y0100037D01*
X0134633Y0099439D02*
X0134033Y0099439D01*
X0134033Y0098840D02*
X0134633Y0098840D01*
X0134633Y0098242D02*
X0134033Y0098242D01*
X0134033Y0097643D02*
X0134633Y0097643D01*
X0134033Y0097045D02*
X0128933Y0097045D01*
X0128933Y0097643D02*
X0129333Y0097643D01*
X0129424Y0098242D02*
X0128912Y0098242D01*
X0128664Y0098840D02*
X0129584Y0098840D01*
X0129824Y0099439D02*
X0128416Y0099439D01*
X0128077Y0100037D02*
X0130160Y0100037D01*
X0130623Y0100636D02*
X0127478Y0100636D01*
X0126796Y0101234D02*
X0131276Y0101234D01*
X0132264Y0101833D02*
X0125351Y0101833D01*
X0128933Y0096446D02*
X0129402Y0096446D01*
X0129540Y0095848D02*
X0128721Y0095848D01*
X0128473Y0095249D02*
X0129754Y0095249D01*
X0130060Y0094651D02*
X0128214Y0094651D01*
X0127615Y0094052D02*
X0130495Y0094052D01*
X0131087Y0093454D02*
X0127017Y0093454D01*
X0125682Y0092855D02*
X0131995Y0092855D01*
X0134033Y0092855D02*
X0134633Y0092855D01*
X0134633Y0093454D02*
X0134033Y0093454D01*
X0134033Y0094052D02*
X0134633Y0094052D01*
X0134633Y0094651D02*
X0134033Y0094651D01*
X0134033Y0095249D02*
X0134633Y0095249D01*
X0134633Y0095848D02*
X0134033Y0095848D01*
X0134033Y0096446D02*
X0134633Y0096446D01*
X0136671Y0092855D02*
X0138033Y0092855D01*
X0138033Y0093454D02*
X0137580Y0093454D01*
X0138033Y0110810D02*
X0089707Y0110810D01*
X0089108Y0110212D02*
X0104720Y0110212D01*
X0104122Y0109613D02*
X0088510Y0109613D01*
X0087911Y0109015D02*
X0103665Y0109015D01*
X0103418Y0108416D02*
X0087313Y0108416D01*
X0086714Y0107818D02*
X0103233Y0107818D01*
X0103233Y0107219D02*
X0086116Y0107219D01*
X0085633Y0106621D02*
X0103233Y0106621D01*
X0103464Y0106022D02*
X0085633Y0106022D01*
X0085633Y0105424D02*
X0103712Y0105424D01*
X0104234Y0104825D02*
X0085633Y0104825D01*
X0085633Y0104227D02*
X0104947Y0104227D01*
X0105971Y0113803D02*
X0092699Y0113803D01*
X0092101Y0113205D02*
X0121430Y0113205D01*
X0121713Y0112999D02*
X0121076Y0113462D01*
X0120520Y0114018D01*
X0120057Y0114655D01*
X0119700Y0115356D01*
X0119456Y0116105D01*
X0119333Y0116882D01*
X0119333Y0116975D01*
X0124033Y0116975D01*
X0124633Y0116975D01*
X0124633Y0112275D01*
X0124727Y0112275D01*
X0125504Y0112399D01*
X0126253Y0112642D01*
X0126954Y0112999D01*
X0127591Y0113462D01*
X0128147Y0114018D01*
X0128610Y0114655D01*
X0128967Y0115356D01*
X0129210Y0116105D01*
X0129333Y0116882D01*
X0129333Y0116975D01*
X0124633Y0116975D01*
X0124633Y0117575D01*
X0129333Y0117575D01*
X0129333Y0117669D01*
X0129210Y0118446D01*
X0128967Y0119195D01*
X0128610Y0119896D01*
X0128147Y0120533D01*
X0127591Y0121089D01*
X0126954Y0121552D01*
X0126253Y0121909D01*
X0125504Y0122152D01*
X0124727Y0122275D01*
X0124633Y0122275D01*
X0124633Y0117576D01*
X0124033Y0117576D01*
X0124033Y0122275D01*
X0123940Y0122275D01*
X0123162Y0122152D01*
X0122414Y0121909D01*
X0121713Y0121552D01*
X0121076Y0121089D01*
X0120520Y0120533D01*
X0120057Y0119896D01*
X0119700Y0119195D01*
X0119456Y0118446D01*
X0119333Y0117669D01*
X0119333Y0117575D01*
X0124033Y0117575D01*
X0124033Y0116975D01*
X0124033Y0112275D01*
X0123940Y0112275D01*
X0123162Y0112399D01*
X0122414Y0112642D01*
X0121713Y0112999D01*
X0122524Y0112606D02*
X0091502Y0112606D01*
X0090904Y0112008D02*
X0137763Y0112008D01*
X0138033Y0111409D02*
X0090305Y0111409D01*
X0093298Y0114402D02*
X0104657Y0114402D01*
X0104059Y0115000D02*
X0093896Y0115000D01*
X0094495Y0115599D02*
X0103640Y0115599D01*
X0103490Y0118591D02*
X0091396Y0118591D01*
X0091722Y0117993D02*
X0093212Y0117993D01*
X0092614Y0117394D02*
X0091722Y0117394D01*
X0091722Y0116796D02*
X0092015Y0116796D01*
X0090798Y0119190D02*
X0103738Y0119190D01*
X0104296Y0119788D02*
X0074370Y0119788D01*
X0073916Y0120243D02*
X0072630Y0120775D01*
X0066037Y0120775D01*
X0064751Y0120243D01*
X0063766Y0119258D01*
X0063233Y0117972D01*
X0063233Y0116579D01*
X0063766Y0115293D01*
X0064751Y0114308D01*
X0066037Y0113775D01*
X0072630Y0113775D01*
X0073916Y0114308D01*
X0074900Y0115293D01*
X0075433Y0116579D01*
X0075433Y0117972D01*
X0074900Y0119258D01*
X0073916Y0120243D01*
X0073568Y0120387D02*
X0105098Y0120387D01*
X0106037Y0123775D02*
X0104751Y0124308D01*
X0103766Y0125293D01*
X0103233Y0126579D01*
X0103233Y0127972D01*
X0103766Y0129258D01*
X0104639Y0130131D01*
X0098033Y0136737D01*
X0098033Y0167814D01*
X0098795Y0168575D01*
X0104639Y0174420D01*
X0103766Y0175293D01*
X0103233Y0176579D01*
X0103233Y0177972D01*
X0103766Y0179258D01*
X0104751Y0180243D01*
X0106037Y0180775D01*
X0108033Y0180775D01*
X0108033Y0187835D01*
X0106728Y0188376D01*
X0105434Y0189670D01*
X0104733Y0191360D01*
X0104733Y0193190D01*
X0105434Y0194881D01*
X0106728Y0196175D01*
X0108418Y0196875D01*
X0110248Y0196875D01*
X0111939Y0196175D01*
X0113233Y0194881D01*
X0113933Y0193190D01*
X0113933Y0191360D01*
X0113233Y0189670D01*
X0111939Y0188376D01*
X0110633Y0187835D01*
X0110633Y0180775D01*
X0112630Y0180775D01*
X0113916Y0180243D01*
X0114900Y0179258D01*
X0115433Y0177972D01*
X0115433Y0176579D01*
X0114900Y0175293D01*
X0113916Y0174308D01*
X0112630Y0173775D01*
X0107672Y0173775D01*
X0100633Y0166737D01*
X0100633Y0137814D01*
X0107672Y0130775D01*
X0112630Y0130775D01*
X0113916Y0130243D01*
X0114900Y0129258D01*
X0115433Y0127972D01*
X0115433Y0126579D01*
X0114900Y0125293D01*
X0113916Y0124308D01*
X0112630Y0123775D01*
X0106037Y0123775D01*
X0105549Y0123978D02*
X0073118Y0123978D01*
X0072630Y0123775D02*
X0073916Y0124308D01*
X0074900Y0125293D01*
X0075433Y0126579D01*
X0075433Y0127972D01*
X0074900Y0129258D01*
X0073916Y0130243D01*
X0072630Y0130775D01*
X0066037Y0130775D01*
X0064751Y0130243D01*
X0063766Y0129258D01*
X0063233Y0127972D01*
X0063233Y0126579D01*
X0063766Y0125293D01*
X0064751Y0124308D01*
X0066037Y0123775D01*
X0072630Y0123775D01*
X0074184Y0124576D02*
X0104483Y0124576D01*
X0103884Y0125175D02*
X0074782Y0125175D01*
X0075099Y0125773D02*
X0103567Y0125773D01*
X0103319Y0126372D02*
X0075347Y0126372D01*
X0075433Y0126970D02*
X0103233Y0126970D01*
X0103233Y0127569D02*
X0075433Y0127569D01*
X0075352Y0128167D02*
X0103314Y0128167D01*
X0103562Y0128766D02*
X0075104Y0128766D01*
X0074794Y0129364D02*
X0103872Y0129364D01*
X0104471Y0129963D02*
X0074196Y0129963D01*
X0073146Y0130561D02*
X0104209Y0130561D01*
X0103610Y0131160D02*
X0011954Y0131160D01*
X0012553Y0130561D02*
X0065520Y0130561D01*
X0064471Y0129963D02*
X0013151Y0129963D01*
X0013447Y0129364D02*
X0063872Y0129364D01*
X0063562Y0128766D02*
X0013695Y0128766D01*
X0013933Y0128167D02*
X0063314Y0128167D01*
X0063233Y0127569D02*
X0013933Y0127569D01*
X0013933Y0126970D02*
X0063233Y0126970D01*
X0063319Y0126372D02*
X0013933Y0126372D01*
X0013690Y0125773D02*
X0063567Y0125773D01*
X0063884Y0125175D02*
X0013442Y0125175D01*
X0013139Y0124576D02*
X0064483Y0124576D01*
X0065549Y0123978D02*
X0012541Y0123978D01*
X0011942Y0123379D02*
X0121724Y0123379D01*
X0121126Y0123978D02*
X0113118Y0123978D01*
X0114184Y0124576D02*
X0120527Y0124576D01*
X0120224Y0125175D02*
X0114782Y0125175D01*
X0115099Y0125773D02*
X0119977Y0125773D01*
X0119733Y0126372D02*
X0115347Y0126372D01*
X0115433Y0126970D02*
X0119733Y0126970D01*
X0119733Y0127569D02*
X0115433Y0127569D01*
X0115352Y0128167D02*
X0119733Y0128167D01*
X0119972Y0128766D02*
X0115104Y0128766D01*
X0114794Y0129364D02*
X0120220Y0129364D01*
X0120515Y0129963D02*
X0114196Y0129963D01*
X0113146Y0130561D02*
X0121114Y0130561D01*
X0121712Y0131160D02*
X0107287Y0131160D01*
X0106689Y0131758D02*
X0123136Y0131758D01*
X0114900Y0135293D02*
X0115433Y0136579D01*
X0115433Y0137972D01*
X0114900Y0139258D01*
X0113916Y0140243D01*
X0112630Y0140775D01*
X0106037Y0140775D01*
X0104751Y0140243D01*
X0103766Y0139258D01*
X0103233Y0137972D01*
X0103233Y0136579D01*
X0103766Y0135293D01*
X0104751Y0134308D01*
X0106037Y0133775D01*
X0112630Y0133775D01*
X0113916Y0134308D01*
X0114900Y0135293D01*
X0114924Y0135349D02*
X0145152Y0135349D01*
X0145400Y0134751D02*
X0114359Y0134751D01*
X0113540Y0134152D02*
X0145951Y0134152D01*
X0146549Y0133554D02*
X0104893Y0133554D01*
X0105127Y0134152D02*
X0104295Y0134152D01*
X0104308Y0134751D02*
X0103696Y0134751D01*
X0103743Y0135349D02*
X0103098Y0135349D01*
X0103495Y0135948D02*
X0102499Y0135948D01*
X0101901Y0136546D02*
X0103247Y0136546D01*
X0103233Y0137145D02*
X0101302Y0137145D01*
X0100704Y0137744D02*
X0103233Y0137744D01*
X0103387Y0138342D02*
X0100633Y0138342D01*
X0100633Y0138941D02*
X0103635Y0138941D01*
X0104047Y0139539D02*
X0100633Y0139539D01*
X0100633Y0140138D02*
X0104646Y0140138D01*
X0105942Y0140736D02*
X0100633Y0140736D01*
X0100633Y0141335D02*
X0147112Y0141335D01*
X0146289Y0140736D02*
X0112725Y0140736D01*
X0114021Y0140138D02*
X0145690Y0140138D01*
X0145292Y0139539D02*
X0114620Y0139539D01*
X0115032Y0138941D02*
X0145044Y0138941D01*
X0144796Y0138342D02*
X0115280Y0138342D01*
X0115433Y0137744D02*
X0144733Y0137744D01*
X0144733Y0137145D02*
X0115433Y0137145D01*
X0115420Y0136546D02*
X0144733Y0136546D01*
X0144904Y0135948D02*
X0115172Y0135948D01*
X0112630Y0143775D02*
X0113916Y0144308D01*
X0114900Y0145293D01*
X0115433Y0146579D01*
X0115433Y0147972D01*
X0114900Y0149258D01*
X0113916Y0150243D01*
X0112630Y0150775D01*
X0106037Y0150775D01*
X0104751Y0150243D01*
X0103766Y0149258D01*
X0103233Y0147972D01*
X0103233Y0146579D01*
X0103766Y0145293D01*
X0104751Y0144308D01*
X0106037Y0143775D01*
X0112630Y0143775D01*
X0113935Y0144327D02*
X0145776Y0144327D01*
X0145434Y0144670D02*
X0146728Y0143376D01*
X0148418Y0142675D01*
X0150248Y0142675D01*
X0151939Y0143376D01*
X0153233Y0144670D01*
X0153933Y0146360D01*
X0153933Y0148190D01*
X0153233Y0149881D01*
X0151939Y0151175D01*
X0150248Y0151875D01*
X0148418Y0151875D01*
X0146728Y0151175D01*
X0145434Y0149881D01*
X0144733Y0148190D01*
X0144733Y0146360D01*
X0145434Y0144670D01*
X0145328Y0144926D02*
X0114533Y0144926D01*
X0114996Y0145524D02*
X0145080Y0145524D01*
X0144832Y0146123D02*
X0115244Y0146123D01*
X0115433Y0146721D02*
X0144733Y0146721D01*
X0144733Y0147320D02*
X0115433Y0147320D01*
X0115433Y0147918D02*
X0144733Y0147918D01*
X0144868Y0148517D02*
X0115208Y0148517D01*
X0114960Y0149115D02*
X0145116Y0149115D01*
X0145364Y0149714D02*
X0114445Y0149714D01*
X0113748Y0150312D02*
X0145865Y0150312D01*
X0146463Y0150911D02*
X0100633Y0150911D01*
X0100633Y0151509D02*
X0147534Y0151509D01*
X0148344Y0152706D02*
X0100633Y0152706D01*
X0100633Y0152108D02*
X0155734Y0152108D01*
X0155734Y0152706D02*
X0150323Y0152706D01*
X0150248Y0152675D02*
X0151939Y0153376D01*
X0153233Y0154670D01*
X0153933Y0156360D01*
X0153933Y0158190D01*
X0153233Y0159881D01*
X0151939Y0161175D01*
X0150248Y0161875D01*
X0148418Y0161875D01*
X0146728Y0161175D01*
X0145434Y0159881D01*
X0144733Y0158190D01*
X0144733Y0156360D01*
X0145434Y0154670D01*
X0146728Y0153376D01*
X0148418Y0152675D01*
X0150248Y0152675D01*
X0151132Y0151509D02*
X0155734Y0151509D01*
X0155734Y0150911D02*
X0152203Y0150911D01*
X0152802Y0150312D02*
X0155734Y0150312D01*
X0155734Y0149714D02*
X0153302Y0149714D01*
X0153550Y0149115D02*
X0155734Y0149115D01*
X0155734Y0148517D02*
X0153798Y0148517D01*
X0153933Y0147918D02*
X0155734Y0147918D01*
X0155734Y0147320D02*
X0153933Y0147320D01*
X0153933Y0146721D02*
X0155734Y0146721D01*
X0155734Y0146123D02*
X0153835Y0146123D01*
X0153587Y0145524D02*
X0155734Y0145524D01*
X0155734Y0144926D02*
X0153339Y0144926D01*
X0152890Y0144327D02*
X0155734Y0144327D01*
X0155734Y0143729D02*
X0152292Y0143729D01*
X0151346Y0143130D02*
X0155734Y0143130D01*
X0155734Y0142532D02*
X0100633Y0142532D01*
X0100633Y0143130D02*
X0147321Y0143130D01*
X0146375Y0143729D02*
X0100633Y0143729D01*
X0100633Y0144327D02*
X0104732Y0144327D01*
X0104133Y0144926D02*
X0100633Y0144926D01*
X0100633Y0145524D02*
X0103670Y0145524D01*
X0103422Y0146123D02*
X0100633Y0146123D01*
X0100633Y0146721D02*
X0103233Y0146721D01*
X0103233Y0147320D02*
X0100633Y0147320D01*
X0100633Y0147918D02*
X0103233Y0147918D01*
X0103459Y0148517D02*
X0100633Y0148517D01*
X0100633Y0149115D02*
X0103707Y0149115D01*
X0104222Y0149714D02*
X0100633Y0149714D01*
X0100633Y0150312D02*
X0104919Y0150312D01*
X0106037Y0153775D02*
X0112630Y0153775D01*
X0113916Y0154308D01*
X0114900Y0155293D01*
X0115433Y0156579D01*
X0115433Y0157972D01*
X0114900Y0159258D01*
X0113916Y0160243D01*
X0112630Y0160775D01*
X0106037Y0160775D01*
X0104751Y0160243D01*
X0103766Y0159258D01*
X0103233Y0157972D01*
X0103233Y0156579D01*
X0103766Y0155293D01*
X0104751Y0154308D01*
X0106037Y0153775D01*
X0105729Y0153903D02*
X0100633Y0153903D01*
X0100633Y0153305D02*
X0146899Y0153305D01*
X0146200Y0153903D02*
X0112938Y0153903D01*
X0114109Y0154502D02*
X0145602Y0154502D01*
X0145255Y0155100D02*
X0114708Y0155100D01*
X0115069Y0155699D02*
X0145007Y0155699D01*
X0144759Y0156297D02*
X0115317Y0156297D01*
X0115433Y0156896D02*
X0144733Y0156896D01*
X0144733Y0157494D02*
X0115433Y0157494D01*
X0115383Y0158093D02*
X0144733Y0158093D01*
X0144941Y0158691D02*
X0115135Y0158691D01*
X0114869Y0159290D02*
X0145189Y0159290D01*
X0145441Y0159888D02*
X0114270Y0159888D01*
X0113326Y0160487D02*
X0146039Y0160487D01*
X0146638Y0161085D02*
X0100633Y0161085D01*
X0100633Y0160487D02*
X0105341Y0160487D01*
X0104397Y0159888D02*
X0100633Y0159888D01*
X0100633Y0159290D02*
X0103798Y0159290D01*
X0103531Y0158691D02*
X0100633Y0158691D01*
X0100633Y0158093D02*
X0103284Y0158093D01*
X0103233Y0157494D02*
X0100633Y0157494D01*
X0100633Y0156896D02*
X0103233Y0156896D01*
X0103350Y0156297D02*
X0100633Y0156297D01*
X0100633Y0155699D02*
X0103598Y0155699D01*
X0103959Y0155100D02*
X0100633Y0155100D01*
X0100633Y0154502D02*
X0104557Y0154502D01*
X0100633Y0161684D02*
X0147956Y0161684D01*
X0148418Y0162675D02*
X0146728Y0163376D01*
X0145434Y0164670D01*
X0144733Y0166360D01*
X0144733Y0168190D01*
X0145434Y0169881D01*
X0146728Y0171175D01*
X0148418Y0171875D01*
X0150248Y0171875D01*
X0151939Y0171175D01*
X0153233Y0169881D01*
X0153933Y0168190D01*
X0153933Y0166360D01*
X0153233Y0164670D01*
X0151939Y0163376D01*
X0150248Y0162675D01*
X0148418Y0162675D01*
X0147922Y0162881D02*
X0100633Y0162881D01*
X0100633Y0163479D02*
X0105826Y0163479D01*
X0105596Y0163525D02*
X0106349Y0163375D01*
X0109033Y0163375D01*
X0109033Y0166975D01*
X0109633Y0166975D01*
X0109633Y0163375D01*
X0112317Y0163375D01*
X0113071Y0163525D01*
X0113781Y0163819D01*
X0114419Y0164246D01*
X0114963Y0164789D01*
X0115389Y0165428D01*
X0115683Y0166138D01*
X0115833Y0166891D01*
X0115833Y0166975D01*
X0109633Y0166975D01*
X0109633Y0167575D01*
X0115833Y0167575D01*
X0115833Y0167660D01*
X0115683Y0168413D01*
X0115389Y0169123D01*
X0114963Y0169762D01*
X0114419Y0170305D01*
X0113781Y0170732D01*
X0113071Y0171026D01*
X0112317Y0171175D01*
X0109633Y0171175D01*
X0109633Y0167576D01*
X0109033Y0167576D01*
X0109033Y0171175D01*
X0106349Y0171175D01*
X0105596Y0171026D01*
X0104886Y0170732D01*
X0104247Y0170305D01*
X0103704Y0169762D01*
X0103277Y0169123D01*
X0102983Y0168413D01*
X0102833Y0167660D01*
X0102833Y0167575D01*
X0109033Y0167575D01*
X0109033Y0166975D01*
X0102833Y0166975D01*
X0102833Y0166891D01*
X0102983Y0166138D01*
X0103277Y0165428D01*
X0103704Y0164789D01*
X0104247Y0164246D01*
X0104886Y0163819D01*
X0105596Y0163525D01*
X0104499Y0164078D02*
X0100633Y0164078D01*
X0100633Y0164677D02*
X0103817Y0164677D01*
X0103379Y0165275D02*
X0100633Y0165275D01*
X0100633Y0165874D02*
X0103093Y0165874D01*
X0102917Y0166472D02*
X0100633Y0166472D01*
X0100967Y0167071D02*
X0109033Y0167071D01*
X0109033Y0167669D02*
X0109633Y0167669D01*
X0109633Y0167071D02*
X0144733Y0167071D01*
X0144733Y0167669D02*
X0115831Y0167669D01*
X0115712Y0168268D02*
X0144765Y0168268D01*
X0145013Y0168866D02*
X0115496Y0168866D01*
X0115161Y0169465D02*
X0145261Y0169465D01*
X0145616Y0170063D02*
X0114661Y0170063D01*
X0113885Y0170662D02*
X0146214Y0170662D01*
X0146933Y0171260D02*
X0105156Y0171260D01*
X0104781Y0170662D02*
X0104558Y0170662D01*
X0104006Y0170063D02*
X0103959Y0170063D01*
X0103506Y0169465D02*
X0103361Y0169465D01*
X0103171Y0168866D02*
X0102762Y0168866D01*
X0102954Y0168268D02*
X0102164Y0168268D01*
X0101565Y0167669D02*
X0102835Y0167669D01*
X0100283Y0170063D02*
X0074095Y0170063D01*
X0073916Y0170243D02*
X0072630Y0170775D01*
X0066037Y0170775D01*
X0064751Y0170243D01*
X0063766Y0169258D01*
X0063233Y0167972D01*
X0063233Y0166579D01*
X0063766Y0165293D01*
X0064751Y0164308D01*
X0066037Y0163775D01*
X0072630Y0163775D01*
X0073916Y0164308D01*
X0074900Y0165293D01*
X0075433Y0166579D01*
X0075433Y0167972D01*
X0074900Y0169258D01*
X0073916Y0170243D01*
X0072904Y0170662D02*
X0100881Y0170662D01*
X0101480Y0171260D02*
X0011734Y0171260D01*
X0012453Y0170662D02*
X0065762Y0170662D01*
X0064571Y0170063D02*
X0013051Y0170063D01*
X0013406Y0169465D02*
X0063973Y0169465D01*
X0063604Y0168866D02*
X0013653Y0168866D01*
X0013901Y0168268D02*
X0063356Y0168268D01*
X0063233Y0167669D02*
X0013933Y0167669D01*
X0013933Y0167071D02*
X0063233Y0167071D01*
X0063278Y0166472D02*
X0013933Y0166472D01*
X0013732Y0165874D02*
X0063526Y0165874D01*
X0063784Y0165275D02*
X0013484Y0165275D01*
X0013236Y0164677D02*
X0064383Y0164677D01*
X0065307Y0164078D02*
X0012641Y0164078D01*
X0012043Y0163479D02*
X0098033Y0163479D01*
X0098033Y0162881D02*
X0010744Y0162881D01*
X0010711Y0161684D02*
X0098033Y0161684D01*
X0098033Y0162282D02*
X0005633Y0162282D01*
X0005633Y0161684D02*
X0007956Y0161684D01*
X0007922Y0162881D02*
X0005633Y0162881D01*
X0005633Y0163479D02*
X0006624Y0163479D01*
X0006025Y0164078D02*
X0005633Y0164078D01*
X0005633Y0161085D02*
X0006638Y0161085D01*
X0006039Y0160487D02*
X0005633Y0160487D01*
X0012029Y0161085D02*
X0098033Y0161085D01*
X0098033Y0160487D02*
X0073326Y0160487D01*
X0073916Y0160243D02*
X0072630Y0160775D01*
X0066037Y0160775D01*
X0064751Y0160243D01*
X0063766Y0159258D01*
X0063233Y0157972D01*
X0063233Y0156579D01*
X0063766Y0155293D01*
X0064751Y0154308D01*
X0066037Y0153775D01*
X0072630Y0153775D01*
X0073916Y0154308D01*
X0074900Y0155293D01*
X0075433Y0156579D01*
X0075433Y0157972D01*
X0074900Y0159258D01*
X0073916Y0160243D01*
X0074270Y0159888D02*
X0098033Y0159888D01*
X0098033Y0159290D02*
X0074869Y0159290D01*
X0075135Y0158691D02*
X0098033Y0158691D01*
X0098033Y0158093D02*
X0075383Y0158093D01*
X0075433Y0157494D02*
X0098033Y0157494D01*
X0098033Y0156896D02*
X0075433Y0156896D01*
X0075317Y0156297D02*
X0098033Y0156297D01*
X0098033Y0155699D02*
X0075069Y0155699D01*
X0074708Y0155100D02*
X0098033Y0155100D01*
X0098033Y0154502D02*
X0074109Y0154502D01*
X0072938Y0153903D02*
X0098033Y0153903D01*
X0098033Y0153305D02*
X0011768Y0153305D01*
X0012467Y0153903D02*
X0065729Y0153903D01*
X0064557Y0154502D02*
X0013065Y0154502D01*
X0013411Y0155100D02*
X0063959Y0155100D01*
X0063598Y0155699D02*
X0013659Y0155699D01*
X0013907Y0156297D02*
X0063350Y0156297D01*
X0063233Y0156896D02*
X0013933Y0156896D01*
X0013933Y0157494D02*
X0063233Y0157494D01*
X0063284Y0158093D02*
X0013933Y0158093D01*
X0013726Y0158691D02*
X0063531Y0158691D01*
X0063798Y0159290D02*
X0013478Y0159290D01*
X0013226Y0159888D02*
X0064397Y0159888D01*
X0065341Y0160487D02*
X0012627Y0160487D01*
X0010323Y0152706D02*
X0098033Y0152706D01*
X0098033Y0152108D02*
X0005633Y0152108D01*
X0005633Y0152706D02*
X0008344Y0152706D01*
X0007534Y0151509D02*
X0005633Y0151509D01*
X0005633Y0150911D02*
X0006463Y0150911D01*
X0005865Y0150312D02*
X0005633Y0150312D01*
X0005633Y0153305D02*
X0006899Y0153305D01*
X0006200Y0153903D02*
X0005633Y0153903D01*
X0011132Y0151509D02*
X0098033Y0151509D01*
X0098033Y0150911D02*
X0012203Y0150911D01*
X0012802Y0150312D02*
X0064919Y0150312D01*
X0064751Y0150243D02*
X0063766Y0149258D01*
X0063233Y0147972D01*
X0063233Y0146579D01*
X0063766Y0145293D01*
X0064751Y0144308D01*
X0066037Y0143775D01*
X0072630Y0143775D01*
X0073916Y0144308D01*
X0074900Y0145293D01*
X0075433Y0146579D01*
X0075433Y0147972D01*
X0074900Y0149258D01*
X0073916Y0150243D01*
X0072630Y0150775D01*
X0066037Y0150775D01*
X0064751Y0150243D01*
X0064222Y0149714D02*
X0013302Y0149714D01*
X0013550Y0149115D02*
X0063707Y0149115D01*
X0063459Y0148517D02*
X0013798Y0148517D01*
X0013933Y0147918D02*
X0063233Y0147918D01*
X0063233Y0147320D02*
X0013933Y0147320D01*
X0013933Y0146721D02*
X0063233Y0146721D01*
X0063422Y0146123D02*
X0013835Y0146123D01*
X0013587Y0145524D02*
X0063670Y0145524D01*
X0064133Y0144926D02*
X0013339Y0144926D01*
X0012890Y0144327D02*
X0064732Y0144327D01*
X0066037Y0140775D02*
X0064751Y0140243D01*
X0063766Y0139258D01*
X0063233Y0137972D01*
X0063233Y0136579D01*
X0063766Y0135293D01*
X0064751Y0134308D01*
X0066037Y0133775D01*
X0072630Y0133775D01*
X0073916Y0134308D01*
X0074900Y0135293D01*
X0075433Y0136579D01*
X0075433Y0137972D01*
X0074900Y0139258D01*
X0073916Y0140243D01*
X0072630Y0140775D01*
X0066037Y0140775D01*
X0065942Y0140736D02*
X0012378Y0140736D01*
X0012977Y0140138D02*
X0064646Y0140138D01*
X0064047Y0139539D02*
X0013375Y0139539D01*
X0013623Y0138941D02*
X0063635Y0138941D01*
X0063387Y0138342D02*
X0013871Y0138342D01*
X0013933Y0137744D02*
X0063233Y0137744D01*
X0063233Y0137145D02*
X0013933Y0137145D01*
X0013933Y0136546D02*
X0063247Y0136546D01*
X0063495Y0135948D02*
X0013762Y0135948D01*
X0013515Y0135349D02*
X0063743Y0135349D01*
X0064308Y0134751D02*
X0013267Y0134751D01*
X0012716Y0134152D02*
X0065127Y0134152D01*
X0072725Y0140736D02*
X0098033Y0140736D01*
X0098033Y0140138D02*
X0074021Y0140138D01*
X0074620Y0139539D02*
X0098033Y0139539D01*
X0098033Y0138941D02*
X0075032Y0138941D01*
X0075280Y0138342D02*
X0098033Y0138342D01*
X0098033Y0137744D02*
X0075433Y0137744D01*
X0075433Y0137145D02*
X0098033Y0137145D01*
X0098224Y0136546D02*
X0075420Y0136546D01*
X0075172Y0135948D02*
X0098822Y0135948D01*
X0099421Y0135349D02*
X0074924Y0135349D01*
X0074359Y0134751D02*
X0100019Y0134751D01*
X0100618Y0134152D02*
X0073540Y0134152D01*
X0073935Y0144327D02*
X0098033Y0144327D01*
X0098033Y0143729D02*
X0012292Y0143729D01*
X0011346Y0143130D02*
X0098033Y0143130D01*
X0098033Y0142532D02*
X0005633Y0142532D01*
X0005633Y0143130D02*
X0007321Y0143130D01*
X0006375Y0143729D02*
X0005633Y0143729D01*
X0005633Y0144327D02*
X0005776Y0144327D01*
X0005633Y0141933D02*
X0098033Y0141933D01*
X0098033Y0141335D02*
X0011554Y0141335D01*
X0007112Y0141335D02*
X0005633Y0141335D01*
X0005633Y0140736D02*
X0006289Y0140736D01*
X0005690Y0140138D02*
X0005633Y0140138D01*
X0005633Y0134152D02*
X0005951Y0134152D01*
X0005633Y0133554D02*
X0006549Y0133554D01*
X0005633Y0132955D02*
X0007742Y0132955D01*
X0008136Y0131758D02*
X0005633Y0131758D01*
X0005633Y0131160D02*
X0006712Y0131160D01*
X0006114Y0130561D02*
X0005633Y0130561D01*
X0005633Y0132357D02*
X0102413Y0132357D01*
X0101815Y0132955D02*
X0010924Y0132955D01*
X0010531Y0131758D02*
X0103012Y0131758D01*
X0101216Y0133554D02*
X0012117Y0133554D01*
X0006126Y0123978D02*
X0005633Y0123978D01*
X0005633Y0123379D02*
X0006724Y0123379D01*
X0005633Y0122781D02*
X0008164Y0122781D01*
X0007714Y0121584D02*
X0005633Y0121584D01*
X0005633Y0122182D02*
X0123351Y0122182D01*
X0123164Y0122781D02*
X0010502Y0122781D01*
X0010953Y0121584D02*
X0121775Y0121584D01*
X0120972Y0120985D02*
X0012129Y0120985D01*
X0012727Y0120387D02*
X0065098Y0120387D01*
X0064296Y0119788D02*
X0013272Y0119788D01*
X0013519Y0119190D02*
X0063738Y0119190D01*
X0063490Y0118591D02*
X0013767Y0118591D01*
X0013933Y0117993D02*
X0063242Y0117993D01*
X0063233Y0117394D02*
X0013933Y0117394D01*
X0013933Y0116796D02*
X0063233Y0116796D01*
X0063392Y0116197D02*
X0013866Y0116197D01*
X0013618Y0115599D02*
X0063640Y0115599D01*
X0064059Y0115000D02*
X0013447Y0115000D01*
X0014046Y0114402D02*
X0064657Y0114402D01*
X0065971Y0113803D02*
X0014644Y0113803D01*
X0015243Y0113205D02*
X0083424Y0113205D01*
X0084022Y0113803D02*
X0072696Y0113803D01*
X0074009Y0114402D02*
X0084621Y0114402D01*
X0085219Y0115000D02*
X0074608Y0115000D01*
X0075027Y0115599D02*
X0085818Y0115599D01*
X0086416Y0116197D02*
X0075275Y0116197D01*
X0075433Y0116796D02*
X0086944Y0116796D01*
X0086944Y0117394D02*
X0075433Y0117394D01*
X0075425Y0117993D02*
X0086944Y0117993D01*
X0087270Y0118591D02*
X0075177Y0118591D01*
X0074929Y0119190D02*
X0087869Y0119190D01*
X0082825Y0112606D02*
X0015841Y0112606D01*
X0016440Y0112008D02*
X0082227Y0112008D01*
X0081628Y0111409D02*
X0056374Y0111409D01*
X0056939Y0111175D02*
X0058233Y0109881D01*
X0058933Y0108190D01*
X0058933Y0106360D01*
X0058233Y0104670D01*
X0056939Y0103376D01*
X0055248Y0102675D01*
X0053418Y0102675D01*
X0051728Y0103376D01*
X0050434Y0104670D01*
X0049733Y0106360D01*
X0049733Y0108190D01*
X0050434Y0109881D01*
X0051728Y0111175D01*
X0053418Y0111875D01*
X0055248Y0111875D01*
X0056939Y0111175D01*
X0057304Y0110810D02*
X0065076Y0110810D01*
X0064886Y0110732D02*
X0065596Y0111026D01*
X0066349Y0111175D01*
X0069033Y0111175D01*
X0069033Y0107576D01*
X0069633Y0107576D01*
X0069633Y0111175D01*
X0072317Y0111175D01*
X0073071Y0111026D01*
X0073781Y0110732D01*
X0074419Y0110305D01*
X0074963Y0109762D01*
X0075389Y0109123D01*
X0075683Y0108413D01*
X0075833Y0107660D01*
X0075833Y0107575D01*
X0069633Y0107575D01*
X0069633Y0106975D01*
X0069633Y0103375D01*
X0072317Y0103375D01*
X0073071Y0103525D01*
X0073781Y0103819D01*
X0074419Y0104246D01*
X0074963Y0104789D01*
X0075389Y0105428D01*
X0075683Y0106138D01*
X0075833Y0106891D01*
X0075833Y0106975D01*
X0069633Y0106975D01*
X0069033Y0106975D01*
X0069033Y0103375D01*
X0066349Y0103375D01*
X0065596Y0103525D01*
X0064886Y0103819D01*
X0064247Y0104246D01*
X0063704Y0104789D01*
X0063277Y0105428D01*
X0062983Y0106138D01*
X0062833Y0106891D01*
X0062833Y0106975D01*
X0069033Y0106975D01*
X0069033Y0107575D01*
X0062833Y0107575D01*
X0062833Y0107660D01*
X0062983Y0108413D01*
X0063277Y0109123D01*
X0063704Y0109762D01*
X0064247Y0110305D01*
X0064886Y0110732D01*
X0064154Y0110212D02*
X0057902Y0110212D01*
X0058344Y0109613D02*
X0063605Y0109613D01*
X0063233Y0109015D02*
X0058592Y0109015D01*
X0058840Y0108416D02*
X0062985Y0108416D01*
X0062865Y0107818D02*
X0058933Y0107818D01*
X0058933Y0107219D02*
X0069033Y0107219D01*
X0069033Y0106621D02*
X0069633Y0106621D01*
X0069633Y0107219D02*
X0080474Y0107219D01*
X0080474Y0106621D02*
X0075780Y0106621D01*
X0075636Y0106022D02*
X0080474Y0106022D01*
X0080474Y0105424D02*
X0075387Y0105424D01*
X0074987Y0104825D02*
X0080474Y0104825D01*
X0080474Y0104227D02*
X0074391Y0104227D01*
X0073320Y0103628D02*
X0080474Y0103628D01*
X0080474Y0103030D02*
X0056104Y0103030D01*
X0055504Y0102152D02*
X0054727Y0102275D01*
X0054633Y0102275D01*
X0054633Y0097576D01*
X0054033Y0097576D01*
X0054033Y0102275D01*
X0053940Y0102275D01*
X0053162Y0102152D01*
X0052414Y0101909D01*
X0051713Y0101552D01*
X0051076Y0101089D01*
X0050520Y0100533D01*
X0050057Y0099896D01*
X0049700Y0099195D01*
X0049456Y0098446D01*
X0049333Y0097669D01*
X0049333Y0097575D01*
X0054033Y0097575D01*
X0054033Y0096975D01*
X0054633Y0096975D01*
X0054633Y0092275D01*
X0054727Y0092275D01*
X0055504Y0092399D01*
X0056253Y0092642D01*
X0056954Y0092999D01*
X0057591Y0093462D01*
X0058147Y0094018D01*
X0058610Y0094655D01*
X0058967Y0095356D01*
X0059210Y0096105D01*
X0059333Y0096882D01*
X0059333Y0096975D01*
X0054633Y0096975D01*
X0054633Y0097575D01*
X0059333Y0097575D01*
X0059333Y0097669D01*
X0059210Y0098446D01*
X0058967Y0099195D01*
X0058610Y0099896D01*
X0058147Y0100533D01*
X0057591Y0101089D01*
X0056954Y0101552D01*
X0056253Y0101909D01*
X0055504Y0102152D01*
X0054633Y0101833D02*
X0054033Y0101833D01*
X0054033Y0101234D02*
X0054633Y0101234D01*
X0054633Y0100636D02*
X0054033Y0100636D01*
X0054033Y0100037D02*
X0054633Y0100037D01*
X0054633Y0099439D02*
X0054033Y0099439D01*
X0054033Y0098840D02*
X0054633Y0098840D01*
X0054633Y0098242D02*
X0054033Y0098242D01*
X0054033Y0097643D02*
X0054633Y0097643D01*
X0054633Y0097045D02*
X0063233Y0097045D01*
X0063233Y0096579D02*
X0063233Y0097972D01*
X0063766Y0099258D01*
X0064751Y0100243D01*
X0066037Y0100775D01*
X0072630Y0100775D01*
X0073916Y0100243D01*
X0074900Y0099258D01*
X0075433Y0097972D01*
X0075433Y0096579D01*
X0074900Y0095293D01*
X0073916Y0094308D01*
X0072630Y0093775D01*
X0066037Y0093775D01*
X0064751Y0094308D01*
X0063766Y0095293D01*
X0063233Y0096579D01*
X0063288Y0096446D02*
X0059264Y0096446D01*
X0059127Y0095848D02*
X0063536Y0095848D01*
X0063810Y0095249D02*
X0058913Y0095249D01*
X0058607Y0094651D02*
X0064408Y0094651D01*
X0065369Y0094052D02*
X0058172Y0094052D01*
X0057580Y0093454D02*
X0080474Y0093454D01*
X0080474Y0094052D02*
X0073298Y0094052D01*
X0074258Y0094651D02*
X0080474Y0094651D01*
X0080474Y0095249D02*
X0074857Y0095249D01*
X0075130Y0095848D02*
X0080474Y0095848D01*
X0080474Y0096446D02*
X0075378Y0096446D01*
X0075433Y0097045D02*
X0080474Y0097045D01*
X0080474Y0097643D02*
X0075433Y0097643D01*
X0075321Y0098242D02*
X0080474Y0098242D01*
X0080474Y0098840D02*
X0075074Y0098840D01*
X0074720Y0099439D02*
X0080474Y0099439D01*
X0080474Y0100037D02*
X0074121Y0100037D01*
X0072967Y0100636D02*
X0080474Y0100636D01*
X0080474Y0101234D02*
X0057391Y0101234D01*
X0058044Y0100636D02*
X0065700Y0100636D01*
X0064545Y0100037D02*
X0058507Y0100037D01*
X0058843Y0099439D02*
X0063947Y0099439D01*
X0063593Y0098840D02*
X0059082Y0098840D01*
X0059243Y0098242D02*
X0063345Y0098242D01*
X0063233Y0097643D02*
X0059333Y0097643D01*
X0056402Y0101833D02*
X0080474Y0101833D01*
X0080474Y0102431D02*
X0025633Y0102431D01*
X0025633Y0101833D02*
X0052264Y0101833D01*
X0051276Y0101234D02*
X0025633Y0101234D01*
X0025633Y0100636D02*
X0050623Y0100636D01*
X0050160Y0100037D02*
X0025633Y0100037D01*
X0025633Y0099439D02*
X0049824Y0099439D01*
X0049584Y0098840D02*
X0025633Y0098840D01*
X0025633Y0098242D02*
X0049424Y0098242D01*
X0049333Y0097643D02*
X0025633Y0097643D01*
X0025633Y0097045D02*
X0054033Y0097045D01*
X0054033Y0096975D02*
X0049333Y0096975D01*
X0049333Y0096882D01*
X0049456Y0096105D01*
X0049700Y0095356D01*
X0050057Y0094655D01*
X0050520Y0094018D01*
X0051076Y0093462D01*
X0051713Y0092999D01*
X0052414Y0092642D01*
X0053162Y0092399D01*
X0053940Y0092275D01*
X0054033Y0092275D01*
X0054033Y0096975D01*
X0054033Y0096446D02*
X0054633Y0096446D01*
X0054633Y0095848D02*
X0054033Y0095848D01*
X0054033Y0095249D02*
X0054633Y0095249D01*
X0054633Y0094651D02*
X0054033Y0094651D01*
X0054033Y0094052D02*
X0054633Y0094052D01*
X0054633Y0093454D02*
X0054033Y0093454D01*
X0054033Y0092855D02*
X0054633Y0092855D01*
X0055248Y0091875D02*
X0053418Y0091875D01*
X0051728Y0091175D01*
X0050434Y0089881D01*
X0049733Y0088190D01*
X0049733Y0086360D01*
X0050434Y0084670D01*
X0051728Y0083376D01*
X0053418Y0082675D01*
X0055248Y0082675D01*
X0056939Y0083376D01*
X0058233Y0084670D01*
X0058933Y0086360D01*
X0058933Y0088190D01*
X0058233Y0089881D01*
X0056939Y0091175D01*
X0055248Y0091875D01*
X0055773Y0091658D02*
X0080474Y0091658D01*
X0080474Y0091060D02*
X0057055Y0091060D01*
X0057653Y0090461D02*
X0065278Y0090461D01*
X0064751Y0090243D02*
X0066037Y0090775D01*
X0072630Y0090775D01*
X0073916Y0090243D01*
X0074900Y0089258D01*
X0075433Y0087972D01*
X0075433Y0086579D01*
X0074900Y0085293D01*
X0073916Y0084308D01*
X0072630Y0083775D01*
X0066037Y0083775D01*
X0064751Y0084308D01*
X0063766Y0085293D01*
X0063233Y0086579D01*
X0063233Y0087972D01*
X0063766Y0089258D01*
X0064751Y0090243D01*
X0064371Y0089863D02*
X0058241Y0089863D01*
X0058489Y0089264D02*
X0063772Y0089264D01*
X0063521Y0088666D02*
X0058737Y0088666D01*
X0058933Y0088067D02*
X0063273Y0088067D01*
X0063233Y0087469D02*
X0058933Y0087469D01*
X0058933Y0086870D02*
X0063233Y0086870D01*
X0063361Y0086272D02*
X0058896Y0086272D01*
X0058649Y0085673D02*
X0063609Y0085673D01*
X0063985Y0085075D02*
X0058401Y0085075D01*
X0058039Y0084476D02*
X0064583Y0084476D01*
X0065791Y0083877D02*
X0057441Y0083877D01*
X0056705Y0083279D02*
X0080474Y0083279D01*
X0080474Y0083877D02*
X0072876Y0083877D01*
X0074084Y0084476D02*
X0080474Y0084476D01*
X0080474Y0085075D02*
X0074682Y0085075D01*
X0075058Y0085673D02*
X0080474Y0085673D01*
X0080474Y0086272D02*
X0075306Y0086272D01*
X0075433Y0086870D02*
X0080474Y0086870D01*
X0080474Y0087469D02*
X0075433Y0087469D01*
X0075394Y0088067D02*
X0080474Y0088067D01*
X0080474Y0088666D02*
X0075146Y0088666D01*
X0074894Y0089264D02*
X0080474Y0089264D01*
X0080474Y0089863D02*
X0074296Y0089863D01*
X0073388Y0090461D02*
X0080474Y0090461D01*
X0080474Y0092257D02*
X0025633Y0092257D01*
X0025633Y0092855D02*
X0051995Y0092855D01*
X0051087Y0093454D02*
X0025633Y0093454D01*
X0025633Y0094052D02*
X0050495Y0094052D01*
X0050060Y0094651D02*
X0025633Y0094651D01*
X0025633Y0095249D02*
X0049754Y0095249D01*
X0049540Y0095848D02*
X0025633Y0095848D01*
X0025633Y0096446D02*
X0049402Y0096446D01*
X0051612Y0091060D02*
X0025633Y0091060D01*
X0025633Y0091658D02*
X0052894Y0091658D01*
X0051014Y0090461D02*
X0025633Y0090461D01*
X0025633Y0089863D02*
X0050426Y0089863D01*
X0050178Y0089264D02*
X0025633Y0089264D01*
X0025633Y0088666D02*
X0049930Y0088666D01*
X0049733Y0088067D02*
X0025633Y0088067D01*
X0025979Y0087469D02*
X0049733Y0087469D01*
X0049733Y0086870D02*
X0026577Y0086870D01*
X0027176Y0086272D02*
X0049770Y0086272D01*
X0050018Y0085673D02*
X0027774Y0085673D01*
X0028373Y0085075D02*
X0050266Y0085075D01*
X0050627Y0084476D02*
X0028971Y0084476D01*
X0029570Y0083877D02*
X0051226Y0083877D01*
X0051961Y0083279D02*
X0030168Y0083279D01*
X0030767Y0082680D02*
X0053406Y0082680D01*
X0055260Y0082680D02*
X0080474Y0082680D01*
X0080474Y0082082D02*
X0031365Y0082082D01*
X0031964Y0081483D02*
X0042211Y0081483D01*
X0041671Y0081260D02*
X0040349Y0079938D01*
X0039633Y0078210D01*
X0039633Y0076341D01*
X0040349Y0074613D01*
X0041671Y0073291D01*
X0043398Y0072575D01*
X0045268Y0072575D01*
X0046996Y0073291D01*
X0048318Y0074613D01*
X0049033Y0076341D01*
X0049033Y0078210D01*
X0048318Y0079938D01*
X0046996Y0081260D01*
X0045268Y0081975D01*
X0043398Y0081975D01*
X0041671Y0081260D01*
X0041296Y0080885D02*
X0032562Y0080885D01*
X0033161Y0080286D02*
X0040697Y0080286D01*
X0040245Y0079688D02*
X0033759Y0079688D01*
X0034358Y0079089D02*
X0039997Y0079089D01*
X0039750Y0078491D02*
X0034956Y0078491D01*
X0035555Y0077892D02*
X0039633Y0077892D01*
X0039633Y0077294D02*
X0036153Y0077294D01*
X0036752Y0076695D02*
X0039633Y0076695D01*
X0039734Y0076097D02*
X0037350Y0076097D01*
X0037949Y0075498D02*
X0039982Y0075498D01*
X0040230Y0074900D02*
X0038547Y0074900D01*
X0039146Y0074301D02*
X0040661Y0074301D01*
X0041259Y0073703D02*
X0039744Y0073703D01*
X0040343Y0073104D02*
X0042122Y0073104D01*
X0040941Y0072506D02*
X0080474Y0072506D01*
X0080474Y0073104D02*
X0046545Y0073104D01*
X0047407Y0073703D02*
X0080474Y0073703D01*
X0080474Y0074301D02*
X0073899Y0074301D01*
X0073916Y0074308D02*
X0074900Y0075293D01*
X0075433Y0076579D01*
X0075433Y0077972D01*
X0074900Y0079258D01*
X0073916Y0080243D01*
X0072630Y0080775D01*
X0066037Y0080775D01*
X0064751Y0080243D01*
X0063766Y0079258D01*
X0063233Y0077972D01*
X0063233Y0076579D01*
X0063766Y0075293D01*
X0064751Y0074308D01*
X0066037Y0073775D01*
X0072630Y0073775D01*
X0073916Y0074308D01*
X0074507Y0074900D02*
X0080474Y0074900D01*
X0080474Y0075498D02*
X0074986Y0075498D01*
X0075233Y0076097D02*
X0080474Y0076097D01*
X0080474Y0076695D02*
X0075433Y0076695D01*
X0075433Y0077294D02*
X0080474Y0077294D01*
X0080474Y0077892D02*
X0075433Y0077892D01*
X0075218Y0078491D02*
X0080474Y0078491D01*
X0080474Y0079089D02*
X0074970Y0079089D01*
X0074471Y0079688D02*
X0080474Y0079688D01*
X0080474Y0080286D02*
X0073810Y0080286D01*
X0080474Y0080885D02*
X0047371Y0080885D01*
X0047969Y0080286D02*
X0064856Y0080286D01*
X0064196Y0079688D02*
X0048421Y0079688D01*
X0048669Y0079089D02*
X0063696Y0079089D01*
X0063448Y0078491D02*
X0048917Y0078491D01*
X0049033Y0077892D02*
X0063233Y0077892D01*
X0063233Y0077294D02*
X0049033Y0077294D01*
X0049033Y0076695D02*
X0063233Y0076695D01*
X0063433Y0076097D02*
X0048932Y0076097D01*
X0048684Y0075498D02*
X0063681Y0075498D01*
X0064159Y0074900D02*
X0048437Y0074900D01*
X0048006Y0074301D02*
X0064768Y0074301D01*
X0066037Y0070775D02*
X0064751Y0070243D01*
X0063766Y0069258D01*
X0063233Y0067972D01*
X0063233Y0066579D01*
X0063766Y0065293D01*
X0064751Y0064308D01*
X0066037Y0063775D01*
X0072630Y0063775D01*
X0073916Y0064308D01*
X0074900Y0065293D01*
X0075433Y0066579D01*
X0075433Y0067972D01*
X0074900Y0069258D01*
X0073916Y0070243D01*
X0072630Y0070775D01*
X0066037Y0070775D01*
X0065880Y0070710D02*
X0042737Y0070710D01*
X0043336Y0070112D02*
X0064620Y0070112D01*
X0064021Y0069513D02*
X0043934Y0069513D01*
X0044533Y0068915D02*
X0063624Y0068915D01*
X0063376Y0068316D02*
X0045131Y0068316D01*
X0045730Y0067718D02*
X0063233Y0067718D01*
X0063233Y0067119D02*
X0046328Y0067119D01*
X0046927Y0066521D02*
X0063258Y0066521D01*
X0063506Y0065922D02*
X0047525Y0065922D01*
X0048124Y0065324D02*
X0063753Y0065324D01*
X0064334Y0064725D02*
X0048722Y0064725D01*
X0049321Y0064127D02*
X0065189Y0064127D01*
X0072787Y0070710D02*
X0080474Y0070710D01*
X0080474Y0070112D02*
X0074047Y0070112D01*
X0074645Y0069513D02*
X0080474Y0069513D01*
X0080474Y0068915D02*
X0075043Y0068915D01*
X0075291Y0068316D02*
X0080474Y0068316D01*
X0080474Y0067718D02*
X0075433Y0067718D01*
X0075433Y0067119D02*
X0080474Y0067119D01*
X0080474Y0066521D02*
X0075409Y0066521D01*
X0075161Y0065922D02*
X0080474Y0065922D01*
X0080474Y0065324D02*
X0074913Y0065324D01*
X0074333Y0064725D02*
X0080474Y0064725D01*
X0080474Y0064127D02*
X0073477Y0064127D01*
X0080474Y0063528D02*
X0049919Y0063528D01*
X0050518Y0062930D02*
X0080474Y0062930D01*
X0080474Y0062331D02*
X0051116Y0062331D01*
X0051715Y0061733D02*
X0053073Y0061733D01*
X0055593Y0061733D02*
X0080474Y0061733D01*
X0085633Y0064127D02*
X0105189Y0064127D01*
X0104334Y0064725D02*
X0085633Y0064725D01*
X0085633Y0065324D02*
X0103753Y0065324D01*
X0103506Y0065922D02*
X0085633Y0065922D01*
X0085633Y0066521D02*
X0103258Y0066521D01*
X0103233Y0067119D02*
X0085633Y0067119D01*
X0085633Y0067718D02*
X0103233Y0067718D01*
X0103376Y0068316D02*
X0085633Y0068316D01*
X0085633Y0068915D02*
X0103624Y0068915D01*
X0104021Y0069513D02*
X0085633Y0069513D01*
X0085633Y0070112D02*
X0104620Y0070112D01*
X0105880Y0070710D02*
X0085633Y0070710D01*
X0080474Y0071309D02*
X0042139Y0071309D01*
X0041540Y0071907D02*
X0080474Y0071907D01*
X0080474Y0081483D02*
X0046456Y0081483D01*
X0037863Y0071907D02*
X0005633Y0071907D01*
X0005633Y0071309D02*
X0038462Y0071309D01*
X0039060Y0070710D02*
X0005633Y0070710D01*
X0005633Y0070112D02*
X0039659Y0070112D01*
X0040257Y0069513D02*
X0005633Y0069513D01*
X0005633Y0068915D02*
X0040856Y0068915D01*
X0041454Y0068316D02*
X0005633Y0068316D01*
X0005633Y0067718D02*
X0042053Y0067718D01*
X0042651Y0067119D02*
X0005633Y0067119D01*
X0005633Y0066521D02*
X0043250Y0066521D01*
X0043848Y0065922D02*
X0005633Y0065922D01*
X0005633Y0065324D02*
X0044447Y0065324D01*
X0045045Y0064725D02*
X0005633Y0064725D01*
X0005633Y0064127D02*
X0045644Y0064127D01*
X0046242Y0063528D02*
X0005633Y0063528D01*
X0005633Y0062930D02*
X0046841Y0062930D01*
X0047439Y0062331D02*
X0005633Y0062331D01*
X0005633Y0061733D02*
X0008073Y0061733D01*
X0006687Y0061134D02*
X0005633Y0061134D01*
X0005633Y0060536D02*
X0006088Y0060536D01*
X0010593Y0061733D02*
X0028073Y0061733D01*
X0028418Y0061875D02*
X0026728Y0061175D01*
X0025434Y0059881D01*
X0024733Y0058190D01*
X0024733Y0056360D01*
X0025434Y0054670D01*
X0026728Y0053376D01*
X0028418Y0052675D01*
X0030248Y0052675D01*
X0031939Y0053376D01*
X0033233Y0054670D01*
X0033933Y0056360D01*
X0033933Y0058190D01*
X0033233Y0059881D01*
X0031939Y0061175D01*
X0030248Y0061875D01*
X0028418Y0061875D01*
X0026687Y0061134D02*
X0011980Y0061134D01*
X0012579Y0060536D02*
X0026088Y0060536D01*
X0025490Y0059937D02*
X0013177Y0059937D01*
X0013458Y0059339D02*
X0025209Y0059339D01*
X0024961Y0058740D02*
X0013706Y0058740D01*
X0013933Y0058141D02*
X0024733Y0058141D01*
X0024733Y0057543D02*
X0013933Y0057543D01*
X0013933Y0056944D02*
X0024733Y0056944D01*
X0024739Y0056346D02*
X0013927Y0056346D01*
X0013679Y0055747D02*
X0024987Y0055747D01*
X0025235Y0055149D02*
X0013431Y0055149D01*
X0013114Y0054550D02*
X0025553Y0054550D01*
X0026152Y0053952D02*
X0012515Y0053952D01*
X0011885Y0053353D02*
X0026782Y0053353D01*
X0028227Y0052755D02*
X0010440Y0052755D01*
X0010479Y0052156D02*
X0053188Y0052156D01*
X0053227Y0052755D02*
X0040440Y0052755D01*
X0040248Y0052675D02*
X0041939Y0053376D01*
X0043233Y0054670D01*
X0043933Y0056360D01*
X0043933Y0058190D01*
X0043233Y0059881D01*
X0041939Y0061175D01*
X0040248Y0061875D01*
X0038418Y0061875D01*
X0036728Y0061175D01*
X0035434Y0059881D01*
X0034733Y0058190D01*
X0034733Y0056360D01*
X0035434Y0054670D01*
X0036728Y0053376D01*
X0038418Y0052675D01*
X0040248Y0052675D01*
X0041885Y0053353D02*
X0051782Y0053353D01*
X0051152Y0053952D02*
X0042515Y0053952D01*
X0043114Y0054550D02*
X0050553Y0054550D01*
X0050235Y0055149D02*
X0043431Y0055149D01*
X0043679Y0055747D02*
X0049987Y0055747D01*
X0049739Y0056346D02*
X0043927Y0056346D01*
X0043933Y0056944D02*
X0049733Y0056944D01*
X0049733Y0057543D02*
X0043933Y0057543D01*
X0043933Y0058141D02*
X0049733Y0058141D01*
X0049961Y0058740D02*
X0043706Y0058740D01*
X0043458Y0059339D02*
X0050209Y0059339D01*
X0049833Y0059937D02*
X0043177Y0059937D01*
X0042579Y0060536D02*
X0049235Y0060536D01*
X0048636Y0061134D02*
X0041980Y0061134D01*
X0040593Y0061733D02*
X0048038Y0061733D01*
X0051725Y0051558D02*
X0011942Y0051558D01*
X0012720Y0050959D02*
X0050946Y0050959D01*
X0050395Y0050361D02*
X0013272Y0050361D01*
X0013678Y0049762D02*
X0049989Y0049762D01*
X0049690Y0049164D02*
X0013977Y0049164D01*
X0014172Y0048565D02*
X0049495Y0048565D01*
X0049381Y0047967D02*
X0014286Y0047967D01*
X0014316Y0046770D02*
X0049351Y0046770D01*
X0049333Y0046882D02*
X0049456Y0046105D01*
X0049700Y0045356D01*
X0050057Y0044655D01*
X0050520Y0044018D01*
X0051076Y0043462D01*
X0051713Y0042999D01*
X0052414Y0042642D01*
X0053162Y0042399D01*
X0053940Y0042275D01*
X0054033Y0042275D01*
X0054033Y0046975D01*
X0049333Y0046975D01*
X0049333Y0046882D01*
X0049446Y0046171D02*
X0014221Y0046171D01*
X0014037Y0045573D02*
X0049629Y0045573D01*
X0049894Y0044974D02*
X0013772Y0044974D01*
X0013407Y0044376D02*
X0050260Y0044376D01*
X0050761Y0043777D02*
X0012906Y0043777D01*
X0012201Y0043179D02*
X0051466Y0043179D01*
X0052604Y0042580D02*
X0011063Y0042580D01*
X0009633Y0042580D02*
X0009033Y0042580D01*
X0009033Y0043179D02*
X0009633Y0043179D01*
X0009633Y0043777D02*
X0009033Y0043777D01*
X0009033Y0044376D02*
X0009633Y0044376D01*
X0009633Y0044974D02*
X0009033Y0044974D01*
X0009033Y0045573D02*
X0009633Y0045573D01*
X0009633Y0046171D02*
X0009033Y0046171D01*
X0009033Y0046770D02*
X0009633Y0046770D01*
X0009633Y0047368D02*
X0054033Y0047368D01*
X0054033Y0046770D02*
X0054633Y0046770D01*
X0054633Y0047368D02*
X0063233Y0047368D01*
X0063233Y0046770D02*
X0059316Y0046770D01*
X0059221Y0046171D02*
X0063402Y0046171D01*
X0063650Y0045573D02*
X0059037Y0045573D01*
X0058772Y0044974D02*
X0064085Y0044974D01*
X0064683Y0044376D02*
X0058407Y0044376D01*
X0057906Y0043777D02*
X0066033Y0043777D01*
X0063233Y0047967D02*
X0059286Y0047967D01*
X0059172Y0048565D02*
X0063479Y0048565D01*
X0063727Y0049164D02*
X0058977Y0049164D01*
X0058678Y0049762D02*
X0064270Y0049762D01*
X0065036Y0050361D02*
X0058272Y0050361D01*
X0054633Y0050361D02*
X0054033Y0050361D01*
X0054033Y0050959D02*
X0054633Y0050959D01*
X0054633Y0051558D02*
X0054033Y0051558D01*
X0054033Y0052156D02*
X0054633Y0052156D01*
X0054633Y0049762D02*
X0054033Y0049762D01*
X0054033Y0049164D02*
X0054633Y0049164D01*
X0054633Y0048565D02*
X0054033Y0048565D01*
X0054033Y0047967D02*
X0054633Y0047967D01*
X0054633Y0046171D02*
X0054033Y0046171D01*
X0054033Y0045573D02*
X0054633Y0045573D01*
X0054633Y0044974D02*
X0054033Y0044974D01*
X0054033Y0044376D02*
X0054633Y0044376D01*
X0054633Y0043777D02*
X0054033Y0043777D01*
X0054033Y0043179D02*
X0054633Y0043179D01*
X0054633Y0042580D02*
X0054033Y0042580D01*
X0038227Y0052755D02*
X0030440Y0052755D01*
X0031885Y0053353D02*
X0036782Y0053353D01*
X0036152Y0053952D02*
X0032515Y0053952D01*
X0033114Y0054550D02*
X0035553Y0054550D01*
X0035235Y0055149D02*
X0033431Y0055149D01*
X0033679Y0055747D02*
X0034987Y0055747D01*
X0034739Y0056346D02*
X0033927Y0056346D01*
X0033933Y0056944D02*
X0034733Y0056944D01*
X0034733Y0057543D02*
X0033933Y0057543D01*
X0033933Y0058141D02*
X0034733Y0058141D01*
X0034961Y0058740D02*
X0033706Y0058740D01*
X0033458Y0059339D02*
X0035209Y0059339D01*
X0035490Y0059937D02*
X0033177Y0059937D01*
X0032579Y0060536D02*
X0036088Y0060536D01*
X0036687Y0061134D02*
X0031980Y0061134D01*
X0030593Y0061733D02*
X0038073Y0061733D01*
X0037265Y0072506D02*
X0005633Y0072506D01*
X0005633Y0073104D02*
X0007383Y0073104D01*
X0006401Y0073703D02*
X0005633Y0073703D01*
X0005633Y0074301D02*
X0005802Y0074301D01*
X0011284Y0073104D02*
X0022122Y0073104D01*
X0021671Y0073291D02*
X0023398Y0072575D01*
X0025268Y0072575D01*
X0026996Y0073291D01*
X0028318Y0074613D01*
X0029033Y0076341D01*
X0029033Y0078210D01*
X0028318Y0079938D01*
X0026996Y0081260D01*
X0025268Y0081975D01*
X0023398Y0081975D01*
X0021671Y0081260D01*
X0020349Y0079938D01*
X0019633Y0078210D01*
X0019633Y0076341D01*
X0020349Y0074613D01*
X0021671Y0073291D01*
X0021259Y0073703D02*
X0012266Y0073703D01*
X0012865Y0074301D02*
X0020661Y0074301D01*
X0020230Y0074900D02*
X0013328Y0074900D01*
X0013576Y0075498D02*
X0019982Y0075498D01*
X0019734Y0076097D02*
X0013824Y0076097D01*
X0013933Y0076695D02*
X0019633Y0076695D01*
X0019633Y0077294D02*
X0013933Y0077294D01*
X0013933Y0077892D02*
X0019633Y0077892D01*
X0019750Y0078491D02*
X0013809Y0078491D01*
X0013561Y0079089D02*
X0019997Y0079089D01*
X0020245Y0079688D02*
X0013313Y0079688D01*
X0012828Y0080286D02*
X0020697Y0080286D01*
X0021296Y0080885D02*
X0012229Y0080885D01*
X0011195Y0081483D02*
X0022211Y0081483D01*
X0025294Y0084476D02*
X0013480Y0084476D01*
X0013823Y0085075D02*
X0024696Y0085075D01*
X0024097Y0085673D02*
X0014070Y0085673D01*
X0014237Y0086272D02*
X0023499Y0086272D01*
X0023033Y0086870D02*
X0014331Y0086870D01*
X0014270Y0088067D02*
X0023033Y0088067D01*
X0023033Y0087469D02*
X0009633Y0087469D01*
X0009633Y0088067D02*
X0009033Y0088067D01*
X0009033Y0088666D02*
X0009633Y0088666D01*
X0009633Y0089264D02*
X0009033Y0089264D01*
X0009033Y0089863D02*
X0009633Y0089863D01*
X0009633Y0090461D02*
X0009033Y0090461D01*
X0009033Y0091060D02*
X0009633Y0091060D01*
X0009633Y0091658D02*
X0009033Y0091658D01*
X0009033Y0092257D02*
X0009633Y0092257D01*
X0009846Y0092257D02*
X0023033Y0092257D01*
X0023033Y0092855D02*
X0005633Y0092855D01*
X0005633Y0092257D02*
X0008821Y0092257D01*
X0006921Y0091658D02*
X0005633Y0091658D01*
X0005633Y0091060D02*
X0006046Y0091060D01*
X0005633Y0093454D02*
X0023033Y0093454D01*
X0023033Y0094052D02*
X0005633Y0094052D01*
X0005633Y0094651D02*
X0023033Y0094651D01*
X0023033Y0095249D02*
X0005633Y0095249D01*
X0005633Y0095848D02*
X0023033Y0095848D01*
X0023033Y0096446D02*
X0005633Y0096446D01*
X0005633Y0097045D02*
X0023033Y0097045D01*
X0023033Y0097643D02*
X0005633Y0097643D01*
X0005633Y0098242D02*
X0023033Y0098242D01*
X0023033Y0098840D02*
X0005633Y0098840D01*
X0005633Y0099439D02*
X0023033Y0099439D01*
X0023033Y0100037D02*
X0005633Y0100037D01*
X0005633Y0100636D02*
X0023033Y0100636D01*
X0023033Y0101234D02*
X0005633Y0101234D01*
X0005633Y0101833D02*
X0022937Y0101833D01*
X0022339Y0102431D02*
X0010605Y0102431D01*
X0009633Y0102431D02*
X0009033Y0102431D01*
X0009033Y0103030D02*
X0009633Y0103030D01*
X0009633Y0103628D02*
X0009033Y0103628D01*
X0009033Y0104227D02*
X0009633Y0104227D01*
X0009633Y0104825D02*
X0009033Y0104825D01*
X0009033Y0105424D02*
X0009633Y0105424D01*
X0009633Y0106022D02*
X0009033Y0106022D01*
X0009033Y0106621D02*
X0009633Y0106621D01*
X0009633Y0107219D02*
X0017551Y0107219D01*
X0018149Y0106621D02*
X0014292Y0106621D01*
X0014183Y0106022D02*
X0018748Y0106022D01*
X0019346Y0105424D02*
X0013989Y0105424D01*
X0013697Y0104825D02*
X0019945Y0104825D01*
X0020543Y0104227D02*
X0013299Y0104227D01*
X0012757Y0103628D02*
X0021142Y0103628D01*
X0021740Y0103030D02*
X0011996Y0103030D01*
X0014310Y0107818D02*
X0016952Y0107818D01*
X0016354Y0108416D02*
X0014215Y0108416D01*
X0014025Y0109015D02*
X0015755Y0109015D01*
X0015157Y0109613D02*
X0013754Y0109613D01*
X0013380Y0110212D02*
X0014558Y0110212D01*
X0013960Y0110810D02*
X0012869Y0110810D01*
X0013361Y0111409D02*
X0012151Y0111409D01*
X0012763Y0112008D02*
X0010950Y0112008D01*
X0009633Y0112008D02*
X0009033Y0112008D01*
X0009033Y0111409D02*
X0009633Y0111409D01*
X0009633Y0110810D02*
X0009033Y0110810D01*
X0009033Y0110212D02*
X0009633Y0110212D01*
X0009633Y0109613D02*
X0009033Y0109613D01*
X0009033Y0109015D02*
X0009633Y0109015D01*
X0009633Y0108416D02*
X0009033Y0108416D01*
X0009033Y0107818D02*
X0009633Y0107818D01*
X0007717Y0112008D02*
X0005633Y0112008D01*
X0005633Y0112606D02*
X0012164Y0112606D01*
X0011566Y0113205D02*
X0011526Y0113205D01*
X0007141Y0113205D02*
X0005633Y0113205D01*
X0005633Y0113803D02*
X0006300Y0113803D01*
X0005702Y0114402D02*
X0005633Y0114402D01*
X0005633Y0111409D02*
X0006516Y0111409D01*
X0005797Y0110810D02*
X0005633Y0110810D01*
X0005633Y0103628D02*
X0005909Y0103628D01*
X0005633Y0103030D02*
X0006670Y0103030D01*
X0005633Y0102431D02*
X0008062Y0102431D01*
X0011745Y0091658D02*
X0023033Y0091658D01*
X0023033Y0091060D02*
X0012620Y0091060D01*
X0013199Y0090461D02*
X0023033Y0090461D01*
X0023033Y0089863D02*
X0013627Y0089863D01*
X0013932Y0089264D02*
X0023033Y0089264D01*
X0023033Y0088666D02*
X0014139Y0088666D01*
X0009633Y0086870D02*
X0009033Y0086870D01*
X0009033Y0086272D02*
X0009633Y0086272D01*
X0009633Y0085673D02*
X0009033Y0085673D01*
X0009033Y0085075D02*
X0009633Y0085075D01*
X0009633Y0084476D02*
X0009033Y0084476D01*
X0009033Y0083877D02*
X0009633Y0083877D01*
X0009633Y0083279D02*
X0009033Y0083279D01*
X0009033Y0082680D02*
X0009633Y0082680D01*
X0011329Y0082680D02*
X0027090Y0082680D01*
X0027688Y0082082D02*
X0005633Y0082082D01*
X0005633Y0082680D02*
X0007338Y0082680D01*
X0006328Y0083279D02*
X0005633Y0083279D01*
X0005633Y0083877D02*
X0005660Y0083877D01*
X0005633Y0081483D02*
X0007472Y0081483D01*
X0006437Y0080885D02*
X0005633Y0080885D01*
X0005633Y0080286D02*
X0005839Y0080286D01*
X0012339Y0083279D02*
X0026491Y0083279D01*
X0025893Y0083877D02*
X0013006Y0083877D01*
X0026456Y0081483D02*
X0028287Y0081483D01*
X0028885Y0080885D02*
X0027371Y0080885D01*
X0027969Y0080286D02*
X0029484Y0080286D01*
X0030082Y0079688D02*
X0028421Y0079688D01*
X0028669Y0079089D02*
X0030681Y0079089D01*
X0031279Y0078491D02*
X0028917Y0078491D01*
X0029033Y0077892D02*
X0031878Y0077892D01*
X0032476Y0077294D02*
X0029033Y0077294D01*
X0029033Y0076695D02*
X0033075Y0076695D01*
X0033673Y0076097D02*
X0028932Y0076097D01*
X0028684Y0075498D02*
X0034272Y0075498D01*
X0034871Y0074900D02*
X0028437Y0074900D01*
X0028006Y0074301D02*
X0035469Y0074301D01*
X0036068Y0073703D02*
X0027407Y0073703D01*
X0026545Y0073104D02*
X0036666Y0073104D01*
X0056671Y0092855D02*
X0080474Y0092855D01*
X0085633Y0086870D02*
X0102838Y0086870D01*
X0102957Y0086272D02*
X0085633Y0086272D01*
X0085633Y0085673D02*
X0103176Y0085673D01*
X0103513Y0085075D02*
X0085633Y0085075D01*
X0085633Y0084476D02*
X0104017Y0084476D01*
X0124033Y0112606D02*
X0124633Y0112606D01*
X0124633Y0113205D02*
X0124033Y0113205D01*
X0124033Y0113803D02*
X0124633Y0113803D01*
X0124633Y0114402D02*
X0124033Y0114402D01*
X0124033Y0115000D02*
X0124633Y0115000D01*
X0124633Y0115599D02*
X0124033Y0115599D01*
X0124033Y0116197D02*
X0124633Y0116197D01*
X0124633Y0116796D02*
X0124033Y0116796D01*
X0124033Y0117394D02*
X0115433Y0117394D01*
X0115433Y0116796D02*
X0119347Y0116796D01*
X0119442Y0116197D02*
X0115275Y0116197D01*
X0115027Y0115599D02*
X0119621Y0115599D01*
X0119881Y0115000D02*
X0114608Y0115000D01*
X0114009Y0114402D02*
X0120241Y0114402D01*
X0120735Y0113803D02*
X0112696Y0113803D01*
X0115425Y0117993D02*
X0119385Y0117993D01*
X0119504Y0118591D02*
X0115177Y0118591D01*
X0114929Y0119190D02*
X0119698Y0119190D01*
X0120002Y0119788D02*
X0114370Y0119788D01*
X0113568Y0120387D02*
X0120413Y0120387D01*
X0124033Y0120387D02*
X0124633Y0120387D01*
X0124633Y0120985D02*
X0124033Y0120985D01*
X0124033Y0121584D02*
X0124633Y0121584D01*
X0124633Y0122182D02*
X0124033Y0122182D01*
X0125316Y0122182D02*
X0127588Y0122182D01*
X0128187Y0121584D02*
X0126891Y0121584D01*
X0127695Y0120985D02*
X0128785Y0120985D01*
X0128253Y0120387D02*
X0129384Y0120387D01*
X0129982Y0119788D02*
X0128665Y0119788D01*
X0128969Y0119190D02*
X0130581Y0119190D01*
X0131179Y0118591D02*
X0129163Y0118591D01*
X0129282Y0117993D02*
X0131778Y0117993D01*
X0132376Y0117394D02*
X0124633Y0117394D01*
X0124633Y0117993D02*
X0124033Y0117993D01*
X0124033Y0118591D02*
X0124633Y0118591D01*
X0124633Y0119190D02*
X0124033Y0119190D01*
X0124033Y0119788D02*
X0124633Y0119788D01*
X0125502Y0122781D02*
X0126990Y0122781D01*
X0129320Y0116796D02*
X0132975Y0116796D01*
X0133573Y0116197D02*
X0129225Y0116197D01*
X0129046Y0115599D02*
X0134172Y0115599D01*
X0134770Y0115000D02*
X0128786Y0115000D01*
X0128426Y0114402D02*
X0135369Y0114402D01*
X0135967Y0113803D02*
X0127932Y0113803D01*
X0127237Y0113205D02*
X0136566Y0113205D01*
X0137164Y0112606D02*
X0126143Y0112606D01*
X0152117Y0133554D02*
X0155734Y0133554D01*
X0155734Y0134152D02*
X0152716Y0134152D01*
X0153267Y0134751D02*
X0155734Y0134751D01*
X0155734Y0135349D02*
X0153515Y0135349D01*
X0153762Y0135948D02*
X0155734Y0135948D01*
X0155734Y0136546D02*
X0153933Y0136546D01*
X0153933Y0137145D02*
X0155734Y0137145D01*
X0155734Y0137744D02*
X0153933Y0137744D01*
X0153871Y0138342D02*
X0155734Y0138342D01*
X0155734Y0138941D02*
X0153623Y0138941D01*
X0153375Y0139539D02*
X0155734Y0139539D01*
X0155734Y0140138D02*
X0152977Y0140138D01*
X0152378Y0140736D02*
X0155734Y0140736D01*
X0155734Y0141335D02*
X0151554Y0141335D01*
X0155734Y0141933D02*
X0100633Y0141933D01*
X0098033Y0144926D02*
X0074533Y0144926D01*
X0074996Y0145524D02*
X0098033Y0145524D01*
X0098033Y0146123D02*
X0075244Y0146123D01*
X0075433Y0146721D02*
X0098033Y0146721D01*
X0098033Y0147320D02*
X0075433Y0147320D01*
X0075433Y0147918D02*
X0098033Y0147918D01*
X0098033Y0148517D02*
X0075208Y0148517D01*
X0074960Y0149115D02*
X0098033Y0149115D01*
X0098033Y0149714D02*
X0074445Y0149714D01*
X0073748Y0150312D02*
X0098033Y0150312D01*
X0100633Y0162282D02*
X0155734Y0162282D01*
X0155734Y0161684D02*
X0150711Y0161684D01*
X0150744Y0162881D02*
X0155734Y0162881D01*
X0155734Y0163479D02*
X0152043Y0163479D01*
X0152641Y0164078D02*
X0155734Y0164078D01*
X0155734Y0164677D02*
X0153236Y0164677D01*
X0153484Y0165275D02*
X0155734Y0165275D01*
X0155734Y0165874D02*
X0153732Y0165874D01*
X0153933Y0166472D02*
X0155734Y0166472D01*
X0155734Y0167071D02*
X0153933Y0167071D01*
X0153933Y0167669D02*
X0155734Y0167669D01*
X0155734Y0168268D02*
X0153901Y0168268D01*
X0153653Y0168866D02*
X0155734Y0168866D01*
X0155734Y0169465D02*
X0153406Y0169465D01*
X0153051Y0170063D02*
X0155734Y0170063D01*
X0155734Y0170662D02*
X0152453Y0170662D01*
X0151734Y0171260D02*
X0155734Y0171260D01*
X0155734Y0171859D02*
X0150289Y0171859D01*
X0150248Y0172675D02*
X0151939Y0173376D01*
X0153233Y0174670D01*
X0153933Y0176360D01*
X0153933Y0178190D01*
X0153233Y0179881D01*
X0151939Y0181175D01*
X0150248Y0181875D01*
X0148418Y0181875D01*
X0146728Y0181175D01*
X0145434Y0179881D01*
X0144733Y0178190D01*
X0144733Y0176360D01*
X0145434Y0174670D01*
X0146728Y0173376D01*
X0148418Y0172675D01*
X0150248Y0172675D01*
X0151166Y0173056D02*
X0155734Y0173056D01*
X0155734Y0173654D02*
X0152217Y0173654D01*
X0152816Y0174253D02*
X0155734Y0174253D01*
X0155734Y0174851D02*
X0153308Y0174851D01*
X0153556Y0175450D02*
X0155734Y0175450D01*
X0155734Y0176048D02*
X0153804Y0176048D01*
X0153933Y0176647D02*
X0155734Y0176647D01*
X0155734Y0177245D02*
X0153933Y0177245D01*
X0153933Y0177844D02*
X0155734Y0177844D01*
X0155734Y0178442D02*
X0153829Y0178442D01*
X0153581Y0179041D02*
X0155734Y0179041D01*
X0155734Y0179639D02*
X0153333Y0179639D01*
X0152876Y0180238D02*
X0155734Y0180238D01*
X0155734Y0180836D02*
X0152278Y0180836D01*
X0151312Y0181435D02*
X0155734Y0181435D01*
X0155734Y0182033D02*
X0110633Y0182033D01*
X0110633Y0181435D02*
X0147355Y0181435D01*
X0146389Y0180836D02*
X0110633Y0180836D01*
X0110633Y0182632D02*
X0155734Y0182632D01*
X0155734Y0183230D02*
X0110633Y0183230D01*
X0110633Y0183829D02*
X0155734Y0183829D01*
X0155734Y0184427D02*
X0110633Y0184427D01*
X0110633Y0185026D02*
X0155734Y0185026D01*
X0155734Y0185624D02*
X0110633Y0185624D01*
X0110633Y0186223D02*
X0155734Y0186223D01*
X0155734Y0186821D02*
X0110633Y0186821D01*
X0110633Y0187420D02*
X0118097Y0187420D01*
X0118162Y0187399D02*
X0118940Y0187275D01*
X0119033Y0187275D01*
X0119033Y0191975D01*
X0119633Y0191975D01*
X0119633Y0187275D01*
X0119727Y0187275D01*
X0120504Y0187399D01*
X0121253Y0187642D01*
X0121954Y0187999D01*
X0122591Y0188462D01*
X0123147Y0189018D01*
X0123610Y0189655D01*
X0123967Y0190356D01*
X0124210Y0191105D01*
X0124333Y0191882D01*
X0124333Y0191975D01*
X0119633Y0191975D01*
X0119633Y0192575D01*
X0124333Y0192575D01*
X0124333Y0192669D01*
X0124210Y0193446D01*
X0123967Y0194195D01*
X0123610Y0194896D01*
X0123147Y0195533D01*
X0122591Y0196089D01*
X0121954Y0196552D01*
X0121253Y0196909D01*
X0120504Y0197152D01*
X0119727Y0197275D01*
X0119633Y0197275D01*
X0119633Y0192576D01*
X0119033Y0192576D01*
X0119033Y0197275D01*
X0118940Y0197275D01*
X0118162Y0197152D01*
X0117414Y0196909D01*
X0116713Y0196552D01*
X0116076Y0196089D01*
X0115520Y0195533D01*
X0115057Y0194896D01*
X0114700Y0194195D01*
X0114456Y0193446D01*
X0114333Y0192669D01*
X0114333Y0192575D01*
X0119033Y0192575D01*
X0119033Y0191975D01*
X0114333Y0191975D01*
X0114333Y0191882D01*
X0114456Y0191105D01*
X0114700Y0190356D01*
X0115057Y0189655D01*
X0115520Y0189018D01*
X0116076Y0188462D01*
X0116713Y0187999D01*
X0117414Y0187642D01*
X0118162Y0187399D01*
X0119033Y0187420D02*
X0119633Y0187420D01*
X0119633Y0188018D02*
X0119033Y0188018D01*
X0119033Y0188617D02*
X0119633Y0188617D01*
X0119633Y0189215D02*
X0119033Y0189215D01*
X0119033Y0189814D02*
X0119633Y0189814D01*
X0119633Y0190412D02*
X0119033Y0190412D01*
X0119033Y0191011D02*
X0119633Y0191011D01*
X0119633Y0191610D02*
X0119033Y0191610D01*
X0119033Y0192208D02*
X0113933Y0192208D01*
X0113933Y0191610D02*
X0114376Y0191610D01*
X0114487Y0191011D02*
X0113789Y0191011D01*
X0113541Y0190412D02*
X0114681Y0190412D01*
X0114976Y0189814D02*
X0113293Y0189814D01*
X0112779Y0189215D02*
X0115376Y0189215D01*
X0115921Y0188617D02*
X0112180Y0188617D01*
X0111076Y0188018D02*
X0116686Y0188018D01*
X0119633Y0192208D02*
X0155734Y0192208D01*
X0155734Y0191610D02*
X0124290Y0191610D01*
X0124180Y0191011D02*
X0155734Y0191011D01*
X0155734Y0190412D02*
X0123985Y0190412D01*
X0123691Y0189814D02*
X0155734Y0189814D01*
X0155734Y0189215D02*
X0123290Y0189215D01*
X0122746Y0188617D02*
X0155734Y0188617D01*
X0155734Y0188018D02*
X0121981Y0188018D01*
X0120570Y0187420D02*
X0155734Y0187420D01*
X0155734Y0192807D02*
X0124312Y0192807D01*
X0124217Y0193405D02*
X0155734Y0193405D01*
X0155734Y0194004D02*
X0124029Y0194004D01*
X0123759Y0194602D02*
X0155734Y0194602D01*
X0155734Y0195201D02*
X0123388Y0195201D01*
X0122881Y0195799D02*
X0155734Y0195799D01*
X0155734Y0196398D02*
X0122166Y0196398D01*
X0120985Y0196996D02*
X0155734Y0196996D01*
X0155734Y0197595D02*
X0005633Y0197595D01*
X0005633Y0198193D02*
X0155734Y0198193D01*
X0155734Y0198792D02*
X0005633Y0198792D01*
X0005633Y0199390D02*
X0155734Y0199390D01*
X0145790Y0180238D02*
X0113921Y0180238D01*
X0114519Y0179639D02*
X0145333Y0179639D01*
X0145086Y0179041D02*
X0114990Y0179041D01*
X0115238Y0178442D02*
X0144838Y0178442D01*
X0144733Y0177844D02*
X0115433Y0177844D01*
X0115433Y0177245D02*
X0144733Y0177245D01*
X0144733Y0176647D02*
X0115433Y0176647D01*
X0115213Y0176048D02*
X0144863Y0176048D01*
X0145111Y0175450D02*
X0114965Y0175450D01*
X0114459Y0174851D02*
X0145358Y0174851D01*
X0145851Y0174253D02*
X0113782Y0174253D01*
X0109633Y0170662D02*
X0109033Y0170662D01*
X0109033Y0170063D02*
X0109633Y0170063D01*
X0109633Y0169465D02*
X0109033Y0169465D01*
X0109033Y0168866D02*
X0109633Y0168866D01*
X0109633Y0168268D02*
X0109033Y0168268D01*
X0109033Y0166472D02*
X0109633Y0166472D01*
X0109633Y0165874D02*
X0109033Y0165874D01*
X0109033Y0165275D02*
X0109633Y0165275D01*
X0109633Y0164677D02*
X0109033Y0164677D01*
X0109033Y0164078D02*
X0109633Y0164078D01*
X0109633Y0163479D02*
X0109033Y0163479D01*
X0112840Y0163479D02*
X0146624Y0163479D01*
X0146025Y0164078D02*
X0114168Y0164078D01*
X0114850Y0164677D02*
X0145431Y0164677D01*
X0145183Y0165275D02*
X0115287Y0165275D01*
X0115574Y0165874D02*
X0144935Y0165874D01*
X0144733Y0166472D02*
X0115750Y0166472D01*
X0107550Y0173654D02*
X0146449Y0173654D01*
X0147500Y0173056D02*
X0106952Y0173056D01*
X0106353Y0172457D02*
X0155734Y0172457D01*
X0148378Y0171859D02*
X0105755Y0171859D01*
X0104472Y0174253D02*
X0073782Y0174253D01*
X0073916Y0174308D02*
X0074900Y0175293D01*
X0075433Y0176579D01*
X0075433Y0177972D01*
X0074900Y0179258D01*
X0073916Y0180243D01*
X0072630Y0180775D01*
X0070633Y0180775D01*
X0070633Y0187835D01*
X0071939Y0188376D01*
X0073233Y0189670D01*
X0073933Y0191360D01*
X0073933Y0193190D01*
X0073233Y0194881D01*
X0071939Y0196175D01*
X0070248Y0196875D01*
X0068418Y0196875D01*
X0066728Y0196175D01*
X0065434Y0194881D01*
X0064733Y0193190D01*
X0064733Y0191360D01*
X0065434Y0189670D01*
X0066728Y0188376D01*
X0068033Y0187835D01*
X0068033Y0180775D01*
X0066037Y0180775D01*
X0064751Y0180243D01*
X0063766Y0179258D01*
X0063233Y0177972D01*
X0063233Y0176579D01*
X0063766Y0175293D01*
X0064751Y0174308D01*
X0066037Y0173775D01*
X0072630Y0173775D01*
X0073916Y0174308D01*
X0074459Y0174851D02*
X0104208Y0174851D01*
X0103701Y0175450D02*
X0074965Y0175450D01*
X0075213Y0176048D02*
X0103453Y0176048D01*
X0103233Y0176647D02*
X0075433Y0176647D01*
X0075433Y0177245D02*
X0103233Y0177245D01*
X0103233Y0177844D02*
X0075433Y0177844D01*
X0075238Y0178442D02*
X0103428Y0178442D01*
X0103676Y0179041D02*
X0074990Y0179041D01*
X0074519Y0179639D02*
X0104147Y0179639D01*
X0104746Y0180238D02*
X0073921Y0180238D01*
X0070633Y0180836D02*
X0108033Y0180836D01*
X0108033Y0181435D02*
X0070633Y0181435D01*
X0070633Y0182033D02*
X0108033Y0182033D01*
X0108033Y0182632D02*
X0070633Y0182632D01*
X0070633Y0183230D02*
X0108033Y0183230D01*
X0108033Y0183829D02*
X0070633Y0183829D01*
X0070633Y0184427D02*
X0108033Y0184427D01*
X0108033Y0185026D02*
X0070633Y0185026D01*
X0070633Y0185624D02*
X0108033Y0185624D01*
X0108033Y0186223D02*
X0070633Y0186223D01*
X0070633Y0186821D02*
X0108033Y0186821D01*
X0108033Y0187420D02*
X0070633Y0187420D01*
X0071076Y0188018D02*
X0077590Y0188018D01*
X0078418Y0187675D02*
X0076728Y0188376D01*
X0075434Y0189670D01*
X0074733Y0191360D01*
X0074733Y0193190D01*
X0075434Y0194881D01*
X0076728Y0196175D01*
X0078418Y0196875D01*
X0080248Y0196875D01*
X0081939Y0196175D01*
X0083233Y0194881D01*
X0083933Y0193190D01*
X0083933Y0191360D01*
X0083233Y0189670D01*
X0081939Y0188376D01*
X0080248Y0187675D01*
X0078418Y0187675D01*
X0076486Y0188617D02*
X0072180Y0188617D01*
X0072779Y0189215D02*
X0075888Y0189215D01*
X0075374Y0189814D02*
X0073293Y0189814D01*
X0073541Y0190412D02*
X0075126Y0190412D01*
X0074878Y0191011D02*
X0073789Y0191011D01*
X0073933Y0191610D02*
X0074733Y0191610D01*
X0074733Y0192208D02*
X0073933Y0192208D01*
X0073933Y0192807D02*
X0074733Y0192807D01*
X0074822Y0193405D02*
X0073844Y0193405D01*
X0073597Y0194004D02*
X0075070Y0194004D01*
X0075318Y0194602D02*
X0073349Y0194602D01*
X0072914Y0195201D02*
X0075753Y0195201D01*
X0076352Y0195799D02*
X0072315Y0195799D01*
X0071402Y0196398D02*
X0077265Y0196398D01*
X0081402Y0196398D02*
X0107265Y0196398D01*
X0106352Y0195799D02*
X0082315Y0195799D01*
X0082914Y0195201D02*
X0105753Y0195201D01*
X0105318Y0194602D02*
X0083349Y0194602D01*
X0083597Y0194004D02*
X0105070Y0194004D01*
X0104822Y0193405D02*
X0083844Y0193405D01*
X0083933Y0192807D02*
X0104733Y0192807D01*
X0104733Y0192208D02*
X0083933Y0192208D01*
X0083933Y0191610D02*
X0104733Y0191610D01*
X0104878Y0191011D02*
X0083789Y0191011D01*
X0083541Y0190412D02*
X0105126Y0190412D01*
X0105374Y0189814D02*
X0083293Y0189814D01*
X0082779Y0189215D02*
X0105888Y0189215D01*
X0106486Y0188617D02*
X0082180Y0188617D01*
X0081076Y0188018D02*
X0107590Y0188018D01*
X0113597Y0194004D02*
X0114638Y0194004D01*
X0114450Y0193405D02*
X0113844Y0193405D01*
X0113933Y0192807D02*
X0114355Y0192807D01*
X0114907Y0194602D02*
X0113349Y0194602D01*
X0112914Y0195201D02*
X0115278Y0195201D01*
X0115786Y0195799D02*
X0112315Y0195799D01*
X0111402Y0196398D02*
X0116500Y0196398D01*
X0117682Y0196996D02*
X0031302Y0196996D01*
X0031291Y0197002D02*
X0030528Y0197250D01*
X0029735Y0197375D01*
X0029633Y0197375D01*
X0029633Y0192576D01*
X0029033Y0192576D01*
X0029033Y0197375D01*
X0028932Y0197375D01*
X0028139Y0197250D01*
X0027376Y0197002D01*
X0026660Y0196637D01*
X0026011Y0196166D01*
X0025443Y0195598D01*
X0024971Y0194948D01*
X0024607Y0194233D01*
X0024359Y0193470D01*
X0024233Y0192677D01*
X0024233Y0192575D01*
X0029033Y0192575D01*
X0029033Y0191975D01*
X0029633Y0191975D01*
X0029633Y0187175D01*
X0029735Y0187175D01*
X0030528Y0187301D01*
X0031291Y0187549D01*
X0032006Y0187914D01*
X0032656Y0188385D01*
X0033223Y0188953D01*
X0033695Y0189602D01*
X0034060Y0190318D01*
X0034308Y0191081D01*
X0034433Y0191874D01*
X0034433Y0191975D01*
X0029633Y0191975D01*
X0029633Y0192575D01*
X0034433Y0192575D01*
X0034433Y0192677D01*
X0034308Y0193470D01*
X0034060Y0194233D01*
X0033695Y0194948D01*
X0033223Y0195598D01*
X0032656Y0196166D01*
X0032006Y0196637D01*
X0031291Y0197002D01*
X0032336Y0196398D02*
X0047003Y0196398D01*
X0046671Y0196260D02*
X0045349Y0194938D01*
X0044633Y0193210D01*
X0044633Y0191341D01*
X0045349Y0189613D01*
X0046671Y0188291D01*
X0048398Y0187575D01*
X0050268Y0187575D01*
X0051996Y0188291D01*
X0053318Y0189613D01*
X0054033Y0191341D01*
X0054033Y0193210D01*
X0053318Y0194938D01*
X0051996Y0196260D01*
X0050268Y0196975D01*
X0048398Y0196975D01*
X0046671Y0196260D01*
X0046210Y0195799D02*
X0033022Y0195799D01*
X0033512Y0195201D02*
X0045612Y0195201D01*
X0045210Y0194602D02*
X0033872Y0194602D01*
X0034134Y0194004D02*
X0044962Y0194004D01*
X0044714Y0193405D02*
X0034318Y0193405D01*
X0034413Y0192807D02*
X0044633Y0192807D01*
X0044633Y0192208D02*
X0029633Y0192208D01*
X0029633Y0191610D02*
X0029033Y0191610D01*
X0029033Y0191975D02*
X0029033Y0187175D01*
X0028932Y0187175D01*
X0028139Y0187301D01*
X0027376Y0187549D01*
X0026660Y0187914D01*
X0026011Y0188385D01*
X0025443Y0188953D01*
X0024971Y0189602D01*
X0024607Y0190318D01*
X0024359Y0191081D01*
X0024233Y0191874D01*
X0024233Y0191975D01*
X0029033Y0191975D01*
X0029033Y0192208D02*
X0005633Y0192208D01*
X0005633Y0191610D02*
X0024275Y0191610D01*
X0024382Y0191011D02*
X0005633Y0191011D01*
X0005633Y0190412D02*
X0024576Y0190412D01*
X0024864Y0189814D02*
X0005633Y0189814D01*
X0005633Y0189215D02*
X0025253Y0189215D01*
X0025779Y0188617D02*
X0005633Y0188617D01*
X0005633Y0188018D02*
X0026516Y0188018D01*
X0027773Y0187420D02*
X0005633Y0187420D01*
X0005633Y0186821D02*
X0068033Y0186821D01*
X0068033Y0186223D02*
X0005633Y0186223D01*
X0005633Y0185624D02*
X0068033Y0185624D01*
X0068033Y0185026D02*
X0005633Y0185026D01*
X0005633Y0184427D02*
X0068033Y0184427D01*
X0068033Y0183829D02*
X0005633Y0183829D01*
X0005633Y0183230D02*
X0068033Y0183230D01*
X0068033Y0182632D02*
X0005633Y0182632D01*
X0005633Y0182033D02*
X0068033Y0182033D01*
X0068033Y0181435D02*
X0011312Y0181435D01*
X0012278Y0180836D02*
X0068033Y0180836D01*
X0064746Y0180238D02*
X0012876Y0180238D01*
X0013333Y0179639D02*
X0064147Y0179639D01*
X0063676Y0179041D02*
X0013581Y0179041D01*
X0013829Y0178442D02*
X0063428Y0178442D01*
X0063233Y0177844D02*
X0013933Y0177844D01*
X0013933Y0177245D02*
X0063233Y0177245D01*
X0063233Y0176647D02*
X0013933Y0176647D01*
X0013804Y0176048D02*
X0063453Y0176048D01*
X0063701Y0175450D02*
X0013556Y0175450D01*
X0013308Y0174851D02*
X0064208Y0174851D01*
X0064885Y0174253D02*
X0012816Y0174253D01*
X0012217Y0173654D02*
X0103874Y0173654D01*
X0103275Y0173056D02*
X0011166Y0173056D01*
X0010289Y0171859D02*
X0102078Y0171859D01*
X0102677Y0172457D02*
X0005633Y0172457D01*
X0005633Y0171859D02*
X0008378Y0171859D01*
X0007500Y0173056D02*
X0005633Y0173056D01*
X0005633Y0173654D02*
X0006449Y0173654D01*
X0005851Y0174253D02*
X0005633Y0174253D01*
X0005633Y0171260D02*
X0006933Y0171260D01*
X0006214Y0170662D02*
X0005633Y0170662D01*
X0005633Y0180238D02*
X0005790Y0180238D01*
X0005633Y0180836D02*
X0006389Y0180836D01*
X0005633Y0181435D02*
X0007355Y0181435D01*
X0005633Y0192807D02*
X0024254Y0192807D01*
X0024349Y0193405D02*
X0005633Y0193405D01*
X0005633Y0194004D02*
X0024532Y0194004D01*
X0024795Y0194602D02*
X0005633Y0194602D01*
X0005633Y0195201D02*
X0025155Y0195201D01*
X0025644Y0195799D02*
X0005633Y0195799D01*
X0005633Y0196398D02*
X0026330Y0196398D01*
X0027364Y0196996D02*
X0005633Y0196996D01*
X0029033Y0196996D02*
X0029633Y0196996D01*
X0029633Y0196398D02*
X0029033Y0196398D01*
X0029033Y0195799D02*
X0029633Y0195799D01*
X0029633Y0195201D02*
X0029033Y0195201D01*
X0029033Y0194602D02*
X0029633Y0194602D01*
X0029633Y0194004D02*
X0029033Y0194004D01*
X0029033Y0193405D02*
X0029633Y0193405D01*
X0029633Y0192807D02*
X0029033Y0192807D01*
X0029033Y0191011D02*
X0029633Y0191011D01*
X0029633Y0190412D02*
X0029033Y0190412D01*
X0029033Y0189814D02*
X0029633Y0189814D01*
X0029633Y0189215D02*
X0029033Y0189215D01*
X0029033Y0188617D02*
X0029633Y0188617D01*
X0029633Y0188018D02*
X0029033Y0188018D01*
X0029033Y0187420D02*
X0029633Y0187420D01*
X0030893Y0187420D02*
X0068033Y0187420D01*
X0067590Y0188018D02*
X0051338Y0188018D01*
X0052322Y0188617D02*
X0066486Y0188617D01*
X0065888Y0189215D02*
X0052920Y0189215D01*
X0053401Y0189814D02*
X0065374Y0189814D01*
X0065126Y0190412D02*
X0053649Y0190412D01*
X0053897Y0191011D02*
X0064878Y0191011D01*
X0064733Y0191610D02*
X0054033Y0191610D01*
X0054033Y0192208D02*
X0064733Y0192208D01*
X0064733Y0192807D02*
X0054033Y0192807D01*
X0053953Y0193405D02*
X0064822Y0193405D01*
X0065070Y0194004D02*
X0053705Y0194004D01*
X0053457Y0194602D02*
X0065318Y0194602D01*
X0065753Y0195201D02*
X0053055Y0195201D01*
X0052456Y0195799D02*
X0066352Y0195799D01*
X0067265Y0196398D02*
X0051663Y0196398D01*
X0045747Y0189215D02*
X0033414Y0189215D01*
X0033803Y0189814D02*
X0045266Y0189814D01*
X0045018Y0190412D02*
X0034090Y0190412D01*
X0034285Y0191011D02*
X0044770Y0191011D01*
X0044633Y0191610D02*
X0034391Y0191610D01*
X0032887Y0188617D02*
X0046345Y0188617D01*
X0047329Y0188018D02*
X0032151Y0188018D01*
X0074694Y0169465D02*
X0099684Y0169465D01*
X0099085Y0168866D02*
X0075063Y0168866D01*
X0075311Y0168268D02*
X0098487Y0168268D01*
X0098033Y0167669D02*
X0075433Y0167669D01*
X0075433Y0167071D02*
X0098033Y0167071D01*
X0098033Y0166472D02*
X0075389Y0166472D01*
X0075141Y0165874D02*
X0098033Y0165874D01*
X0098033Y0165275D02*
X0074883Y0165275D01*
X0074284Y0164677D02*
X0098033Y0164677D01*
X0098033Y0164078D02*
X0073360Y0164078D01*
X0052292Y0111409D02*
X0017038Y0111409D01*
X0017637Y0110810D02*
X0051363Y0110810D01*
X0050764Y0110212D02*
X0018235Y0110212D01*
X0018834Y0109613D02*
X0050323Y0109613D01*
X0050075Y0109015D02*
X0019432Y0109015D01*
X0020031Y0108416D02*
X0049827Y0108416D01*
X0049733Y0107818D02*
X0020629Y0107818D01*
X0021228Y0107219D02*
X0049733Y0107219D01*
X0049733Y0106621D02*
X0021826Y0106621D01*
X0022425Y0106022D02*
X0049873Y0106022D01*
X0050121Y0105424D02*
X0023023Y0105424D01*
X0023622Y0104825D02*
X0050369Y0104825D01*
X0050877Y0104227D02*
X0024220Y0104227D01*
X0024819Y0103628D02*
X0051475Y0103628D01*
X0052563Y0103030D02*
X0025417Y0103030D01*
X0006538Y0120985D02*
X0005633Y0120985D01*
X0005633Y0120387D02*
X0005939Y0120387D01*
X0057192Y0103628D02*
X0065347Y0103628D01*
X0064276Y0104227D02*
X0057790Y0104227D01*
X0058297Y0104825D02*
X0063680Y0104825D01*
X0063280Y0105424D02*
X0058545Y0105424D01*
X0058793Y0106022D02*
X0063031Y0106022D01*
X0062887Y0106621D02*
X0058933Y0106621D01*
X0069033Y0106022D02*
X0069633Y0106022D01*
X0069633Y0105424D02*
X0069033Y0105424D01*
X0069033Y0104825D02*
X0069633Y0104825D01*
X0069633Y0104227D02*
X0069033Y0104227D01*
X0069033Y0103628D02*
X0069633Y0103628D01*
X0069633Y0107818D02*
X0069033Y0107818D01*
X0069033Y0108416D02*
X0069633Y0108416D01*
X0069633Y0109015D02*
X0069033Y0109015D01*
X0069033Y0109613D02*
X0069633Y0109613D01*
X0069633Y0110212D02*
X0069033Y0110212D01*
X0069033Y0110810D02*
X0069633Y0110810D01*
X0073590Y0110810D02*
X0081030Y0110810D01*
X0080474Y0110212D02*
X0074512Y0110212D01*
X0075062Y0109613D02*
X0080474Y0109613D01*
X0080474Y0109015D02*
X0075434Y0109015D01*
X0075682Y0108416D02*
X0080474Y0108416D01*
X0080474Y0107818D02*
X0075802Y0107818D01*
X0009633Y0052156D02*
X0009033Y0052156D01*
X0009033Y0051558D02*
X0009633Y0051558D01*
X0009633Y0050959D02*
X0009033Y0050959D01*
X0009033Y0050361D02*
X0009633Y0050361D01*
X0009633Y0049762D02*
X0009033Y0049762D01*
X0009033Y0049164D02*
X0009633Y0049164D01*
X0009633Y0048565D02*
X0009033Y0048565D01*
X0009033Y0047967D02*
X0009633Y0047967D01*
X0008188Y0052156D02*
X0005633Y0052156D01*
X0005633Y0051558D02*
X0006725Y0051558D01*
X0005946Y0050959D02*
X0005633Y0050959D01*
X0005633Y0052755D02*
X0008227Y0052755D01*
X0006782Y0053353D02*
X0005633Y0053353D01*
X0005633Y0053952D02*
X0006152Y0053952D01*
X0005761Y0043777D02*
X0005633Y0043777D01*
X0005633Y0043179D02*
X0006466Y0043179D01*
X0005633Y0042580D02*
X0007604Y0042580D01*
X0005633Y0016844D02*
X0064032Y0016844D01*
X0063758Y0016246D02*
X0005633Y0016246D01*
X0005633Y0015647D02*
X0063742Y0015647D01*
X0063742Y0015049D02*
X0005633Y0015049D01*
X0005633Y0014450D02*
X0063742Y0014450D01*
X0063742Y0013852D02*
X0005633Y0013852D01*
X0005633Y0013253D02*
X0063742Y0013253D01*
X0063742Y0012655D02*
X0005633Y0012655D01*
X0005633Y0012056D02*
X0068285Y0012056D01*
X0068285Y0012655D02*
X0068885Y0012655D01*
X0068885Y0013253D02*
X0068285Y0013253D01*
X0068285Y0013852D02*
X0068885Y0013852D01*
X0068885Y0014450D02*
X0068285Y0014450D01*
X0068285Y0015049D02*
X0068885Y0015049D01*
X0068885Y0015647D02*
X0068285Y0015647D01*
X0068285Y0016246D02*
X0068885Y0016246D01*
X0068885Y0016844D02*
X0068285Y0016844D01*
X0068885Y0012056D02*
X0074693Y0012056D01*
X0074693Y0011458D02*
X0073429Y0011458D01*
X0073429Y0010859D02*
X0074693Y0010859D01*
X0074693Y0010261D02*
X0073429Y0010261D01*
X0073429Y0009662D02*
X0074693Y0009662D01*
X0074693Y0009064D02*
X0073429Y0009064D01*
X0073429Y0012655D02*
X0074693Y0012655D01*
X0074693Y0013253D02*
X0073429Y0013253D01*
X0073429Y0013852D02*
X0074693Y0013852D01*
X0074693Y0014450D02*
X0073429Y0014450D01*
X0073429Y0015049D02*
X0074693Y0015049D01*
X0074693Y0015647D02*
X0073429Y0015647D01*
X0073413Y0016246D02*
X0074693Y0016246D01*
X0075149Y0016844D02*
X0073138Y0016844D01*
X0063742Y0011458D02*
X0005633Y0011458D01*
X0005633Y0010859D02*
X0063742Y0010859D01*
X0063742Y0010261D02*
X0005633Y0010261D01*
X0005633Y0009662D02*
X0063742Y0009662D01*
X0063742Y0009064D02*
X0005633Y0009064D01*
X0083022Y0019238D02*
X0083086Y0019238D01*
X0085581Y0019238D02*
X0085645Y0019238D01*
X0093973Y0015647D02*
X0095238Y0015647D01*
X0095238Y0015049D02*
X0093973Y0015049D01*
X0093973Y0014450D02*
X0095238Y0014450D01*
X0095238Y0013852D02*
X0093973Y0013852D01*
X0093973Y0013253D02*
X0095238Y0013253D01*
X0095238Y0012655D02*
X0093973Y0012655D01*
X0093973Y0011458D02*
X0095238Y0011458D01*
X0095238Y0010859D02*
X0093973Y0010859D01*
X0093973Y0010261D02*
X0095238Y0010261D01*
X0095238Y0009662D02*
X0093973Y0009662D01*
X0093973Y0009064D02*
X0095238Y0009064D01*
X0151768Y0153305D02*
X0155734Y0153305D01*
X0155734Y0153903D02*
X0152467Y0153903D01*
X0153065Y0154502D02*
X0155734Y0154502D01*
X0155734Y0155100D02*
X0153411Y0155100D01*
X0153659Y0155699D02*
X0155734Y0155699D01*
X0155734Y0156297D02*
X0153907Y0156297D01*
X0153933Y0156896D02*
X0155734Y0156896D01*
X0155734Y0157494D02*
X0153933Y0157494D01*
X0153933Y0158093D02*
X0155734Y0158093D01*
X0155734Y0158691D02*
X0153726Y0158691D01*
X0153478Y0159290D02*
X0155734Y0159290D01*
X0155734Y0159888D02*
X0153226Y0159888D01*
X0152627Y0160487D02*
X0155734Y0160487D01*
X0155734Y0161085D02*
X0152029Y0161085D01*
X0119633Y0192807D02*
X0119033Y0192807D01*
X0119033Y0193405D02*
X0119633Y0193405D01*
X0119633Y0194004D02*
X0119033Y0194004D01*
X0119033Y0194602D02*
X0119633Y0194602D01*
X0119633Y0195201D02*
X0119033Y0195201D01*
X0119033Y0195799D02*
X0119633Y0195799D01*
X0119633Y0196398D02*
X0119033Y0196398D01*
X0119033Y0196996D02*
X0119633Y0196996D01*
D18*
X0109333Y0192275D02*
X0109333Y0177275D01*
X0099333Y0167275D01*
X0099333Y0137275D01*
X0109333Y0127275D01*
X0109333Y0117275D02*
X0094333Y0117275D01*
X0084333Y0107275D01*
X0084333Y0022709D01*
X0081774Y0022709D02*
X0081774Y0109716D01*
X0089333Y0117275D01*
X0109333Y0097275D02*
X0124333Y0097275D01*
X0139333Y0112275D02*
X0124333Y0127275D01*
X0139333Y0112275D02*
X0139333Y0062275D01*
X0139333Y0047275D01*
X0149333Y0062275D02*
X0149333Y0077275D01*
X0109333Y0042275D02*
X0121833Y0029775D01*
X0124333Y0027275D01*
X0131333Y0020275D01*
X0131333Y0014275D01*
X0121333Y0014275D02*
X0116333Y0019275D01*
X0103593Y0019275D01*
X0101333Y0017016D01*
X0081093Y0017016D01*
X0079215Y0018894D01*
X0079215Y0022709D01*
X0079333Y0022590D01*
X0054333Y0057275D02*
X0024333Y0087275D01*
X0024333Y0102275D01*
X0009333Y0117275D01*
X0069333Y0177275D02*
X0069333Y0192275D01*
X0109333Y0047275D02*
X0109333Y0042275D01*
D19*
X0089333Y0117275D03*
M02*
