%
M48
M72
T01C0.01378
T02C0.03200
T03C0.04000
%
T01
X89333Y117275
T02
X69333Y117275
X69333Y127275
X69333Y137275
X69333Y147275
X69333Y157275
X69333Y167275
X69333Y177275
X109333Y177275
X109333Y167275
X109333Y157275
X109333Y147275
X109333Y137275
X109333Y127275
X109333Y117275
X109333Y107275
X109333Y97275
X109333Y87275
X109333Y77275
X109333Y67275
X109333Y57275
X109333Y47275
X139333Y62275
X149333Y62275
X69333Y57275
X69333Y47275
X69333Y67275
X69333Y77275
X69333Y87275
X69333Y97275
X69333Y107275
X39333Y57275
X29333Y57275
T03
X9333Y47275
X9333Y57275
X9333Y77275
X9333Y87275
X24333Y77275
X44333Y77275
X54333Y87275
X54333Y97275
X54333Y107275
X54333Y57275
X54333Y47275
X9333Y107275
X9333Y117275
X9333Y127275
X9333Y137275
X9333Y147275
X9333Y157275
X9333Y167275
X9333Y177275
X29333Y192275
X49333Y192275
X69333Y192275
X79333Y192275
X109333Y192275
X119333Y192275
X149333Y177275
X149333Y167275
X149333Y157275
X149333Y147275
X149333Y137275
X149333Y127275
X149333Y117275
X149333Y107275
X134333Y97275
X124333Y97275
X124333Y117275
X124333Y127275
X149333Y87275
X149333Y77275
X149333Y47275
X139333Y47275
X124333Y47275
X124333Y37275
X124333Y27275
X121333Y14275
X111333Y14275
X131333Y14275
X141333Y14275
X151333Y14275
X149333Y27275
X139333Y27275
M30
